G04 EAGLE Gerber RS-274X export*
G75*
%MOMM*%
%FSLAX34Y34*%
%LPD*%
%INSoldermask Top*%
%IPPOS*%
%AMOC8*
5,1,8,0,0,1.08239X$1,22.5*%
G01*
%ADD10C,0.225588*%
%ADD11C,0.225369*%
%ADD12C,0.229969*%
%ADD13C,0.214619*%
%ADD14C,0.762000*%
%ADD15C,0.233100*%
%ADD16C,0.231750*%
%ADD17C,0.224709*%
%ADD18C,0.428259*%
%ADD19C,0.225400*%
%ADD20C,0.223409*%
%ADD21C,2.006600*%
%ADD22C,1.127000*%
%ADD23C,1.270000*%
%ADD24C,1.627000*%


D10*
X104507Y4543D02*
X93493Y4543D01*
X93493Y23557D01*
X104507Y23557D01*
X104507Y4543D01*
X104507Y6686D02*
X93493Y6686D01*
X93493Y8829D02*
X104507Y8829D01*
X104507Y10972D02*
X93493Y10972D01*
X93493Y13115D02*
X104507Y13115D01*
X104507Y15258D02*
X93493Y15258D01*
X93493Y17401D02*
X104507Y17401D01*
X104507Y19544D02*
X93493Y19544D01*
X93493Y21687D02*
X104507Y21687D01*
X149493Y4543D02*
X160507Y4543D01*
X149493Y4543D02*
X149493Y23557D01*
X160507Y23557D01*
X160507Y4543D01*
X160507Y6686D02*
X149493Y6686D01*
X149493Y8829D02*
X160507Y8829D01*
X160507Y10972D02*
X149493Y10972D01*
X149493Y13115D02*
X160507Y13115D01*
X160507Y15258D02*
X149493Y15258D01*
X149493Y17401D02*
X160507Y17401D01*
X160507Y19544D02*
X149493Y19544D01*
X149493Y21687D02*
X160507Y21687D01*
D11*
X114508Y44542D02*
X109492Y44542D01*
X109492Y57058D01*
X114508Y57058D01*
X114508Y44542D01*
X114508Y46683D02*
X109492Y46683D01*
X109492Y48824D02*
X114508Y48824D01*
X114508Y50965D02*
X109492Y50965D01*
X109492Y53106D02*
X114508Y53106D01*
X114508Y55247D02*
X109492Y55247D01*
X119492Y44542D02*
X124508Y44542D01*
X119492Y44542D02*
X119492Y57058D01*
X124508Y57058D01*
X124508Y44542D01*
X124508Y46683D02*
X119492Y46683D01*
X119492Y48824D02*
X124508Y48824D01*
X124508Y50965D02*
X119492Y50965D01*
X119492Y53106D02*
X124508Y53106D01*
X124508Y55247D02*
X119492Y55247D01*
X129492Y44542D02*
X134508Y44542D01*
X129492Y44542D02*
X129492Y57058D01*
X134508Y57058D01*
X134508Y44542D01*
X134508Y46683D02*
X129492Y46683D01*
X129492Y48824D02*
X134508Y48824D01*
X134508Y50965D02*
X129492Y50965D01*
X129492Y53106D02*
X134508Y53106D01*
X134508Y55247D02*
X129492Y55247D01*
X139492Y44542D02*
X144508Y44542D01*
X139492Y44542D02*
X139492Y57058D01*
X144508Y57058D01*
X144508Y44542D01*
X144508Y46683D02*
X139492Y46683D01*
X139492Y48824D02*
X144508Y48824D01*
X144508Y50965D02*
X139492Y50965D01*
X139492Y53106D02*
X144508Y53106D01*
X144508Y55247D02*
X139492Y55247D01*
D12*
X143765Y243765D02*
X145235Y243765D01*
X143765Y243765D02*
X143765Y246735D01*
X145235Y246735D01*
X145235Y243765D01*
X145235Y245950D02*
X143765Y245950D01*
X140235Y243765D02*
X138765Y243765D01*
X138765Y246735D01*
X140235Y246735D01*
X140235Y243765D01*
X140235Y245950D02*
X138765Y245950D01*
X135235Y243765D02*
X133765Y243765D01*
X133765Y246735D01*
X135235Y246735D01*
X135235Y243765D01*
X135235Y245950D02*
X133765Y245950D01*
X130235Y243765D02*
X128765Y243765D01*
X128765Y246735D01*
X130235Y246735D01*
X130235Y243765D01*
X130235Y245950D02*
X128765Y245950D01*
X125235Y243765D02*
X123765Y243765D01*
X123765Y246735D01*
X125235Y246735D01*
X125235Y243765D01*
X125235Y245950D02*
X123765Y245950D01*
X120235Y243765D02*
X118765Y243765D01*
X118765Y246735D01*
X120235Y246735D01*
X120235Y243765D01*
X120235Y245950D02*
X118765Y245950D01*
X115235Y243765D02*
X113765Y243765D01*
X113765Y246735D01*
X115235Y246735D01*
X115235Y243765D01*
X115235Y245950D02*
X113765Y245950D01*
X110235Y243765D02*
X108765Y243765D01*
X108765Y246735D01*
X110235Y246735D01*
X110235Y243765D01*
X110235Y245950D02*
X108765Y245950D01*
X105485Y240485D02*
X105485Y239015D01*
X102515Y239015D01*
X102515Y240485D01*
X105485Y240485D01*
X105485Y235485D02*
X105485Y234015D01*
X102515Y234015D01*
X102515Y235485D01*
X105485Y235485D01*
X105485Y230485D02*
X105485Y229015D01*
X102515Y229015D01*
X102515Y230485D01*
X105485Y230485D01*
X105485Y225485D02*
X105485Y224015D01*
X102515Y224015D01*
X102515Y225485D01*
X105485Y225485D01*
X105485Y220485D02*
X105485Y219015D01*
X102515Y219015D01*
X102515Y220485D01*
X105485Y220485D01*
X105485Y215485D02*
X105485Y214015D01*
X102515Y214015D01*
X102515Y215485D01*
X105485Y215485D01*
X105485Y210485D02*
X105485Y209015D01*
X102515Y209015D01*
X102515Y210485D01*
X105485Y210485D01*
X105485Y205485D02*
X105485Y204015D01*
X102515Y204015D01*
X102515Y205485D01*
X105485Y205485D01*
X108765Y200735D02*
X110235Y200735D01*
X110235Y197765D01*
X108765Y197765D01*
X108765Y200735D01*
X108765Y199950D02*
X110235Y199950D01*
X113765Y200735D02*
X115235Y200735D01*
X115235Y197765D01*
X113765Y197765D01*
X113765Y200735D01*
X113765Y199950D02*
X115235Y199950D01*
X118765Y200735D02*
X120235Y200735D01*
X120235Y197765D01*
X118765Y197765D01*
X118765Y200735D01*
X118765Y199950D02*
X120235Y199950D01*
X123765Y200735D02*
X125235Y200735D01*
X125235Y197765D01*
X123765Y197765D01*
X123765Y200735D01*
X123765Y199950D02*
X125235Y199950D01*
X128765Y200735D02*
X130235Y200735D01*
X130235Y197765D01*
X128765Y197765D01*
X128765Y200735D01*
X128765Y199950D02*
X130235Y199950D01*
X133765Y200735D02*
X135235Y200735D01*
X135235Y197765D01*
X133765Y197765D01*
X133765Y200735D01*
X133765Y199950D02*
X135235Y199950D01*
X138765Y200735D02*
X140235Y200735D01*
X140235Y197765D01*
X138765Y197765D01*
X138765Y200735D01*
X138765Y199950D02*
X140235Y199950D01*
X143765Y200735D02*
X145235Y200735D01*
X145235Y197765D01*
X143765Y197765D01*
X143765Y200735D01*
X143765Y199950D02*
X145235Y199950D01*
X148515Y204015D02*
X148515Y205485D01*
X151485Y205485D01*
X151485Y204015D01*
X148515Y204015D01*
X148515Y209015D02*
X148515Y210485D01*
X151485Y210485D01*
X151485Y209015D01*
X148515Y209015D01*
X148515Y214015D02*
X148515Y215485D01*
X151485Y215485D01*
X151485Y214015D01*
X148515Y214015D01*
X148515Y219015D02*
X148515Y220485D01*
X151485Y220485D01*
X151485Y219015D01*
X148515Y219015D01*
X148515Y224015D02*
X148515Y225485D01*
X151485Y225485D01*
X151485Y224015D01*
X148515Y224015D01*
X148515Y229015D02*
X148515Y230485D01*
X151485Y230485D01*
X151485Y229015D01*
X148515Y229015D01*
X148515Y234015D02*
X148515Y235485D01*
X151485Y235485D01*
X151485Y234015D01*
X148515Y234015D01*
X148515Y239015D02*
X148515Y240485D01*
X151485Y240485D01*
X151485Y239015D01*
X148515Y239015D01*
D13*
X110188Y239062D02*
X110188Y205438D01*
X110188Y239062D02*
X143812Y239062D01*
X143812Y205438D01*
X110188Y205438D01*
X110188Y207477D02*
X143812Y207477D01*
X143812Y209516D02*
X110188Y209516D01*
X110188Y211555D02*
X143812Y211555D01*
X143812Y213594D02*
X110188Y213594D01*
X110188Y215633D02*
X143812Y215633D01*
X143812Y217672D02*
X110188Y217672D01*
X110188Y219711D02*
X143812Y219711D01*
X143812Y221750D02*
X110188Y221750D01*
X110188Y223789D02*
X143812Y223789D01*
X143812Y225828D02*
X110188Y225828D01*
X110188Y227867D02*
X143812Y227867D01*
X143812Y229906D02*
X110188Y229906D01*
X110188Y231945D02*
X143812Y231945D01*
X143812Y233984D02*
X110188Y233984D01*
X110188Y236023D02*
X143812Y236023D01*
X143812Y238062D02*
X110188Y238062D01*
D11*
X82010Y243058D02*
X82010Y248074D01*
X87026Y248074D01*
X87026Y243058D01*
X82010Y243058D01*
X82010Y245199D02*
X87026Y245199D01*
X87026Y247340D02*
X82010Y247340D01*
X82010Y238074D02*
X82010Y233058D01*
X82010Y238074D02*
X87026Y238074D01*
X87026Y233058D01*
X82010Y233058D01*
X82010Y235199D02*
X87026Y235199D01*
X87026Y237340D02*
X82010Y237340D01*
X95749Y244903D02*
X99295Y248449D01*
X95749Y244903D02*
X92203Y248449D01*
X95749Y251995D01*
X99295Y248449D01*
X97890Y247044D02*
X93608Y247044D01*
X92939Y249185D02*
X98559Y249185D01*
X96418Y251326D02*
X95080Y251326D01*
X102820Y251974D02*
X106366Y255520D01*
X102820Y251974D02*
X99274Y255520D01*
X102820Y259066D01*
X106366Y255520D01*
X104961Y254115D02*
X100679Y254115D01*
X100010Y256256D02*
X105630Y256256D01*
X103489Y258397D02*
X102151Y258397D01*
X91935Y256592D02*
X88389Y253046D01*
X84843Y256592D01*
X88389Y260138D01*
X91935Y256592D01*
X90530Y255187D02*
X86248Y255187D01*
X85579Y257328D02*
X91199Y257328D01*
X89058Y259469D02*
X87720Y259469D01*
X95460Y260118D02*
X99006Y263664D01*
X95460Y260118D02*
X91914Y263664D01*
X95460Y267210D01*
X99006Y263664D01*
X97601Y262259D02*
X93319Y262259D01*
X92650Y264400D02*
X98270Y264400D01*
X96129Y266541D02*
X94791Y266541D01*
X179225Y218789D02*
X184241Y218789D01*
X184241Y213773D01*
X179225Y213773D01*
X179225Y218789D01*
X179225Y215914D02*
X184241Y215914D01*
X184241Y218055D02*
X179225Y218055D01*
X174241Y218789D02*
X169225Y218789D01*
X174241Y218789D02*
X174241Y213773D01*
X169225Y213773D01*
X169225Y218789D01*
X169225Y215914D02*
X174241Y215914D01*
X174241Y218055D02*
X169225Y218055D01*
X161198Y262379D02*
X156182Y262379D01*
X161198Y262379D02*
X161198Y257363D01*
X156182Y257363D01*
X156182Y262379D01*
X156182Y259504D02*
X161198Y259504D01*
X161198Y261645D02*
X156182Y261645D01*
X151198Y262379D02*
X146182Y262379D01*
X151198Y262379D02*
X151198Y257363D01*
X146182Y257363D01*
X146182Y262379D01*
X146182Y259504D02*
X151198Y259504D01*
X151198Y261645D02*
X146182Y261645D01*
X73904Y41548D02*
X68888Y41548D01*
X73904Y41548D02*
X73904Y36532D01*
X68888Y36532D01*
X68888Y41548D01*
X68888Y38673D02*
X73904Y38673D01*
X73904Y40814D02*
X68888Y40814D01*
X63904Y41548D02*
X58888Y41548D01*
X63904Y41548D02*
X63904Y36532D01*
X58888Y36532D01*
X58888Y41548D01*
X58888Y38673D02*
X63904Y38673D01*
X63904Y40814D02*
X58888Y40814D01*
X68989Y51505D02*
X74005Y51505D01*
X74005Y46489D01*
X68989Y46489D01*
X68989Y51505D01*
X68989Y48630D02*
X74005Y48630D01*
X74005Y50771D02*
X68989Y50771D01*
X64005Y51505D02*
X58989Y51505D01*
X64005Y51505D02*
X64005Y46489D01*
X58989Y46489D01*
X58989Y51505D01*
X58989Y48630D02*
X64005Y48630D01*
X64005Y50771D02*
X58989Y50771D01*
D14*
X20787Y25357D03*
X226226Y400021D03*
D15*
X70963Y250555D02*
X70963Y242615D01*
X70963Y250555D02*
X76403Y250555D01*
X76403Y242615D01*
X70963Y242615D01*
X70963Y244829D02*
X76403Y244829D01*
X76403Y247043D02*
X70963Y247043D01*
X70963Y249257D02*
X76403Y249257D01*
X54463Y250555D02*
X54463Y242615D01*
X54463Y250555D02*
X59903Y250555D01*
X59903Y242615D01*
X54463Y242615D01*
X54463Y244829D02*
X59903Y244829D01*
X59903Y247043D02*
X54463Y247043D01*
X54463Y249257D02*
X59903Y249257D01*
X54463Y229555D02*
X54463Y221615D01*
X54463Y229555D02*
X59903Y229555D01*
X59903Y221615D01*
X54463Y221615D01*
X54463Y223829D02*
X59903Y223829D01*
X59903Y226043D02*
X54463Y226043D01*
X54463Y228257D02*
X59903Y228257D01*
X70963Y229555D02*
X70963Y221615D01*
X70963Y229555D02*
X76403Y229555D01*
X76403Y221615D01*
X70963Y221615D01*
X70963Y223829D02*
X76403Y223829D01*
X76403Y226043D02*
X70963Y226043D01*
X70963Y228257D02*
X76403Y228257D01*
D11*
X73540Y260525D02*
X68524Y260525D01*
X73540Y260525D02*
X73540Y255509D01*
X68524Y255509D01*
X68524Y260525D01*
X68524Y257650D02*
X73540Y257650D01*
X73540Y259791D02*
X68524Y259791D01*
X63540Y260525D02*
X58524Y260525D01*
X63540Y260525D02*
X63540Y255509D01*
X58524Y255509D01*
X58524Y260525D01*
X58524Y257650D02*
X63540Y257650D01*
X63540Y259791D02*
X58524Y259791D01*
D16*
X160767Y174096D02*
X160767Y167144D01*
X160767Y174096D02*
X171719Y174096D01*
X171719Y167144D01*
X160767Y167144D01*
X160767Y169346D02*
X171719Y169346D01*
X171719Y171548D02*
X160767Y171548D01*
X160767Y173750D02*
X171719Y173750D01*
X160767Y156096D02*
X160767Y149144D01*
X160767Y156096D02*
X171719Y156096D01*
X171719Y149144D01*
X160767Y149144D01*
X160767Y151346D02*
X171719Y151346D01*
X171719Y153548D02*
X160767Y153548D01*
X160767Y155750D02*
X171719Y155750D01*
X177455Y167144D02*
X177455Y174096D01*
X188407Y174096D01*
X188407Y167144D01*
X177455Y167144D01*
X177455Y169346D02*
X188407Y169346D01*
X188407Y171548D02*
X177455Y171548D01*
X177455Y173750D02*
X188407Y173750D01*
X177455Y156096D02*
X177455Y149144D01*
X177455Y156096D02*
X188407Y156096D01*
X188407Y149144D01*
X177455Y149144D01*
X177455Y151346D02*
X188407Y151346D01*
X188407Y153548D02*
X177455Y153548D01*
X177455Y155750D02*
X188407Y155750D01*
X144003Y167144D02*
X144003Y174096D01*
X154955Y174096D01*
X154955Y167144D01*
X144003Y167144D01*
X144003Y169346D02*
X154955Y169346D01*
X154955Y171548D02*
X144003Y171548D01*
X144003Y173750D02*
X154955Y173750D01*
X144003Y156096D02*
X144003Y149144D01*
X144003Y156096D02*
X154955Y156096D01*
X154955Y149144D01*
X144003Y149144D01*
X144003Y151346D02*
X154955Y151346D01*
X154955Y153548D02*
X144003Y153548D01*
X144003Y155750D02*
X154955Y155750D01*
X107224Y167068D02*
X107224Y174020D01*
X118176Y174020D01*
X118176Y167068D01*
X107224Y167068D01*
X107224Y169270D02*
X118176Y169270D01*
X118176Y171472D02*
X107224Y171472D01*
X107224Y173674D02*
X118176Y173674D01*
X107224Y156020D02*
X107224Y149068D01*
X107224Y156020D02*
X118176Y156020D01*
X118176Y149068D01*
X107224Y149068D01*
X107224Y151270D02*
X118176Y151270D01*
X118176Y153472D02*
X107224Y153472D01*
X107224Y155674D02*
X118176Y155674D01*
D17*
X167697Y139165D02*
X175221Y139165D01*
X175221Y131141D01*
X167697Y131141D01*
X167697Y139165D01*
X167697Y133276D02*
X175221Y133276D01*
X175221Y135411D02*
X167697Y135411D01*
X167697Y137546D02*
X175221Y137546D01*
X163621Y139165D02*
X156097Y139165D01*
X163621Y139165D02*
X163621Y131141D01*
X156097Y131141D01*
X156097Y139165D01*
X156097Y133276D02*
X163621Y133276D01*
X163621Y135411D02*
X156097Y135411D01*
X156097Y137546D02*
X163621Y137546D01*
X180811Y122505D02*
X188335Y122505D01*
X180811Y122505D02*
X180811Y130529D01*
X188335Y130529D01*
X188335Y122505D01*
X188335Y124640D02*
X180811Y124640D01*
X180811Y126775D02*
X188335Y126775D01*
X188335Y128910D02*
X180811Y128910D01*
X192411Y122505D02*
X199935Y122505D01*
X192411Y122505D02*
X192411Y130529D01*
X199935Y130529D01*
X199935Y122505D01*
X199935Y124640D02*
X192411Y124640D01*
X192411Y126775D02*
X199935Y126775D01*
X199935Y128910D02*
X192411Y128910D01*
X150481Y139191D02*
X142957Y139191D01*
X150481Y139191D02*
X150481Y131167D01*
X142957Y131167D01*
X142957Y139191D01*
X142957Y133302D02*
X150481Y133302D01*
X150481Y135437D02*
X142957Y135437D01*
X142957Y137572D02*
X150481Y137572D01*
X138881Y139191D02*
X131357Y139191D01*
X138881Y139191D02*
X138881Y131167D01*
X131357Y131167D01*
X131357Y139191D01*
X131357Y133302D02*
X138881Y133302D01*
X138881Y135437D02*
X131357Y135437D01*
X131357Y137572D02*
X138881Y137572D01*
X113913Y131116D02*
X106389Y131116D01*
X106389Y139140D01*
X113913Y139140D01*
X113913Y131116D01*
X113913Y133251D02*
X106389Y133251D01*
X106389Y135386D02*
X113913Y135386D01*
X113913Y137521D02*
X106389Y137521D01*
X117989Y131116D02*
X125513Y131116D01*
X117989Y131116D02*
X117989Y139140D01*
X125513Y139140D01*
X125513Y131116D01*
X125513Y133251D02*
X117989Y133251D01*
X117989Y135386D02*
X125513Y135386D01*
X125513Y137521D02*
X117989Y137521D01*
D18*
X167956Y16949D02*
X174944Y16949D01*
X174944Y9961D01*
X167956Y9961D01*
X167956Y16949D01*
X167956Y14030D02*
X174944Y14030D01*
X174944Y34489D02*
X167956Y34489D01*
X174944Y34489D02*
X174944Y27501D01*
X167956Y27501D01*
X167956Y34489D01*
X167956Y31570D02*
X174944Y31570D01*
D11*
X201882Y27908D02*
X206898Y27908D01*
X206898Y22892D01*
X201882Y22892D01*
X201882Y27908D01*
X201882Y25033D02*
X206898Y25033D01*
X206898Y27174D02*
X201882Y27174D01*
X196898Y27908D02*
X191882Y27908D01*
X196898Y27908D02*
X196898Y22892D01*
X191882Y22892D01*
X191882Y27908D01*
X191882Y25033D02*
X196898Y25033D01*
X196898Y27174D02*
X191882Y27174D01*
X130842Y288242D02*
X130842Y293258D01*
X135858Y293258D01*
X135858Y288242D01*
X130842Y288242D01*
X130842Y290383D02*
X135858Y290383D01*
X135858Y292524D02*
X130842Y292524D01*
X130842Y283258D02*
X130842Y278242D01*
X130842Y283258D02*
X135858Y283258D01*
X135858Y278242D01*
X130842Y278242D01*
X130842Y280383D02*
X135858Y280383D01*
X135858Y282524D02*
X130842Y282524D01*
X143542Y288242D02*
X143542Y293258D01*
X148558Y293258D01*
X148558Y288242D01*
X143542Y288242D01*
X143542Y290383D02*
X148558Y290383D01*
X148558Y292524D02*
X143542Y292524D01*
X143542Y283258D02*
X143542Y278242D01*
X143542Y283258D02*
X148558Y283258D01*
X148558Y278242D01*
X143542Y278242D01*
X143542Y280383D02*
X148558Y280383D01*
X148558Y282524D02*
X143542Y282524D01*
X134017Y310467D02*
X134017Y315483D01*
X139033Y315483D01*
X139033Y310467D01*
X134017Y310467D01*
X134017Y312608D02*
X139033Y312608D01*
X139033Y314749D02*
X134017Y314749D01*
X134017Y305483D02*
X134017Y300467D01*
X134017Y305483D02*
X139033Y305483D01*
X139033Y300467D01*
X134017Y300467D01*
X134017Y302608D02*
X139033Y302608D01*
X139033Y304749D02*
X134017Y304749D01*
X149892Y310467D02*
X149892Y315483D01*
X154908Y315483D01*
X154908Y310467D01*
X149892Y310467D01*
X149892Y312608D02*
X154908Y312608D01*
X154908Y314749D02*
X149892Y314749D01*
X149892Y305483D02*
X149892Y300467D01*
X149892Y305483D02*
X154908Y305483D01*
X154908Y300467D01*
X149892Y300467D01*
X149892Y302608D02*
X154908Y302608D01*
X154908Y304749D02*
X149892Y304749D01*
X154908Y322692D02*
X154908Y327708D01*
X154908Y322692D02*
X149892Y322692D01*
X149892Y327708D01*
X154908Y327708D01*
X154908Y324833D02*
X149892Y324833D01*
X149892Y326974D02*
X154908Y326974D01*
X154908Y332692D02*
X154908Y337708D01*
X154908Y332692D02*
X149892Y332692D01*
X149892Y337708D01*
X154908Y337708D01*
X154908Y334833D02*
X149892Y334833D01*
X149892Y336974D02*
X154908Y336974D01*
X139033Y327708D02*
X139033Y322692D01*
X134017Y322692D01*
X134017Y327708D01*
X139033Y327708D01*
X139033Y324833D02*
X134017Y324833D01*
X134017Y326974D02*
X139033Y326974D01*
X139033Y332692D02*
X139033Y337708D01*
X139033Y332692D02*
X134017Y332692D01*
X134017Y337708D01*
X139033Y337708D01*
X139033Y334833D02*
X134017Y334833D01*
X134017Y336974D02*
X139033Y336974D01*
X165767Y315483D02*
X165767Y310467D01*
X165767Y315483D02*
X170783Y315483D01*
X170783Y310467D01*
X165767Y310467D01*
X165767Y312608D02*
X170783Y312608D01*
X170783Y314749D02*
X165767Y314749D01*
X165767Y305483D02*
X165767Y300467D01*
X165767Y305483D02*
X170783Y305483D01*
X170783Y300467D01*
X165767Y300467D01*
X165767Y302608D02*
X170783Y302608D01*
X170783Y304749D02*
X165767Y304749D01*
X114967Y310467D02*
X114967Y315483D01*
X119983Y315483D01*
X119983Y310467D01*
X114967Y310467D01*
X114967Y312608D02*
X119983Y312608D01*
X119983Y314749D02*
X114967Y314749D01*
X114967Y305483D02*
X114967Y300467D01*
X114967Y305483D02*
X119983Y305483D01*
X119983Y300467D01*
X114967Y300467D01*
X114967Y302608D02*
X119983Y302608D01*
X119983Y304749D02*
X114967Y304749D01*
X99092Y310467D02*
X99092Y315483D01*
X104108Y315483D01*
X104108Y310467D01*
X99092Y310467D01*
X99092Y312608D02*
X104108Y312608D01*
X104108Y314749D02*
X99092Y314749D01*
X99092Y305483D02*
X99092Y300467D01*
X99092Y305483D02*
X104108Y305483D01*
X104108Y300467D01*
X99092Y300467D01*
X99092Y302608D02*
X104108Y302608D01*
X104108Y304749D02*
X99092Y304749D01*
X83217Y310467D02*
X83217Y315483D01*
X88233Y315483D01*
X88233Y310467D01*
X83217Y310467D01*
X83217Y312608D02*
X88233Y312608D01*
X88233Y314749D02*
X83217Y314749D01*
X83217Y305483D02*
X83217Y300467D01*
X83217Y305483D02*
X88233Y305483D01*
X88233Y300467D01*
X83217Y300467D01*
X83217Y302608D02*
X88233Y302608D01*
X88233Y304749D02*
X83217Y304749D01*
X156242Y293258D02*
X156242Y288242D01*
X156242Y293258D02*
X161258Y293258D01*
X161258Y288242D01*
X156242Y288242D01*
X156242Y290383D02*
X161258Y290383D01*
X161258Y292524D02*
X156242Y292524D01*
X156242Y283258D02*
X156242Y278242D01*
X156242Y283258D02*
X161258Y283258D01*
X161258Y278242D01*
X156242Y278242D01*
X156242Y280383D02*
X161258Y280383D01*
X161258Y282524D02*
X156242Y282524D01*
X118142Y288242D02*
X118142Y293258D01*
X123158Y293258D01*
X123158Y288242D01*
X118142Y288242D01*
X118142Y290383D02*
X123158Y290383D01*
X123158Y292524D02*
X118142Y292524D01*
X118142Y283258D02*
X118142Y278242D01*
X118142Y283258D02*
X123158Y283258D01*
X123158Y278242D01*
X118142Y278242D01*
X118142Y280383D02*
X123158Y280383D01*
X123158Y282524D02*
X118142Y282524D01*
X105442Y288242D02*
X105442Y293258D01*
X110458Y293258D01*
X110458Y288242D01*
X105442Y288242D01*
X105442Y290383D02*
X110458Y290383D01*
X110458Y292524D02*
X105442Y292524D01*
X105442Y283258D02*
X105442Y278242D01*
X105442Y283258D02*
X110458Y283258D01*
X110458Y278242D01*
X105442Y278242D01*
X105442Y280383D02*
X110458Y280383D01*
X110458Y282524D02*
X105442Y282524D01*
X92742Y288242D02*
X92742Y293258D01*
X97758Y293258D01*
X97758Y288242D01*
X92742Y288242D01*
X92742Y290383D02*
X97758Y290383D01*
X97758Y292524D02*
X92742Y292524D01*
X92742Y283258D02*
X92742Y278242D01*
X92742Y283258D02*
X97758Y283258D01*
X97758Y278242D01*
X92742Y278242D01*
X92742Y280383D02*
X97758Y280383D01*
X97758Y282524D02*
X92742Y282524D01*
X170783Y322692D02*
X170783Y327708D01*
X170783Y322692D02*
X165767Y322692D01*
X165767Y327708D01*
X170783Y327708D01*
X170783Y324833D02*
X165767Y324833D01*
X165767Y326974D02*
X170783Y326974D01*
X170783Y332692D02*
X170783Y337708D01*
X170783Y332692D02*
X165767Y332692D01*
X165767Y337708D01*
X170783Y337708D01*
X170783Y334833D02*
X165767Y334833D01*
X165767Y336974D02*
X170783Y336974D01*
X119983Y327708D02*
X119983Y322692D01*
X114967Y322692D01*
X114967Y327708D01*
X119983Y327708D01*
X119983Y324833D02*
X114967Y324833D01*
X114967Y326974D02*
X119983Y326974D01*
X119983Y332692D02*
X119983Y337708D01*
X119983Y332692D02*
X114967Y332692D01*
X114967Y337708D01*
X119983Y337708D01*
X119983Y334833D02*
X114967Y334833D01*
X114967Y336974D02*
X119983Y336974D01*
X104108Y327708D02*
X104108Y322692D01*
X99092Y322692D01*
X99092Y327708D01*
X104108Y327708D01*
X104108Y324833D02*
X99092Y324833D01*
X99092Y326974D02*
X104108Y326974D01*
X104108Y332692D02*
X104108Y337708D01*
X104108Y332692D02*
X99092Y332692D01*
X99092Y337708D01*
X104108Y337708D01*
X104108Y334833D02*
X99092Y334833D01*
X99092Y336974D02*
X104108Y336974D01*
X88233Y327708D02*
X88233Y322692D01*
X83217Y322692D01*
X83217Y327708D01*
X88233Y327708D01*
X88233Y324833D02*
X83217Y324833D01*
X83217Y326974D02*
X88233Y326974D01*
X88233Y332692D02*
X88233Y337708D01*
X88233Y332692D02*
X83217Y332692D01*
X83217Y337708D01*
X88233Y337708D01*
X88233Y334833D02*
X83217Y334833D01*
X83217Y336974D02*
X88233Y336974D01*
X55023Y91201D02*
X55023Y86185D01*
X55023Y91201D02*
X60039Y91201D01*
X60039Y86185D01*
X55023Y86185D01*
X55023Y88326D02*
X60039Y88326D01*
X60039Y90467D02*
X55023Y90467D01*
X55023Y81201D02*
X55023Y76185D01*
X55023Y81201D02*
X60039Y81201D01*
X60039Y76185D01*
X55023Y76185D01*
X55023Y78326D02*
X60039Y78326D01*
X60039Y80467D02*
X55023Y80467D01*
X173942Y252190D02*
X178958Y252190D01*
X178958Y247174D01*
X173942Y247174D01*
X173942Y252190D01*
X173942Y249315D02*
X178958Y249315D01*
X178958Y251456D02*
X173942Y251456D01*
X168958Y252190D02*
X163942Y252190D01*
X168958Y252190D02*
X168958Y247174D01*
X163942Y247174D01*
X163942Y252190D01*
X163942Y249315D02*
X168958Y249315D01*
X168958Y251456D02*
X163942Y251456D01*
D19*
X126353Y175001D02*
X126353Y164985D01*
X126353Y175001D02*
X135369Y175001D01*
X135369Y164985D01*
X126353Y164985D01*
X126353Y167126D02*
X135369Y167126D01*
X135369Y169267D02*
X126353Y169267D01*
X126353Y171408D02*
X135369Y171408D01*
X135369Y173549D02*
X126353Y173549D01*
X126353Y158001D02*
X126353Y147985D01*
X126353Y158001D02*
X135369Y158001D01*
X135369Y147985D01*
X126353Y147985D01*
X126353Y150126D02*
X135369Y150126D01*
X135369Y152267D02*
X126353Y152267D01*
X126353Y154408D02*
X135369Y154408D01*
X135369Y156549D02*
X126353Y156549D01*
X163301Y198362D02*
X173317Y198362D01*
X163301Y198362D02*
X163301Y207378D01*
X173317Y207378D01*
X173317Y198362D01*
X173317Y200503D02*
X163301Y200503D01*
X163301Y202644D02*
X173317Y202644D01*
X173317Y204785D02*
X163301Y204785D01*
X163301Y206926D02*
X173317Y206926D01*
X180301Y198362D02*
X190317Y198362D01*
X180301Y198362D02*
X180301Y207378D01*
X190317Y207378D01*
X190317Y198362D01*
X190317Y200503D02*
X180301Y200503D01*
X180301Y202644D02*
X190317Y202644D01*
X190317Y204785D02*
X180301Y204785D01*
X180301Y206926D02*
X190317Y206926D01*
D11*
X67358Y175292D02*
X62342Y175292D01*
X62342Y180308D01*
X67358Y180308D01*
X67358Y175292D01*
X67358Y177433D02*
X62342Y177433D01*
X62342Y179574D02*
X67358Y179574D01*
X72342Y175292D02*
X77358Y175292D01*
X72342Y175292D02*
X72342Y180308D01*
X77358Y180308D01*
X77358Y175292D01*
X77358Y177433D02*
X72342Y177433D01*
X72342Y179574D02*
X77358Y179574D01*
X67358Y194342D02*
X62342Y194342D01*
X62342Y199358D01*
X67358Y199358D01*
X67358Y194342D01*
X67358Y196483D02*
X62342Y196483D01*
X62342Y198624D02*
X67358Y198624D01*
X72342Y194342D02*
X77358Y194342D01*
X72342Y194342D02*
X72342Y199358D01*
X77358Y199358D01*
X77358Y194342D01*
X77358Y196483D02*
X72342Y196483D01*
X72342Y198624D02*
X77358Y198624D01*
X67358Y203867D02*
X62342Y203867D01*
X62342Y208883D01*
X67358Y208883D01*
X67358Y203867D01*
X67358Y206008D02*
X62342Y206008D01*
X62342Y208149D02*
X67358Y208149D01*
X72342Y203867D02*
X77358Y203867D01*
X72342Y203867D02*
X72342Y208883D01*
X77358Y208883D01*
X77358Y203867D01*
X77358Y206008D02*
X72342Y206008D01*
X72342Y208149D02*
X77358Y208149D01*
X67358Y165767D02*
X62342Y165767D01*
X62342Y170783D01*
X67358Y170783D01*
X67358Y165767D01*
X67358Y167908D02*
X62342Y167908D01*
X62342Y170049D02*
X67358Y170049D01*
X72342Y165767D02*
X77358Y165767D01*
X72342Y165767D02*
X72342Y170783D01*
X77358Y170783D01*
X77358Y165767D01*
X77358Y167908D02*
X72342Y167908D01*
X72342Y170049D02*
X77358Y170049D01*
X67358Y184817D02*
X62342Y184817D01*
X62342Y189833D01*
X67358Y189833D01*
X67358Y184817D01*
X67358Y186958D02*
X62342Y186958D01*
X62342Y189099D02*
X67358Y189099D01*
X72342Y184817D02*
X77358Y184817D01*
X72342Y184817D02*
X72342Y189833D01*
X77358Y189833D01*
X77358Y184817D01*
X77358Y186958D02*
X72342Y186958D01*
X72342Y189099D02*
X77358Y189099D01*
X117634Y90947D02*
X117634Y85931D01*
X117634Y90947D02*
X122650Y90947D01*
X122650Y85931D01*
X117634Y85931D01*
X117634Y88072D02*
X122650Y88072D01*
X122650Y90213D02*
X117634Y90213D01*
X117634Y80947D02*
X117634Y75931D01*
X117634Y80947D02*
X122650Y80947D01*
X122650Y75931D01*
X117634Y75931D01*
X117634Y78072D02*
X122650Y78072D01*
X122650Y80213D02*
X117634Y80213D01*
D20*
X73556Y86226D02*
X73556Y90762D01*
X84592Y90762D01*
X84592Y86226D01*
X73556Y86226D01*
X73556Y88348D02*
X84592Y88348D01*
X84592Y90470D02*
X73556Y90470D01*
X73556Y81262D02*
X73556Y76726D01*
X73556Y81262D02*
X84592Y81262D01*
X84592Y76726D01*
X73556Y76726D01*
X73556Y78848D02*
X84592Y78848D01*
X84592Y80970D02*
X73556Y80970D01*
X73556Y71762D02*
X73556Y67226D01*
X73556Y71762D02*
X84592Y71762D01*
X84592Y67226D01*
X73556Y67226D01*
X73556Y69348D02*
X84592Y69348D01*
X84592Y71470D02*
X73556Y71470D01*
X99558Y71762D02*
X99558Y67226D01*
X99558Y71762D02*
X110594Y71762D01*
X110594Y67226D01*
X99558Y67226D01*
X99558Y69348D02*
X110594Y69348D01*
X110594Y71470D02*
X99558Y71470D01*
X99558Y86226D02*
X99558Y90762D01*
X110594Y90762D01*
X110594Y86226D01*
X99558Y86226D01*
X99558Y88348D02*
X110594Y88348D01*
X110594Y90470D02*
X99558Y90470D01*
D11*
X130334Y91201D02*
X130334Y86185D01*
X130334Y91201D02*
X135350Y91201D01*
X135350Y86185D01*
X130334Y86185D01*
X130334Y88326D02*
X135350Y88326D01*
X135350Y90467D02*
X130334Y90467D01*
X130334Y81201D02*
X130334Y76185D01*
X130334Y81201D02*
X135350Y81201D01*
X135350Y76185D01*
X130334Y76185D01*
X130334Y78326D02*
X135350Y78326D01*
X135350Y80467D02*
X130334Y80467D01*
X59316Y70906D02*
X59316Y65890D01*
X59316Y70906D02*
X64332Y70906D01*
X64332Y65890D01*
X59316Y65890D01*
X59316Y68031D02*
X64332Y68031D01*
X64332Y70172D02*
X59316Y70172D01*
X59316Y60906D02*
X59316Y55890D01*
X59316Y60906D02*
X64332Y60906D01*
X64332Y55890D01*
X59316Y55890D01*
X59316Y58031D02*
X64332Y58031D01*
X64332Y60172D02*
X59316Y60172D01*
X64167Y86058D02*
X64167Y91074D01*
X69183Y91074D01*
X69183Y86058D01*
X64167Y86058D01*
X64167Y88199D02*
X69183Y88199D01*
X69183Y90340D02*
X64167Y90340D01*
X64167Y81074D02*
X64167Y76058D01*
X64167Y81074D02*
X69183Y81074D01*
X69183Y76058D01*
X64167Y76058D01*
X64167Y78199D02*
X69183Y78199D01*
X69183Y80340D02*
X64167Y80340D01*
X83676Y214973D02*
X87222Y218519D01*
X83676Y214973D02*
X80130Y218519D01*
X83676Y222065D01*
X87222Y218519D01*
X85817Y217114D02*
X81535Y217114D01*
X80866Y219255D02*
X86486Y219255D01*
X84345Y221396D02*
X83007Y221396D01*
X90747Y222045D02*
X94293Y225591D01*
X90747Y222045D02*
X87201Y225591D01*
X90747Y229137D01*
X94293Y225591D01*
X92888Y224186D02*
X88606Y224186D01*
X87937Y226327D02*
X93557Y226327D01*
X91416Y228468D02*
X90078Y228468D01*
D21*
X12700Y12700D03*
X12700Y38100D03*
X12700Y63500D03*
X12700Y88900D03*
X12700Y114300D03*
X12700Y139700D03*
X12700Y165100D03*
X12700Y190500D03*
X12700Y215900D03*
X12700Y241300D03*
X12700Y266700D03*
X12700Y292100D03*
X12700Y317500D03*
X12700Y342900D03*
X12700Y368300D03*
X12700Y393700D03*
X241300Y12700D03*
X241300Y38100D03*
X241300Y63500D03*
X241300Y88900D03*
X241300Y114300D03*
X241300Y139700D03*
X241300Y165100D03*
X241300Y190500D03*
X241300Y215900D03*
X241300Y241300D03*
X241300Y266700D03*
X241300Y292100D03*
X241300Y317500D03*
X241300Y342900D03*
X241300Y368300D03*
X241300Y393700D03*
D10*
X352573Y4543D02*
X363587Y4543D01*
X352573Y4543D02*
X352573Y23557D01*
X363587Y23557D01*
X363587Y4543D01*
X363587Y6686D02*
X352573Y6686D01*
X352573Y8829D02*
X363587Y8829D01*
X363587Y10972D02*
X352573Y10972D01*
X352573Y13115D02*
X363587Y13115D01*
X363587Y15258D02*
X352573Y15258D01*
X352573Y17401D02*
X363587Y17401D01*
X363587Y19544D02*
X352573Y19544D01*
X352573Y21687D02*
X363587Y21687D01*
X408573Y4543D02*
X419587Y4543D01*
X408573Y4543D02*
X408573Y23557D01*
X419587Y23557D01*
X419587Y4543D01*
X419587Y6686D02*
X408573Y6686D01*
X408573Y8829D02*
X419587Y8829D01*
X419587Y10972D02*
X408573Y10972D01*
X408573Y13115D02*
X419587Y13115D01*
X419587Y15258D02*
X408573Y15258D01*
X408573Y17401D02*
X419587Y17401D01*
X419587Y19544D02*
X408573Y19544D01*
X408573Y21687D02*
X419587Y21687D01*
D11*
X373588Y44542D02*
X368572Y44542D01*
X368572Y57058D01*
X373588Y57058D01*
X373588Y44542D01*
X373588Y46683D02*
X368572Y46683D01*
X368572Y48824D02*
X373588Y48824D01*
X373588Y50965D02*
X368572Y50965D01*
X368572Y53106D02*
X373588Y53106D01*
X373588Y55247D02*
X368572Y55247D01*
X378572Y44542D02*
X383588Y44542D01*
X378572Y44542D02*
X378572Y57058D01*
X383588Y57058D01*
X383588Y44542D01*
X383588Y46683D02*
X378572Y46683D01*
X378572Y48824D02*
X383588Y48824D01*
X383588Y50965D02*
X378572Y50965D01*
X378572Y53106D02*
X383588Y53106D01*
X383588Y55247D02*
X378572Y55247D01*
X388572Y44542D02*
X393588Y44542D01*
X388572Y44542D02*
X388572Y57058D01*
X393588Y57058D01*
X393588Y44542D01*
X393588Y46683D02*
X388572Y46683D01*
X388572Y48824D02*
X393588Y48824D01*
X393588Y50965D02*
X388572Y50965D01*
X388572Y53106D02*
X393588Y53106D01*
X393588Y55247D02*
X388572Y55247D01*
X398572Y44542D02*
X403588Y44542D01*
X398572Y44542D02*
X398572Y57058D01*
X403588Y57058D01*
X403588Y44542D01*
X403588Y46683D02*
X398572Y46683D01*
X398572Y48824D02*
X403588Y48824D01*
X403588Y50965D02*
X398572Y50965D01*
X398572Y53106D02*
X403588Y53106D01*
X403588Y55247D02*
X398572Y55247D01*
D12*
X402845Y243765D02*
X404315Y243765D01*
X402845Y243765D02*
X402845Y246735D01*
X404315Y246735D01*
X404315Y243765D01*
X404315Y245950D02*
X402845Y245950D01*
X399315Y243765D02*
X397845Y243765D01*
X397845Y246735D01*
X399315Y246735D01*
X399315Y243765D01*
X399315Y245950D02*
X397845Y245950D01*
X394315Y243765D02*
X392845Y243765D01*
X392845Y246735D01*
X394315Y246735D01*
X394315Y243765D01*
X394315Y245950D02*
X392845Y245950D01*
X389315Y243765D02*
X387845Y243765D01*
X387845Y246735D01*
X389315Y246735D01*
X389315Y243765D01*
X389315Y245950D02*
X387845Y245950D01*
X384315Y243765D02*
X382845Y243765D01*
X382845Y246735D01*
X384315Y246735D01*
X384315Y243765D01*
X384315Y245950D02*
X382845Y245950D01*
X379315Y243765D02*
X377845Y243765D01*
X377845Y246735D01*
X379315Y246735D01*
X379315Y243765D01*
X379315Y245950D02*
X377845Y245950D01*
X374315Y243765D02*
X372845Y243765D01*
X372845Y246735D01*
X374315Y246735D01*
X374315Y243765D01*
X374315Y245950D02*
X372845Y245950D01*
X369315Y243765D02*
X367845Y243765D01*
X367845Y246735D01*
X369315Y246735D01*
X369315Y243765D01*
X369315Y245950D02*
X367845Y245950D01*
X364565Y240485D02*
X364565Y239015D01*
X361595Y239015D01*
X361595Y240485D01*
X364565Y240485D01*
X364565Y235485D02*
X364565Y234015D01*
X361595Y234015D01*
X361595Y235485D01*
X364565Y235485D01*
X364565Y230485D02*
X364565Y229015D01*
X361595Y229015D01*
X361595Y230485D01*
X364565Y230485D01*
X364565Y225485D02*
X364565Y224015D01*
X361595Y224015D01*
X361595Y225485D01*
X364565Y225485D01*
X364565Y220485D02*
X364565Y219015D01*
X361595Y219015D01*
X361595Y220485D01*
X364565Y220485D01*
X364565Y215485D02*
X364565Y214015D01*
X361595Y214015D01*
X361595Y215485D01*
X364565Y215485D01*
X364565Y210485D02*
X364565Y209015D01*
X361595Y209015D01*
X361595Y210485D01*
X364565Y210485D01*
X364565Y205485D02*
X364565Y204015D01*
X361595Y204015D01*
X361595Y205485D01*
X364565Y205485D01*
X367845Y200735D02*
X369315Y200735D01*
X369315Y197765D01*
X367845Y197765D01*
X367845Y200735D01*
X367845Y199950D02*
X369315Y199950D01*
X372845Y200735D02*
X374315Y200735D01*
X374315Y197765D01*
X372845Y197765D01*
X372845Y200735D01*
X372845Y199950D02*
X374315Y199950D01*
X377845Y200735D02*
X379315Y200735D01*
X379315Y197765D01*
X377845Y197765D01*
X377845Y200735D01*
X377845Y199950D02*
X379315Y199950D01*
X382845Y200735D02*
X384315Y200735D01*
X384315Y197765D01*
X382845Y197765D01*
X382845Y200735D01*
X382845Y199950D02*
X384315Y199950D01*
X387845Y200735D02*
X389315Y200735D01*
X389315Y197765D01*
X387845Y197765D01*
X387845Y200735D01*
X387845Y199950D02*
X389315Y199950D01*
X392845Y200735D02*
X394315Y200735D01*
X394315Y197765D01*
X392845Y197765D01*
X392845Y200735D01*
X392845Y199950D02*
X394315Y199950D01*
X397845Y200735D02*
X399315Y200735D01*
X399315Y197765D01*
X397845Y197765D01*
X397845Y200735D01*
X397845Y199950D02*
X399315Y199950D01*
X402845Y200735D02*
X404315Y200735D01*
X404315Y197765D01*
X402845Y197765D01*
X402845Y200735D01*
X402845Y199950D02*
X404315Y199950D01*
X407595Y204015D02*
X407595Y205485D01*
X410565Y205485D01*
X410565Y204015D01*
X407595Y204015D01*
X407595Y209015D02*
X407595Y210485D01*
X410565Y210485D01*
X410565Y209015D01*
X407595Y209015D01*
X407595Y214015D02*
X407595Y215485D01*
X410565Y215485D01*
X410565Y214015D01*
X407595Y214015D01*
X407595Y219015D02*
X407595Y220485D01*
X410565Y220485D01*
X410565Y219015D01*
X407595Y219015D01*
X407595Y224015D02*
X407595Y225485D01*
X410565Y225485D01*
X410565Y224015D01*
X407595Y224015D01*
X407595Y229015D02*
X407595Y230485D01*
X410565Y230485D01*
X410565Y229015D01*
X407595Y229015D01*
X407595Y234015D02*
X407595Y235485D01*
X410565Y235485D01*
X410565Y234015D01*
X407595Y234015D01*
X407595Y239015D02*
X407595Y240485D01*
X410565Y240485D01*
X410565Y239015D01*
X407595Y239015D01*
D13*
X369268Y239062D02*
X369268Y205438D01*
X369268Y239062D02*
X402892Y239062D01*
X402892Y205438D01*
X369268Y205438D01*
X369268Y207477D02*
X402892Y207477D01*
X402892Y209516D02*
X369268Y209516D01*
X369268Y211555D02*
X402892Y211555D01*
X402892Y213594D02*
X369268Y213594D01*
X369268Y215633D02*
X402892Y215633D01*
X402892Y217672D02*
X369268Y217672D01*
X369268Y219711D02*
X402892Y219711D01*
X402892Y221750D02*
X369268Y221750D01*
X369268Y223789D02*
X402892Y223789D01*
X402892Y225828D02*
X369268Y225828D01*
X369268Y227867D02*
X402892Y227867D01*
X402892Y229906D02*
X369268Y229906D01*
X369268Y231945D02*
X402892Y231945D01*
X402892Y233984D02*
X369268Y233984D01*
X369268Y236023D02*
X402892Y236023D01*
X402892Y238062D02*
X369268Y238062D01*
D11*
X341090Y243058D02*
X341090Y248074D01*
X346106Y248074D01*
X346106Y243058D01*
X341090Y243058D01*
X341090Y245199D02*
X346106Y245199D01*
X346106Y247340D02*
X341090Y247340D01*
X341090Y238074D02*
X341090Y233058D01*
X341090Y238074D02*
X346106Y238074D01*
X346106Y233058D01*
X341090Y233058D01*
X341090Y235199D02*
X346106Y235199D01*
X346106Y237340D02*
X341090Y237340D01*
X354829Y244903D02*
X358375Y248449D01*
X354829Y244903D02*
X351283Y248449D01*
X354829Y251995D01*
X358375Y248449D01*
X356970Y247044D02*
X352688Y247044D01*
X352019Y249185D02*
X357639Y249185D01*
X355498Y251326D02*
X354160Y251326D01*
X361900Y251974D02*
X365446Y255520D01*
X361900Y251974D02*
X358354Y255520D01*
X361900Y259066D01*
X365446Y255520D01*
X364041Y254115D02*
X359759Y254115D01*
X359090Y256256D02*
X364710Y256256D01*
X362569Y258397D02*
X361231Y258397D01*
X351015Y256592D02*
X347469Y253046D01*
X343923Y256592D01*
X347469Y260138D01*
X351015Y256592D01*
X349610Y255187D02*
X345328Y255187D01*
X344659Y257328D02*
X350279Y257328D01*
X348138Y259469D02*
X346800Y259469D01*
X354540Y260118D02*
X358086Y263664D01*
X354540Y260118D02*
X350994Y263664D01*
X354540Y267210D01*
X358086Y263664D01*
X356681Y262259D02*
X352399Y262259D01*
X351730Y264400D02*
X357350Y264400D01*
X355209Y266541D02*
X353871Y266541D01*
X438305Y218789D02*
X443321Y218789D01*
X443321Y213773D01*
X438305Y213773D01*
X438305Y218789D01*
X438305Y215914D02*
X443321Y215914D01*
X443321Y218055D02*
X438305Y218055D01*
X433321Y218789D02*
X428305Y218789D01*
X433321Y218789D02*
X433321Y213773D01*
X428305Y213773D01*
X428305Y218789D01*
X428305Y215914D02*
X433321Y215914D01*
X433321Y218055D02*
X428305Y218055D01*
X420278Y262379D02*
X415262Y262379D01*
X420278Y262379D02*
X420278Y257363D01*
X415262Y257363D01*
X415262Y262379D01*
X415262Y259504D02*
X420278Y259504D01*
X420278Y261645D02*
X415262Y261645D01*
X410278Y262379D02*
X405262Y262379D01*
X410278Y262379D02*
X410278Y257363D01*
X405262Y257363D01*
X405262Y262379D01*
X405262Y259504D02*
X410278Y259504D01*
X410278Y261645D02*
X405262Y261645D01*
X332984Y41548D02*
X327968Y41548D01*
X332984Y41548D02*
X332984Y36532D01*
X327968Y36532D01*
X327968Y41548D01*
X327968Y38673D02*
X332984Y38673D01*
X332984Y40814D02*
X327968Y40814D01*
X322984Y41548D02*
X317968Y41548D01*
X322984Y41548D02*
X322984Y36532D01*
X317968Y36532D01*
X317968Y41548D01*
X317968Y38673D02*
X322984Y38673D01*
X322984Y40814D02*
X317968Y40814D01*
X328069Y51505D02*
X333085Y51505D01*
X333085Y46489D01*
X328069Y46489D01*
X328069Y51505D01*
X328069Y48630D02*
X333085Y48630D01*
X333085Y50771D02*
X328069Y50771D01*
X323085Y51505D02*
X318069Y51505D01*
X323085Y51505D02*
X323085Y46489D01*
X318069Y46489D01*
X318069Y51505D01*
X318069Y48630D02*
X323085Y48630D01*
X323085Y50771D02*
X318069Y50771D01*
D14*
X279867Y25357D03*
X485306Y400021D03*
D15*
X330043Y250555D02*
X330043Y242615D01*
X330043Y250555D02*
X335483Y250555D01*
X335483Y242615D01*
X330043Y242615D01*
X330043Y244829D02*
X335483Y244829D01*
X335483Y247043D02*
X330043Y247043D01*
X330043Y249257D02*
X335483Y249257D01*
X313543Y250555D02*
X313543Y242615D01*
X313543Y250555D02*
X318983Y250555D01*
X318983Y242615D01*
X313543Y242615D01*
X313543Y244829D02*
X318983Y244829D01*
X318983Y247043D02*
X313543Y247043D01*
X313543Y249257D02*
X318983Y249257D01*
X313543Y229555D02*
X313543Y221615D01*
X313543Y229555D02*
X318983Y229555D01*
X318983Y221615D01*
X313543Y221615D01*
X313543Y223829D02*
X318983Y223829D01*
X318983Y226043D02*
X313543Y226043D01*
X313543Y228257D02*
X318983Y228257D01*
X330043Y229555D02*
X330043Y221615D01*
X330043Y229555D02*
X335483Y229555D01*
X335483Y221615D01*
X330043Y221615D01*
X330043Y223829D02*
X335483Y223829D01*
X335483Y226043D02*
X330043Y226043D01*
X330043Y228257D02*
X335483Y228257D01*
D11*
X332620Y260525D02*
X327604Y260525D01*
X332620Y260525D02*
X332620Y255509D01*
X327604Y255509D01*
X327604Y260525D01*
X327604Y257650D02*
X332620Y257650D01*
X332620Y259791D02*
X327604Y259791D01*
X322620Y260525D02*
X317604Y260525D01*
X322620Y260525D02*
X322620Y255509D01*
X317604Y255509D01*
X317604Y260525D01*
X317604Y257650D02*
X322620Y257650D01*
X322620Y259791D02*
X317604Y259791D01*
D16*
X419847Y174096D02*
X419847Y167144D01*
X419847Y174096D02*
X430799Y174096D01*
X430799Y167144D01*
X419847Y167144D01*
X419847Y169346D02*
X430799Y169346D01*
X430799Y171548D02*
X419847Y171548D01*
X419847Y173750D02*
X430799Y173750D01*
X419847Y156096D02*
X419847Y149144D01*
X419847Y156096D02*
X430799Y156096D01*
X430799Y149144D01*
X419847Y149144D01*
X419847Y151346D02*
X430799Y151346D01*
X430799Y153548D02*
X419847Y153548D01*
X419847Y155750D02*
X430799Y155750D01*
X436535Y167144D02*
X436535Y174096D01*
X447487Y174096D01*
X447487Y167144D01*
X436535Y167144D01*
X436535Y169346D02*
X447487Y169346D01*
X447487Y171548D02*
X436535Y171548D01*
X436535Y173750D02*
X447487Y173750D01*
X436535Y156096D02*
X436535Y149144D01*
X436535Y156096D02*
X447487Y156096D01*
X447487Y149144D01*
X436535Y149144D01*
X436535Y151346D02*
X447487Y151346D01*
X447487Y153548D02*
X436535Y153548D01*
X436535Y155750D02*
X447487Y155750D01*
X403083Y167144D02*
X403083Y174096D01*
X414035Y174096D01*
X414035Y167144D01*
X403083Y167144D01*
X403083Y169346D02*
X414035Y169346D01*
X414035Y171548D02*
X403083Y171548D01*
X403083Y173750D02*
X414035Y173750D01*
X403083Y156096D02*
X403083Y149144D01*
X403083Y156096D02*
X414035Y156096D01*
X414035Y149144D01*
X403083Y149144D01*
X403083Y151346D02*
X414035Y151346D01*
X414035Y153548D02*
X403083Y153548D01*
X403083Y155750D02*
X414035Y155750D01*
X366304Y167068D02*
X366304Y174020D01*
X377256Y174020D01*
X377256Y167068D01*
X366304Y167068D01*
X366304Y169270D02*
X377256Y169270D01*
X377256Y171472D02*
X366304Y171472D01*
X366304Y173674D02*
X377256Y173674D01*
X366304Y156020D02*
X366304Y149068D01*
X366304Y156020D02*
X377256Y156020D01*
X377256Y149068D01*
X366304Y149068D01*
X366304Y151270D02*
X377256Y151270D01*
X377256Y153472D02*
X366304Y153472D01*
X366304Y155674D02*
X377256Y155674D01*
D17*
X426777Y139165D02*
X434301Y139165D01*
X434301Y131141D01*
X426777Y131141D01*
X426777Y139165D01*
X426777Y133276D02*
X434301Y133276D01*
X434301Y135411D02*
X426777Y135411D01*
X426777Y137546D02*
X434301Y137546D01*
X422701Y139165D02*
X415177Y139165D01*
X422701Y139165D02*
X422701Y131141D01*
X415177Y131141D01*
X415177Y139165D01*
X415177Y133276D02*
X422701Y133276D01*
X422701Y135411D02*
X415177Y135411D01*
X415177Y137546D02*
X422701Y137546D01*
X439891Y122505D02*
X447415Y122505D01*
X439891Y122505D02*
X439891Y130529D01*
X447415Y130529D01*
X447415Y122505D01*
X447415Y124640D02*
X439891Y124640D01*
X439891Y126775D02*
X447415Y126775D01*
X447415Y128910D02*
X439891Y128910D01*
X451491Y122505D02*
X459015Y122505D01*
X451491Y122505D02*
X451491Y130529D01*
X459015Y130529D01*
X459015Y122505D01*
X459015Y124640D02*
X451491Y124640D01*
X451491Y126775D02*
X459015Y126775D01*
X459015Y128910D02*
X451491Y128910D01*
X409561Y139191D02*
X402037Y139191D01*
X409561Y139191D02*
X409561Y131167D01*
X402037Y131167D01*
X402037Y139191D01*
X402037Y133302D02*
X409561Y133302D01*
X409561Y135437D02*
X402037Y135437D01*
X402037Y137572D02*
X409561Y137572D01*
X397961Y139191D02*
X390437Y139191D01*
X397961Y139191D02*
X397961Y131167D01*
X390437Y131167D01*
X390437Y139191D01*
X390437Y133302D02*
X397961Y133302D01*
X397961Y135437D02*
X390437Y135437D01*
X390437Y137572D02*
X397961Y137572D01*
X372993Y131116D02*
X365469Y131116D01*
X365469Y139140D01*
X372993Y139140D01*
X372993Y131116D01*
X372993Y133251D02*
X365469Y133251D01*
X365469Y135386D02*
X372993Y135386D01*
X372993Y137521D02*
X365469Y137521D01*
X377069Y131116D02*
X384593Y131116D01*
X377069Y131116D02*
X377069Y139140D01*
X384593Y139140D01*
X384593Y131116D01*
X384593Y133251D02*
X377069Y133251D01*
X377069Y135386D02*
X384593Y135386D01*
X384593Y137521D02*
X377069Y137521D01*
D18*
X427036Y16949D02*
X434024Y16949D01*
X434024Y9961D01*
X427036Y9961D01*
X427036Y16949D01*
X427036Y14030D02*
X434024Y14030D01*
X434024Y34489D02*
X427036Y34489D01*
X434024Y34489D02*
X434024Y27501D01*
X427036Y27501D01*
X427036Y34489D01*
X427036Y31570D02*
X434024Y31570D01*
D11*
X460962Y27908D02*
X465978Y27908D01*
X465978Y22892D01*
X460962Y22892D01*
X460962Y27908D01*
X460962Y25033D02*
X465978Y25033D01*
X465978Y27174D02*
X460962Y27174D01*
X455978Y27908D02*
X450962Y27908D01*
X455978Y27908D02*
X455978Y22892D01*
X450962Y22892D01*
X450962Y27908D01*
X450962Y25033D02*
X455978Y25033D01*
X455978Y27174D02*
X450962Y27174D01*
X389922Y288242D02*
X389922Y293258D01*
X394938Y293258D01*
X394938Y288242D01*
X389922Y288242D01*
X389922Y290383D02*
X394938Y290383D01*
X394938Y292524D02*
X389922Y292524D01*
X389922Y283258D02*
X389922Y278242D01*
X389922Y283258D02*
X394938Y283258D01*
X394938Y278242D01*
X389922Y278242D01*
X389922Y280383D02*
X394938Y280383D01*
X394938Y282524D02*
X389922Y282524D01*
X402622Y288242D02*
X402622Y293258D01*
X407638Y293258D01*
X407638Y288242D01*
X402622Y288242D01*
X402622Y290383D02*
X407638Y290383D01*
X407638Y292524D02*
X402622Y292524D01*
X402622Y283258D02*
X402622Y278242D01*
X402622Y283258D02*
X407638Y283258D01*
X407638Y278242D01*
X402622Y278242D01*
X402622Y280383D02*
X407638Y280383D01*
X407638Y282524D02*
X402622Y282524D01*
X393097Y310467D02*
X393097Y315483D01*
X398113Y315483D01*
X398113Y310467D01*
X393097Y310467D01*
X393097Y312608D02*
X398113Y312608D01*
X398113Y314749D02*
X393097Y314749D01*
X393097Y305483D02*
X393097Y300467D01*
X393097Y305483D02*
X398113Y305483D01*
X398113Y300467D01*
X393097Y300467D01*
X393097Y302608D02*
X398113Y302608D01*
X398113Y304749D02*
X393097Y304749D01*
X408972Y310467D02*
X408972Y315483D01*
X413988Y315483D01*
X413988Y310467D01*
X408972Y310467D01*
X408972Y312608D02*
X413988Y312608D01*
X413988Y314749D02*
X408972Y314749D01*
X408972Y305483D02*
X408972Y300467D01*
X408972Y305483D02*
X413988Y305483D01*
X413988Y300467D01*
X408972Y300467D01*
X408972Y302608D02*
X413988Y302608D01*
X413988Y304749D02*
X408972Y304749D01*
X413988Y322692D02*
X413988Y327708D01*
X413988Y322692D02*
X408972Y322692D01*
X408972Y327708D01*
X413988Y327708D01*
X413988Y324833D02*
X408972Y324833D01*
X408972Y326974D02*
X413988Y326974D01*
X413988Y332692D02*
X413988Y337708D01*
X413988Y332692D02*
X408972Y332692D01*
X408972Y337708D01*
X413988Y337708D01*
X413988Y334833D02*
X408972Y334833D01*
X408972Y336974D02*
X413988Y336974D01*
X398113Y327708D02*
X398113Y322692D01*
X393097Y322692D01*
X393097Y327708D01*
X398113Y327708D01*
X398113Y324833D02*
X393097Y324833D01*
X393097Y326974D02*
X398113Y326974D01*
X398113Y332692D02*
X398113Y337708D01*
X398113Y332692D02*
X393097Y332692D01*
X393097Y337708D01*
X398113Y337708D01*
X398113Y334833D02*
X393097Y334833D01*
X393097Y336974D02*
X398113Y336974D01*
X424847Y315483D02*
X424847Y310467D01*
X424847Y315483D02*
X429863Y315483D01*
X429863Y310467D01*
X424847Y310467D01*
X424847Y312608D02*
X429863Y312608D01*
X429863Y314749D02*
X424847Y314749D01*
X424847Y305483D02*
X424847Y300467D01*
X424847Y305483D02*
X429863Y305483D01*
X429863Y300467D01*
X424847Y300467D01*
X424847Y302608D02*
X429863Y302608D01*
X429863Y304749D02*
X424847Y304749D01*
X374047Y310467D02*
X374047Y315483D01*
X379063Y315483D01*
X379063Y310467D01*
X374047Y310467D01*
X374047Y312608D02*
X379063Y312608D01*
X379063Y314749D02*
X374047Y314749D01*
X374047Y305483D02*
X374047Y300467D01*
X374047Y305483D02*
X379063Y305483D01*
X379063Y300467D01*
X374047Y300467D01*
X374047Y302608D02*
X379063Y302608D01*
X379063Y304749D02*
X374047Y304749D01*
X358172Y310467D02*
X358172Y315483D01*
X363188Y315483D01*
X363188Y310467D01*
X358172Y310467D01*
X358172Y312608D02*
X363188Y312608D01*
X363188Y314749D02*
X358172Y314749D01*
X358172Y305483D02*
X358172Y300467D01*
X358172Y305483D02*
X363188Y305483D01*
X363188Y300467D01*
X358172Y300467D01*
X358172Y302608D02*
X363188Y302608D01*
X363188Y304749D02*
X358172Y304749D01*
X342297Y310467D02*
X342297Y315483D01*
X347313Y315483D01*
X347313Y310467D01*
X342297Y310467D01*
X342297Y312608D02*
X347313Y312608D01*
X347313Y314749D02*
X342297Y314749D01*
X342297Y305483D02*
X342297Y300467D01*
X342297Y305483D02*
X347313Y305483D01*
X347313Y300467D01*
X342297Y300467D01*
X342297Y302608D02*
X347313Y302608D01*
X347313Y304749D02*
X342297Y304749D01*
X415322Y293258D02*
X415322Y288242D01*
X415322Y293258D02*
X420338Y293258D01*
X420338Y288242D01*
X415322Y288242D01*
X415322Y290383D02*
X420338Y290383D01*
X420338Y292524D02*
X415322Y292524D01*
X415322Y283258D02*
X415322Y278242D01*
X415322Y283258D02*
X420338Y283258D01*
X420338Y278242D01*
X415322Y278242D01*
X415322Y280383D02*
X420338Y280383D01*
X420338Y282524D02*
X415322Y282524D01*
X377222Y288242D02*
X377222Y293258D01*
X382238Y293258D01*
X382238Y288242D01*
X377222Y288242D01*
X377222Y290383D02*
X382238Y290383D01*
X382238Y292524D02*
X377222Y292524D01*
X377222Y283258D02*
X377222Y278242D01*
X377222Y283258D02*
X382238Y283258D01*
X382238Y278242D01*
X377222Y278242D01*
X377222Y280383D02*
X382238Y280383D01*
X382238Y282524D02*
X377222Y282524D01*
X364522Y288242D02*
X364522Y293258D01*
X369538Y293258D01*
X369538Y288242D01*
X364522Y288242D01*
X364522Y290383D02*
X369538Y290383D01*
X369538Y292524D02*
X364522Y292524D01*
X364522Y283258D02*
X364522Y278242D01*
X364522Y283258D02*
X369538Y283258D01*
X369538Y278242D01*
X364522Y278242D01*
X364522Y280383D02*
X369538Y280383D01*
X369538Y282524D02*
X364522Y282524D01*
X351822Y288242D02*
X351822Y293258D01*
X356838Y293258D01*
X356838Y288242D01*
X351822Y288242D01*
X351822Y290383D02*
X356838Y290383D01*
X356838Y292524D02*
X351822Y292524D01*
X351822Y283258D02*
X351822Y278242D01*
X351822Y283258D02*
X356838Y283258D01*
X356838Y278242D01*
X351822Y278242D01*
X351822Y280383D02*
X356838Y280383D01*
X356838Y282524D02*
X351822Y282524D01*
X429863Y322692D02*
X429863Y327708D01*
X429863Y322692D02*
X424847Y322692D01*
X424847Y327708D01*
X429863Y327708D01*
X429863Y324833D02*
X424847Y324833D01*
X424847Y326974D02*
X429863Y326974D01*
X429863Y332692D02*
X429863Y337708D01*
X429863Y332692D02*
X424847Y332692D01*
X424847Y337708D01*
X429863Y337708D01*
X429863Y334833D02*
X424847Y334833D01*
X424847Y336974D02*
X429863Y336974D01*
X379063Y327708D02*
X379063Y322692D01*
X374047Y322692D01*
X374047Y327708D01*
X379063Y327708D01*
X379063Y324833D02*
X374047Y324833D01*
X374047Y326974D02*
X379063Y326974D01*
X379063Y332692D02*
X379063Y337708D01*
X379063Y332692D02*
X374047Y332692D01*
X374047Y337708D01*
X379063Y337708D01*
X379063Y334833D02*
X374047Y334833D01*
X374047Y336974D02*
X379063Y336974D01*
X363188Y327708D02*
X363188Y322692D01*
X358172Y322692D01*
X358172Y327708D01*
X363188Y327708D01*
X363188Y324833D02*
X358172Y324833D01*
X358172Y326974D02*
X363188Y326974D01*
X363188Y332692D02*
X363188Y337708D01*
X363188Y332692D02*
X358172Y332692D01*
X358172Y337708D01*
X363188Y337708D01*
X363188Y334833D02*
X358172Y334833D01*
X358172Y336974D02*
X363188Y336974D01*
X347313Y327708D02*
X347313Y322692D01*
X342297Y322692D01*
X342297Y327708D01*
X347313Y327708D01*
X347313Y324833D02*
X342297Y324833D01*
X342297Y326974D02*
X347313Y326974D01*
X347313Y332692D02*
X347313Y337708D01*
X347313Y332692D02*
X342297Y332692D01*
X342297Y337708D01*
X347313Y337708D01*
X347313Y334833D02*
X342297Y334833D01*
X342297Y336974D02*
X347313Y336974D01*
X314103Y91201D02*
X314103Y86185D01*
X314103Y91201D02*
X319119Y91201D01*
X319119Y86185D01*
X314103Y86185D01*
X314103Y88326D02*
X319119Y88326D01*
X319119Y90467D02*
X314103Y90467D01*
X314103Y81201D02*
X314103Y76185D01*
X314103Y81201D02*
X319119Y81201D01*
X319119Y76185D01*
X314103Y76185D01*
X314103Y78326D02*
X319119Y78326D01*
X319119Y80467D02*
X314103Y80467D01*
X433022Y252190D02*
X438038Y252190D01*
X438038Y247174D01*
X433022Y247174D01*
X433022Y252190D01*
X433022Y249315D02*
X438038Y249315D01*
X438038Y251456D02*
X433022Y251456D01*
X428038Y252190D02*
X423022Y252190D01*
X428038Y252190D02*
X428038Y247174D01*
X423022Y247174D01*
X423022Y252190D01*
X423022Y249315D02*
X428038Y249315D01*
X428038Y251456D02*
X423022Y251456D01*
D19*
X385433Y175001D02*
X385433Y164985D01*
X385433Y175001D02*
X394449Y175001D01*
X394449Y164985D01*
X385433Y164985D01*
X385433Y167126D02*
X394449Y167126D01*
X394449Y169267D02*
X385433Y169267D01*
X385433Y171408D02*
X394449Y171408D01*
X394449Y173549D02*
X385433Y173549D01*
X385433Y158001D02*
X385433Y147985D01*
X385433Y158001D02*
X394449Y158001D01*
X394449Y147985D01*
X385433Y147985D01*
X385433Y150126D02*
X394449Y150126D01*
X394449Y152267D02*
X385433Y152267D01*
X385433Y154408D02*
X394449Y154408D01*
X394449Y156549D02*
X385433Y156549D01*
X422381Y198362D02*
X432397Y198362D01*
X422381Y198362D02*
X422381Y207378D01*
X432397Y207378D01*
X432397Y198362D01*
X432397Y200503D02*
X422381Y200503D01*
X422381Y202644D02*
X432397Y202644D01*
X432397Y204785D02*
X422381Y204785D01*
X422381Y206926D02*
X432397Y206926D01*
X439381Y198362D02*
X449397Y198362D01*
X439381Y198362D02*
X439381Y207378D01*
X449397Y207378D01*
X449397Y198362D01*
X449397Y200503D02*
X439381Y200503D01*
X439381Y202644D02*
X449397Y202644D01*
X449397Y204785D02*
X439381Y204785D01*
X439381Y206926D02*
X449397Y206926D01*
D11*
X326438Y175292D02*
X321422Y175292D01*
X321422Y180308D01*
X326438Y180308D01*
X326438Y175292D01*
X326438Y177433D02*
X321422Y177433D01*
X321422Y179574D02*
X326438Y179574D01*
X331422Y175292D02*
X336438Y175292D01*
X331422Y175292D02*
X331422Y180308D01*
X336438Y180308D01*
X336438Y175292D01*
X336438Y177433D02*
X331422Y177433D01*
X331422Y179574D02*
X336438Y179574D01*
X326438Y194342D02*
X321422Y194342D01*
X321422Y199358D01*
X326438Y199358D01*
X326438Y194342D01*
X326438Y196483D02*
X321422Y196483D01*
X321422Y198624D02*
X326438Y198624D01*
X331422Y194342D02*
X336438Y194342D01*
X331422Y194342D02*
X331422Y199358D01*
X336438Y199358D01*
X336438Y194342D01*
X336438Y196483D02*
X331422Y196483D01*
X331422Y198624D02*
X336438Y198624D01*
X326438Y203867D02*
X321422Y203867D01*
X321422Y208883D01*
X326438Y208883D01*
X326438Y203867D01*
X326438Y206008D02*
X321422Y206008D01*
X321422Y208149D02*
X326438Y208149D01*
X331422Y203867D02*
X336438Y203867D01*
X331422Y203867D02*
X331422Y208883D01*
X336438Y208883D01*
X336438Y203867D01*
X336438Y206008D02*
X331422Y206008D01*
X331422Y208149D02*
X336438Y208149D01*
X326438Y165767D02*
X321422Y165767D01*
X321422Y170783D01*
X326438Y170783D01*
X326438Y165767D01*
X326438Y167908D02*
X321422Y167908D01*
X321422Y170049D02*
X326438Y170049D01*
X331422Y165767D02*
X336438Y165767D01*
X331422Y165767D02*
X331422Y170783D01*
X336438Y170783D01*
X336438Y165767D01*
X336438Y167908D02*
X331422Y167908D01*
X331422Y170049D02*
X336438Y170049D01*
X326438Y184817D02*
X321422Y184817D01*
X321422Y189833D01*
X326438Y189833D01*
X326438Y184817D01*
X326438Y186958D02*
X321422Y186958D01*
X321422Y189099D02*
X326438Y189099D01*
X331422Y184817D02*
X336438Y184817D01*
X331422Y184817D02*
X331422Y189833D01*
X336438Y189833D01*
X336438Y184817D01*
X336438Y186958D02*
X331422Y186958D01*
X331422Y189099D02*
X336438Y189099D01*
X376714Y90947D02*
X376714Y85931D01*
X376714Y90947D02*
X381730Y90947D01*
X381730Y85931D01*
X376714Y85931D01*
X376714Y88072D02*
X381730Y88072D01*
X381730Y90213D02*
X376714Y90213D01*
X376714Y80947D02*
X376714Y75931D01*
X376714Y80947D02*
X381730Y80947D01*
X381730Y75931D01*
X376714Y75931D01*
X376714Y78072D02*
X381730Y78072D01*
X381730Y80213D02*
X376714Y80213D01*
D20*
X332636Y86226D02*
X332636Y90762D01*
X343672Y90762D01*
X343672Y86226D01*
X332636Y86226D01*
X332636Y88348D02*
X343672Y88348D01*
X343672Y90470D02*
X332636Y90470D01*
X332636Y81262D02*
X332636Y76726D01*
X332636Y81262D02*
X343672Y81262D01*
X343672Y76726D01*
X332636Y76726D01*
X332636Y78848D02*
X343672Y78848D01*
X343672Y80970D02*
X332636Y80970D01*
X332636Y71762D02*
X332636Y67226D01*
X332636Y71762D02*
X343672Y71762D01*
X343672Y67226D01*
X332636Y67226D01*
X332636Y69348D02*
X343672Y69348D01*
X343672Y71470D02*
X332636Y71470D01*
X358638Y71762D02*
X358638Y67226D01*
X358638Y71762D02*
X369674Y71762D01*
X369674Y67226D01*
X358638Y67226D01*
X358638Y69348D02*
X369674Y69348D01*
X369674Y71470D02*
X358638Y71470D01*
X358638Y86226D02*
X358638Y90762D01*
X369674Y90762D01*
X369674Y86226D01*
X358638Y86226D01*
X358638Y88348D02*
X369674Y88348D01*
X369674Y90470D02*
X358638Y90470D01*
D11*
X389414Y91201D02*
X389414Y86185D01*
X389414Y91201D02*
X394430Y91201D01*
X394430Y86185D01*
X389414Y86185D01*
X389414Y88326D02*
X394430Y88326D01*
X394430Y90467D02*
X389414Y90467D01*
X389414Y81201D02*
X389414Y76185D01*
X389414Y81201D02*
X394430Y81201D01*
X394430Y76185D01*
X389414Y76185D01*
X389414Y78326D02*
X394430Y78326D01*
X394430Y80467D02*
X389414Y80467D01*
X318396Y70906D02*
X318396Y65890D01*
X318396Y70906D02*
X323412Y70906D01*
X323412Y65890D01*
X318396Y65890D01*
X318396Y68031D02*
X323412Y68031D01*
X323412Y70172D02*
X318396Y70172D01*
X318396Y60906D02*
X318396Y55890D01*
X318396Y60906D02*
X323412Y60906D01*
X323412Y55890D01*
X318396Y55890D01*
X318396Y58031D02*
X323412Y58031D01*
X323412Y60172D02*
X318396Y60172D01*
X323247Y86058D02*
X323247Y91074D01*
X328263Y91074D01*
X328263Y86058D01*
X323247Y86058D01*
X323247Y88199D02*
X328263Y88199D01*
X328263Y90340D02*
X323247Y90340D01*
X323247Y81074D02*
X323247Y76058D01*
X323247Y81074D02*
X328263Y81074D01*
X328263Y76058D01*
X323247Y76058D01*
X323247Y78199D02*
X328263Y78199D01*
X328263Y80340D02*
X323247Y80340D01*
X342756Y214973D02*
X346302Y218519D01*
X342756Y214973D02*
X339210Y218519D01*
X342756Y222065D01*
X346302Y218519D01*
X344897Y217114D02*
X340615Y217114D01*
X339946Y219255D02*
X345566Y219255D01*
X343425Y221396D02*
X342087Y221396D01*
X349827Y222045D02*
X353373Y225591D01*
X349827Y222045D02*
X346281Y225591D01*
X349827Y229137D01*
X353373Y225591D01*
X351968Y224186D02*
X347686Y224186D01*
X347017Y226327D02*
X352637Y226327D01*
X350496Y228468D02*
X349158Y228468D01*
D21*
X271780Y12700D03*
X271780Y38100D03*
X271780Y63500D03*
X271780Y88900D03*
X271780Y114300D03*
X271780Y139700D03*
X271780Y165100D03*
X271780Y190500D03*
X271780Y215900D03*
X271780Y241300D03*
X271780Y266700D03*
X271780Y292100D03*
X271780Y317500D03*
X271780Y342900D03*
X271780Y368300D03*
X271780Y393700D03*
X500380Y12700D03*
X500380Y38100D03*
X500380Y63500D03*
X500380Y88900D03*
X500380Y114300D03*
X500380Y139700D03*
X500380Y165100D03*
X500380Y190500D03*
X500380Y215900D03*
X500380Y241300D03*
X500380Y266700D03*
X500380Y292100D03*
X500380Y317500D03*
X500380Y342900D03*
X500380Y368300D03*
X500380Y393700D03*
D10*
X611653Y4543D02*
X622667Y4543D01*
X611653Y4543D02*
X611653Y23557D01*
X622667Y23557D01*
X622667Y4543D01*
X622667Y6686D02*
X611653Y6686D01*
X611653Y8829D02*
X622667Y8829D01*
X622667Y10972D02*
X611653Y10972D01*
X611653Y13115D02*
X622667Y13115D01*
X622667Y15258D02*
X611653Y15258D01*
X611653Y17401D02*
X622667Y17401D01*
X622667Y19544D02*
X611653Y19544D01*
X611653Y21687D02*
X622667Y21687D01*
X667653Y4543D02*
X678667Y4543D01*
X667653Y4543D02*
X667653Y23557D01*
X678667Y23557D01*
X678667Y4543D01*
X678667Y6686D02*
X667653Y6686D01*
X667653Y8829D02*
X678667Y8829D01*
X678667Y10972D02*
X667653Y10972D01*
X667653Y13115D02*
X678667Y13115D01*
X678667Y15258D02*
X667653Y15258D01*
X667653Y17401D02*
X678667Y17401D01*
X678667Y19544D02*
X667653Y19544D01*
X667653Y21687D02*
X678667Y21687D01*
D11*
X632668Y44542D02*
X627652Y44542D01*
X627652Y57058D01*
X632668Y57058D01*
X632668Y44542D01*
X632668Y46683D02*
X627652Y46683D01*
X627652Y48824D02*
X632668Y48824D01*
X632668Y50965D02*
X627652Y50965D01*
X627652Y53106D02*
X632668Y53106D01*
X632668Y55247D02*
X627652Y55247D01*
X637652Y44542D02*
X642668Y44542D01*
X637652Y44542D02*
X637652Y57058D01*
X642668Y57058D01*
X642668Y44542D01*
X642668Y46683D02*
X637652Y46683D01*
X637652Y48824D02*
X642668Y48824D01*
X642668Y50965D02*
X637652Y50965D01*
X637652Y53106D02*
X642668Y53106D01*
X642668Y55247D02*
X637652Y55247D01*
X647652Y44542D02*
X652668Y44542D01*
X647652Y44542D02*
X647652Y57058D01*
X652668Y57058D01*
X652668Y44542D01*
X652668Y46683D02*
X647652Y46683D01*
X647652Y48824D02*
X652668Y48824D01*
X652668Y50965D02*
X647652Y50965D01*
X647652Y53106D02*
X652668Y53106D01*
X652668Y55247D02*
X647652Y55247D01*
X657652Y44542D02*
X662668Y44542D01*
X657652Y44542D02*
X657652Y57058D01*
X662668Y57058D01*
X662668Y44542D01*
X662668Y46683D02*
X657652Y46683D01*
X657652Y48824D02*
X662668Y48824D01*
X662668Y50965D02*
X657652Y50965D01*
X657652Y53106D02*
X662668Y53106D01*
X662668Y55247D02*
X657652Y55247D01*
D12*
X661925Y243765D02*
X663395Y243765D01*
X661925Y243765D02*
X661925Y246735D01*
X663395Y246735D01*
X663395Y243765D01*
X663395Y245950D02*
X661925Y245950D01*
X658395Y243765D02*
X656925Y243765D01*
X656925Y246735D01*
X658395Y246735D01*
X658395Y243765D01*
X658395Y245950D02*
X656925Y245950D01*
X653395Y243765D02*
X651925Y243765D01*
X651925Y246735D01*
X653395Y246735D01*
X653395Y243765D01*
X653395Y245950D02*
X651925Y245950D01*
X648395Y243765D02*
X646925Y243765D01*
X646925Y246735D01*
X648395Y246735D01*
X648395Y243765D01*
X648395Y245950D02*
X646925Y245950D01*
X643395Y243765D02*
X641925Y243765D01*
X641925Y246735D01*
X643395Y246735D01*
X643395Y243765D01*
X643395Y245950D02*
X641925Y245950D01*
X638395Y243765D02*
X636925Y243765D01*
X636925Y246735D01*
X638395Y246735D01*
X638395Y243765D01*
X638395Y245950D02*
X636925Y245950D01*
X633395Y243765D02*
X631925Y243765D01*
X631925Y246735D01*
X633395Y246735D01*
X633395Y243765D01*
X633395Y245950D02*
X631925Y245950D01*
X628395Y243765D02*
X626925Y243765D01*
X626925Y246735D01*
X628395Y246735D01*
X628395Y243765D01*
X628395Y245950D02*
X626925Y245950D01*
X623645Y240485D02*
X623645Y239015D01*
X620675Y239015D01*
X620675Y240485D01*
X623645Y240485D01*
X623645Y235485D02*
X623645Y234015D01*
X620675Y234015D01*
X620675Y235485D01*
X623645Y235485D01*
X623645Y230485D02*
X623645Y229015D01*
X620675Y229015D01*
X620675Y230485D01*
X623645Y230485D01*
X623645Y225485D02*
X623645Y224015D01*
X620675Y224015D01*
X620675Y225485D01*
X623645Y225485D01*
X623645Y220485D02*
X623645Y219015D01*
X620675Y219015D01*
X620675Y220485D01*
X623645Y220485D01*
X623645Y215485D02*
X623645Y214015D01*
X620675Y214015D01*
X620675Y215485D01*
X623645Y215485D01*
X623645Y210485D02*
X623645Y209015D01*
X620675Y209015D01*
X620675Y210485D01*
X623645Y210485D01*
X623645Y205485D02*
X623645Y204015D01*
X620675Y204015D01*
X620675Y205485D01*
X623645Y205485D01*
X626925Y200735D02*
X628395Y200735D01*
X628395Y197765D01*
X626925Y197765D01*
X626925Y200735D01*
X626925Y199950D02*
X628395Y199950D01*
X631925Y200735D02*
X633395Y200735D01*
X633395Y197765D01*
X631925Y197765D01*
X631925Y200735D01*
X631925Y199950D02*
X633395Y199950D01*
X636925Y200735D02*
X638395Y200735D01*
X638395Y197765D01*
X636925Y197765D01*
X636925Y200735D01*
X636925Y199950D02*
X638395Y199950D01*
X641925Y200735D02*
X643395Y200735D01*
X643395Y197765D01*
X641925Y197765D01*
X641925Y200735D01*
X641925Y199950D02*
X643395Y199950D01*
X646925Y200735D02*
X648395Y200735D01*
X648395Y197765D01*
X646925Y197765D01*
X646925Y200735D01*
X646925Y199950D02*
X648395Y199950D01*
X651925Y200735D02*
X653395Y200735D01*
X653395Y197765D01*
X651925Y197765D01*
X651925Y200735D01*
X651925Y199950D02*
X653395Y199950D01*
X656925Y200735D02*
X658395Y200735D01*
X658395Y197765D01*
X656925Y197765D01*
X656925Y200735D01*
X656925Y199950D02*
X658395Y199950D01*
X661925Y200735D02*
X663395Y200735D01*
X663395Y197765D01*
X661925Y197765D01*
X661925Y200735D01*
X661925Y199950D02*
X663395Y199950D01*
X666675Y204015D02*
X666675Y205485D01*
X669645Y205485D01*
X669645Y204015D01*
X666675Y204015D01*
X666675Y209015D02*
X666675Y210485D01*
X669645Y210485D01*
X669645Y209015D01*
X666675Y209015D01*
X666675Y214015D02*
X666675Y215485D01*
X669645Y215485D01*
X669645Y214015D01*
X666675Y214015D01*
X666675Y219015D02*
X666675Y220485D01*
X669645Y220485D01*
X669645Y219015D01*
X666675Y219015D01*
X666675Y224015D02*
X666675Y225485D01*
X669645Y225485D01*
X669645Y224015D01*
X666675Y224015D01*
X666675Y229015D02*
X666675Y230485D01*
X669645Y230485D01*
X669645Y229015D01*
X666675Y229015D01*
X666675Y234015D02*
X666675Y235485D01*
X669645Y235485D01*
X669645Y234015D01*
X666675Y234015D01*
X666675Y239015D02*
X666675Y240485D01*
X669645Y240485D01*
X669645Y239015D01*
X666675Y239015D01*
D13*
X628348Y239062D02*
X628348Y205438D01*
X628348Y239062D02*
X661972Y239062D01*
X661972Y205438D01*
X628348Y205438D01*
X628348Y207477D02*
X661972Y207477D01*
X661972Y209516D02*
X628348Y209516D01*
X628348Y211555D02*
X661972Y211555D01*
X661972Y213594D02*
X628348Y213594D01*
X628348Y215633D02*
X661972Y215633D01*
X661972Y217672D02*
X628348Y217672D01*
X628348Y219711D02*
X661972Y219711D01*
X661972Y221750D02*
X628348Y221750D01*
X628348Y223789D02*
X661972Y223789D01*
X661972Y225828D02*
X628348Y225828D01*
X628348Y227867D02*
X661972Y227867D01*
X661972Y229906D02*
X628348Y229906D01*
X628348Y231945D02*
X661972Y231945D01*
X661972Y233984D02*
X628348Y233984D01*
X628348Y236023D02*
X661972Y236023D01*
X661972Y238062D02*
X628348Y238062D01*
D11*
X600170Y243058D02*
X600170Y248074D01*
X605186Y248074D01*
X605186Y243058D01*
X600170Y243058D01*
X600170Y245199D02*
X605186Y245199D01*
X605186Y247340D02*
X600170Y247340D01*
X600170Y238074D02*
X600170Y233058D01*
X600170Y238074D02*
X605186Y238074D01*
X605186Y233058D01*
X600170Y233058D01*
X600170Y235199D02*
X605186Y235199D01*
X605186Y237340D02*
X600170Y237340D01*
X613909Y244903D02*
X617455Y248449D01*
X613909Y244903D02*
X610363Y248449D01*
X613909Y251995D01*
X617455Y248449D01*
X616050Y247044D02*
X611768Y247044D01*
X611099Y249185D02*
X616719Y249185D01*
X614578Y251326D02*
X613240Y251326D01*
X620980Y251974D02*
X624526Y255520D01*
X620980Y251974D02*
X617434Y255520D01*
X620980Y259066D01*
X624526Y255520D01*
X623121Y254115D02*
X618839Y254115D01*
X618170Y256256D02*
X623790Y256256D01*
X621649Y258397D02*
X620311Y258397D01*
X610095Y256592D02*
X606549Y253046D01*
X603003Y256592D01*
X606549Y260138D01*
X610095Y256592D01*
X608690Y255187D02*
X604408Y255187D01*
X603739Y257328D02*
X609359Y257328D01*
X607218Y259469D02*
X605880Y259469D01*
X613620Y260118D02*
X617166Y263664D01*
X613620Y260118D02*
X610074Y263664D01*
X613620Y267210D01*
X617166Y263664D01*
X615761Y262259D02*
X611479Y262259D01*
X610810Y264400D02*
X616430Y264400D01*
X614289Y266541D02*
X612951Y266541D01*
X697385Y218789D02*
X702401Y218789D01*
X702401Y213773D01*
X697385Y213773D01*
X697385Y218789D01*
X697385Y215914D02*
X702401Y215914D01*
X702401Y218055D02*
X697385Y218055D01*
X692401Y218789D02*
X687385Y218789D01*
X692401Y218789D02*
X692401Y213773D01*
X687385Y213773D01*
X687385Y218789D01*
X687385Y215914D02*
X692401Y215914D01*
X692401Y218055D02*
X687385Y218055D01*
X679358Y262379D02*
X674342Y262379D01*
X679358Y262379D02*
X679358Y257363D01*
X674342Y257363D01*
X674342Y262379D01*
X674342Y259504D02*
X679358Y259504D01*
X679358Y261645D02*
X674342Y261645D01*
X669358Y262379D02*
X664342Y262379D01*
X669358Y262379D02*
X669358Y257363D01*
X664342Y257363D01*
X664342Y262379D01*
X664342Y259504D02*
X669358Y259504D01*
X669358Y261645D02*
X664342Y261645D01*
X592064Y41548D02*
X587048Y41548D01*
X592064Y41548D02*
X592064Y36532D01*
X587048Y36532D01*
X587048Y41548D01*
X587048Y38673D02*
X592064Y38673D01*
X592064Y40814D02*
X587048Y40814D01*
X582064Y41548D02*
X577048Y41548D01*
X582064Y41548D02*
X582064Y36532D01*
X577048Y36532D01*
X577048Y41548D01*
X577048Y38673D02*
X582064Y38673D01*
X582064Y40814D02*
X577048Y40814D01*
X587149Y51505D02*
X592165Y51505D01*
X592165Y46489D01*
X587149Y46489D01*
X587149Y51505D01*
X587149Y48630D02*
X592165Y48630D01*
X592165Y50771D02*
X587149Y50771D01*
X582165Y51505D02*
X577149Y51505D01*
X582165Y51505D02*
X582165Y46489D01*
X577149Y46489D01*
X577149Y51505D01*
X577149Y48630D02*
X582165Y48630D01*
X582165Y50771D02*
X577149Y50771D01*
D14*
X538947Y25357D03*
X744386Y400021D03*
D15*
X589123Y250555D02*
X589123Y242615D01*
X589123Y250555D02*
X594563Y250555D01*
X594563Y242615D01*
X589123Y242615D01*
X589123Y244829D02*
X594563Y244829D01*
X594563Y247043D02*
X589123Y247043D01*
X589123Y249257D02*
X594563Y249257D01*
X572623Y250555D02*
X572623Y242615D01*
X572623Y250555D02*
X578063Y250555D01*
X578063Y242615D01*
X572623Y242615D01*
X572623Y244829D02*
X578063Y244829D01*
X578063Y247043D02*
X572623Y247043D01*
X572623Y249257D02*
X578063Y249257D01*
X572623Y229555D02*
X572623Y221615D01*
X572623Y229555D02*
X578063Y229555D01*
X578063Y221615D01*
X572623Y221615D01*
X572623Y223829D02*
X578063Y223829D01*
X578063Y226043D02*
X572623Y226043D01*
X572623Y228257D02*
X578063Y228257D01*
X589123Y229555D02*
X589123Y221615D01*
X589123Y229555D02*
X594563Y229555D01*
X594563Y221615D01*
X589123Y221615D01*
X589123Y223829D02*
X594563Y223829D01*
X594563Y226043D02*
X589123Y226043D01*
X589123Y228257D02*
X594563Y228257D01*
D11*
X591700Y260525D02*
X586684Y260525D01*
X591700Y260525D02*
X591700Y255509D01*
X586684Y255509D01*
X586684Y260525D01*
X586684Y257650D02*
X591700Y257650D01*
X591700Y259791D02*
X586684Y259791D01*
X581700Y260525D02*
X576684Y260525D01*
X581700Y260525D02*
X581700Y255509D01*
X576684Y255509D01*
X576684Y260525D01*
X576684Y257650D02*
X581700Y257650D01*
X581700Y259791D02*
X576684Y259791D01*
D16*
X678927Y174096D02*
X678927Y167144D01*
X678927Y174096D02*
X689879Y174096D01*
X689879Y167144D01*
X678927Y167144D01*
X678927Y169346D02*
X689879Y169346D01*
X689879Y171548D02*
X678927Y171548D01*
X678927Y173750D02*
X689879Y173750D01*
X678927Y156096D02*
X678927Y149144D01*
X678927Y156096D02*
X689879Y156096D01*
X689879Y149144D01*
X678927Y149144D01*
X678927Y151346D02*
X689879Y151346D01*
X689879Y153548D02*
X678927Y153548D01*
X678927Y155750D02*
X689879Y155750D01*
X695615Y167144D02*
X695615Y174096D01*
X706567Y174096D01*
X706567Y167144D01*
X695615Y167144D01*
X695615Y169346D02*
X706567Y169346D01*
X706567Y171548D02*
X695615Y171548D01*
X695615Y173750D02*
X706567Y173750D01*
X695615Y156096D02*
X695615Y149144D01*
X695615Y156096D02*
X706567Y156096D01*
X706567Y149144D01*
X695615Y149144D01*
X695615Y151346D02*
X706567Y151346D01*
X706567Y153548D02*
X695615Y153548D01*
X695615Y155750D02*
X706567Y155750D01*
X662163Y167144D02*
X662163Y174096D01*
X673115Y174096D01*
X673115Y167144D01*
X662163Y167144D01*
X662163Y169346D02*
X673115Y169346D01*
X673115Y171548D02*
X662163Y171548D01*
X662163Y173750D02*
X673115Y173750D01*
X662163Y156096D02*
X662163Y149144D01*
X662163Y156096D02*
X673115Y156096D01*
X673115Y149144D01*
X662163Y149144D01*
X662163Y151346D02*
X673115Y151346D01*
X673115Y153548D02*
X662163Y153548D01*
X662163Y155750D02*
X673115Y155750D01*
X625384Y167068D02*
X625384Y174020D01*
X636336Y174020D01*
X636336Y167068D01*
X625384Y167068D01*
X625384Y169270D02*
X636336Y169270D01*
X636336Y171472D02*
X625384Y171472D01*
X625384Y173674D02*
X636336Y173674D01*
X625384Y156020D02*
X625384Y149068D01*
X625384Y156020D02*
X636336Y156020D01*
X636336Y149068D01*
X625384Y149068D01*
X625384Y151270D02*
X636336Y151270D01*
X636336Y153472D02*
X625384Y153472D01*
X625384Y155674D02*
X636336Y155674D01*
D17*
X685857Y139165D02*
X693381Y139165D01*
X693381Y131141D01*
X685857Y131141D01*
X685857Y139165D01*
X685857Y133276D02*
X693381Y133276D01*
X693381Y135411D02*
X685857Y135411D01*
X685857Y137546D02*
X693381Y137546D01*
X681781Y139165D02*
X674257Y139165D01*
X681781Y139165D02*
X681781Y131141D01*
X674257Y131141D01*
X674257Y139165D01*
X674257Y133276D02*
X681781Y133276D01*
X681781Y135411D02*
X674257Y135411D01*
X674257Y137546D02*
X681781Y137546D01*
X698971Y122505D02*
X706495Y122505D01*
X698971Y122505D02*
X698971Y130529D01*
X706495Y130529D01*
X706495Y122505D01*
X706495Y124640D02*
X698971Y124640D01*
X698971Y126775D02*
X706495Y126775D01*
X706495Y128910D02*
X698971Y128910D01*
X710571Y122505D02*
X718095Y122505D01*
X710571Y122505D02*
X710571Y130529D01*
X718095Y130529D01*
X718095Y122505D01*
X718095Y124640D02*
X710571Y124640D01*
X710571Y126775D02*
X718095Y126775D01*
X718095Y128910D02*
X710571Y128910D01*
X668641Y139191D02*
X661117Y139191D01*
X668641Y139191D02*
X668641Y131167D01*
X661117Y131167D01*
X661117Y139191D01*
X661117Y133302D02*
X668641Y133302D01*
X668641Y135437D02*
X661117Y135437D01*
X661117Y137572D02*
X668641Y137572D01*
X657041Y139191D02*
X649517Y139191D01*
X657041Y139191D02*
X657041Y131167D01*
X649517Y131167D01*
X649517Y139191D01*
X649517Y133302D02*
X657041Y133302D01*
X657041Y135437D02*
X649517Y135437D01*
X649517Y137572D02*
X657041Y137572D01*
X632073Y131116D02*
X624549Y131116D01*
X624549Y139140D01*
X632073Y139140D01*
X632073Y131116D01*
X632073Y133251D02*
X624549Y133251D01*
X624549Y135386D02*
X632073Y135386D01*
X632073Y137521D02*
X624549Y137521D01*
X636149Y131116D02*
X643673Y131116D01*
X636149Y131116D02*
X636149Y139140D01*
X643673Y139140D01*
X643673Y131116D01*
X643673Y133251D02*
X636149Y133251D01*
X636149Y135386D02*
X643673Y135386D01*
X643673Y137521D02*
X636149Y137521D01*
D18*
X686116Y16949D02*
X693104Y16949D01*
X693104Y9961D01*
X686116Y9961D01*
X686116Y16949D01*
X686116Y14030D02*
X693104Y14030D01*
X693104Y34489D02*
X686116Y34489D01*
X693104Y34489D02*
X693104Y27501D01*
X686116Y27501D01*
X686116Y34489D01*
X686116Y31570D02*
X693104Y31570D01*
D11*
X720042Y27908D02*
X725058Y27908D01*
X725058Y22892D01*
X720042Y22892D01*
X720042Y27908D01*
X720042Y25033D02*
X725058Y25033D01*
X725058Y27174D02*
X720042Y27174D01*
X715058Y27908D02*
X710042Y27908D01*
X715058Y27908D02*
X715058Y22892D01*
X710042Y22892D01*
X710042Y27908D01*
X710042Y25033D02*
X715058Y25033D01*
X715058Y27174D02*
X710042Y27174D01*
X649002Y288242D02*
X649002Y293258D01*
X654018Y293258D01*
X654018Y288242D01*
X649002Y288242D01*
X649002Y290383D02*
X654018Y290383D01*
X654018Y292524D02*
X649002Y292524D01*
X649002Y283258D02*
X649002Y278242D01*
X649002Y283258D02*
X654018Y283258D01*
X654018Y278242D01*
X649002Y278242D01*
X649002Y280383D02*
X654018Y280383D01*
X654018Y282524D02*
X649002Y282524D01*
X661702Y288242D02*
X661702Y293258D01*
X666718Y293258D01*
X666718Y288242D01*
X661702Y288242D01*
X661702Y290383D02*
X666718Y290383D01*
X666718Y292524D02*
X661702Y292524D01*
X661702Y283258D02*
X661702Y278242D01*
X661702Y283258D02*
X666718Y283258D01*
X666718Y278242D01*
X661702Y278242D01*
X661702Y280383D02*
X666718Y280383D01*
X666718Y282524D02*
X661702Y282524D01*
X652177Y310467D02*
X652177Y315483D01*
X657193Y315483D01*
X657193Y310467D01*
X652177Y310467D01*
X652177Y312608D02*
X657193Y312608D01*
X657193Y314749D02*
X652177Y314749D01*
X652177Y305483D02*
X652177Y300467D01*
X652177Y305483D02*
X657193Y305483D01*
X657193Y300467D01*
X652177Y300467D01*
X652177Y302608D02*
X657193Y302608D01*
X657193Y304749D02*
X652177Y304749D01*
X668052Y310467D02*
X668052Y315483D01*
X673068Y315483D01*
X673068Y310467D01*
X668052Y310467D01*
X668052Y312608D02*
X673068Y312608D01*
X673068Y314749D02*
X668052Y314749D01*
X668052Y305483D02*
X668052Y300467D01*
X668052Y305483D02*
X673068Y305483D01*
X673068Y300467D01*
X668052Y300467D01*
X668052Y302608D02*
X673068Y302608D01*
X673068Y304749D02*
X668052Y304749D01*
X673068Y322692D02*
X673068Y327708D01*
X673068Y322692D02*
X668052Y322692D01*
X668052Y327708D01*
X673068Y327708D01*
X673068Y324833D02*
X668052Y324833D01*
X668052Y326974D02*
X673068Y326974D01*
X673068Y332692D02*
X673068Y337708D01*
X673068Y332692D02*
X668052Y332692D01*
X668052Y337708D01*
X673068Y337708D01*
X673068Y334833D02*
X668052Y334833D01*
X668052Y336974D02*
X673068Y336974D01*
X657193Y327708D02*
X657193Y322692D01*
X652177Y322692D01*
X652177Y327708D01*
X657193Y327708D01*
X657193Y324833D02*
X652177Y324833D01*
X652177Y326974D02*
X657193Y326974D01*
X657193Y332692D02*
X657193Y337708D01*
X657193Y332692D02*
X652177Y332692D01*
X652177Y337708D01*
X657193Y337708D01*
X657193Y334833D02*
X652177Y334833D01*
X652177Y336974D02*
X657193Y336974D01*
X683927Y315483D02*
X683927Y310467D01*
X683927Y315483D02*
X688943Y315483D01*
X688943Y310467D01*
X683927Y310467D01*
X683927Y312608D02*
X688943Y312608D01*
X688943Y314749D02*
X683927Y314749D01*
X683927Y305483D02*
X683927Y300467D01*
X683927Y305483D02*
X688943Y305483D01*
X688943Y300467D01*
X683927Y300467D01*
X683927Y302608D02*
X688943Y302608D01*
X688943Y304749D02*
X683927Y304749D01*
X633127Y310467D02*
X633127Y315483D01*
X638143Y315483D01*
X638143Y310467D01*
X633127Y310467D01*
X633127Y312608D02*
X638143Y312608D01*
X638143Y314749D02*
X633127Y314749D01*
X633127Y305483D02*
X633127Y300467D01*
X633127Y305483D02*
X638143Y305483D01*
X638143Y300467D01*
X633127Y300467D01*
X633127Y302608D02*
X638143Y302608D01*
X638143Y304749D02*
X633127Y304749D01*
X617252Y310467D02*
X617252Y315483D01*
X622268Y315483D01*
X622268Y310467D01*
X617252Y310467D01*
X617252Y312608D02*
X622268Y312608D01*
X622268Y314749D02*
X617252Y314749D01*
X617252Y305483D02*
X617252Y300467D01*
X617252Y305483D02*
X622268Y305483D01*
X622268Y300467D01*
X617252Y300467D01*
X617252Y302608D02*
X622268Y302608D01*
X622268Y304749D02*
X617252Y304749D01*
X601377Y310467D02*
X601377Y315483D01*
X606393Y315483D01*
X606393Y310467D01*
X601377Y310467D01*
X601377Y312608D02*
X606393Y312608D01*
X606393Y314749D02*
X601377Y314749D01*
X601377Y305483D02*
X601377Y300467D01*
X601377Y305483D02*
X606393Y305483D01*
X606393Y300467D01*
X601377Y300467D01*
X601377Y302608D02*
X606393Y302608D01*
X606393Y304749D02*
X601377Y304749D01*
X674402Y293258D02*
X674402Y288242D01*
X674402Y293258D02*
X679418Y293258D01*
X679418Y288242D01*
X674402Y288242D01*
X674402Y290383D02*
X679418Y290383D01*
X679418Y292524D02*
X674402Y292524D01*
X674402Y283258D02*
X674402Y278242D01*
X674402Y283258D02*
X679418Y283258D01*
X679418Y278242D01*
X674402Y278242D01*
X674402Y280383D02*
X679418Y280383D01*
X679418Y282524D02*
X674402Y282524D01*
X636302Y288242D02*
X636302Y293258D01*
X641318Y293258D01*
X641318Y288242D01*
X636302Y288242D01*
X636302Y290383D02*
X641318Y290383D01*
X641318Y292524D02*
X636302Y292524D01*
X636302Y283258D02*
X636302Y278242D01*
X636302Y283258D02*
X641318Y283258D01*
X641318Y278242D01*
X636302Y278242D01*
X636302Y280383D02*
X641318Y280383D01*
X641318Y282524D02*
X636302Y282524D01*
X623602Y288242D02*
X623602Y293258D01*
X628618Y293258D01*
X628618Y288242D01*
X623602Y288242D01*
X623602Y290383D02*
X628618Y290383D01*
X628618Y292524D02*
X623602Y292524D01*
X623602Y283258D02*
X623602Y278242D01*
X623602Y283258D02*
X628618Y283258D01*
X628618Y278242D01*
X623602Y278242D01*
X623602Y280383D02*
X628618Y280383D01*
X628618Y282524D02*
X623602Y282524D01*
X610902Y288242D02*
X610902Y293258D01*
X615918Y293258D01*
X615918Y288242D01*
X610902Y288242D01*
X610902Y290383D02*
X615918Y290383D01*
X615918Y292524D02*
X610902Y292524D01*
X610902Y283258D02*
X610902Y278242D01*
X610902Y283258D02*
X615918Y283258D01*
X615918Y278242D01*
X610902Y278242D01*
X610902Y280383D02*
X615918Y280383D01*
X615918Y282524D02*
X610902Y282524D01*
X688943Y322692D02*
X688943Y327708D01*
X688943Y322692D02*
X683927Y322692D01*
X683927Y327708D01*
X688943Y327708D01*
X688943Y324833D02*
X683927Y324833D01*
X683927Y326974D02*
X688943Y326974D01*
X688943Y332692D02*
X688943Y337708D01*
X688943Y332692D02*
X683927Y332692D01*
X683927Y337708D01*
X688943Y337708D01*
X688943Y334833D02*
X683927Y334833D01*
X683927Y336974D02*
X688943Y336974D01*
X638143Y327708D02*
X638143Y322692D01*
X633127Y322692D01*
X633127Y327708D01*
X638143Y327708D01*
X638143Y324833D02*
X633127Y324833D01*
X633127Y326974D02*
X638143Y326974D01*
X638143Y332692D02*
X638143Y337708D01*
X638143Y332692D02*
X633127Y332692D01*
X633127Y337708D01*
X638143Y337708D01*
X638143Y334833D02*
X633127Y334833D01*
X633127Y336974D02*
X638143Y336974D01*
X622268Y327708D02*
X622268Y322692D01*
X617252Y322692D01*
X617252Y327708D01*
X622268Y327708D01*
X622268Y324833D02*
X617252Y324833D01*
X617252Y326974D02*
X622268Y326974D01*
X622268Y332692D02*
X622268Y337708D01*
X622268Y332692D02*
X617252Y332692D01*
X617252Y337708D01*
X622268Y337708D01*
X622268Y334833D02*
X617252Y334833D01*
X617252Y336974D02*
X622268Y336974D01*
X606393Y327708D02*
X606393Y322692D01*
X601377Y322692D01*
X601377Y327708D01*
X606393Y327708D01*
X606393Y324833D02*
X601377Y324833D01*
X601377Y326974D02*
X606393Y326974D01*
X606393Y332692D02*
X606393Y337708D01*
X606393Y332692D02*
X601377Y332692D01*
X601377Y337708D01*
X606393Y337708D01*
X606393Y334833D02*
X601377Y334833D01*
X601377Y336974D02*
X606393Y336974D01*
X573183Y91201D02*
X573183Y86185D01*
X573183Y91201D02*
X578199Y91201D01*
X578199Y86185D01*
X573183Y86185D01*
X573183Y88326D02*
X578199Y88326D01*
X578199Y90467D02*
X573183Y90467D01*
X573183Y81201D02*
X573183Y76185D01*
X573183Y81201D02*
X578199Y81201D01*
X578199Y76185D01*
X573183Y76185D01*
X573183Y78326D02*
X578199Y78326D01*
X578199Y80467D02*
X573183Y80467D01*
X692102Y252190D02*
X697118Y252190D01*
X697118Y247174D01*
X692102Y247174D01*
X692102Y252190D01*
X692102Y249315D02*
X697118Y249315D01*
X697118Y251456D02*
X692102Y251456D01*
X687118Y252190D02*
X682102Y252190D01*
X687118Y252190D02*
X687118Y247174D01*
X682102Y247174D01*
X682102Y252190D01*
X682102Y249315D02*
X687118Y249315D01*
X687118Y251456D02*
X682102Y251456D01*
D19*
X644513Y175001D02*
X644513Y164985D01*
X644513Y175001D02*
X653529Y175001D01*
X653529Y164985D01*
X644513Y164985D01*
X644513Y167126D02*
X653529Y167126D01*
X653529Y169267D02*
X644513Y169267D01*
X644513Y171408D02*
X653529Y171408D01*
X653529Y173549D02*
X644513Y173549D01*
X644513Y158001D02*
X644513Y147985D01*
X644513Y158001D02*
X653529Y158001D01*
X653529Y147985D01*
X644513Y147985D01*
X644513Y150126D02*
X653529Y150126D01*
X653529Y152267D02*
X644513Y152267D01*
X644513Y154408D02*
X653529Y154408D01*
X653529Y156549D02*
X644513Y156549D01*
X681461Y198362D02*
X691477Y198362D01*
X681461Y198362D02*
X681461Y207378D01*
X691477Y207378D01*
X691477Y198362D01*
X691477Y200503D02*
X681461Y200503D01*
X681461Y202644D02*
X691477Y202644D01*
X691477Y204785D02*
X681461Y204785D01*
X681461Y206926D02*
X691477Y206926D01*
X698461Y198362D02*
X708477Y198362D01*
X698461Y198362D02*
X698461Y207378D01*
X708477Y207378D01*
X708477Y198362D01*
X708477Y200503D02*
X698461Y200503D01*
X698461Y202644D02*
X708477Y202644D01*
X708477Y204785D02*
X698461Y204785D01*
X698461Y206926D02*
X708477Y206926D01*
D11*
X585518Y175292D02*
X580502Y175292D01*
X580502Y180308D01*
X585518Y180308D01*
X585518Y175292D01*
X585518Y177433D02*
X580502Y177433D01*
X580502Y179574D02*
X585518Y179574D01*
X590502Y175292D02*
X595518Y175292D01*
X590502Y175292D02*
X590502Y180308D01*
X595518Y180308D01*
X595518Y175292D01*
X595518Y177433D02*
X590502Y177433D01*
X590502Y179574D02*
X595518Y179574D01*
X585518Y194342D02*
X580502Y194342D01*
X580502Y199358D01*
X585518Y199358D01*
X585518Y194342D01*
X585518Y196483D02*
X580502Y196483D01*
X580502Y198624D02*
X585518Y198624D01*
X590502Y194342D02*
X595518Y194342D01*
X590502Y194342D02*
X590502Y199358D01*
X595518Y199358D01*
X595518Y194342D01*
X595518Y196483D02*
X590502Y196483D01*
X590502Y198624D02*
X595518Y198624D01*
X585518Y203867D02*
X580502Y203867D01*
X580502Y208883D01*
X585518Y208883D01*
X585518Y203867D01*
X585518Y206008D02*
X580502Y206008D01*
X580502Y208149D02*
X585518Y208149D01*
X590502Y203867D02*
X595518Y203867D01*
X590502Y203867D02*
X590502Y208883D01*
X595518Y208883D01*
X595518Y203867D01*
X595518Y206008D02*
X590502Y206008D01*
X590502Y208149D02*
X595518Y208149D01*
X585518Y165767D02*
X580502Y165767D01*
X580502Y170783D01*
X585518Y170783D01*
X585518Y165767D01*
X585518Y167908D02*
X580502Y167908D01*
X580502Y170049D02*
X585518Y170049D01*
X590502Y165767D02*
X595518Y165767D01*
X590502Y165767D02*
X590502Y170783D01*
X595518Y170783D01*
X595518Y165767D01*
X595518Y167908D02*
X590502Y167908D01*
X590502Y170049D02*
X595518Y170049D01*
X585518Y184817D02*
X580502Y184817D01*
X580502Y189833D01*
X585518Y189833D01*
X585518Y184817D01*
X585518Y186958D02*
X580502Y186958D01*
X580502Y189099D02*
X585518Y189099D01*
X590502Y184817D02*
X595518Y184817D01*
X590502Y184817D02*
X590502Y189833D01*
X595518Y189833D01*
X595518Y184817D01*
X595518Y186958D02*
X590502Y186958D01*
X590502Y189099D02*
X595518Y189099D01*
X635794Y90947D02*
X635794Y85931D01*
X635794Y90947D02*
X640810Y90947D01*
X640810Y85931D01*
X635794Y85931D01*
X635794Y88072D02*
X640810Y88072D01*
X640810Y90213D02*
X635794Y90213D01*
X635794Y80947D02*
X635794Y75931D01*
X635794Y80947D02*
X640810Y80947D01*
X640810Y75931D01*
X635794Y75931D01*
X635794Y78072D02*
X640810Y78072D01*
X640810Y80213D02*
X635794Y80213D01*
D20*
X591716Y86226D02*
X591716Y90762D01*
X602752Y90762D01*
X602752Y86226D01*
X591716Y86226D01*
X591716Y88348D02*
X602752Y88348D01*
X602752Y90470D02*
X591716Y90470D01*
X591716Y81262D02*
X591716Y76726D01*
X591716Y81262D02*
X602752Y81262D01*
X602752Y76726D01*
X591716Y76726D01*
X591716Y78848D02*
X602752Y78848D01*
X602752Y80970D02*
X591716Y80970D01*
X591716Y71762D02*
X591716Y67226D01*
X591716Y71762D02*
X602752Y71762D01*
X602752Y67226D01*
X591716Y67226D01*
X591716Y69348D02*
X602752Y69348D01*
X602752Y71470D02*
X591716Y71470D01*
X617718Y71762D02*
X617718Y67226D01*
X617718Y71762D02*
X628754Y71762D01*
X628754Y67226D01*
X617718Y67226D01*
X617718Y69348D02*
X628754Y69348D01*
X628754Y71470D02*
X617718Y71470D01*
X617718Y86226D02*
X617718Y90762D01*
X628754Y90762D01*
X628754Y86226D01*
X617718Y86226D01*
X617718Y88348D02*
X628754Y88348D01*
X628754Y90470D02*
X617718Y90470D01*
D11*
X648494Y91201D02*
X648494Y86185D01*
X648494Y91201D02*
X653510Y91201D01*
X653510Y86185D01*
X648494Y86185D01*
X648494Y88326D02*
X653510Y88326D01*
X653510Y90467D02*
X648494Y90467D01*
X648494Y81201D02*
X648494Y76185D01*
X648494Y81201D02*
X653510Y81201D01*
X653510Y76185D01*
X648494Y76185D01*
X648494Y78326D02*
X653510Y78326D01*
X653510Y80467D02*
X648494Y80467D01*
X577476Y70906D02*
X577476Y65890D01*
X577476Y70906D02*
X582492Y70906D01*
X582492Y65890D01*
X577476Y65890D01*
X577476Y68031D02*
X582492Y68031D01*
X582492Y70172D02*
X577476Y70172D01*
X577476Y60906D02*
X577476Y55890D01*
X577476Y60906D02*
X582492Y60906D01*
X582492Y55890D01*
X577476Y55890D01*
X577476Y58031D02*
X582492Y58031D01*
X582492Y60172D02*
X577476Y60172D01*
X582327Y86058D02*
X582327Y91074D01*
X587343Y91074D01*
X587343Y86058D01*
X582327Y86058D01*
X582327Y88199D02*
X587343Y88199D01*
X587343Y90340D02*
X582327Y90340D01*
X582327Y81074D02*
X582327Y76058D01*
X582327Y81074D02*
X587343Y81074D01*
X587343Y76058D01*
X582327Y76058D01*
X582327Y78199D02*
X587343Y78199D01*
X587343Y80340D02*
X582327Y80340D01*
X601836Y214973D02*
X605382Y218519D01*
X601836Y214973D02*
X598290Y218519D01*
X601836Y222065D01*
X605382Y218519D01*
X603977Y217114D02*
X599695Y217114D01*
X599026Y219255D02*
X604646Y219255D01*
X602505Y221396D02*
X601167Y221396D01*
X608907Y222045D02*
X612453Y225591D01*
X608907Y222045D02*
X605361Y225591D01*
X608907Y229137D01*
X612453Y225591D01*
X611048Y224186D02*
X606766Y224186D01*
X606097Y226327D02*
X611717Y226327D01*
X609576Y228468D02*
X608238Y228468D01*
D21*
X530860Y12700D03*
X530860Y38100D03*
X530860Y63500D03*
X530860Y88900D03*
X530860Y114300D03*
X530860Y139700D03*
X530860Y165100D03*
X530860Y190500D03*
X530860Y215900D03*
X530860Y241300D03*
X530860Y266700D03*
X530860Y292100D03*
X530860Y317500D03*
X530860Y342900D03*
X530860Y368300D03*
X530860Y393700D03*
X759460Y12700D03*
X759460Y38100D03*
X759460Y63500D03*
X759460Y88900D03*
X759460Y114300D03*
X759460Y139700D03*
X759460Y165100D03*
X759460Y190500D03*
X759460Y215900D03*
X759460Y241300D03*
X759460Y266700D03*
X759460Y292100D03*
X759460Y317500D03*
X759460Y342900D03*
X759460Y368300D03*
X759460Y393700D03*
D10*
X104507Y416023D02*
X93493Y416023D01*
X93493Y435037D01*
X104507Y435037D01*
X104507Y416023D01*
X104507Y418166D02*
X93493Y418166D01*
X93493Y420309D02*
X104507Y420309D01*
X104507Y422452D02*
X93493Y422452D01*
X93493Y424595D02*
X104507Y424595D01*
X104507Y426738D02*
X93493Y426738D01*
X93493Y428881D02*
X104507Y428881D01*
X104507Y431024D02*
X93493Y431024D01*
X93493Y433167D02*
X104507Y433167D01*
X149493Y416023D02*
X160507Y416023D01*
X149493Y416023D02*
X149493Y435037D01*
X160507Y435037D01*
X160507Y416023D01*
X160507Y418166D02*
X149493Y418166D01*
X149493Y420309D02*
X160507Y420309D01*
X160507Y422452D02*
X149493Y422452D01*
X149493Y424595D02*
X160507Y424595D01*
X160507Y426738D02*
X149493Y426738D01*
X149493Y428881D02*
X160507Y428881D01*
X160507Y431024D02*
X149493Y431024D01*
X149493Y433167D02*
X160507Y433167D01*
D11*
X114508Y456022D02*
X109492Y456022D01*
X109492Y468538D01*
X114508Y468538D01*
X114508Y456022D01*
X114508Y458163D02*
X109492Y458163D01*
X109492Y460304D02*
X114508Y460304D01*
X114508Y462445D02*
X109492Y462445D01*
X109492Y464586D02*
X114508Y464586D01*
X114508Y466727D02*
X109492Y466727D01*
X119492Y456022D02*
X124508Y456022D01*
X119492Y456022D02*
X119492Y468538D01*
X124508Y468538D01*
X124508Y456022D01*
X124508Y458163D02*
X119492Y458163D01*
X119492Y460304D02*
X124508Y460304D01*
X124508Y462445D02*
X119492Y462445D01*
X119492Y464586D02*
X124508Y464586D01*
X124508Y466727D02*
X119492Y466727D01*
X129492Y456022D02*
X134508Y456022D01*
X129492Y456022D02*
X129492Y468538D01*
X134508Y468538D01*
X134508Y456022D01*
X134508Y458163D02*
X129492Y458163D01*
X129492Y460304D02*
X134508Y460304D01*
X134508Y462445D02*
X129492Y462445D01*
X129492Y464586D02*
X134508Y464586D01*
X134508Y466727D02*
X129492Y466727D01*
X139492Y456022D02*
X144508Y456022D01*
X139492Y456022D02*
X139492Y468538D01*
X144508Y468538D01*
X144508Y456022D01*
X144508Y458163D02*
X139492Y458163D01*
X139492Y460304D02*
X144508Y460304D01*
X144508Y462445D02*
X139492Y462445D01*
X139492Y464586D02*
X144508Y464586D01*
X144508Y466727D02*
X139492Y466727D01*
D12*
X143765Y655245D02*
X145235Y655245D01*
X143765Y655245D02*
X143765Y658215D01*
X145235Y658215D01*
X145235Y655245D01*
X145235Y657430D02*
X143765Y657430D01*
X140235Y655245D02*
X138765Y655245D01*
X138765Y658215D01*
X140235Y658215D01*
X140235Y655245D01*
X140235Y657430D02*
X138765Y657430D01*
X135235Y655245D02*
X133765Y655245D01*
X133765Y658215D01*
X135235Y658215D01*
X135235Y655245D01*
X135235Y657430D02*
X133765Y657430D01*
X130235Y655245D02*
X128765Y655245D01*
X128765Y658215D01*
X130235Y658215D01*
X130235Y655245D01*
X130235Y657430D02*
X128765Y657430D01*
X125235Y655245D02*
X123765Y655245D01*
X123765Y658215D01*
X125235Y658215D01*
X125235Y655245D01*
X125235Y657430D02*
X123765Y657430D01*
X120235Y655245D02*
X118765Y655245D01*
X118765Y658215D01*
X120235Y658215D01*
X120235Y655245D01*
X120235Y657430D02*
X118765Y657430D01*
X115235Y655245D02*
X113765Y655245D01*
X113765Y658215D01*
X115235Y658215D01*
X115235Y655245D01*
X115235Y657430D02*
X113765Y657430D01*
X110235Y655245D02*
X108765Y655245D01*
X108765Y658215D01*
X110235Y658215D01*
X110235Y655245D01*
X110235Y657430D02*
X108765Y657430D01*
X105485Y651965D02*
X105485Y650495D01*
X102515Y650495D01*
X102515Y651965D01*
X105485Y651965D01*
X105485Y646965D02*
X105485Y645495D01*
X102515Y645495D01*
X102515Y646965D01*
X105485Y646965D01*
X105485Y641965D02*
X105485Y640495D01*
X102515Y640495D01*
X102515Y641965D01*
X105485Y641965D01*
X105485Y636965D02*
X105485Y635495D01*
X102515Y635495D01*
X102515Y636965D01*
X105485Y636965D01*
X105485Y631965D02*
X105485Y630495D01*
X102515Y630495D01*
X102515Y631965D01*
X105485Y631965D01*
X105485Y626965D02*
X105485Y625495D01*
X102515Y625495D01*
X102515Y626965D01*
X105485Y626965D01*
X105485Y621965D02*
X105485Y620495D01*
X102515Y620495D01*
X102515Y621965D01*
X105485Y621965D01*
X105485Y616965D02*
X105485Y615495D01*
X102515Y615495D01*
X102515Y616965D01*
X105485Y616965D01*
X108765Y612215D02*
X110235Y612215D01*
X110235Y609245D01*
X108765Y609245D01*
X108765Y612215D01*
X108765Y611430D02*
X110235Y611430D01*
X113765Y612215D02*
X115235Y612215D01*
X115235Y609245D01*
X113765Y609245D01*
X113765Y612215D01*
X113765Y611430D02*
X115235Y611430D01*
X118765Y612215D02*
X120235Y612215D01*
X120235Y609245D01*
X118765Y609245D01*
X118765Y612215D01*
X118765Y611430D02*
X120235Y611430D01*
X123765Y612215D02*
X125235Y612215D01*
X125235Y609245D01*
X123765Y609245D01*
X123765Y612215D01*
X123765Y611430D02*
X125235Y611430D01*
X128765Y612215D02*
X130235Y612215D01*
X130235Y609245D01*
X128765Y609245D01*
X128765Y612215D01*
X128765Y611430D02*
X130235Y611430D01*
X133765Y612215D02*
X135235Y612215D01*
X135235Y609245D01*
X133765Y609245D01*
X133765Y612215D01*
X133765Y611430D02*
X135235Y611430D01*
X138765Y612215D02*
X140235Y612215D01*
X140235Y609245D01*
X138765Y609245D01*
X138765Y612215D01*
X138765Y611430D02*
X140235Y611430D01*
X143765Y612215D02*
X145235Y612215D01*
X145235Y609245D01*
X143765Y609245D01*
X143765Y612215D01*
X143765Y611430D02*
X145235Y611430D01*
X148515Y615495D02*
X148515Y616965D01*
X151485Y616965D01*
X151485Y615495D01*
X148515Y615495D01*
X148515Y620495D02*
X148515Y621965D01*
X151485Y621965D01*
X151485Y620495D01*
X148515Y620495D01*
X148515Y625495D02*
X148515Y626965D01*
X151485Y626965D01*
X151485Y625495D01*
X148515Y625495D01*
X148515Y630495D02*
X148515Y631965D01*
X151485Y631965D01*
X151485Y630495D01*
X148515Y630495D01*
X148515Y635495D02*
X148515Y636965D01*
X151485Y636965D01*
X151485Y635495D01*
X148515Y635495D01*
X148515Y640495D02*
X148515Y641965D01*
X151485Y641965D01*
X151485Y640495D01*
X148515Y640495D01*
X148515Y645495D02*
X148515Y646965D01*
X151485Y646965D01*
X151485Y645495D01*
X148515Y645495D01*
X148515Y650495D02*
X148515Y651965D01*
X151485Y651965D01*
X151485Y650495D01*
X148515Y650495D01*
D13*
X110188Y650542D02*
X110188Y616918D01*
X110188Y650542D02*
X143812Y650542D01*
X143812Y616918D01*
X110188Y616918D01*
X110188Y618957D02*
X143812Y618957D01*
X143812Y620996D02*
X110188Y620996D01*
X110188Y623035D02*
X143812Y623035D01*
X143812Y625074D02*
X110188Y625074D01*
X110188Y627113D02*
X143812Y627113D01*
X143812Y629152D02*
X110188Y629152D01*
X110188Y631191D02*
X143812Y631191D01*
X143812Y633230D02*
X110188Y633230D01*
X110188Y635269D02*
X143812Y635269D01*
X143812Y637308D02*
X110188Y637308D01*
X110188Y639347D02*
X143812Y639347D01*
X143812Y641386D02*
X110188Y641386D01*
X110188Y643425D02*
X143812Y643425D01*
X143812Y645464D02*
X110188Y645464D01*
X110188Y647503D02*
X143812Y647503D01*
X143812Y649542D02*
X110188Y649542D01*
D11*
X82010Y654538D02*
X82010Y659554D01*
X87026Y659554D01*
X87026Y654538D01*
X82010Y654538D01*
X82010Y656679D02*
X87026Y656679D01*
X87026Y658820D02*
X82010Y658820D01*
X82010Y649554D02*
X82010Y644538D01*
X82010Y649554D02*
X87026Y649554D01*
X87026Y644538D01*
X82010Y644538D01*
X82010Y646679D02*
X87026Y646679D01*
X87026Y648820D02*
X82010Y648820D01*
X95749Y656383D02*
X99295Y659929D01*
X95749Y656383D02*
X92203Y659929D01*
X95749Y663475D01*
X99295Y659929D01*
X97890Y658524D02*
X93608Y658524D01*
X92939Y660665D02*
X98559Y660665D01*
X96418Y662806D02*
X95080Y662806D01*
X102820Y663454D02*
X106366Y667000D01*
X102820Y663454D02*
X99274Y667000D01*
X102820Y670546D01*
X106366Y667000D01*
X104961Y665595D02*
X100679Y665595D01*
X100010Y667736D02*
X105630Y667736D01*
X103489Y669877D02*
X102151Y669877D01*
X91935Y668072D02*
X88389Y664526D01*
X84843Y668072D01*
X88389Y671618D01*
X91935Y668072D01*
X90530Y666667D02*
X86248Y666667D01*
X85579Y668808D02*
X91199Y668808D01*
X89058Y670949D02*
X87720Y670949D01*
X95460Y671598D02*
X99006Y675144D01*
X95460Y671598D02*
X91914Y675144D01*
X95460Y678690D01*
X99006Y675144D01*
X97601Y673739D02*
X93319Y673739D01*
X92650Y675880D02*
X98270Y675880D01*
X96129Y678021D02*
X94791Y678021D01*
X179225Y630269D02*
X184241Y630269D01*
X184241Y625253D01*
X179225Y625253D01*
X179225Y630269D01*
X179225Y627394D02*
X184241Y627394D01*
X184241Y629535D02*
X179225Y629535D01*
X174241Y630269D02*
X169225Y630269D01*
X174241Y630269D02*
X174241Y625253D01*
X169225Y625253D01*
X169225Y630269D01*
X169225Y627394D02*
X174241Y627394D01*
X174241Y629535D02*
X169225Y629535D01*
X161198Y673859D02*
X156182Y673859D01*
X161198Y673859D02*
X161198Y668843D01*
X156182Y668843D01*
X156182Y673859D01*
X156182Y670984D02*
X161198Y670984D01*
X161198Y673125D02*
X156182Y673125D01*
X151198Y673859D02*
X146182Y673859D01*
X151198Y673859D02*
X151198Y668843D01*
X146182Y668843D01*
X146182Y673859D01*
X146182Y670984D02*
X151198Y670984D01*
X151198Y673125D02*
X146182Y673125D01*
X73904Y453028D02*
X68888Y453028D01*
X73904Y453028D02*
X73904Y448012D01*
X68888Y448012D01*
X68888Y453028D01*
X68888Y450153D02*
X73904Y450153D01*
X73904Y452294D02*
X68888Y452294D01*
X63904Y453028D02*
X58888Y453028D01*
X63904Y453028D02*
X63904Y448012D01*
X58888Y448012D01*
X58888Y453028D01*
X58888Y450153D02*
X63904Y450153D01*
X63904Y452294D02*
X58888Y452294D01*
X68989Y462985D02*
X74005Y462985D01*
X74005Y457969D01*
X68989Y457969D01*
X68989Y462985D01*
X68989Y460110D02*
X74005Y460110D01*
X74005Y462251D02*
X68989Y462251D01*
X64005Y462985D02*
X58989Y462985D01*
X64005Y462985D02*
X64005Y457969D01*
X58989Y457969D01*
X58989Y462985D01*
X58989Y460110D02*
X64005Y460110D01*
X64005Y462251D02*
X58989Y462251D01*
D14*
X20787Y436837D03*
X226226Y811501D03*
D15*
X70963Y662035D02*
X70963Y654095D01*
X70963Y662035D02*
X76403Y662035D01*
X76403Y654095D01*
X70963Y654095D01*
X70963Y656309D02*
X76403Y656309D01*
X76403Y658523D02*
X70963Y658523D01*
X70963Y660737D02*
X76403Y660737D01*
X54463Y662035D02*
X54463Y654095D01*
X54463Y662035D02*
X59903Y662035D01*
X59903Y654095D01*
X54463Y654095D01*
X54463Y656309D02*
X59903Y656309D01*
X59903Y658523D02*
X54463Y658523D01*
X54463Y660737D02*
X59903Y660737D01*
X54463Y641035D02*
X54463Y633095D01*
X54463Y641035D02*
X59903Y641035D01*
X59903Y633095D01*
X54463Y633095D01*
X54463Y635309D02*
X59903Y635309D01*
X59903Y637523D02*
X54463Y637523D01*
X54463Y639737D02*
X59903Y639737D01*
X70963Y641035D02*
X70963Y633095D01*
X70963Y641035D02*
X76403Y641035D01*
X76403Y633095D01*
X70963Y633095D01*
X70963Y635309D02*
X76403Y635309D01*
X76403Y637523D02*
X70963Y637523D01*
X70963Y639737D02*
X76403Y639737D01*
D11*
X73540Y672005D02*
X68524Y672005D01*
X73540Y672005D02*
X73540Y666989D01*
X68524Y666989D01*
X68524Y672005D01*
X68524Y669130D02*
X73540Y669130D01*
X73540Y671271D02*
X68524Y671271D01*
X63540Y672005D02*
X58524Y672005D01*
X63540Y672005D02*
X63540Y666989D01*
X58524Y666989D01*
X58524Y672005D01*
X58524Y669130D02*
X63540Y669130D01*
X63540Y671271D02*
X58524Y671271D01*
D16*
X160767Y585576D02*
X160767Y578624D01*
X160767Y585576D02*
X171719Y585576D01*
X171719Y578624D01*
X160767Y578624D01*
X160767Y580826D02*
X171719Y580826D01*
X171719Y583028D02*
X160767Y583028D01*
X160767Y585230D02*
X171719Y585230D01*
X160767Y567576D02*
X160767Y560624D01*
X160767Y567576D02*
X171719Y567576D01*
X171719Y560624D01*
X160767Y560624D01*
X160767Y562826D02*
X171719Y562826D01*
X171719Y565028D02*
X160767Y565028D01*
X160767Y567230D02*
X171719Y567230D01*
X177455Y578624D02*
X177455Y585576D01*
X188407Y585576D01*
X188407Y578624D01*
X177455Y578624D01*
X177455Y580826D02*
X188407Y580826D01*
X188407Y583028D02*
X177455Y583028D01*
X177455Y585230D02*
X188407Y585230D01*
X177455Y567576D02*
X177455Y560624D01*
X177455Y567576D02*
X188407Y567576D01*
X188407Y560624D01*
X177455Y560624D01*
X177455Y562826D02*
X188407Y562826D01*
X188407Y565028D02*
X177455Y565028D01*
X177455Y567230D02*
X188407Y567230D01*
X144003Y578624D02*
X144003Y585576D01*
X154955Y585576D01*
X154955Y578624D01*
X144003Y578624D01*
X144003Y580826D02*
X154955Y580826D01*
X154955Y583028D02*
X144003Y583028D01*
X144003Y585230D02*
X154955Y585230D01*
X144003Y567576D02*
X144003Y560624D01*
X144003Y567576D02*
X154955Y567576D01*
X154955Y560624D01*
X144003Y560624D01*
X144003Y562826D02*
X154955Y562826D01*
X154955Y565028D02*
X144003Y565028D01*
X144003Y567230D02*
X154955Y567230D01*
X107224Y578548D02*
X107224Y585500D01*
X118176Y585500D01*
X118176Y578548D01*
X107224Y578548D01*
X107224Y580750D02*
X118176Y580750D01*
X118176Y582952D02*
X107224Y582952D01*
X107224Y585154D02*
X118176Y585154D01*
X107224Y567500D02*
X107224Y560548D01*
X107224Y567500D02*
X118176Y567500D01*
X118176Y560548D01*
X107224Y560548D01*
X107224Y562750D02*
X118176Y562750D01*
X118176Y564952D02*
X107224Y564952D01*
X107224Y567154D02*
X118176Y567154D01*
D17*
X167697Y550645D02*
X175221Y550645D01*
X175221Y542621D01*
X167697Y542621D01*
X167697Y550645D01*
X167697Y544756D02*
X175221Y544756D01*
X175221Y546891D02*
X167697Y546891D01*
X167697Y549026D02*
X175221Y549026D01*
X163621Y550645D02*
X156097Y550645D01*
X163621Y550645D02*
X163621Y542621D01*
X156097Y542621D01*
X156097Y550645D01*
X156097Y544756D02*
X163621Y544756D01*
X163621Y546891D02*
X156097Y546891D01*
X156097Y549026D02*
X163621Y549026D01*
X180811Y533985D02*
X188335Y533985D01*
X180811Y533985D02*
X180811Y542009D01*
X188335Y542009D01*
X188335Y533985D01*
X188335Y536120D02*
X180811Y536120D01*
X180811Y538255D02*
X188335Y538255D01*
X188335Y540390D02*
X180811Y540390D01*
X192411Y533985D02*
X199935Y533985D01*
X192411Y533985D02*
X192411Y542009D01*
X199935Y542009D01*
X199935Y533985D01*
X199935Y536120D02*
X192411Y536120D01*
X192411Y538255D02*
X199935Y538255D01*
X199935Y540390D02*
X192411Y540390D01*
X150481Y550671D02*
X142957Y550671D01*
X150481Y550671D02*
X150481Y542647D01*
X142957Y542647D01*
X142957Y550671D01*
X142957Y544782D02*
X150481Y544782D01*
X150481Y546917D02*
X142957Y546917D01*
X142957Y549052D02*
X150481Y549052D01*
X138881Y550671D02*
X131357Y550671D01*
X138881Y550671D02*
X138881Y542647D01*
X131357Y542647D01*
X131357Y550671D01*
X131357Y544782D02*
X138881Y544782D01*
X138881Y546917D02*
X131357Y546917D01*
X131357Y549052D02*
X138881Y549052D01*
X113913Y542596D02*
X106389Y542596D01*
X106389Y550620D01*
X113913Y550620D01*
X113913Y542596D01*
X113913Y544731D02*
X106389Y544731D01*
X106389Y546866D02*
X113913Y546866D01*
X113913Y549001D02*
X106389Y549001D01*
X117989Y542596D02*
X125513Y542596D01*
X117989Y542596D02*
X117989Y550620D01*
X125513Y550620D01*
X125513Y542596D01*
X125513Y544731D02*
X117989Y544731D01*
X117989Y546866D02*
X125513Y546866D01*
X125513Y549001D02*
X117989Y549001D01*
D18*
X167956Y428429D02*
X174944Y428429D01*
X174944Y421441D01*
X167956Y421441D01*
X167956Y428429D01*
X167956Y425510D02*
X174944Y425510D01*
X174944Y445969D02*
X167956Y445969D01*
X174944Y445969D02*
X174944Y438981D01*
X167956Y438981D01*
X167956Y445969D01*
X167956Y443050D02*
X174944Y443050D01*
D11*
X201882Y439388D02*
X206898Y439388D01*
X206898Y434372D01*
X201882Y434372D01*
X201882Y439388D01*
X201882Y436513D02*
X206898Y436513D01*
X206898Y438654D02*
X201882Y438654D01*
X196898Y439388D02*
X191882Y439388D01*
X196898Y439388D02*
X196898Y434372D01*
X191882Y434372D01*
X191882Y439388D01*
X191882Y436513D02*
X196898Y436513D01*
X196898Y438654D02*
X191882Y438654D01*
X130842Y699722D02*
X130842Y704738D01*
X135858Y704738D01*
X135858Y699722D01*
X130842Y699722D01*
X130842Y701863D02*
X135858Y701863D01*
X135858Y704004D02*
X130842Y704004D01*
X130842Y694738D02*
X130842Y689722D01*
X130842Y694738D02*
X135858Y694738D01*
X135858Y689722D01*
X130842Y689722D01*
X130842Y691863D02*
X135858Y691863D01*
X135858Y694004D02*
X130842Y694004D01*
X143542Y699722D02*
X143542Y704738D01*
X148558Y704738D01*
X148558Y699722D01*
X143542Y699722D01*
X143542Y701863D02*
X148558Y701863D01*
X148558Y704004D02*
X143542Y704004D01*
X143542Y694738D02*
X143542Y689722D01*
X143542Y694738D02*
X148558Y694738D01*
X148558Y689722D01*
X143542Y689722D01*
X143542Y691863D02*
X148558Y691863D01*
X148558Y694004D02*
X143542Y694004D01*
X134017Y721947D02*
X134017Y726963D01*
X139033Y726963D01*
X139033Y721947D01*
X134017Y721947D01*
X134017Y724088D02*
X139033Y724088D01*
X139033Y726229D02*
X134017Y726229D01*
X134017Y716963D02*
X134017Y711947D01*
X134017Y716963D02*
X139033Y716963D01*
X139033Y711947D01*
X134017Y711947D01*
X134017Y714088D02*
X139033Y714088D01*
X139033Y716229D02*
X134017Y716229D01*
X149892Y721947D02*
X149892Y726963D01*
X154908Y726963D01*
X154908Y721947D01*
X149892Y721947D01*
X149892Y724088D02*
X154908Y724088D01*
X154908Y726229D02*
X149892Y726229D01*
X149892Y716963D02*
X149892Y711947D01*
X149892Y716963D02*
X154908Y716963D01*
X154908Y711947D01*
X149892Y711947D01*
X149892Y714088D02*
X154908Y714088D01*
X154908Y716229D02*
X149892Y716229D01*
X154908Y734172D02*
X154908Y739188D01*
X154908Y734172D02*
X149892Y734172D01*
X149892Y739188D01*
X154908Y739188D01*
X154908Y736313D02*
X149892Y736313D01*
X149892Y738454D02*
X154908Y738454D01*
X154908Y744172D02*
X154908Y749188D01*
X154908Y744172D02*
X149892Y744172D01*
X149892Y749188D01*
X154908Y749188D01*
X154908Y746313D02*
X149892Y746313D01*
X149892Y748454D02*
X154908Y748454D01*
X139033Y739188D02*
X139033Y734172D01*
X134017Y734172D01*
X134017Y739188D01*
X139033Y739188D01*
X139033Y736313D02*
X134017Y736313D01*
X134017Y738454D02*
X139033Y738454D01*
X139033Y744172D02*
X139033Y749188D01*
X139033Y744172D02*
X134017Y744172D01*
X134017Y749188D01*
X139033Y749188D01*
X139033Y746313D02*
X134017Y746313D01*
X134017Y748454D02*
X139033Y748454D01*
X165767Y726963D02*
X165767Y721947D01*
X165767Y726963D02*
X170783Y726963D01*
X170783Y721947D01*
X165767Y721947D01*
X165767Y724088D02*
X170783Y724088D01*
X170783Y726229D02*
X165767Y726229D01*
X165767Y716963D02*
X165767Y711947D01*
X165767Y716963D02*
X170783Y716963D01*
X170783Y711947D01*
X165767Y711947D01*
X165767Y714088D02*
X170783Y714088D01*
X170783Y716229D02*
X165767Y716229D01*
X114967Y721947D02*
X114967Y726963D01*
X119983Y726963D01*
X119983Y721947D01*
X114967Y721947D01*
X114967Y724088D02*
X119983Y724088D01*
X119983Y726229D02*
X114967Y726229D01*
X114967Y716963D02*
X114967Y711947D01*
X114967Y716963D02*
X119983Y716963D01*
X119983Y711947D01*
X114967Y711947D01*
X114967Y714088D02*
X119983Y714088D01*
X119983Y716229D02*
X114967Y716229D01*
X99092Y721947D02*
X99092Y726963D01*
X104108Y726963D01*
X104108Y721947D01*
X99092Y721947D01*
X99092Y724088D02*
X104108Y724088D01*
X104108Y726229D02*
X99092Y726229D01*
X99092Y716963D02*
X99092Y711947D01*
X99092Y716963D02*
X104108Y716963D01*
X104108Y711947D01*
X99092Y711947D01*
X99092Y714088D02*
X104108Y714088D01*
X104108Y716229D02*
X99092Y716229D01*
X83217Y721947D02*
X83217Y726963D01*
X88233Y726963D01*
X88233Y721947D01*
X83217Y721947D01*
X83217Y724088D02*
X88233Y724088D01*
X88233Y726229D02*
X83217Y726229D01*
X83217Y716963D02*
X83217Y711947D01*
X83217Y716963D02*
X88233Y716963D01*
X88233Y711947D01*
X83217Y711947D01*
X83217Y714088D02*
X88233Y714088D01*
X88233Y716229D02*
X83217Y716229D01*
X156242Y704738D02*
X156242Y699722D01*
X156242Y704738D02*
X161258Y704738D01*
X161258Y699722D01*
X156242Y699722D01*
X156242Y701863D02*
X161258Y701863D01*
X161258Y704004D02*
X156242Y704004D01*
X156242Y694738D02*
X156242Y689722D01*
X156242Y694738D02*
X161258Y694738D01*
X161258Y689722D01*
X156242Y689722D01*
X156242Y691863D02*
X161258Y691863D01*
X161258Y694004D02*
X156242Y694004D01*
X118142Y699722D02*
X118142Y704738D01*
X123158Y704738D01*
X123158Y699722D01*
X118142Y699722D01*
X118142Y701863D02*
X123158Y701863D01*
X123158Y704004D02*
X118142Y704004D01*
X118142Y694738D02*
X118142Y689722D01*
X118142Y694738D02*
X123158Y694738D01*
X123158Y689722D01*
X118142Y689722D01*
X118142Y691863D02*
X123158Y691863D01*
X123158Y694004D02*
X118142Y694004D01*
X105442Y699722D02*
X105442Y704738D01*
X110458Y704738D01*
X110458Y699722D01*
X105442Y699722D01*
X105442Y701863D02*
X110458Y701863D01*
X110458Y704004D02*
X105442Y704004D01*
X105442Y694738D02*
X105442Y689722D01*
X105442Y694738D02*
X110458Y694738D01*
X110458Y689722D01*
X105442Y689722D01*
X105442Y691863D02*
X110458Y691863D01*
X110458Y694004D02*
X105442Y694004D01*
X92742Y699722D02*
X92742Y704738D01*
X97758Y704738D01*
X97758Y699722D01*
X92742Y699722D01*
X92742Y701863D02*
X97758Y701863D01*
X97758Y704004D02*
X92742Y704004D01*
X92742Y694738D02*
X92742Y689722D01*
X92742Y694738D02*
X97758Y694738D01*
X97758Y689722D01*
X92742Y689722D01*
X92742Y691863D02*
X97758Y691863D01*
X97758Y694004D02*
X92742Y694004D01*
X170783Y734172D02*
X170783Y739188D01*
X170783Y734172D02*
X165767Y734172D01*
X165767Y739188D01*
X170783Y739188D01*
X170783Y736313D02*
X165767Y736313D01*
X165767Y738454D02*
X170783Y738454D01*
X170783Y744172D02*
X170783Y749188D01*
X170783Y744172D02*
X165767Y744172D01*
X165767Y749188D01*
X170783Y749188D01*
X170783Y746313D02*
X165767Y746313D01*
X165767Y748454D02*
X170783Y748454D01*
X119983Y739188D02*
X119983Y734172D01*
X114967Y734172D01*
X114967Y739188D01*
X119983Y739188D01*
X119983Y736313D02*
X114967Y736313D01*
X114967Y738454D02*
X119983Y738454D01*
X119983Y744172D02*
X119983Y749188D01*
X119983Y744172D02*
X114967Y744172D01*
X114967Y749188D01*
X119983Y749188D01*
X119983Y746313D02*
X114967Y746313D01*
X114967Y748454D02*
X119983Y748454D01*
X104108Y739188D02*
X104108Y734172D01*
X99092Y734172D01*
X99092Y739188D01*
X104108Y739188D01*
X104108Y736313D02*
X99092Y736313D01*
X99092Y738454D02*
X104108Y738454D01*
X104108Y744172D02*
X104108Y749188D01*
X104108Y744172D02*
X99092Y744172D01*
X99092Y749188D01*
X104108Y749188D01*
X104108Y746313D02*
X99092Y746313D01*
X99092Y748454D02*
X104108Y748454D01*
X88233Y739188D02*
X88233Y734172D01*
X83217Y734172D01*
X83217Y739188D01*
X88233Y739188D01*
X88233Y736313D02*
X83217Y736313D01*
X83217Y738454D02*
X88233Y738454D01*
X88233Y744172D02*
X88233Y749188D01*
X88233Y744172D02*
X83217Y744172D01*
X83217Y749188D01*
X88233Y749188D01*
X88233Y746313D02*
X83217Y746313D01*
X83217Y748454D02*
X88233Y748454D01*
X55023Y502681D02*
X55023Y497665D01*
X55023Y502681D02*
X60039Y502681D01*
X60039Y497665D01*
X55023Y497665D01*
X55023Y499806D02*
X60039Y499806D01*
X60039Y501947D02*
X55023Y501947D01*
X55023Y492681D02*
X55023Y487665D01*
X55023Y492681D02*
X60039Y492681D01*
X60039Y487665D01*
X55023Y487665D01*
X55023Y489806D02*
X60039Y489806D01*
X60039Y491947D02*
X55023Y491947D01*
X173942Y663670D02*
X178958Y663670D01*
X178958Y658654D01*
X173942Y658654D01*
X173942Y663670D01*
X173942Y660795D02*
X178958Y660795D01*
X178958Y662936D02*
X173942Y662936D01*
X168958Y663670D02*
X163942Y663670D01*
X168958Y663670D02*
X168958Y658654D01*
X163942Y658654D01*
X163942Y663670D01*
X163942Y660795D02*
X168958Y660795D01*
X168958Y662936D02*
X163942Y662936D01*
D19*
X126353Y586481D02*
X126353Y576465D01*
X126353Y586481D02*
X135369Y586481D01*
X135369Y576465D01*
X126353Y576465D01*
X126353Y578606D02*
X135369Y578606D01*
X135369Y580747D02*
X126353Y580747D01*
X126353Y582888D02*
X135369Y582888D01*
X135369Y585029D02*
X126353Y585029D01*
X126353Y569481D02*
X126353Y559465D01*
X126353Y569481D02*
X135369Y569481D01*
X135369Y559465D01*
X126353Y559465D01*
X126353Y561606D02*
X135369Y561606D01*
X135369Y563747D02*
X126353Y563747D01*
X126353Y565888D02*
X135369Y565888D01*
X135369Y568029D02*
X126353Y568029D01*
X163301Y609842D02*
X173317Y609842D01*
X163301Y609842D02*
X163301Y618858D01*
X173317Y618858D01*
X173317Y609842D01*
X173317Y611983D02*
X163301Y611983D01*
X163301Y614124D02*
X173317Y614124D01*
X173317Y616265D02*
X163301Y616265D01*
X163301Y618406D02*
X173317Y618406D01*
X180301Y609842D02*
X190317Y609842D01*
X180301Y609842D02*
X180301Y618858D01*
X190317Y618858D01*
X190317Y609842D01*
X190317Y611983D02*
X180301Y611983D01*
X180301Y614124D02*
X190317Y614124D01*
X190317Y616265D02*
X180301Y616265D01*
X180301Y618406D02*
X190317Y618406D01*
D11*
X67358Y586772D02*
X62342Y586772D01*
X62342Y591788D01*
X67358Y591788D01*
X67358Y586772D01*
X67358Y588913D02*
X62342Y588913D01*
X62342Y591054D02*
X67358Y591054D01*
X72342Y586772D02*
X77358Y586772D01*
X72342Y586772D02*
X72342Y591788D01*
X77358Y591788D01*
X77358Y586772D01*
X77358Y588913D02*
X72342Y588913D01*
X72342Y591054D02*
X77358Y591054D01*
X67358Y605822D02*
X62342Y605822D01*
X62342Y610838D01*
X67358Y610838D01*
X67358Y605822D01*
X67358Y607963D02*
X62342Y607963D01*
X62342Y610104D02*
X67358Y610104D01*
X72342Y605822D02*
X77358Y605822D01*
X72342Y605822D02*
X72342Y610838D01*
X77358Y610838D01*
X77358Y605822D01*
X77358Y607963D02*
X72342Y607963D01*
X72342Y610104D02*
X77358Y610104D01*
X67358Y615347D02*
X62342Y615347D01*
X62342Y620363D01*
X67358Y620363D01*
X67358Y615347D01*
X67358Y617488D02*
X62342Y617488D01*
X62342Y619629D02*
X67358Y619629D01*
X72342Y615347D02*
X77358Y615347D01*
X72342Y615347D02*
X72342Y620363D01*
X77358Y620363D01*
X77358Y615347D01*
X77358Y617488D02*
X72342Y617488D01*
X72342Y619629D02*
X77358Y619629D01*
X67358Y577247D02*
X62342Y577247D01*
X62342Y582263D01*
X67358Y582263D01*
X67358Y577247D01*
X67358Y579388D02*
X62342Y579388D01*
X62342Y581529D02*
X67358Y581529D01*
X72342Y577247D02*
X77358Y577247D01*
X72342Y577247D02*
X72342Y582263D01*
X77358Y582263D01*
X77358Y577247D01*
X77358Y579388D02*
X72342Y579388D01*
X72342Y581529D02*
X77358Y581529D01*
X67358Y596297D02*
X62342Y596297D01*
X62342Y601313D01*
X67358Y601313D01*
X67358Y596297D01*
X67358Y598438D02*
X62342Y598438D01*
X62342Y600579D02*
X67358Y600579D01*
X72342Y596297D02*
X77358Y596297D01*
X72342Y596297D02*
X72342Y601313D01*
X77358Y601313D01*
X77358Y596297D01*
X77358Y598438D02*
X72342Y598438D01*
X72342Y600579D02*
X77358Y600579D01*
X117634Y502427D02*
X117634Y497411D01*
X117634Y502427D02*
X122650Y502427D01*
X122650Y497411D01*
X117634Y497411D01*
X117634Y499552D02*
X122650Y499552D01*
X122650Y501693D02*
X117634Y501693D01*
X117634Y492427D02*
X117634Y487411D01*
X117634Y492427D02*
X122650Y492427D01*
X122650Y487411D01*
X117634Y487411D01*
X117634Y489552D02*
X122650Y489552D01*
X122650Y491693D02*
X117634Y491693D01*
D20*
X73556Y497706D02*
X73556Y502242D01*
X84592Y502242D01*
X84592Y497706D01*
X73556Y497706D01*
X73556Y499828D02*
X84592Y499828D01*
X84592Y501950D02*
X73556Y501950D01*
X73556Y492742D02*
X73556Y488206D01*
X73556Y492742D02*
X84592Y492742D01*
X84592Y488206D01*
X73556Y488206D01*
X73556Y490328D02*
X84592Y490328D01*
X84592Y492450D02*
X73556Y492450D01*
X73556Y483242D02*
X73556Y478706D01*
X73556Y483242D02*
X84592Y483242D01*
X84592Y478706D01*
X73556Y478706D01*
X73556Y480828D02*
X84592Y480828D01*
X84592Y482950D02*
X73556Y482950D01*
X99558Y483242D02*
X99558Y478706D01*
X99558Y483242D02*
X110594Y483242D01*
X110594Y478706D01*
X99558Y478706D01*
X99558Y480828D02*
X110594Y480828D01*
X110594Y482950D02*
X99558Y482950D01*
X99558Y497706D02*
X99558Y502242D01*
X110594Y502242D01*
X110594Y497706D01*
X99558Y497706D01*
X99558Y499828D02*
X110594Y499828D01*
X110594Y501950D02*
X99558Y501950D01*
D11*
X130334Y502681D02*
X130334Y497665D01*
X130334Y502681D02*
X135350Y502681D01*
X135350Y497665D01*
X130334Y497665D01*
X130334Y499806D02*
X135350Y499806D01*
X135350Y501947D02*
X130334Y501947D01*
X130334Y492681D02*
X130334Y487665D01*
X130334Y492681D02*
X135350Y492681D01*
X135350Y487665D01*
X130334Y487665D01*
X130334Y489806D02*
X135350Y489806D01*
X135350Y491947D02*
X130334Y491947D01*
X59316Y482386D02*
X59316Y477370D01*
X59316Y482386D02*
X64332Y482386D01*
X64332Y477370D01*
X59316Y477370D01*
X59316Y479511D02*
X64332Y479511D01*
X64332Y481652D02*
X59316Y481652D01*
X59316Y472386D02*
X59316Y467370D01*
X59316Y472386D02*
X64332Y472386D01*
X64332Y467370D01*
X59316Y467370D01*
X59316Y469511D02*
X64332Y469511D01*
X64332Y471652D02*
X59316Y471652D01*
X64167Y497538D02*
X64167Y502554D01*
X69183Y502554D01*
X69183Y497538D01*
X64167Y497538D01*
X64167Y499679D02*
X69183Y499679D01*
X69183Y501820D02*
X64167Y501820D01*
X64167Y492554D02*
X64167Y487538D01*
X64167Y492554D02*
X69183Y492554D01*
X69183Y487538D01*
X64167Y487538D01*
X64167Y489679D02*
X69183Y489679D01*
X69183Y491820D02*
X64167Y491820D01*
X83676Y626453D02*
X87222Y629999D01*
X83676Y626453D02*
X80130Y629999D01*
X83676Y633545D01*
X87222Y629999D01*
X85817Y628594D02*
X81535Y628594D01*
X80866Y630735D02*
X86486Y630735D01*
X84345Y632876D02*
X83007Y632876D01*
X90747Y633525D02*
X94293Y637071D01*
X90747Y633525D02*
X87201Y637071D01*
X90747Y640617D01*
X94293Y637071D01*
X92888Y635666D02*
X88606Y635666D01*
X87937Y637807D02*
X93557Y637807D01*
X91416Y639948D02*
X90078Y639948D01*
D21*
X12700Y424180D03*
X12700Y449580D03*
X12700Y474980D03*
X12700Y500380D03*
X12700Y525780D03*
X12700Y551180D03*
X12700Y576580D03*
X12700Y601980D03*
X12700Y627380D03*
X12700Y652780D03*
X12700Y678180D03*
X12700Y703580D03*
X12700Y728980D03*
X12700Y754380D03*
X12700Y779780D03*
X12700Y805180D03*
X241300Y424180D03*
X241300Y449580D03*
X241300Y474980D03*
X241300Y500380D03*
X241300Y525780D03*
X241300Y551180D03*
X241300Y576580D03*
X241300Y601980D03*
X241300Y627380D03*
X241300Y652780D03*
X241300Y678180D03*
X241300Y703580D03*
X241300Y728980D03*
X241300Y754380D03*
X241300Y779780D03*
X241300Y805180D03*
D10*
X352573Y416023D02*
X363587Y416023D01*
X352573Y416023D02*
X352573Y435037D01*
X363587Y435037D01*
X363587Y416023D01*
X363587Y418166D02*
X352573Y418166D01*
X352573Y420309D02*
X363587Y420309D01*
X363587Y422452D02*
X352573Y422452D01*
X352573Y424595D02*
X363587Y424595D01*
X363587Y426738D02*
X352573Y426738D01*
X352573Y428881D02*
X363587Y428881D01*
X363587Y431024D02*
X352573Y431024D01*
X352573Y433167D02*
X363587Y433167D01*
X408573Y416023D02*
X419587Y416023D01*
X408573Y416023D02*
X408573Y435037D01*
X419587Y435037D01*
X419587Y416023D01*
X419587Y418166D02*
X408573Y418166D01*
X408573Y420309D02*
X419587Y420309D01*
X419587Y422452D02*
X408573Y422452D01*
X408573Y424595D02*
X419587Y424595D01*
X419587Y426738D02*
X408573Y426738D01*
X408573Y428881D02*
X419587Y428881D01*
X419587Y431024D02*
X408573Y431024D01*
X408573Y433167D02*
X419587Y433167D01*
D11*
X373588Y456022D02*
X368572Y456022D01*
X368572Y468538D01*
X373588Y468538D01*
X373588Y456022D01*
X373588Y458163D02*
X368572Y458163D01*
X368572Y460304D02*
X373588Y460304D01*
X373588Y462445D02*
X368572Y462445D01*
X368572Y464586D02*
X373588Y464586D01*
X373588Y466727D02*
X368572Y466727D01*
X378572Y456022D02*
X383588Y456022D01*
X378572Y456022D02*
X378572Y468538D01*
X383588Y468538D01*
X383588Y456022D01*
X383588Y458163D02*
X378572Y458163D01*
X378572Y460304D02*
X383588Y460304D01*
X383588Y462445D02*
X378572Y462445D01*
X378572Y464586D02*
X383588Y464586D01*
X383588Y466727D02*
X378572Y466727D01*
X388572Y456022D02*
X393588Y456022D01*
X388572Y456022D02*
X388572Y468538D01*
X393588Y468538D01*
X393588Y456022D01*
X393588Y458163D02*
X388572Y458163D01*
X388572Y460304D02*
X393588Y460304D01*
X393588Y462445D02*
X388572Y462445D01*
X388572Y464586D02*
X393588Y464586D01*
X393588Y466727D02*
X388572Y466727D01*
X398572Y456022D02*
X403588Y456022D01*
X398572Y456022D02*
X398572Y468538D01*
X403588Y468538D01*
X403588Y456022D01*
X403588Y458163D02*
X398572Y458163D01*
X398572Y460304D02*
X403588Y460304D01*
X403588Y462445D02*
X398572Y462445D01*
X398572Y464586D02*
X403588Y464586D01*
X403588Y466727D02*
X398572Y466727D01*
D12*
X402845Y655245D02*
X404315Y655245D01*
X402845Y655245D02*
X402845Y658215D01*
X404315Y658215D01*
X404315Y655245D01*
X404315Y657430D02*
X402845Y657430D01*
X399315Y655245D02*
X397845Y655245D01*
X397845Y658215D01*
X399315Y658215D01*
X399315Y655245D01*
X399315Y657430D02*
X397845Y657430D01*
X394315Y655245D02*
X392845Y655245D01*
X392845Y658215D01*
X394315Y658215D01*
X394315Y655245D01*
X394315Y657430D02*
X392845Y657430D01*
X389315Y655245D02*
X387845Y655245D01*
X387845Y658215D01*
X389315Y658215D01*
X389315Y655245D01*
X389315Y657430D02*
X387845Y657430D01*
X384315Y655245D02*
X382845Y655245D01*
X382845Y658215D01*
X384315Y658215D01*
X384315Y655245D01*
X384315Y657430D02*
X382845Y657430D01*
X379315Y655245D02*
X377845Y655245D01*
X377845Y658215D01*
X379315Y658215D01*
X379315Y655245D01*
X379315Y657430D02*
X377845Y657430D01*
X374315Y655245D02*
X372845Y655245D01*
X372845Y658215D01*
X374315Y658215D01*
X374315Y655245D01*
X374315Y657430D02*
X372845Y657430D01*
X369315Y655245D02*
X367845Y655245D01*
X367845Y658215D01*
X369315Y658215D01*
X369315Y655245D01*
X369315Y657430D02*
X367845Y657430D01*
X364565Y651965D02*
X364565Y650495D01*
X361595Y650495D01*
X361595Y651965D01*
X364565Y651965D01*
X364565Y646965D02*
X364565Y645495D01*
X361595Y645495D01*
X361595Y646965D01*
X364565Y646965D01*
X364565Y641965D02*
X364565Y640495D01*
X361595Y640495D01*
X361595Y641965D01*
X364565Y641965D01*
X364565Y636965D02*
X364565Y635495D01*
X361595Y635495D01*
X361595Y636965D01*
X364565Y636965D01*
X364565Y631965D02*
X364565Y630495D01*
X361595Y630495D01*
X361595Y631965D01*
X364565Y631965D01*
X364565Y626965D02*
X364565Y625495D01*
X361595Y625495D01*
X361595Y626965D01*
X364565Y626965D01*
X364565Y621965D02*
X364565Y620495D01*
X361595Y620495D01*
X361595Y621965D01*
X364565Y621965D01*
X364565Y616965D02*
X364565Y615495D01*
X361595Y615495D01*
X361595Y616965D01*
X364565Y616965D01*
X367845Y612215D02*
X369315Y612215D01*
X369315Y609245D01*
X367845Y609245D01*
X367845Y612215D01*
X367845Y611430D02*
X369315Y611430D01*
X372845Y612215D02*
X374315Y612215D01*
X374315Y609245D01*
X372845Y609245D01*
X372845Y612215D01*
X372845Y611430D02*
X374315Y611430D01*
X377845Y612215D02*
X379315Y612215D01*
X379315Y609245D01*
X377845Y609245D01*
X377845Y612215D01*
X377845Y611430D02*
X379315Y611430D01*
X382845Y612215D02*
X384315Y612215D01*
X384315Y609245D01*
X382845Y609245D01*
X382845Y612215D01*
X382845Y611430D02*
X384315Y611430D01*
X387845Y612215D02*
X389315Y612215D01*
X389315Y609245D01*
X387845Y609245D01*
X387845Y612215D01*
X387845Y611430D02*
X389315Y611430D01*
X392845Y612215D02*
X394315Y612215D01*
X394315Y609245D01*
X392845Y609245D01*
X392845Y612215D01*
X392845Y611430D02*
X394315Y611430D01*
X397845Y612215D02*
X399315Y612215D01*
X399315Y609245D01*
X397845Y609245D01*
X397845Y612215D01*
X397845Y611430D02*
X399315Y611430D01*
X402845Y612215D02*
X404315Y612215D01*
X404315Y609245D01*
X402845Y609245D01*
X402845Y612215D01*
X402845Y611430D02*
X404315Y611430D01*
X407595Y615495D02*
X407595Y616965D01*
X410565Y616965D01*
X410565Y615495D01*
X407595Y615495D01*
X407595Y620495D02*
X407595Y621965D01*
X410565Y621965D01*
X410565Y620495D01*
X407595Y620495D01*
X407595Y625495D02*
X407595Y626965D01*
X410565Y626965D01*
X410565Y625495D01*
X407595Y625495D01*
X407595Y630495D02*
X407595Y631965D01*
X410565Y631965D01*
X410565Y630495D01*
X407595Y630495D01*
X407595Y635495D02*
X407595Y636965D01*
X410565Y636965D01*
X410565Y635495D01*
X407595Y635495D01*
X407595Y640495D02*
X407595Y641965D01*
X410565Y641965D01*
X410565Y640495D01*
X407595Y640495D01*
X407595Y645495D02*
X407595Y646965D01*
X410565Y646965D01*
X410565Y645495D01*
X407595Y645495D01*
X407595Y650495D02*
X407595Y651965D01*
X410565Y651965D01*
X410565Y650495D01*
X407595Y650495D01*
D13*
X369268Y650542D02*
X369268Y616918D01*
X369268Y650542D02*
X402892Y650542D01*
X402892Y616918D01*
X369268Y616918D01*
X369268Y618957D02*
X402892Y618957D01*
X402892Y620996D02*
X369268Y620996D01*
X369268Y623035D02*
X402892Y623035D01*
X402892Y625074D02*
X369268Y625074D01*
X369268Y627113D02*
X402892Y627113D01*
X402892Y629152D02*
X369268Y629152D01*
X369268Y631191D02*
X402892Y631191D01*
X402892Y633230D02*
X369268Y633230D01*
X369268Y635269D02*
X402892Y635269D01*
X402892Y637308D02*
X369268Y637308D01*
X369268Y639347D02*
X402892Y639347D01*
X402892Y641386D02*
X369268Y641386D01*
X369268Y643425D02*
X402892Y643425D01*
X402892Y645464D02*
X369268Y645464D01*
X369268Y647503D02*
X402892Y647503D01*
X402892Y649542D02*
X369268Y649542D01*
D11*
X341090Y654538D02*
X341090Y659554D01*
X346106Y659554D01*
X346106Y654538D01*
X341090Y654538D01*
X341090Y656679D02*
X346106Y656679D01*
X346106Y658820D02*
X341090Y658820D01*
X341090Y649554D02*
X341090Y644538D01*
X341090Y649554D02*
X346106Y649554D01*
X346106Y644538D01*
X341090Y644538D01*
X341090Y646679D02*
X346106Y646679D01*
X346106Y648820D02*
X341090Y648820D01*
X354829Y656383D02*
X358375Y659929D01*
X354829Y656383D02*
X351283Y659929D01*
X354829Y663475D01*
X358375Y659929D01*
X356970Y658524D02*
X352688Y658524D01*
X352019Y660665D02*
X357639Y660665D01*
X355498Y662806D02*
X354160Y662806D01*
X361900Y663454D02*
X365446Y667000D01*
X361900Y663454D02*
X358354Y667000D01*
X361900Y670546D01*
X365446Y667000D01*
X364041Y665595D02*
X359759Y665595D01*
X359090Y667736D02*
X364710Y667736D01*
X362569Y669877D02*
X361231Y669877D01*
X351015Y668072D02*
X347469Y664526D01*
X343923Y668072D01*
X347469Y671618D01*
X351015Y668072D01*
X349610Y666667D02*
X345328Y666667D01*
X344659Y668808D02*
X350279Y668808D01*
X348138Y670949D02*
X346800Y670949D01*
X354540Y671598D02*
X358086Y675144D01*
X354540Y671598D02*
X350994Y675144D01*
X354540Y678690D01*
X358086Y675144D01*
X356681Y673739D02*
X352399Y673739D01*
X351730Y675880D02*
X357350Y675880D01*
X355209Y678021D02*
X353871Y678021D01*
X438305Y630269D02*
X443321Y630269D01*
X443321Y625253D01*
X438305Y625253D01*
X438305Y630269D01*
X438305Y627394D02*
X443321Y627394D01*
X443321Y629535D02*
X438305Y629535D01*
X433321Y630269D02*
X428305Y630269D01*
X433321Y630269D02*
X433321Y625253D01*
X428305Y625253D01*
X428305Y630269D01*
X428305Y627394D02*
X433321Y627394D01*
X433321Y629535D02*
X428305Y629535D01*
X420278Y673859D02*
X415262Y673859D01*
X420278Y673859D02*
X420278Y668843D01*
X415262Y668843D01*
X415262Y673859D01*
X415262Y670984D02*
X420278Y670984D01*
X420278Y673125D02*
X415262Y673125D01*
X410278Y673859D02*
X405262Y673859D01*
X410278Y673859D02*
X410278Y668843D01*
X405262Y668843D01*
X405262Y673859D01*
X405262Y670984D02*
X410278Y670984D01*
X410278Y673125D02*
X405262Y673125D01*
X332984Y453028D02*
X327968Y453028D01*
X332984Y453028D02*
X332984Y448012D01*
X327968Y448012D01*
X327968Y453028D01*
X327968Y450153D02*
X332984Y450153D01*
X332984Y452294D02*
X327968Y452294D01*
X322984Y453028D02*
X317968Y453028D01*
X322984Y453028D02*
X322984Y448012D01*
X317968Y448012D01*
X317968Y453028D01*
X317968Y450153D02*
X322984Y450153D01*
X322984Y452294D02*
X317968Y452294D01*
X328069Y462985D02*
X333085Y462985D01*
X333085Y457969D01*
X328069Y457969D01*
X328069Y462985D01*
X328069Y460110D02*
X333085Y460110D01*
X333085Y462251D02*
X328069Y462251D01*
X323085Y462985D02*
X318069Y462985D01*
X323085Y462985D02*
X323085Y457969D01*
X318069Y457969D01*
X318069Y462985D01*
X318069Y460110D02*
X323085Y460110D01*
X323085Y462251D02*
X318069Y462251D01*
D14*
X279867Y436837D03*
X485306Y811501D03*
D15*
X330043Y662035D02*
X330043Y654095D01*
X330043Y662035D02*
X335483Y662035D01*
X335483Y654095D01*
X330043Y654095D01*
X330043Y656309D02*
X335483Y656309D01*
X335483Y658523D02*
X330043Y658523D01*
X330043Y660737D02*
X335483Y660737D01*
X313543Y662035D02*
X313543Y654095D01*
X313543Y662035D02*
X318983Y662035D01*
X318983Y654095D01*
X313543Y654095D01*
X313543Y656309D02*
X318983Y656309D01*
X318983Y658523D02*
X313543Y658523D01*
X313543Y660737D02*
X318983Y660737D01*
X313543Y641035D02*
X313543Y633095D01*
X313543Y641035D02*
X318983Y641035D01*
X318983Y633095D01*
X313543Y633095D01*
X313543Y635309D02*
X318983Y635309D01*
X318983Y637523D02*
X313543Y637523D01*
X313543Y639737D02*
X318983Y639737D01*
X330043Y641035D02*
X330043Y633095D01*
X330043Y641035D02*
X335483Y641035D01*
X335483Y633095D01*
X330043Y633095D01*
X330043Y635309D02*
X335483Y635309D01*
X335483Y637523D02*
X330043Y637523D01*
X330043Y639737D02*
X335483Y639737D01*
D11*
X332620Y672005D02*
X327604Y672005D01*
X332620Y672005D02*
X332620Y666989D01*
X327604Y666989D01*
X327604Y672005D01*
X327604Y669130D02*
X332620Y669130D01*
X332620Y671271D02*
X327604Y671271D01*
X322620Y672005D02*
X317604Y672005D01*
X322620Y672005D02*
X322620Y666989D01*
X317604Y666989D01*
X317604Y672005D01*
X317604Y669130D02*
X322620Y669130D01*
X322620Y671271D02*
X317604Y671271D01*
D16*
X419847Y585576D02*
X419847Y578624D01*
X419847Y585576D02*
X430799Y585576D01*
X430799Y578624D01*
X419847Y578624D01*
X419847Y580826D02*
X430799Y580826D01*
X430799Y583028D02*
X419847Y583028D01*
X419847Y585230D02*
X430799Y585230D01*
X419847Y567576D02*
X419847Y560624D01*
X419847Y567576D02*
X430799Y567576D01*
X430799Y560624D01*
X419847Y560624D01*
X419847Y562826D02*
X430799Y562826D01*
X430799Y565028D02*
X419847Y565028D01*
X419847Y567230D02*
X430799Y567230D01*
X436535Y578624D02*
X436535Y585576D01*
X447487Y585576D01*
X447487Y578624D01*
X436535Y578624D01*
X436535Y580826D02*
X447487Y580826D01*
X447487Y583028D02*
X436535Y583028D01*
X436535Y585230D02*
X447487Y585230D01*
X436535Y567576D02*
X436535Y560624D01*
X436535Y567576D02*
X447487Y567576D01*
X447487Y560624D01*
X436535Y560624D01*
X436535Y562826D02*
X447487Y562826D01*
X447487Y565028D02*
X436535Y565028D01*
X436535Y567230D02*
X447487Y567230D01*
X403083Y578624D02*
X403083Y585576D01*
X414035Y585576D01*
X414035Y578624D01*
X403083Y578624D01*
X403083Y580826D02*
X414035Y580826D01*
X414035Y583028D02*
X403083Y583028D01*
X403083Y585230D02*
X414035Y585230D01*
X403083Y567576D02*
X403083Y560624D01*
X403083Y567576D02*
X414035Y567576D01*
X414035Y560624D01*
X403083Y560624D01*
X403083Y562826D02*
X414035Y562826D01*
X414035Y565028D02*
X403083Y565028D01*
X403083Y567230D02*
X414035Y567230D01*
X366304Y578548D02*
X366304Y585500D01*
X377256Y585500D01*
X377256Y578548D01*
X366304Y578548D01*
X366304Y580750D02*
X377256Y580750D01*
X377256Y582952D02*
X366304Y582952D01*
X366304Y585154D02*
X377256Y585154D01*
X366304Y567500D02*
X366304Y560548D01*
X366304Y567500D02*
X377256Y567500D01*
X377256Y560548D01*
X366304Y560548D01*
X366304Y562750D02*
X377256Y562750D01*
X377256Y564952D02*
X366304Y564952D01*
X366304Y567154D02*
X377256Y567154D01*
D17*
X426777Y550645D02*
X434301Y550645D01*
X434301Y542621D01*
X426777Y542621D01*
X426777Y550645D01*
X426777Y544756D02*
X434301Y544756D01*
X434301Y546891D02*
X426777Y546891D01*
X426777Y549026D02*
X434301Y549026D01*
X422701Y550645D02*
X415177Y550645D01*
X422701Y550645D02*
X422701Y542621D01*
X415177Y542621D01*
X415177Y550645D01*
X415177Y544756D02*
X422701Y544756D01*
X422701Y546891D02*
X415177Y546891D01*
X415177Y549026D02*
X422701Y549026D01*
X439891Y533985D02*
X447415Y533985D01*
X439891Y533985D02*
X439891Y542009D01*
X447415Y542009D01*
X447415Y533985D01*
X447415Y536120D02*
X439891Y536120D01*
X439891Y538255D02*
X447415Y538255D01*
X447415Y540390D02*
X439891Y540390D01*
X451491Y533985D02*
X459015Y533985D01*
X451491Y533985D02*
X451491Y542009D01*
X459015Y542009D01*
X459015Y533985D01*
X459015Y536120D02*
X451491Y536120D01*
X451491Y538255D02*
X459015Y538255D01*
X459015Y540390D02*
X451491Y540390D01*
X409561Y550671D02*
X402037Y550671D01*
X409561Y550671D02*
X409561Y542647D01*
X402037Y542647D01*
X402037Y550671D01*
X402037Y544782D02*
X409561Y544782D01*
X409561Y546917D02*
X402037Y546917D01*
X402037Y549052D02*
X409561Y549052D01*
X397961Y550671D02*
X390437Y550671D01*
X397961Y550671D02*
X397961Y542647D01*
X390437Y542647D01*
X390437Y550671D01*
X390437Y544782D02*
X397961Y544782D01*
X397961Y546917D02*
X390437Y546917D01*
X390437Y549052D02*
X397961Y549052D01*
X372993Y542596D02*
X365469Y542596D01*
X365469Y550620D01*
X372993Y550620D01*
X372993Y542596D01*
X372993Y544731D02*
X365469Y544731D01*
X365469Y546866D02*
X372993Y546866D01*
X372993Y549001D02*
X365469Y549001D01*
X377069Y542596D02*
X384593Y542596D01*
X377069Y542596D02*
X377069Y550620D01*
X384593Y550620D01*
X384593Y542596D01*
X384593Y544731D02*
X377069Y544731D01*
X377069Y546866D02*
X384593Y546866D01*
X384593Y549001D02*
X377069Y549001D01*
D18*
X427036Y428429D02*
X434024Y428429D01*
X434024Y421441D01*
X427036Y421441D01*
X427036Y428429D01*
X427036Y425510D02*
X434024Y425510D01*
X434024Y445969D02*
X427036Y445969D01*
X434024Y445969D02*
X434024Y438981D01*
X427036Y438981D01*
X427036Y445969D01*
X427036Y443050D02*
X434024Y443050D01*
D11*
X460962Y439388D02*
X465978Y439388D01*
X465978Y434372D01*
X460962Y434372D01*
X460962Y439388D01*
X460962Y436513D02*
X465978Y436513D01*
X465978Y438654D02*
X460962Y438654D01*
X455978Y439388D02*
X450962Y439388D01*
X455978Y439388D02*
X455978Y434372D01*
X450962Y434372D01*
X450962Y439388D01*
X450962Y436513D02*
X455978Y436513D01*
X455978Y438654D02*
X450962Y438654D01*
X389922Y699722D02*
X389922Y704738D01*
X394938Y704738D01*
X394938Y699722D01*
X389922Y699722D01*
X389922Y701863D02*
X394938Y701863D01*
X394938Y704004D02*
X389922Y704004D01*
X389922Y694738D02*
X389922Y689722D01*
X389922Y694738D02*
X394938Y694738D01*
X394938Y689722D01*
X389922Y689722D01*
X389922Y691863D02*
X394938Y691863D01*
X394938Y694004D02*
X389922Y694004D01*
X402622Y699722D02*
X402622Y704738D01*
X407638Y704738D01*
X407638Y699722D01*
X402622Y699722D01*
X402622Y701863D02*
X407638Y701863D01*
X407638Y704004D02*
X402622Y704004D01*
X402622Y694738D02*
X402622Y689722D01*
X402622Y694738D02*
X407638Y694738D01*
X407638Y689722D01*
X402622Y689722D01*
X402622Y691863D02*
X407638Y691863D01*
X407638Y694004D02*
X402622Y694004D01*
X393097Y721947D02*
X393097Y726963D01*
X398113Y726963D01*
X398113Y721947D01*
X393097Y721947D01*
X393097Y724088D02*
X398113Y724088D01*
X398113Y726229D02*
X393097Y726229D01*
X393097Y716963D02*
X393097Y711947D01*
X393097Y716963D02*
X398113Y716963D01*
X398113Y711947D01*
X393097Y711947D01*
X393097Y714088D02*
X398113Y714088D01*
X398113Y716229D02*
X393097Y716229D01*
X408972Y721947D02*
X408972Y726963D01*
X413988Y726963D01*
X413988Y721947D01*
X408972Y721947D01*
X408972Y724088D02*
X413988Y724088D01*
X413988Y726229D02*
X408972Y726229D01*
X408972Y716963D02*
X408972Y711947D01*
X408972Y716963D02*
X413988Y716963D01*
X413988Y711947D01*
X408972Y711947D01*
X408972Y714088D02*
X413988Y714088D01*
X413988Y716229D02*
X408972Y716229D01*
X413988Y734172D02*
X413988Y739188D01*
X413988Y734172D02*
X408972Y734172D01*
X408972Y739188D01*
X413988Y739188D01*
X413988Y736313D02*
X408972Y736313D01*
X408972Y738454D02*
X413988Y738454D01*
X413988Y744172D02*
X413988Y749188D01*
X413988Y744172D02*
X408972Y744172D01*
X408972Y749188D01*
X413988Y749188D01*
X413988Y746313D02*
X408972Y746313D01*
X408972Y748454D02*
X413988Y748454D01*
X398113Y739188D02*
X398113Y734172D01*
X393097Y734172D01*
X393097Y739188D01*
X398113Y739188D01*
X398113Y736313D02*
X393097Y736313D01*
X393097Y738454D02*
X398113Y738454D01*
X398113Y744172D02*
X398113Y749188D01*
X398113Y744172D02*
X393097Y744172D01*
X393097Y749188D01*
X398113Y749188D01*
X398113Y746313D02*
X393097Y746313D01*
X393097Y748454D02*
X398113Y748454D01*
X424847Y726963D02*
X424847Y721947D01*
X424847Y726963D02*
X429863Y726963D01*
X429863Y721947D01*
X424847Y721947D01*
X424847Y724088D02*
X429863Y724088D01*
X429863Y726229D02*
X424847Y726229D01*
X424847Y716963D02*
X424847Y711947D01*
X424847Y716963D02*
X429863Y716963D01*
X429863Y711947D01*
X424847Y711947D01*
X424847Y714088D02*
X429863Y714088D01*
X429863Y716229D02*
X424847Y716229D01*
X374047Y721947D02*
X374047Y726963D01*
X379063Y726963D01*
X379063Y721947D01*
X374047Y721947D01*
X374047Y724088D02*
X379063Y724088D01*
X379063Y726229D02*
X374047Y726229D01*
X374047Y716963D02*
X374047Y711947D01*
X374047Y716963D02*
X379063Y716963D01*
X379063Y711947D01*
X374047Y711947D01*
X374047Y714088D02*
X379063Y714088D01*
X379063Y716229D02*
X374047Y716229D01*
X358172Y721947D02*
X358172Y726963D01*
X363188Y726963D01*
X363188Y721947D01*
X358172Y721947D01*
X358172Y724088D02*
X363188Y724088D01*
X363188Y726229D02*
X358172Y726229D01*
X358172Y716963D02*
X358172Y711947D01*
X358172Y716963D02*
X363188Y716963D01*
X363188Y711947D01*
X358172Y711947D01*
X358172Y714088D02*
X363188Y714088D01*
X363188Y716229D02*
X358172Y716229D01*
X342297Y721947D02*
X342297Y726963D01*
X347313Y726963D01*
X347313Y721947D01*
X342297Y721947D01*
X342297Y724088D02*
X347313Y724088D01*
X347313Y726229D02*
X342297Y726229D01*
X342297Y716963D02*
X342297Y711947D01*
X342297Y716963D02*
X347313Y716963D01*
X347313Y711947D01*
X342297Y711947D01*
X342297Y714088D02*
X347313Y714088D01*
X347313Y716229D02*
X342297Y716229D01*
X415322Y704738D02*
X415322Y699722D01*
X415322Y704738D02*
X420338Y704738D01*
X420338Y699722D01*
X415322Y699722D01*
X415322Y701863D02*
X420338Y701863D01*
X420338Y704004D02*
X415322Y704004D01*
X415322Y694738D02*
X415322Y689722D01*
X415322Y694738D02*
X420338Y694738D01*
X420338Y689722D01*
X415322Y689722D01*
X415322Y691863D02*
X420338Y691863D01*
X420338Y694004D02*
X415322Y694004D01*
X377222Y699722D02*
X377222Y704738D01*
X382238Y704738D01*
X382238Y699722D01*
X377222Y699722D01*
X377222Y701863D02*
X382238Y701863D01*
X382238Y704004D02*
X377222Y704004D01*
X377222Y694738D02*
X377222Y689722D01*
X377222Y694738D02*
X382238Y694738D01*
X382238Y689722D01*
X377222Y689722D01*
X377222Y691863D02*
X382238Y691863D01*
X382238Y694004D02*
X377222Y694004D01*
X364522Y699722D02*
X364522Y704738D01*
X369538Y704738D01*
X369538Y699722D01*
X364522Y699722D01*
X364522Y701863D02*
X369538Y701863D01*
X369538Y704004D02*
X364522Y704004D01*
X364522Y694738D02*
X364522Y689722D01*
X364522Y694738D02*
X369538Y694738D01*
X369538Y689722D01*
X364522Y689722D01*
X364522Y691863D02*
X369538Y691863D01*
X369538Y694004D02*
X364522Y694004D01*
X351822Y699722D02*
X351822Y704738D01*
X356838Y704738D01*
X356838Y699722D01*
X351822Y699722D01*
X351822Y701863D02*
X356838Y701863D01*
X356838Y704004D02*
X351822Y704004D01*
X351822Y694738D02*
X351822Y689722D01*
X351822Y694738D02*
X356838Y694738D01*
X356838Y689722D01*
X351822Y689722D01*
X351822Y691863D02*
X356838Y691863D01*
X356838Y694004D02*
X351822Y694004D01*
X429863Y734172D02*
X429863Y739188D01*
X429863Y734172D02*
X424847Y734172D01*
X424847Y739188D01*
X429863Y739188D01*
X429863Y736313D02*
X424847Y736313D01*
X424847Y738454D02*
X429863Y738454D01*
X429863Y744172D02*
X429863Y749188D01*
X429863Y744172D02*
X424847Y744172D01*
X424847Y749188D01*
X429863Y749188D01*
X429863Y746313D02*
X424847Y746313D01*
X424847Y748454D02*
X429863Y748454D01*
X379063Y739188D02*
X379063Y734172D01*
X374047Y734172D01*
X374047Y739188D01*
X379063Y739188D01*
X379063Y736313D02*
X374047Y736313D01*
X374047Y738454D02*
X379063Y738454D01*
X379063Y744172D02*
X379063Y749188D01*
X379063Y744172D02*
X374047Y744172D01*
X374047Y749188D01*
X379063Y749188D01*
X379063Y746313D02*
X374047Y746313D01*
X374047Y748454D02*
X379063Y748454D01*
X363188Y739188D02*
X363188Y734172D01*
X358172Y734172D01*
X358172Y739188D01*
X363188Y739188D01*
X363188Y736313D02*
X358172Y736313D01*
X358172Y738454D02*
X363188Y738454D01*
X363188Y744172D02*
X363188Y749188D01*
X363188Y744172D02*
X358172Y744172D01*
X358172Y749188D01*
X363188Y749188D01*
X363188Y746313D02*
X358172Y746313D01*
X358172Y748454D02*
X363188Y748454D01*
X347313Y739188D02*
X347313Y734172D01*
X342297Y734172D01*
X342297Y739188D01*
X347313Y739188D01*
X347313Y736313D02*
X342297Y736313D01*
X342297Y738454D02*
X347313Y738454D01*
X347313Y744172D02*
X347313Y749188D01*
X347313Y744172D02*
X342297Y744172D01*
X342297Y749188D01*
X347313Y749188D01*
X347313Y746313D02*
X342297Y746313D01*
X342297Y748454D02*
X347313Y748454D01*
X314103Y502681D02*
X314103Y497665D01*
X314103Y502681D02*
X319119Y502681D01*
X319119Y497665D01*
X314103Y497665D01*
X314103Y499806D02*
X319119Y499806D01*
X319119Y501947D02*
X314103Y501947D01*
X314103Y492681D02*
X314103Y487665D01*
X314103Y492681D02*
X319119Y492681D01*
X319119Y487665D01*
X314103Y487665D01*
X314103Y489806D02*
X319119Y489806D01*
X319119Y491947D02*
X314103Y491947D01*
X433022Y663670D02*
X438038Y663670D01*
X438038Y658654D01*
X433022Y658654D01*
X433022Y663670D01*
X433022Y660795D02*
X438038Y660795D01*
X438038Y662936D02*
X433022Y662936D01*
X428038Y663670D02*
X423022Y663670D01*
X428038Y663670D02*
X428038Y658654D01*
X423022Y658654D01*
X423022Y663670D01*
X423022Y660795D02*
X428038Y660795D01*
X428038Y662936D02*
X423022Y662936D01*
D19*
X385433Y586481D02*
X385433Y576465D01*
X385433Y586481D02*
X394449Y586481D01*
X394449Y576465D01*
X385433Y576465D01*
X385433Y578606D02*
X394449Y578606D01*
X394449Y580747D02*
X385433Y580747D01*
X385433Y582888D02*
X394449Y582888D01*
X394449Y585029D02*
X385433Y585029D01*
X385433Y569481D02*
X385433Y559465D01*
X385433Y569481D02*
X394449Y569481D01*
X394449Y559465D01*
X385433Y559465D01*
X385433Y561606D02*
X394449Y561606D01*
X394449Y563747D02*
X385433Y563747D01*
X385433Y565888D02*
X394449Y565888D01*
X394449Y568029D02*
X385433Y568029D01*
X422381Y609842D02*
X432397Y609842D01*
X422381Y609842D02*
X422381Y618858D01*
X432397Y618858D01*
X432397Y609842D01*
X432397Y611983D02*
X422381Y611983D01*
X422381Y614124D02*
X432397Y614124D01*
X432397Y616265D02*
X422381Y616265D01*
X422381Y618406D02*
X432397Y618406D01*
X439381Y609842D02*
X449397Y609842D01*
X439381Y609842D02*
X439381Y618858D01*
X449397Y618858D01*
X449397Y609842D01*
X449397Y611983D02*
X439381Y611983D01*
X439381Y614124D02*
X449397Y614124D01*
X449397Y616265D02*
X439381Y616265D01*
X439381Y618406D02*
X449397Y618406D01*
D11*
X326438Y586772D02*
X321422Y586772D01*
X321422Y591788D01*
X326438Y591788D01*
X326438Y586772D01*
X326438Y588913D02*
X321422Y588913D01*
X321422Y591054D02*
X326438Y591054D01*
X331422Y586772D02*
X336438Y586772D01*
X331422Y586772D02*
X331422Y591788D01*
X336438Y591788D01*
X336438Y586772D01*
X336438Y588913D02*
X331422Y588913D01*
X331422Y591054D02*
X336438Y591054D01*
X326438Y605822D02*
X321422Y605822D01*
X321422Y610838D01*
X326438Y610838D01*
X326438Y605822D01*
X326438Y607963D02*
X321422Y607963D01*
X321422Y610104D02*
X326438Y610104D01*
X331422Y605822D02*
X336438Y605822D01*
X331422Y605822D02*
X331422Y610838D01*
X336438Y610838D01*
X336438Y605822D01*
X336438Y607963D02*
X331422Y607963D01*
X331422Y610104D02*
X336438Y610104D01*
X326438Y615347D02*
X321422Y615347D01*
X321422Y620363D01*
X326438Y620363D01*
X326438Y615347D01*
X326438Y617488D02*
X321422Y617488D01*
X321422Y619629D02*
X326438Y619629D01*
X331422Y615347D02*
X336438Y615347D01*
X331422Y615347D02*
X331422Y620363D01*
X336438Y620363D01*
X336438Y615347D01*
X336438Y617488D02*
X331422Y617488D01*
X331422Y619629D02*
X336438Y619629D01*
X326438Y577247D02*
X321422Y577247D01*
X321422Y582263D01*
X326438Y582263D01*
X326438Y577247D01*
X326438Y579388D02*
X321422Y579388D01*
X321422Y581529D02*
X326438Y581529D01*
X331422Y577247D02*
X336438Y577247D01*
X331422Y577247D02*
X331422Y582263D01*
X336438Y582263D01*
X336438Y577247D01*
X336438Y579388D02*
X331422Y579388D01*
X331422Y581529D02*
X336438Y581529D01*
X326438Y596297D02*
X321422Y596297D01*
X321422Y601313D01*
X326438Y601313D01*
X326438Y596297D01*
X326438Y598438D02*
X321422Y598438D01*
X321422Y600579D02*
X326438Y600579D01*
X331422Y596297D02*
X336438Y596297D01*
X331422Y596297D02*
X331422Y601313D01*
X336438Y601313D01*
X336438Y596297D01*
X336438Y598438D02*
X331422Y598438D01*
X331422Y600579D02*
X336438Y600579D01*
X376714Y502427D02*
X376714Y497411D01*
X376714Y502427D02*
X381730Y502427D01*
X381730Y497411D01*
X376714Y497411D01*
X376714Y499552D02*
X381730Y499552D01*
X381730Y501693D02*
X376714Y501693D01*
X376714Y492427D02*
X376714Y487411D01*
X376714Y492427D02*
X381730Y492427D01*
X381730Y487411D01*
X376714Y487411D01*
X376714Y489552D02*
X381730Y489552D01*
X381730Y491693D02*
X376714Y491693D01*
D20*
X332636Y497706D02*
X332636Y502242D01*
X343672Y502242D01*
X343672Y497706D01*
X332636Y497706D01*
X332636Y499828D02*
X343672Y499828D01*
X343672Y501950D02*
X332636Y501950D01*
X332636Y492742D02*
X332636Y488206D01*
X332636Y492742D02*
X343672Y492742D01*
X343672Y488206D01*
X332636Y488206D01*
X332636Y490328D02*
X343672Y490328D01*
X343672Y492450D02*
X332636Y492450D01*
X332636Y483242D02*
X332636Y478706D01*
X332636Y483242D02*
X343672Y483242D01*
X343672Y478706D01*
X332636Y478706D01*
X332636Y480828D02*
X343672Y480828D01*
X343672Y482950D02*
X332636Y482950D01*
X358638Y483242D02*
X358638Y478706D01*
X358638Y483242D02*
X369674Y483242D01*
X369674Y478706D01*
X358638Y478706D01*
X358638Y480828D02*
X369674Y480828D01*
X369674Y482950D02*
X358638Y482950D01*
X358638Y497706D02*
X358638Y502242D01*
X369674Y502242D01*
X369674Y497706D01*
X358638Y497706D01*
X358638Y499828D02*
X369674Y499828D01*
X369674Y501950D02*
X358638Y501950D01*
D11*
X389414Y502681D02*
X389414Y497665D01*
X389414Y502681D02*
X394430Y502681D01*
X394430Y497665D01*
X389414Y497665D01*
X389414Y499806D02*
X394430Y499806D01*
X394430Y501947D02*
X389414Y501947D01*
X389414Y492681D02*
X389414Y487665D01*
X389414Y492681D02*
X394430Y492681D01*
X394430Y487665D01*
X389414Y487665D01*
X389414Y489806D02*
X394430Y489806D01*
X394430Y491947D02*
X389414Y491947D01*
X318396Y482386D02*
X318396Y477370D01*
X318396Y482386D02*
X323412Y482386D01*
X323412Y477370D01*
X318396Y477370D01*
X318396Y479511D02*
X323412Y479511D01*
X323412Y481652D02*
X318396Y481652D01*
X318396Y472386D02*
X318396Y467370D01*
X318396Y472386D02*
X323412Y472386D01*
X323412Y467370D01*
X318396Y467370D01*
X318396Y469511D02*
X323412Y469511D01*
X323412Y471652D02*
X318396Y471652D01*
X323247Y497538D02*
X323247Y502554D01*
X328263Y502554D01*
X328263Y497538D01*
X323247Y497538D01*
X323247Y499679D02*
X328263Y499679D01*
X328263Y501820D02*
X323247Y501820D01*
X323247Y492554D02*
X323247Y487538D01*
X323247Y492554D02*
X328263Y492554D01*
X328263Y487538D01*
X323247Y487538D01*
X323247Y489679D02*
X328263Y489679D01*
X328263Y491820D02*
X323247Y491820D01*
X342756Y626453D02*
X346302Y629999D01*
X342756Y626453D02*
X339210Y629999D01*
X342756Y633545D01*
X346302Y629999D01*
X344897Y628594D02*
X340615Y628594D01*
X339946Y630735D02*
X345566Y630735D01*
X343425Y632876D02*
X342087Y632876D01*
X349827Y633525D02*
X353373Y637071D01*
X349827Y633525D02*
X346281Y637071D01*
X349827Y640617D01*
X353373Y637071D01*
X351968Y635666D02*
X347686Y635666D01*
X347017Y637807D02*
X352637Y637807D01*
X350496Y639948D02*
X349158Y639948D01*
D21*
X271780Y424180D03*
X271780Y449580D03*
X271780Y474980D03*
X271780Y500380D03*
X271780Y525780D03*
X271780Y551180D03*
X271780Y576580D03*
X271780Y601980D03*
X271780Y627380D03*
X271780Y652780D03*
X271780Y678180D03*
X271780Y703580D03*
X271780Y728980D03*
X271780Y754380D03*
X271780Y779780D03*
X271780Y805180D03*
X500380Y424180D03*
X500380Y449580D03*
X500380Y474980D03*
X500380Y500380D03*
X500380Y525780D03*
X500380Y551180D03*
X500380Y576580D03*
X500380Y601980D03*
X500380Y627380D03*
X500380Y652780D03*
X500380Y678180D03*
X500380Y703580D03*
X500380Y728980D03*
X500380Y754380D03*
X500380Y779780D03*
X500380Y805180D03*
D10*
X611653Y416023D02*
X622667Y416023D01*
X611653Y416023D02*
X611653Y435037D01*
X622667Y435037D01*
X622667Y416023D01*
X622667Y418166D02*
X611653Y418166D01*
X611653Y420309D02*
X622667Y420309D01*
X622667Y422452D02*
X611653Y422452D01*
X611653Y424595D02*
X622667Y424595D01*
X622667Y426738D02*
X611653Y426738D01*
X611653Y428881D02*
X622667Y428881D01*
X622667Y431024D02*
X611653Y431024D01*
X611653Y433167D02*
X622667Y433167D01*
X667653Y416023D02*
X678667Y416023D01*
X667653Y416023D02*
X667653Y435037D01*
X678667Y435037D01*
X678667Y416023D01*
X678667Y418166D02*
X667653Y418166D01*
X667653Y420309D02*
X678667Y420309D01*
X678667Y422452D02*
X667653Y422452D01*
X667653Y424595D02*
X678667Y424595D01*
X678667Y426738D02*
X667653Y426738D01*
X667653Y428881D02*
X678667Y428881D01*
X678667Y431024D02*
X667653Y431024D01*
X667653Y433167D02*
X678667Y433167D01*
D11*
X632668Y456022D02*
X627652Y456022D01*
X627652Y468538D01*
X632668Y468538D01*
X632668Y456022D01*
X632668Y458163D02*
X627652Y458163D01*
X627652Y460304D02*
X632668Y460304D01*
X632668Y462445D02*
X627652Y462445D01*
X627652Y464586D02*
X632668Y464586D01*
X632668Y466727D02*
X627652Y466727D01*
X637652Y456022D02*
X642668Y456022D01*
X637652Y456022D02*
X637652Y468538D01*
X642668Y468538D01*
X642668Y456022D01*
X642668Y458163D02*
X637652Y458163D01*
X637652Y460304D02*
X642668Y460304D01*
X642668Y462445D02*
X637652Y462445D01*
X637652Y464586D02*
X642668Y464586D01*
X642668Y466727D02*
X637652Y466727D01*
X647652Y456022D02*
X652668Y456022D01*
X647652Y456022D02*
X647652Y468538D01*
X652668Y468538D01*
X652668Y456022D01*
X652668Y458163D02*
X647652Y458163D01*
X647652Y460304D02*
X652668Y460304D01*
X652668Y462445D02*
X647652Y462445D01*
X647652Y464586D02*
X652668Y464586D01*
X652668Y466727D02*
X647652Y466727D01*
X657652Y456022D02*
X662668Y456022D01*
X657652Y456022D02*
X657652Y468538D01*
X662668Y468538D01*
X662668Y456022D01*
X662668Y458163D02*
X657652Y458163D01*
X657652Y460304D02*
X662668Y460304D01*
X662668Y462445D02*
X657652Y462445D01*
X657652Y464586D02*
X662668Y464586D01*
X662668Y466727D02*
X657652Y466727D01*
D12*
X661925Y655245D02*
X663395Y655245D01*
X661925Y655245D02*
X661925Y658215D01*
X663395Y658215D01*
X663395Y655245D01*
X663395Y657430D02*
X661925Y657430D01*
X658395Y655245D02*
X656925Y655245D01*
X656925Y658215D01*
X658395Y658215D01*
X658395Y655245D01*
X658395Y657430D02*
X656925Y657430D01*
X653395Y655245D02*
X651925Y655245D01*
X651925Y658215D01*
X653395Y658215D01*
X653395Y655245D01*
X653395Y657430D02*
X651925Y657430D01*
X648395Y655245D02*
X646925Y655245D01*
X646925Y658215D01*
X648395Y658215D01*
X648395Y655245D01*
X648395Y657430D02*
X646925Y657430D01*
X643395Y655245D02*
X641925Y655245D01*
X641925Y658215D01*
X643395Y658215D01*
X643395Y655245D01*
X643395Y657430D02*
X641925Y657430D01*
X638395Y655245D02*
X636925Y655245D01*
X636925Y658215D01*
X638395Y658215D01*
X638395Y655245D01*
X638395Y657430D02*
X636925Y657430D01*
X633395Y655245D02*
X631925Y655245D01*
X631925Y658215D01*
X633395Y658215D01*
X633395Y655245D01*
X633395Y657430D02*
X631925Y657430D01*
X628395Y655245D02*
X626925Y655245D01*
X626925Y658215D01*
X628395Y658215D01*
X628395Y655245D01*
X628395Y657430D02*
X626925Y657430D01*
X623645Y651965D02*
X623645Y650495D01*
X620675Y650495D01*
X620675Y651965D01*
X623645Y651965D01*
X623645Y646965D02*
X623645Y645495D01*
X620675Y645495D01*
X620675Y646965D01*
X623645Y646965D01*
X623645Y641965D02*
X623645Y640495D01*
X620675Y640495D01*
X620675Y641965D01*
X623645Y641965D01*
X623645Y636965D02*
X623645Y635495D01*
X620675Y635495D01*
X620675Y636965D01*
X623645Y636965D01*
X623645Y631965D02*
X623645Y630495D01*
X620675Y630495D01*
X620675Y631965D01*
X623645Y631965D01*
X623645Y626965D02*
X623645Y625495D01*
X620675Y625495D01*
X620675Y626965D01*
X623645Y626965D01*
X623645Y621965D02*
X623645Y620495D01*
X620675Y620495D01*
X620675Y621965D01*
X623645Y621965D01*
X623645Y616965D02*
X623645Y615495D01*
X620675Y615495D01*
X620675Y616965D01*
X623645Y616965D01*
X626925Y612215D02*
X628395Y612215D01*
X628395Y609245D01*
X626925Y609245D01*
X626925Y612215D01*
X626925Y611430D02*
X628395Y611430D01*
X631925Y612215D02*
X633395Y612215D01*
X633395Y609245D01*
X631925Y609245D01*
X631925Y612215D01*
X631925Y611430D02*
X633395Y611430D01*
X636925Y612215D02*
X638395Y612215D01*
X638395Y609245D01*
X636925Y609245D01*
X636925Y612215D01*
X636925Y611430D02*
X638395Y611430D01*
X641925Y612215D02*
X643395Y612215D01*
X643395Y609245D01*
X641925Y609245D01*
X641925Y612215D01*
X641925Y611430D02*
X643395Y611430D01*
X646925Y612215D02*
X648395Y612215D01*
X648395Y609245D01*
X646925Y609245D01*
X646925Y612215D01*
X646925Y611430D02*
X648395Y611430D01*
X651925Y612215D02*
X653395Y612215D01*
X653395Y609245D01*
X651925Y609245D01*
X651925Y612215D01*
X651925Y611430D02*
X653395Y611430D01*
X656925Y612215D02*
X658395Y612215D01*
X658395Y609245D01*
X656925Y609245D01*
X656925Y612215D01*
X656925Y611430D02*
X658395Y611430D01*
X661925Y612215D02*
X663395Y612215D01*
X663395Y609245D01*
X661925Y609245D01*
X661925Y612215D01*
X661925Y611430D02*
X663395Y611430D01*
X666675Y615495D02*
X666675Y616965D01*
X669645Y616965D01*
X669645Y615495D01*
X666675Y615495D01*
X666675Y620495D02*
X666675Y621965D01*
X669645Y621965D01*
X669645Y620495D01*
X666675Y620495D01*
X666675Y625495D02*
X666675Y626965D01*
X669645Y626965D01*
X669645Y625495D01*
X666675Y625495D01*
X666675Y630495D02*
X666675Y631965D01*
X669645Y631965D01*
X669645Y630495D01*
X666675Y630495D01*
X666675Y635495D02*
X666675Y636965D01*
X669645Y636965D01*
X669645Y635495D01*
X666675Y635495D01*
X666675Y640495D02*
X666675Y641965D01*
X669645Y641965D01*
X669645Y640495D01*
X666675Y640495D01*
X666675Y645495D02*
X666675Y646965D01*
X669645Y646965D01*
X669645Y645495D01*
X666675Y645495D01*
X666675Y650495D02*
X666675Y651965D01*
X669645Y651965D01*
X669645Y650495D01*
X666675Y650495D01*
D13*
X628348Y650542D02*
X628348Y616918D01*
X628348Y650542D02*
X661972Y650542D01*
X661972Y616918D01*
X628348Y616918D01*
X628348Y618957D02*
X661972Y618957D01*
X661972Y620996D02*
X628348Y620996D01*
X628348Y623035D02*
X661972Y623035D01*
X661972Y625074D02*
X628348Y625074D01*
X628348Y627113D02*
X661972Y627113D01*
X661972Y629152D02*
X628348Y629152D01*
X628348Y631191D02*
X661972Y631191D01*
X661972Y633230D02*
X628348Y633230D01*
X628348Y635269D02*
X661972Y635269D01*
X661972Y637308D02*
X628348Y637308D01*
X628348Y639347D02*
X661972Y639347D01*
X661972Y641386D02*
X628348Y641386D01*
X628348Y643425D02*
X661972Y643425D01*
X661972Y645464D02*
X628348Y645464D01*
X628348Y647503D02*
X661972Y647503D01*
X661972Y649542D02*
X628348Y649542D01*
D11*
X600170Y654538D02*
X600170Y659554D01*
X605186Y659554D01*
X605186Y654538D01*
X600170Y654538D01*
X600170Y656679D02*
X605186Y656679D01*
X605186Y658820D02*
X600170Y658820D01*
X600170Y649554D02*
X600170Y644538D01*
X600170Y649554D02*
X605186Y649554D01*
X605186Y644538D01*
X600170Y644538D01*
X600170Y646679D02*
X605186Y646679D01*
X605186Y648820D02*
X600170Y648820D01*
X613909Y656383D02*
X617455Y659929D01*
X613909Y656383D02*
X610363Y659929D01*
X613909Y663475D01*
X617455Y659929D01*
X616050Y658524D02*
X611768Y658524D01*
X611099Y660665D02*
X616719Y660665D01*
X614578Y662806D02*
X613240Y662806D01*
X620980Y663454D02*
X624526Y667000D01*
X620980Y663454D02*
X617434Y667000D01*
X620980Y670546D01*
X624526Y667000D01*
X623121Y665595D02*
X618839Y665595D01*
X618170Y667736D02*
X623790Y667736D01*
X621649Y669877D02*
X620311Y669877D01*
X610095Y668072D02*
X606549Y664526D01*
X603003Y668072D01*
X606549Y671618D01*
X610095Y668072D01*
X608690Y666667D02*
X604408Y666667D01*
X603739Y668808D02*
X609359Y668808D01*
X607218Y670949D02*
X605880Y670949D01*
X613620Y671598D02*
X617166Y675144D01*
X613620Y671598D02*
X610074Y675144D01*
X613620Y678690D01*
X617166Y675144D01*
X615761Y673739D02*
X611479Y673739D01*
X610810Y675880D02*
X616430Y675880D01*
X614289Y678021D02*
X612951Y678021D01*
X697385Y630269D02*
X702401Y630269D01*
X702401Y625253D01*
X697385Y625253D01*
X697385Y630269D01*
X697385Y627394D02*
X702401Y627394D01*
X702401Y629535D02*
X697385Y629535D01*
X692401Y630269D02*
X687385Y630269D01*
X692401Y630269D02*
X692401Y625253D01*
X687385Y625253D01*
X687385Y630269D01*
X687385Y627394D02*
X692401Y627394D01*
X692401Y629535D02*
X687385Y629535D01*
X679358Y673859D02*
X674342Y673859D01*
X679358Y673859D02*
X679358Y668843D01*
X674342Y668843D01*
X674342Y673859D01*
X674342Y670984D02*
X679358Y670984D01*
X679358Y673125D02*
X674342Y673125D01*
X669358Y673859D02*
X664342Y673859D01*
X669358Y673859D02*
X669358Y668843D01*
X664342Y668843D01*
X664342Y673859D01*
X664342Y670984D02*
X669358Y670984D01*
X669358Y673125D02*
X664342Y673125D01*
X592064Y453028D02*
X587048Y453028D01*
X592064Y453028D02*
X592064Y448012D01*
X587048Y448012D01*
X587048Y453028D01*
X587048Y450153D02*
X592064Y450153D01*
X592064Y452294D02*
X587048Y452294D01*
X582064Y453028D02*
X577048Y453028D01*
X582064Y453028D02*
X582064Y448012D01*
X577048Y448012D01*
X577048Y453028D01*
X577048Y450153D02*
X582064Y450153D01*
X582064Y452294D02*
X577048Y452294D01*
X587149Y462985D02*
X592165Y462985D01*
X592165Y457969D01*
X587149Y457969D01*
X587149Y462985D01*
X587149Y460110D02*
X592165Y460110D01*
X592165Y462251D02*
X587149Y462251D01*
X582165Y462985D02*
X577149Y462985D01*
X582165Y462985D02*
X582165Y457969D01*
X577149Y457969D01*
X577149Y462985D01*
X577149Y460110D02*
X582165Y460110D01*
X582165Y462251D02*
X577149Y462251D01*
D14*
X538947Y436837D03*
X744386Y811501D03*
D15*
X589123Y662035D02*
X589123Y654095D01*
X589123Y662035D02*
X594563Y662035D01*
X594563Y654095D01*
X589123Y654095D01*
X589123Y656309D02*
X594563Y656309D01*
X594563Y658523D02*
X589123Y658523D01*
X589123Y660737D02*
X594563Y660737D01*
X572623Y662035D02*
X572623Y654095D01*
X572623Y662035D02*
X578063Y662035D01*
X578063Y654095D01*
X572623Y654095D01*
X572623Y656309D02*
X578063Y656309D01*
X578063Y658523D02*
X572623Y658523D01*
X572623Y660737D02*
X578063Y660737D01*
X572623Y641035D02*
X572623Y633095D01*
X572623Y641035D02*
X578063Y641035D01*
X578063Y633095D01*
X572623Y633095D01*
X572623Y635309D02*
X578063Y635309D01*
X578063Y637523D02*
X572623Y637523D01*
X572623Y639737D02*
X578063Y639737D01*
X589123Y641035D02*
X589123Y633095D01*
X589123Y641035D02*
X594563Y641035D01*
X594563Y633095D01*
X589123Y633095D01*
X589123Y635309D02*
X594563Y635309D01*
X594563Y637523D02*
X589123Y637523D01*
X589123Y639737D02*
X594563Y639737D01*
D11*
X591700Y672005D02*
X586684Y672005D01*
X591700Y672005D02*
X591700Y666989D01*
X586684Y666989D01*
X586684Y672005D01*
X586684Y669130D02*
X591700Y669130D01*
X591700Y671271D02*
X586684Y671271D01*
X581700Y672005D02*
X576684Y672005D01*
X581700Y672005D02*
X581700Y666989D01*
X576684Y666989D01*
X576684Y672005D01*
X576684Y669130D02*
X581700Y669130D01*
X581700Y671271D02*
X576684Y671271D01*
D16*
X678927Y585576D02*
X678927Y578624D01*
X678927Y585576D02*
X689879Y585576D01*
X689879Y578624D01*
X678927Y578624D01*
X678927Y580826D02*
X689879Y580826D01*
X689879Y583028D02*
X678927Y583028D01*
X678927Y585230D02*
X689879Y585230D01*
X678927Y567576D02*
X678927Y560624D01*
X678927Y567576D02*
X689879Y567576D01*
X689879Y560624D01*
X678927Y560624D01*
X678927Y562826D02*
X689879Y562826D01*
X689879Y565028D02*
X678927Y565028D01*
X678927Y567230D02*
X689879Y567230D01*
X695615Y578624D02*
X695615Y585576D01*
X706567Y585576D01*
X706567Y578624D01*
X695615Y578624D01*
X695615Y580826D02*
X706567Y580826D01*
X706567Y583028D02*
X695615Y583028D01*
X695615Y585230D02*
X706567Y585230D01*
X695615Y567576D02*
X695615Y560624D01*
X695615Y567576D02*
X706567Y567576D01*
X706567Y560624D01*
X695615Y560624D01*
X695615Y562826D02*
X706567Y562826D01*
X706567Y565028D02*
X695615Y565028D01*
X695615Y567230D02*
X706567Y567230D01*
X662163Y578624D02*
X662163Y585576D01*
X673115Y585576D01*
X673115Y578624D01*
X662163Y578624D01*
X662163Y580826D02*
X673115Y580826D01*
X673115Y583028D02*
X662163Y583028D01*
X662163Y585230D02*
X673115Y585230D01*
X662163Y567576D02*
X662163Y560624D01*
X662163Y567576D02*
X673115Y567576D01*
X673115Y560624D01*
X662163Y560624D01*
X662163Y562826D02*
X673115Y562826D01*
X673115Y565028D02*
X662163Y565028D01*
X662163Y567230D02*
X673115Y567230D01*
X625384Y578548D02*
X625384Y585500D01*
X636336Y585500D01*
X636336Y578548D01*
X625384Y578548D01*
X625384Y580750D02*
X636336Y580750D01*
X636336Y582952D02*
X625384Y582952D01*
X625384Y585154D02*
X636336Y585154D01*
X625384Y567500D02*
X625384Y560548D01*
X625384Y567500D02*
X636336Y567500D01*
X636336Y560548D01*
X625384Y560548D01*
X625384Y562750D02*
X636336Y562750D01*
X636336Y564952D02*
X625384Y564952D01*
X625384Y567154D02*
X636336Y567154D01*
D17*
X685857Y550645D02*
X693381Y550645D01*
X693381Y542621D01*
X685857Y542621D01*
X685857Y550645D01*
X685857Y544756D02*
X693381Y544756D01*
X693381Y546891D02*
X685857Y546891D01*
X685857Y549026D02*
X693381Y549026D01*
X681781Y550645D02*
X674257Y550645D01*
X681781Y550645D02*
X681781Y542621D01*
X674257Y542621D01*
X674257Y550645D01*
X674257Y544756D02*
X681781Y544756D01*
X681781Y546891D02*
X674257Y546891D01*
X674257Y549026D02*
X681781Y549026D01*
X698971Y533985D02*
X706495Y533985D01*
X698971Y533985D02*
X698971Y542009D01*
X706495Y542009D01*
X706495Y533985D01*
X706495Y536120D02*
X698971Y536120D01*
X698971Y538255D02*
X706495Y538255D01*
X706495Y540390D02*
X698971Y540390D01*
X710571Y533985D02*
X718095Y533985D01*
X710571Y533985D02*
X710571Y542009D01*
X718095Y542009D01*
X718095Y533985D01*
X718095Y536120D02*
X710571Y536120D01*
X710571Y538255D02*
X718095Y538255D01*
X718095Y540390D02*
X710571Y540390D01*
X668641Y550671D02*
X661117Y550671D01*
X668641Y550671D02*
X668641Y542647D01*
X661117Y542647D01*
X661117Y550671D01*
X661117Y544782D02*
X668641Y544782D01*
X668641Y546917D02*
X661117Y546917D01*
X661117Y549052D02*
X668641Y549052D01*
X657041Y550671D02*
X649517Y550671D01*
X657041Y550671D02*
X657041Y542647D01*
X649517Y542647D01*
X649517Y550671D01*
X649517Y544782D02*
X657041Y544782D01*
X657041Y546917D02*
X649517Y546917D01*
X649517Y549052D02*
X657041Y549052D01*
X632073Y542596D02*
X624549Y542596D01*
X624549Y550620D01*
X632073Y550620D01*
X632073Y542596D01*
X632073Y544731D02*
X624549Y544731D01*
X624549Y546866D02*
X632073Y546866D01*
X632073Y549001D02*
X624549Y549001D01*
X636149Y542596D02*
X643673Y542596D01*
X636149Y542596D02*
X636149Y550620D01*
X643673Y550620D01*
X643673Y542596D01*
X643673Y544731D02*
X636149Y544731D01*
X636149Y546866D02*
X643673Y546866D01*
X643673Y549001D02*
X636149Y549001D01*
D18*
X686116Y428429D02*
X693104Y428429D01*
X693104Y421441D01*
X686116Y421441D01*
X686116Y428429D01*
X686116Y425510D02*
X693104Y425510D01*
X693104Y445969D02*
X686116Y445969D01*
X693104Y445969D02*
X693104Y438981D01*
X686116Y438981D01*
X686116Y445969D01*
X686116Y443050D02*
X693104Y443050D01*
D11*
X720042Y439388D02*
X725058Y439388D01*
X725058Y434372D01*
X720042Y434372D01*
X720042Y439388D01*
X720042Y436513D02*
X725058Y436513D01*
X725058Y438654D02*
X720042Y438654D01*
X715058Y439388D02*
X710042Y439388D01*
X715058Y439388D02*
X715058Y434372D01*
X710042Y434372D01*
X710042Y439388D01*
X710042Y436513D02*
X715058Y436513D01*
X715058Y438654D02*
X710042Y438654D01*
X649002Y699722D02*
X649002Y704738D01*
X654018Y704738D01*
X654018Y699722D01*
X649002Y699722D01*
X649002Y701863D02*
X654018Y701863D01*
X654018Y704004D02*
X649002Y704004D01*
X649002Y694738D02*
X649002Y689722D01*
X649002Y694738D02*
X654018Y694738D01*
X654018Y689722D01*
X649002Y689722D01*
X649002Y691863D02*
X654018Y691863D01*
X654018Y694004D02*
X649002Y694004D01*
X661702Y699722D02*
X661702Y704738D01*
X666718Y704738D01*
X666718Y699722D01*
X661702Y699722D01*
X661702Y701863D02*
X666718Y701863D01*
X666718Y704004D02*
X661702Y704004D01*
X661702Y694738D02*
X661702Y689722D01*
X661702Y694738D02*
X666718Y694738D01*
X666718Y689722D01*
X661702Y689722D01*
X661702Y691863D02*
X666718Y691863D01*
X666718Y694004D02*
X661702Y694004D01*
X652177Y721947D02*
X652177Y726963D01*
X657193Y726963D01*
X657193Y721947D01*
X652177Y721947D01*
X652177Y724088D02*
X657193Y724088D01*
X657193Y726229D02*
X652177Y726229D01*
X652177Y716963D02*
X652177Y711947D01*
X652177Y716963D02*
X657193Y716963D01*
X657193Y711947D01*
X652177Y711947D01*
X652177Y714088D02*
X657193Y714088D01*
X657193Y716229D02*
X652177Y716229D01*
X668052Y721947D02*
X668052Y726963D01*
X673068Y726963D01*
X673068Y721947D01*
X668052Y721947D01*
X668052Y724088D02*
X673068Y724088D01*
X673068Y726229D02*
X668052Y726229D01*
X668052Y716963D02*
X668052Y711947D01*
X668052Y716963D02*
X673068Y716963D01*
X673068Y711947D01*
X668052Y711947D01*
X668052Y714088D02*
X673068Y714088D01*
X673068Y716229D02*
X668052Y716229D01*
X673068Y734172D02*
X673068Y739188D01*
X673068Y734172D02*
X668052Y734172D01*
X668052Y739188D01*
X673068Y739188D01*
X673068Y736313D02*
X668052Y736313D01*
X668052Y738454D02*
X673068Y738454D01*
X673068Y744172D02*
X673068Y749188D01*
X673068Y744172D02*
X668052Y744172D01*
X668052Y749188D01*
X673068Y749188D01*
X673068Y746313D02*
X668052Y746313D01*
X668052Y748454D02*
X673068Y748454D01*
X657193Y739188D02*
X657193Y734172D01*
X652177Y734172D01*
X652177Y739188D01*
X657193Y739188D01*
X657193Y736313D02*
X652177Y736313D01*
X652177Y738454D02*
X657193Y738454D01*
X657193Y744172D02*
X657193Y749188D01*
X657193Y744172D02*
X652177Y744172D01*
X652177Y749188D01*
X657193Y749188D01*
X657193Y746313D02*
X652177Y746313D01*
X652177Y748454D02*
X657193Y748454D01*
X683927Y726963D02*
X683927Y721947D01*
X683927Y726963D02*
X688943Y726963D01*
X688943Y721947D01*
X683927Y721947D01*
X683927Y724088D02*
X688943Y724088D01*
X688943Y726229D02*
X683927Y726229D01*
X683927Y716963D02*
X683927Y711947D01*
X683927Y716963D02*
X688943Y716963D01*
X688943Y711947D01*
X683927Y711947D01*
X683927Y714088D02*
X688943Y714088D01*
X688943Y716229D02*
X683927Y716229D01*
X633127Y721947D02*
X633127Y726963D01*
X638143Y726963D01*
X638143Y721947D01*
X633127Y721947D01*
X633127Y724088D02*
X638143Y724088D01*
X638143Y726229D02*
X633127Y726229D01*
X633127Y716963D02*
X633127Y711947D01*
X633127Y716963D02*
X638143Y716963D01*
X638143Y711947D01*
X633127Y711947D01*
X633127Y714088D02*
X638143Y714088D01*
X638143Y716229D02*
X633127Y716229D01*
X617252Y721947D02*
X617252Y726963D01*
X622268Y726963D01*
X622268Y721947D01*
X617252Y721947D01*
X617252Y724088D02*
X622268Y724088D01*
X622268Y726229D02*
X617252Y726229D01*
X617252Y716963D02*
X617252Y711947D01*
X617252Y716963D02*
X622268Y716963D01*
X622268Y711947D01*
X617252Y711947D01*
X617252Y714088D02*
X622268Y714088D01*
X622268Y716229D02*
X617252Y716229D01*
X601377Y721947D02*
X601377Y726963D01*
X606393Y726963D01*
X606393Y721947D01*
X601377Y721947D01*
X601377Y724088D02*
X606393Y724088D01*
X606393Y726229D02*
X601377Y726229D01*
X601377Y716963D02*
X601377Y711947D01*
X601377Y716963D02*
X606393Y716963D01*
X606393Y711947D01*
X601377Y711947D01*
X601377Y714088D02*
X606393Y714088D01*
X606393Y716229D02*
X601377Y716229D01*
X674402Y704738D02*
X674402Y699722D01*
X674402Y704738D02*
X679418Y704738D01*
X679418Y699722D01*
X674402Y699722D01*
X674402Y701863D02*
X679418Y701863D01*
X679418Y704004D02*
X674402Y704004D01*
X674402Y694738D02*
X674402Y689722D01*
X674402Y694738D02*
X679418Y694738D01*
X679418Y689722D01*
X674402Y689722D01*
X674402Y691863D02*
X679418Y691863D01*
X679418Y694004D02*
X674402Y694004D01*
X636302Y699722D02*
X636302Y704738D01*
X641318Y704738D01*
X641318Y699722D01*
X636302Y699722D01*
X636302Y701863D02*
X641318Y701863D01*
X641318Y704004D02*
X636302Y704004D01*
X636302Y694738D02*
X636302Y689722D01*
X636302Y694738D02*
X641318Y694738D01*
X641318Y689722D01*
X636302Y689722D01*
X636302Y691863D02*
X641318Y691863D01*
X641318Y694004D02*
X636302Y694004D01*
X623602Y699722D02*
X623602Y704738D01*
X628618Y704738D01*
X628618Y699722D01*
X623602Y699722D01*
X623602Y701863D02*
X628618Y701863D01*
X628618Y704004D02*
X623602Y704004D01*
X623602Y694738D02*
X623602Y689722D01*
X623602Y694738D02*
X628618Y694738D01*
X628618Y689722D01*
X623602Y689722D01*
X623602Y691863D02*
X628618Y691863D01*
X628618Y694004D02*
X623602Y694004D01*
X610902Y699722D02*
X610902Y704738D01*
X615918Y704738D01*
X615918Y699722D01*
X610902Y699722D01*
X610902Y701863D02*
X615918Y701863D01*
X615918Y704004D02*
X610902Y704004D01*
X610902Y694738D02*
X610902Y689722D01*
X610902Y694738D02*
X615918Y694738D01*
X615918Y689722D01*
X610902Y689722D01*
X610902Y691863D02*
X615918Y691863D01*
X615918Y694004D02*
X610902Y694004D01*
X688943Y734172D02*
X688943Y739188D01*
X688943Y734172D02*
X683927Y734172D01*
X683927Y739188D01*
X688943Y739188D01*
X688943Y736313D02*
X683927Y736313D01*
X683927Y738454D02*
X688943Y738454D01*
X688943Y744172D02*
X688943Y749188D01*
X688943Y744172D02*
X683927Y744172D01*
X683927Y749188D01*
X688943Y749188D01*
X688943Y746313D02*
X683927Y746313D01*
X683927Y748454D02*
X688943Y748454D01*
X638143Y739188D02*
X638143Y734172D01*
X633127Y734172D01*
X633127Y739188D01*
X638143Y739188D01*
X638143Y736313D02*
X633127Y736313D01*
X633127Y738454D02*
X638143Y738454D01*
X638143Y744172D02*
X638143Y749188D01*
X638143Y744172D02*
X633127Y744172D01*
X633127Y749188D01*
X638143Y749188D01*
X638143Y746313D02*
X633127Y746313D01*
X633127Y748454D02*
X638143Y748454D01*
X622268Y739188D02*
X622268Y734172D01*
X617252Y734172D01*
X617252Y739188D01*
X622268Y739188D01*
X622268Y736313D02*
X617252Y736313D01*
X617252Y738454D02*
X622268Y738454D01*
X622268Y744172D02*
X622268Y749188D01*
X622268Y744172D02*
X617252Y744172D01*
X617252Y749188D01*
X622268Y749188D01*
X622268Y746313D02*
X617252Y746313D01*
X617252Y748454D02*
X622268Y748454D01*
X606393Y739188D02*
X606393Y734172D01*
X601377Y734172D01*
X601377Y739188D01*
X606393Y739188D01*
X606393Y736313D02*
X601377Y736313D01*
X601377Y738454D02*
X606393Y738454D01*
X606393Y744172D02*
X606393Y749188D01*
X606393Y744172D02*
X601377Y744172D01*
X601377Y749188D01*
X606393Y749188D01*
X606393Y746313D02*
X601377Y746313D01*
X601377Y748454D02*
X606393Y748454D01*
X573183Y502681D02*
X573183Y497665D01*
X573183Y502681D02*
X578199Y502681D01*
X578199Y497665D01*
X573183Y497665D01*
X573183Y499806D02*
X578199Y499806D01*
X578199Y501947D02*
X573183Y501947D01*
X573183Y492681D02*
X573183Y487665D01*
X573183Y492681D02*
X578199Y492681D01*
X578199Y487665D01*
X573183Y487665D01*
X573183Y489806D02*
X578199Y489806D01*
X578199Y491947D02*
X573183Y491947D01*
X692102Y663670D02*
X697118Y663670D01*
X697118Y658654D01*
X692102Y658654D01*
X692102Y663670D01*
X692102Y660795D02*
X697118Y660795D01*
X697118Y662936D02*
X692102Y662936D01*
X687118Y663670D02*
X682102Y663670D01*
X687118Y663670D02*
X687118Y658654D01*
X682102Y658654D01*
X682102Y663670D01*
X682102Y660795D02*
X687118Y660795D01*
X687118Y662936D02*
X682102Y662936D01*
D19*
X644513Y586481D02*
X644513Y576465D01*
X644513Y586481D02*
X653529Y586481D01*
X653529Y576465D01*
X644513Y576465D01*
X644513Y578606D02*
X653529Y578606D01*
X653529Y580747D02*
X644513Y580747D01*
X644513Y582888D02*
X653529Y582888D01*
X653529Y585029D02*
X644513Y585029D01*
X644513Y569481D02*
X644513Y559465D01*
X644513Y569481D02*
X653529Y569481D01*
X653529Y559465D01*
X644513Y559465D01*
X644513Y561606D02*
X653529Y561606D01*
X653529Y563747D02*
X644513Y563747D01*
X644513Y565888D02*
X653529Y565888D01*
X653529Y568029D02*
X644513Y568029D01*
X681461Y609842D02*
X691477Y609842D01*
X681461Y609842D02*
X681461Y618858D01*
X691477Y618858D01*
X691477Y609842D01*
X691477Y611983D02*
X681461Y611983D01*
X681461Y614124D02*
X691477Y614124D01*
X691477Y616265D02*
X681461Y616265D01*
X681461Y618406D02*
X691477Y618406D01*
X698461Y609842D02*
X708477Y609842D01*
X698461Y609842D02*
X698461Y618858D01*
X708477Y618858D01*
X708477Y609842D01*
X708477Y611983D02*
X698461Y611983D01*
X698461Y614124D02*
X708477Y614124D01*
X708477Y616265D02*
X698461Y616265D01*
X698461Y618406D02*
X708477Y618406D01*
D11*
X585518Y586772D02*
X580502Y586772D01*
X580502Y591788D01*
X585518Y591788D01*
X585518Y586772D01*
X585518Y588913D02*
X580502Y588913D01*
X580502Y591054D02*
X585518Y591054D01*
X590502Y586772D02*
X595518Y586772D01*
X590502Y586772D02*
X590502Y591788D01*
X595518Y591788D01*
X595518Y586772D01*
X595518Y588913D02*
X590502Y588913D01*
X590502Y591054D02*
X595518Y591054D01*
X585518Y605822D02*
X580502Y605822D01*
X580502Y610838D01*
X585518Y610838D01*
X585518Y605822D01*
X585518Y607963D02*
X580502Y607963D01*
X580502Y610104D02*
X585518Y610104D01*
X590502Y605822D02*
X595518Y605822D01*
X590502Y605822D02*
X590502Y610838D01*
X595518Y610838D01*
X595518Y605822D01*
X595518Y607963D02*
X590502Y607963D01*
X590502Y610104D02*
X595518Y610104D01*
X585518Y615347D02*
X580502Y615347D01*
X580502Y620363D01*
X585518Y620363D01*
X585518Y615347D01*
X585518Y617488D02*
X580502Y617488D01*
X580502Y619629D02*
X585518Y619629D01*
X590502Y615347D02*
X595518Y615347D01*
X590502Y615347D02*
X590502Y620363D01*
X595518Y620363D01*
X595518Y615347D01*
X595518Y617488D02*
X590502Y617488D01*
X590502Y619629D02*
X595518Y619629D01*
X585518Y577247D02*
X580502Y577247D01*
X580502Y582263D01*
X585518Y582263D01*
X585518Y577247D01*
X585518Y579388D02*
X580502Y579388D01*
X580502Y581529D02*
X585518Y581529D01*
X590502Y577247D02*
X595518Y577247D01*
X590502Y577247D02*
X590502Y582263D01*
X595518Y582263D01*
X595518Y577247D01*
X595518Y579388D02*
X590502Y579388D01*
X590502Y581529D02*
X595518Y581529D01*
X585518Y596297D02*
X580502Y596297D01*
X580502Y601313D01*
X585518Y601313D01*
X585518Y596297D01*
X585518Y598438D02*
X580502Y598438D01*
X580502Y600579D02*
X585518Y600579D01*
X590502Y596297D02*
X595518Y596297D01*
X590502Y596297D02*
X590502Y601313D01*
X595518Y601313D01*
X595518Y596297D01*
X595518Y598438D02*
X590502Y598438D01*
X590502Y600579D02*
X595518Y600579D01*
X635794Y502427D02*
X635794Y497411D01*
X635794Y502427D02*
X640810Y502427D01*
X640810Y497411D01*
X635794Y497411D01*
X635794Y499552D02*
X640810Y499552D01*
X640810Y501693D02*
X635794Y501693D01*
X635794Y492427D02*
X635794Y487411D01*
X635794Y492427D02*
X640810Y492427D01*
X640810Y487411D01*
X635794Y487411D01*
X635794Y489552D02*
X640810Y489552D01*
X640810Y491693D02*
X635794Y491693D01*
D20*
X591716Y497706D02*
X591716Y502242D01*
X602752Y502242D01*
X602752Y497706D01*
X591716Y497706D01*
X591716Y499828D02*
X602752Y499828D01*
X602752Y501950D02*
X591716Y501950D01*
X591716Y492742D02*
X591716Y488206D01*
X591716Y492742D02*
X602752Y492742D01*
X602752Y488206D01*
X591716Y488206D01*
X591716Y490328D02*
X602752Y490328D01*
X602752Y492450D02*
X591716Y492450D01*
X591716Y483242D02*
X591716Y478706D01*
X591716Y483242D02*
X602752Y483242D01*
X602752Y478706D01*
X591716Y478706D01*
X591716Y480828D02*
X602752Y480828D01*
X602752Y482950D02*
X591716Y482950D01*
X617718Y483242D02*
X617718Y478706D01*
X617718Y483242D02*
X628754Y483242D01*
X628754Y478706D01*
X617718Y478706D01*
X617718Y480828D02*
X628754Y480828D01*
X628754Y482950D02*
X617718Y482950D01*
X617718Y497706D02*
X617718Y502242D01*
X628754Y502242D01*
X628754Y497706D01*
X617718Y497706D01*
X617718Y499828D02*
X628754Y499828D01*
X628754Y501950D02*
X617718Y501950D01*
D11*
X648494Y502681D02*
X648494Y497665D01*
X648494Y502681D02*
X653510Y502681D01*
X653510Y497665D01*
X648494Y497665D01*
X648494Y499806D02*
X653510Y499806D01*
X653510Y501947D02*
X648494Y501947D01*
X648494Y492681D02*
X648494Y487665D01*
X648494Y492681D02*
X653510Y492681D01*
X653510Y487665D01*
X648494Y487665D01*
X648494Y489806D02*
X653510Y489806D01*
X653510Y491947D02*
X648494Y491947D01*
X577476Y482386D02*
X577476Y477370D01*
X577476Y482386D02*
X582492Y482386D01*
X582492Y477370D01*
X577476Y477370D01*
X577476Y479511D02*
X582492Y479511D01*
X582492Y481652D02*
X577476Y481652D01*
X577476Y472386D02*
X577476Y467370D01*
X577476Y472386D02*
X582492Y472386D01*
X582492Y467370D01*
X577476Y467370D01*
X577476Y469511D02*
X582492Y469511D01*
X582492Y471652D02*
X577476Y471652D01*
X582327Y497538D02*
X582327Y502554D01*
X587343Y502554D01*
X587343Y497538D01*
X582327Y497538D01*
X582327Y499679D02*
X587343Y499679D01*
X587343Y501820D02*
X582327Y501820D01*
X582327Y492554D02*
X582327Y487538D01*
X582327Y492554D02*
X587343Y492554D01*
X587343Y487538D01*
X582327Y487538D01*
X582327Y489679D02*
X587343Y489679D01*
X587343Y491820D02*
X582327Y491820D01*
X601836Y626453D02*
X605382Y629999D01*
X601836Y626453D02*
X598290Y629999D01*
X601836Y633545D01*
X605382Y629999D01*
X603977Y628594D02*
X599695Y628594D01*
X599026Y630735D02*
X604646Y630735D01*
X602505Y632876D02*
X601167Y632876D01*
X608907Y633525D02*
X612453Y637071D01*
X608907Y633525D02*
X605361Y637071D01*
X608907Y640617D01*
X612453Y637071D01*
X611048Y635666D02*
X606766Y635666D01*
X606097Y637807D02*
X611717Y637807D01*
X609576Y639948D02*
X608238Y639948D01*
D21*
X530860Y424180D03*
X530860Y449580D03*
X530860Y474980D03*
X530860Y500380D03*
X530860Y525780D03*
X530860Y551180D03*
X530860Y576580D03*
X530860Y601980D03*
X530860Y627380D03*
X530860Y652780D03*
X530860Y678180D03*
X530860Y703580D03*
X530860Y728980D03*
X530860Y754380D03*
X530860Y779780D03*
X530860Y805180D03*
X759460Y424180D03*
X759460Y449580D03*
X759460Y474980D03*
X759460Y500380D03*
X759460Y525780D03*
X759460Y551180D03*
X759460Y576580D03*
X759460Y601980D03*
X759460Y627380D03*
X759460Y652780D03*
X759460Y678180D03*
X759460Y703580D03*
X759460Y728980D03*
X759460Y754380D03*
X759460Y779780D03*
X759460Y805180D03*
D22*
X68580Y838835D03*
X702945Y838835D03*
D23*
X59525Y-20955D02*
X59528Y-20733D01*
X59536Y-20511D01*
X59550Y-20289D01*
X59569Y-20067D01*
X59593Y-19847D01*
X59623Y-19626D01*
X59658Y-19407D01*
X59699Y-19188D01*
X59745Y-18971D01*
X59796Y-18755D01*
X59853Y-18540D01*
X59915Y-18326D01*
X59982Y-18115D01*
X60054Y-17904D01*
X60132Y-17696D01*
X60214Y-17490D01*
X60302Y-17286D01*
X60394Y-17083D01*
X60492Y-16884D01*
X60594Y-16687D01*
X60701Y-16492D01*
X60813Y-16300D01*
X60930Y-16111D01*
X61051Y-15924D01*
X61177Y-15741D01*
X61307Y-15561D01*
X61442Y-15384D01*
X61580Y-15211D01*
X61723Y-15041D01*
X61871Y-14874D01*
X62022Y-14711D01*
X62177Y-14552D01*
X62336Y-14397D01*
X62499Y-14246D01*
X62666Y-14098D01*
X62836Y-13955D01*
X63009Y-13817D01*
X63186Y-13682D01*
X63366Y-13552D01*
X63549Y-13426D01*
X63736Y-13305D01*
X63925Y-13188D01*
X64117Y-13076D01*
X64312Y-12969D01*
X64509Y-12867D01*
X64708Y-12769D01*
X64911Y-12677D01*
X65115Y-12589D01*
X65321Y-12507D01*
X65529Y-12429D01*
X65740Y-12357D01*
X65951Y-12290D01*
X66165Y-12228D01*
X66380Y-12171D01*
X66596Y-12120D01*
X66813Y-12074D01*
X67032Y-12033D01*
X67251Y-11998D01*
X67472Y-11968D01*
X67692Y-11944D01*
X67914Y-11925D01*
X68136Y-11911D01*
X68358Y-11903D01*
X68580Y-11900D01*
X68802Y-11903D01*
X69024Y-11911D01*
X69246Y-11925D01*
X69468Y-11944D01*
X69688Y-11968D01*
X69909Y-11998D01*
X70128Y-12033D01*
X70347Y-12074D01*
X70564Y-12120D01*
X70780Y-12171D01*
X70995Y-12228D01*
X71209Y-12290D01*
X71420Y-12357D01*
X71631Y-12429D01*
X71839Y-12507D01*
X72045Y-12589D01*
X72249Y-12677D01*
X72452Y-12769D01*
X72651Y-12867D01*
X72848Y-12969D01*
X73043Y-13076D01*
X73235Y-13188D01*
X73424Y-13305D01*
X73611Y-13426D01*
X73794Y-13552D01*
X73974Y-13682D01*
X74151Y-13817D01*
X74324Y-13955D01*
X74494Y-14098D01*
X74661Y-14246D01*
X74824Y-14397D01*
X74983Y-14552D01*
X75138Y-14711D01*
X75289Y-14874D01*
X75437Y-15041D01*
X75580Y-15211D01*
X75718Y-15384D01*
X75853Y-15561D01*
X75983Y-15741D01*
X76109Y-15924D01*
X76230Y-16111D01*
X76347Y-16300D01*
X76459Y-16492D01*
X76566Y-16687D01*
X76668Y-16884D01*
X76766Y-17083D01*
X76858Y-17286D01*
X76946Y-17490D01*
X77028Y-17696D01*
X77106Y-17904D01*
X77178Y-18115D01*
X77245Y-18326D01*
X77307Y-18540D01*
X77364Y-18755D01*
X77415Y-18971D01*
X77461Y-19188D01*
X77502Y-19407D01*
X77537Y-19626D01*
X77567Y-19847D01*
X77591Y-20067D01*
X77610Y-20289D01*
X77624Y-20511D01*
X77632Y-20733D01*
X77635Y-20955D01*
X77632Y-21177D01*
X77624Y-21399D01*
X77610Y-21621D01*
X77591Y-21843D01*
X77567Y-22063D01*
X77537Y-22284D01*
X77502Y-22503D01*
X77461Y-22722D01*
X77415Y-22939D01*
X77364Y-23155D01*
X77307Y-23370D01*
X77245Y-23584D01*
X77178Y-23795D01*
X77106Y-24006D01*
X77028Y-24214D01*
X76946Y-24420D01*
X76858Y-24624D01*
X76766Y-24827D01*
X76668Y-25026D01*
X76566Y-25223D01*
X76459Y-25418D01*
X76347Y-25610D01*
X76230Y-25799D01*
X76109Y-25986D01*
X75983Y-26169D01*
X75853Y-26349D01*
X75718Y-26526D01*
X75580Y-26699D01*
X75437Y-26869D01*
X75289Y-27036D01*
X75138Y-27199D01*
X74983Y-27358D01*
X74824Y-27513D01*
X74661Y-27664D01*
X74494Y-27812D01*
X74324Y-27955D01*
X74151Y-28093D01*
X73974Y-28228D01*
X73794Y-28358D01*
X73611Y-28484D01*
X73424Y-28605D01*
X73235Y-28722D01*
X73043Y-28834D01*
X72848Y-28941D01*
X72651Y-29043D01*
X72452Y-29141D01*
X72249Y-29233D01*
X72045Y-29321D01*
X71839Y-29403D01*
X71631Y-29481D01*
X71420Y-29553D01*
X71209Y-29620D01*
X70995Y-29682D01*
X70780Y-29739D01*
X70564Y-29790D01*
X70347Y-29836D01*
X70128Y-29877D01*
X69909Y-29912D01*
X69688Y-29942D01*
X69468Y-29966D01*
X69246Y-29985D01*
X69024Y-29999D01*
X68802Y-30007D01*
X68580Y-30010D01*
X68358Y-30007D01*
X68136Y-29999D01*
X67914Y-29985D01*
X67692Y-29966D01*
X67472Y-29942D01*
X67251Y-29912D01*
X67032Y-29877D01*
X66813Y-29836D01*
X66596Y-29790D01*
X66380Y-29739D01*
X66165Y-29682D01*
X65951Y-29620D01*
X65740Y-29553D01*
X65529Y-29481D01*
X65321Y-29403D01*
X65115Y-29321D01*
X64911Y-29233D01*
X64708Y-29141D01*
X64509Y-29043D01*
X64312Y-28941D01*
X64117Y-28834D01*
X63925Y-28722D01*
X63736Y-28605D01*
X63549Y-28484D01*
X63366Y-28358D01*
X63186Y-28228D01*
X63009Y-28093D01*
X62836Y-27955D01*
X62666Y-27812D01*
X62499Y-27664D01*
X62336Y-27513D01*
X62177Y-27358D01*
X62022Y-27199D01*
X61871Y-27036D01*
X61723Y-26869D01*
X61580Y-26699D01*
X61442Y-26526D01*
X61307Y-26349D01*
X61177Y-26169D01*
X61051Y-25986D01*
X60930Y-25799D01*
X60813Y-25610D01*
X60701Y-25418D01*
X60594Y-25223D01*
X60492Y-25026D01*
X60394Y-24827D01*
X60302Y-24624D01*
X60214Y-24420D01*
X60132Y-24214D01*
X60054Y-24006D01*
X59982Y-23795D01*
X59915Y-23584D01*
X59853Y-23370D01*
X59796Y-23155D01*
X59745Y-22939D01*
X59699Y-22722D01*
X59658Y-22503D01*
X59623Y-22284D01*
X59593Y-22063D01*
X59569Y-21843D01*
X59550Y-21621D01*
X59536Y-21399D01*
X59528Y-21177D01*
X59525Y-20955D01*
D24*
X68580Y-20955D03*
M02*
