M48
;GenerationSoftware,Autodesk,EAGLE,9.6.2*%
;CreationDate,2022-10-13T15:50:08Z*%
FMAT,2
ICI,OFF
METRIC,TZ,000.000
T2C0.381
T1C1.016
%
G90
M71
T1
X1270Y60198
X1270Y1270
X1270Y3810
X1270Y6350
X1270Y8890
X1270Y11430
X1270Y13970
X1270Y16510
X1270Y19050
X1270Y21590
X1270Y24130
X1270Y26670
X1270Y29210
X1270Y31750
X1270Y34290
X1270Y36830
X1270Y39370
X24130Y1270
X24130Y3810
X24130Y6350
X24130Y8890
X24130Y11430
X24130Y13970
X24130Y16510
X24130Y19050
X24130Y21590
X24130Y24130
X24130Y26670
X24130Y29210
X24130Y31750
X24130Y34290
X24130Y36830
X24130Y39370
X27178Y1270
X27178Y3810
X27178Y6350
X27178Y8890
X27178Y11430
X27178Y13970
X27178Y16510
X27178Y19050
X27178Y21590
X27178Y24130
X27178Y26670
X27178Y29210
X27178Y31750
X27178Y34290
X27178Y36830
X27178Y39370
X50038Y1270
X50038Y3810
X50038Y6350
X50038Y8890
X50038Y11430
X50038Y13970
X50038Y16510
X50038Y19050
X50038Y21590
X50038Y24130
X50038Y26670
X50038Y29210
X50038Y31750
X50038Y34290
X50038Y36830
X50038Y39370
X53086Y1270
X53086Y3810
X53086Y6350
X53086Y8890
X53086Y11430
X53086Y13970
X53086Y16510
X53086Y19050
X53086Y21590
X53086Y24130
X53086Y26670
X53086Y29210
X53086Y31750
X53086Y34290
X53086Y36830
X53086Y39370
X75946Y1270
X75946Y3810
X75946Y6350
X75946Y8890
X75946Y11430
X75946Y13970
X75946Y16510
X75946Y19050
X75946Y21590
X75946Y24130
X75946Y26670
X75946Y29210
X75946Y31750
X75946Y34290
X75946Y36830
X75946Y39370
X1270Y42418
X1270Y44958
X1270Y47498
X1270Y50038
X1270Y52578
X1270Y55118
X1270Y57658
X1270Y62738
X1270Y65278
X1270Y67818
X1270Y70358
X1270Y72898
X1270Y75438
X1270Y77978
X1270Y80518
X24130Y42418
X24130Y44958
X24130Y47498
X24130Y50038
X24130Y52578
X24130Y55118
X24130Y57658
X24130Y60198
X24130Y62738
X24130Y65278
X24130Y67818
X24130Y70358
X24130Y72898
X24130Y75438
X24130Y77978
X24130Y80518
X27178Y42418
X27178Y44958
X27178Y47498
X27178Y50038
X27178Y52578
X27178Y55118
X27178Y57658
X27178Y60198
X27178Y62738
X27178Y65278
X27178Y67818
X27178Y70358
X27178Y72898
X27178Y75438
X27178Y77978
X27178Y80518
X50038Y42418
X50038Y44958
X50038Y47498
X50038Y50038
X50038Y52578
X50038Y55118
X50038Y57658
X50038Y60198
X50038Y62738
X50038Y65278
X50038Y67818
X50038Y70358
X50038Y72898
X50038Y75438
X50038Y77978
X50038Y80518
X53086Y42418
X53086Y44958
X53086Y47498
X53086Y50038
X53086Y52578
X53086Y55118
X53086Y57658
X53086Y60198
X53086Y62738
X53086Y65278
X53086Y67818
X53086Y70358
X53086Y72898
X53086Y75438
X53086Y77978
X53086Y80518
X75946Y42418
X75946Y44958
X75946Y47498
X75946Y50038
X75946Y52578
X75946Y55118
X75946Y57658
X75946Y60198
X75946Y62738
X75946Y65278
X75946Y67818
X75946Y70358
X75946Y72898
X75946Y75438
X75946Y77978
X75946Y80518
T2
X65024Y9677
X65753Y9647
X68644Y34608
X67056Y34608
X65468Y34608
X63563Y34608
X61976Y34608
X60388Y34608
X64361Y18730
X67716Y21958
X66980Y19723
X61026Y24125
X68610Y25994
X70378Y24971
X71435Y20292
X72708Y15126
X56746Y7859
X64442Y7099
X64516Y30201
X69215Y28067
X63805Y22238
X65202Y22238
X64491Y23000
X64491Y21450
X60668Y6007
X72385Y12657
X70749Y40041
X66662Y40061
X61280Y40061
X58064Y40041
X57602Y640
X70858Y615
X64404Y1786
X56873Y10203
X59560Y10587
X57211Y12893
X57307Y15215
X60150Y15123
X59466Y12525
X67800Y12436
X58339Y22550
X59789Y25466
X57114Y27821
X69030Y18047
X74704Y9982
X60965Y7061
X60978Y8773
X73525Y2520
X57160Y25804
X64021Y14468
X63033Y6210
X62240Y6218
X73350Y25418
X73406Y27955
X73378Y30521
X73406Y33058
X73708Y35568
X73444Y38009
X74658Y12670
X74724Y7633
X74701Y5057
X72149Y7658
X70051Y4968
X69253Y10508
X68425Y7569
X67188Y6294
X14199Y57358
X17625Y60549
X6716Y68445
X7595Y64694
X9525Y54483
X12167Y47371
X12946Y47348
X8771Y54488
X6960Y56820
X7937Y45263
X6032Y54800
X6032Y51308
X7937Y46215
X6990Y51448
X6960Y44166
X5080Y46215
X16828Y65278
X15461Y49395
X15469Y48699
X8255Y50990
X13208Y50825
X13937Y50795
X16828Y75756
X15240Y75756
X13652Y75756
X11747Y75756
X10160Y75756
X8573Y75756
X12545Y59878
X15900Y63106
X15164Y60871
X9210Y65273
X16794Y67142
X18562Y66119
X19619Y61440
X20892Y56274
X4930Y49007
X12626Y48247
X12700Y71349
X17399Y69215
X11989Y63386
X13386Y63386
X12675Y64148
X12675Y62598
X8852Y47155
X20569Y53805
X18933Y81189
X14846Y81209
X9464Y81209
X6248Y81189
X5786Y41788
X19042Y41763
X12588Y42934
X5057Y51351
X7744Y51735
X5395Y54041
X5491Y56363
X8334Y56271
X7650Y53673
X15984Y53584
X6523Y63698
X7973Y66614
X5298Y68969
X17214Y59195
X22888Y51130
X9149Y48209
X9162Y49921
X21709Y43668
X5344Y66952
X12205Y55616
X11217Y47358
X10424Y47366
X21534Y66566
X21590Y69103
X21562Y71669
X21590Y74206
X21892Y76716
X21628Y79157
X22842Y53818
X22908Y48781
X22885Y46205
X20333Y48806
X18235Y46116
X17437Y51656
X16609Y48717
X15372Y47442
X40107Y57358
X43533Y60549
X32624Y68445
X33503Y64694
X35433Y54483
X38075Y47371
X38854Y47348
X34679Y54488
X32868Y56820
X33846Y45263
X32624Y27297
X31940Y51308
X33846Y46215
X32898Y51448
X32868Y44166
X30988Y46215
X42736Y65278
X41369Y49395
X41377Y48699
X34163Y50990
X39116Y50825
X39845Y50795
X42736Y75756
X41148Y75756
X39561Y75756
X37656Y75756
X36068Y75756
X34481Y75756
X38453Y59878
X41808Y63106
X41072Y60871
X35118Y65273
X42702Y67142
X44470Y66119
X45527Y61440
X46799Y56274
X30838Y49007
X38534Y48247
X38608Y71349
X43307Y69215
X37897Y63386
X39294Y63386
X38583Y64148
X38583Y62598
X34760Y47155
X46477Y53805
X44841Y81189
X40754Y81209
X35372Y81209
X32156Y81189
X31694Y41788
X44950Y41763
X38496Y42934
X30965Y51351
X33652Y51735
X31303Y54041
X31399Y56363
X34242Y56271
X33558Y53673
X41892Y53584
X32431Y63698
X33881Y66614
X31206Y68969
X43122Y59195
X48796Y51130
X35057Y48209
X35070Y49921
X47617Y43668
X31252Y66952
X38113Y55616
X37125Y47358
X36332Y47366
X47442Y66566
X47498Y69103
X47470Y71669
X47498Y74206
X47800Y76716
X47536Y79157
X48750Y53818
X48816Y48781
X48793Y46205
X46241Y48806
X44143Y46116
X43345Y51656
X42517Y48717
X41280Y47442
X66015Y57358
X69441Y60549
X58532Y68445
X59411Y64694
X61341Y54483
X63983Y47371
X64762Y47348
X60587Y54488
X58776Y56820
X59753Y45263
X57848Y54800
X57848Y51308
X59753Y46215
X58806Y51448
X58776Y44166
X56896Y46215
X68644Y65278
X67277Y49395
X67285Y48699
X60071Y50990
X65024Y50825
X65753Y50795
X68644Y75756
X67056Y75756
X65468Y75756
X63563Y75756
X61976Y75756
X60388Y75756
X64361Y59878
X67716Y63106
X66980Y60871
X61026Y65273
X68610Y67142
X70378Y66119
X71435Y61440
X72708Y56274
X56746Y49007
X64442Y48247
X64516Y71349
X69215Y69215
X63805Y63386
X65202Y63386
X64491Y64148
X64491Y62598
X60668Y47155
X72385Y53805
X70749Y81189
X66662Y81209
X61280Y81209
X58064Y81189
X57602Y41788
X70858Y41763
X64404Y42934
X56873Y51351
X59560Y51735
X57211Y54041
X57307Y56363
X60150Y56271
X59466Y53673
X67800Y53584
X58339Y63698
X59789Y66614
X57114Y68969
X69030Y59195
X74704Y51130
X60965Y48209
X60978Y49921
X73525Y43668
X57160Y66952
X64021Y55616
X63033Y47358
X62240Y47366
X73350Y66566
X73406Y69103
X73378Y71669
X73406Y74206
X73708Y76716
X73444Y79157
X74658Y53818
X74724Y48781
X74701Y46205
X72149Y48806
X70051Y46116
X69253Y51656
X68425Y48717
X67188Y47442
X14199Y16210
X17625Y19401
X6716Y27297
X7595Y23546
X9525Y13335
X12167Y6223
X12946Y6200
X8771Y13340
X6960Y15672
X7937Y4115
X6032Y13652
X6032Y10160
X7937Y5067
X6990Y10300
X6960Y3018
X5080Y5067
X16828Y24130
X15461Y8247
X15469Y7551
X8255Y9843
X13208Y9677
X13937Y9647
X16828Y34608
X15240Y34608
X13652Y34608
X11747Y34608
X10160Y34608
X8573Y34608
X12545Y18730
X15900Y21958
X15164Y19723
X9210Y24125
X16794Y25994
X18562Y24971
X19619Y20292
X20892Y15126
X4930Y7859
X12626Y7099
X12700Y30201
X17399Y28067
X11989Y22238
X13386Y22238
X12675Y23000
X12675Y21450
X8852Y6007
X20569Y12657
X18933Y40041
X14846Y40061
X9464Y40061
X6248Y40041
X5786Y640
X19042Y615
X12588Y1786
X5057Y10203
X7744Y10587
X5395Y12893
X5491Y15215
X8334Y15123
X7650Y12525
X15984Y12436
X6523Y22550
X7973Y25466
X5298Y27821
X17214Y18047
X22888Y9982
X9149Y7061
X9162Y8773
X21709Y2520
X5344Y25804
X12205Y14468
X11217Y6210
X10424Y6218
X21534Y25418
X21590Y27955
X21562Y30521
X21590Y33058
X21892Y35568
X21628Y38009
X22842Y12670
X22908Y7633
X22885Y5057
X20333Y7658
X18235Y4968
X17437Y10508
X16609Y7569
X15372Y6294
X40107Y16210
X43533Y19401
X33503Y23546
X35433Y13335
X38075Y6223
X38854Y6200
X34679Y13340
X32868Y15672
X33846Y4115
X31940Y13652
X31940Y10160
X33846Y5067
X32898Y10300
X32868Y3018
X30988Y5067
X42736Y24130
X41369Y8247
X31940Y54800
X41377Y7551
X34163Y9843
X39116Y9677
X39845Y9647
X42736Y34608
X41148Y34608
X39561Y34608
X37656Y34608
X36068Y34608
X34481Y34608
X38453Y18730
X41808Y21958
X41072Y19723
X35118Y24125
X42702Y25994
X44470Y24971
X45527Y20292
X46799Y15126
X30838Y7859
X38534Y7099
X38608Y30201
X43307Y28067
X37897Y22238
X39294Y22238
X38583Y23000
X38583Y21450
X34760Y6007
X46477Y12657
X44841Y40041
X40754Y40061
X35372Y40061
X32156Y40041
X31694Y640
X44950Y615
X38496Y1786
X30965Y10203
X33652Y10587
X31303Y12893
X31399Y15215
X34242Y15123
X33558Y12525
X41892Y12436
X32431Y22550
X33881Y25466
X31206Y27821
X43122Y18047
X48796Y9982
X35057Y7061
X35070Y8773
X47617Y2520
X31252Y25804
X38113Y14468
X37125Y6210
X36332Y6218
X47442Y25418
X47498Y27955
X47470Y30521
X47498Y33058
X47800Y35568
X47536Y38009
X48750Y12670
X48816Y7633
X48793Y5057
X46241Y7658
X44143Y4968
X43345Y10508
X42517Y7569
X41280Y6294
X66015Y16210
X69441Y19401
X58532Y27297
X59411Y23546
X61341Y13335
X63983Y6223
X64762Y6200
X60587Y13340
X58776Y15672
X59753Y4115
X57848Y13652
X57848Y10160
X59753Y5067
X58806Y10300
X58776Y3018
X56896Y5067
X68644Y24130
X67277Y8247
X67285Y7551
X60071Y9843
M30