G04 EAGLE Gerber RS-274X export*
G75*
%MOMM*%
%FSLAX34Y34*%
%LPD*%
%INSoldermask Bottom*%
%IPPOS*%
%AMOC8*
5,1,8,0,0,1.08239X$1,22.5*%
G01*
%ADD10C,0.228344*%
%ADD11C,0.762000*%
%ADD12C,2.006600*%
%ADD13C,1.127000*%
%ADD14C,1.270000*%
%ADD15C,1.627000*%

G36*
X628994Y456349D02*
X628994Y456349D01*
X629060Y456351D01*
X629104Y456368D01*
X629150Y456377D01*
X629207Y456410D01*
X629268Y456435D01*
X629303Y456467D01*
X629343Y456491D01*
X629385Y456542D01*
X629433Y456586D01*
X629455Y456629D01*
X629485Y456665D01*
X629506Y456727D01*
X629536Y456786D01*
X629544Y456840D01*
X629557Y456878D01*
X629556Y456917D01*
X629564Y456971D01*
X629564Y460781D01*
X629552Y460846D01*
X629550Y460912D01*
X629532Y460956D01*
X629524Y461002D01*
X629490Y461059D01*
X629466Y461120D01*
X629434Y461155D01*
X629410Y461195D01*
X629359Y461237D01*
X629314Y461285D01*
X629272Y461307D01*
X629236Y461337D01*
X629173Y461358D01*
X629115Y461388D01*
X629060Y461396D01*
X629023Y461409D01*
X628984Y461408D01*
X628929Y461416D01*
X626389Y461416D01*
X626325Y461404D01*
X626259Y461402D01*
X626215Y461384D01*
X626169Y461376D01*
X626112Y461342D01*
X626051Y461318D01*
X626016Y461286D01*
X625975Y461262D01*
X625934Y461211D01*
X625885Y461166D01*
X625864Y461124D01*
X625834Y461088D01*
X625813Y461025D01*
X625783Y460967D01*
X625775Y460912D01*
X625762Y460875D01*
X625762Y460871D01*
X625763Y460835D01*
X625755Y460781D01*
X625755Y456971D01*
X625767Y456907D01*
X625769Y456841D01*
X625786Y456797D01*
X625795Y456751D01*
X625828Y456694D01*
X625853Y456633D01*
X625885Y456598D01*
X625909Y456557D01*
X625960Y456516D01*
X626004Y456467D01*
X626047Y456446D01*
X626083Y456416D01*
X626145Y456395D01*
X626204Y456365D01*
X626258Y456357D01*
X626296Y456344D01*
X626335Y456345D01*
X626389Y456337D01*
X628929Y456337D01*
X628994Y456349D01*
G37*
G36*
X110834Y456349D02*
X110834Y456349D01*
X110900Y456351D01*
X110944Y456368D01*
X110990Y456377D01*
X111047Y456410D01*
X111108Y456435D01*
X111143Y456467D01*
X111183Y456491D01*
X111225Y456542D01*
X111273Y456586D01*
X111295Y456629D01*
X111325Y456665D01*
X111346Y456727D01*
X111376Y456786D01*
X111384Y456840D01*
X111397Y456878D01*
X111396Y456917D01*
X111404Y456971D01*
X111404Y460781D01*
X111392Y460846D01*
X111390Y460912D01*
X111372Y460956D01*
X111364Y461002D01*
X111330Y461059D01*
X111306Y461120D01*
X111274Y461155D01*
X111250Y461195D01*
X111199Y461237D01*
X111154Y461285D01*
X111112Y461307D01*
X111076Y461337D01*
X111013Y461358D01*
X110955Y461388D01*
X110900Y461396D01*
X110863Y461409D01*
X110824Y461408D01*
X110769Y461416D01*
X108229Y461416D01*
X108165Y461404D01*
X108099Y461402D01*
X108055Y461384D01*
X108009Y461376D01*
X107952Y461342D01*
X107891Y461318D01*
X107856Y461286D01*
X107815Y461262D01*
X107774Y461211D01*
X107725Y461166D01*
X107704Y461124D01*
X107674Y461088D01*
X107653Y461025D01*
X107623Y460967D01*
X107615Y460912D01*
X107602Y460875D01*
X107602Y460871D01*
X107603Y460835D01*
X107595Y460781D01*
X107595Y456971D01*
X107607Y456907D01*
X107609Y456841D01*
X107626Y456797D01*
X107635Y456751D01*
X107668Y456694D01*
X107693Y456633D01*
X107725Y456598D01*
X107749Y456557D01*
X107800Y456516D01*
X107844Y456467D01*
X107887Y456446D01*
X107923Y456416D01*
X107985Y456395D01*
X108044Y456365D01*
X108098Y456357D01*
X108136Y456344D01*
X108175Y456345D01*
X108229Y456337D01*
X110769Y456337D01*
X110834Y456349D01*
G37*
G36*
X369914Y456349D02*
X369914Y456349D01*
X369980Y456351D01*
X370024Y456368D01*
X370070Y456377D01*
X370127Y456410D01*
X370188Y456435D01*
X370223Y456467D01*
X370263Y456491D01*
X370305Y456542D01*
X370353Y456586D01*
X370375Y456629D01*
X370405Y456665D01*
X370426Y456727D01*
X370456Y456786D01*
X370464Y456840D01*
X370477Y456878D01*
X370476Y456917D01*
X370484Y456971D01*
X370484Y460781D01*
X370472Y460846D01*
X370470Y460912D01*
X370452Y460956D01*
X370444Y461002D01*
X370410Y461059D01*
X370386Y461120D01*
X370354Y461155D01*
X370330Y461195D01*
X370279Y461237D01*
X370234Y461285D01*
X370192Y461307D01*
X370156Y461337D01*
X370093Y461358D01*
X370035Y461388D01*
X369980Y461396D01*
X369943Y461409D01*
X369904Y461408D01*
X369849Y461416D01*
X367309Y461416D01*
X367245Y461404D01*
X367179Y461402D01*
X367135Y461384D01*
X367089Y461376D01*
X367032Y461342D01*
X366971Y461318D01*
X366936Y461286D01*
X366895Y461262D01*
X366854Y461211D01*
X366805Y461166D01*
X366784Y461124D01*
X366754Y461088D01*
X366733Y461025D01*
X366703Y460967D01*
X366695Y460912D01*
X366682Y460875D01*
X366682Y460871D01*
X366683Y460835D01*
X366675Y460781D01*
X366675Y456971D01*
X366687Y456907D01*
X366689Y456841D01*
X366706Y456797D01*
X366715Y456751D01*
X366748Y456694D01*
X366773Y456633D01*
X366805Y456598D01*
X366829Y456557D01*
X366880Y456516D01*
X366924Y456467D01*
X366967Y456446D01*
X367003Y456416D01*
X367065Y456395D01*
X367124Y456365D01*
X367178Y456357D01*
X367216Y456344D01*
X367255Y456345D01*
X367309Y456337D01*
X369849Y456337D01*
X369914Y456349D01*
G37*
G36*
X614745Y518172D02*
X614745Y518172D01*
X614811Y518174D01*
X614854Y518192D01*
X614901Y518200D01*
X614958Y518234D01*
X615018Y518259D01*
X615053Y518290D01*
X615094Y518315D01*
X615136Y518366D01*
X615184Y518410D01*
X615206Y518452D01*
X615235Y518489D01*
X615256Y518551D01*
X615287Y518610D01*
X615295Y518664D01*
X615307Y518701D01*
X615306Y518741D01*
X615314Y518795D01*
X615314Y522605D01*
X615303Y522670D01*
X615301Y522736D01*
X615283Y522779D01*
X615275Y522826D01*
X615241Y522883D01*
X615216Y522943D01*
X615185Y522978D01*
X615160Y523019D01*
X615109Y523061D01*
X615065Y523109D01*
X615023Y523131D01*
X614986Y523160D01*
X614924Y523181D01*
X614865Y523212D01*
X614811Y523220D01*
X614774Y523232D01*
X614734Y523231D01*
X614680Y523239D01*
X612140Y523239D01*
X612075Y523228D01*
X612009Y523226D01*
X611966Y523208D01*
X611919Y523200D01*
X611862Y523166D01*
X611802Y523141D01*
X611767Y523110D01*
X611726Y523085D01*
X611685Y523034D01*
X611636Y522990D01*
X611614Y522948D01*
X611585Y522911D01*
X611564Y522849D01*
X611533Y522790D01*
X611525Y522736D01*
X611513Y522699D01*
X611513Y522695D01*
X611513Y522694D01*
X611514Y522659D01*
X611506Y522605D01*
X611506Y518795D01*
X611517Y518730D01*
X611519Y518664D01*
X611537Y518621D01*
X611545Y518574D01*
X611579Y518517D01*
X611604Y518457D01*
X611635Y518422D01*
X611660Y518381D01*
X611711Y518340D01*
X611755Y518291D01*
X611797Y518269D01*
X611834Y518240D01*
X611896Y518219D01*
X611955Y518188D01*
X612009Y518180D01*
X612046Y518168D01*
X612086Y518169D01*
X612140Y518161D01*
X614680Y518161D01*
X614745Y518172D01*
G37*
G36*
X96585Y518172D02*
X96585Y518172D01*
X96651Y518174D01*
X96694Y518192D01*
X96741Y518200D01*
X96798Y518234D01*
X96858Y518259D01*
X96893Y518290D01*
X96934Y518315D01*
X96976Y518366D01*
X97024Y518410D01*
X97046Y518452D01*
X97075Y518489D01*
X97096Y518551D01*
X97127Y518610D01*
X97135Y518664D01*
X97147Y518701D01*
X97146Y518741D01*
X97154Y518795D01*
X97154Y522605D01*
X97143Y522670D01*
X97141Y522736D01*
X97123Y522779D01*
X97115Y522826D01*
X97081Y522883D01*
X97056Y522943D01*
X97025Y522978D01*
X97000Y523019D01*
X96949Y523061D01*
X96905Y523109D01*
X96863Y523131D01*
X96826Y523160D01*
X96764Y523181D01*
X96705Y523212D01*
X96651Y523220D01*
X96614Y523232D01*
X96574Y523231D01*
X96520Y523239D01*
X93980Y523239D01*
X93915Y523228D01*
X93849Y523226D01*
X93806Y523208D01*
X93759Y523200D01*
X93702Y523166D01*
X93642Y523141D01*
X93607Y523110D01*
X93566Y523085D01*
X93525Y523034D01*
X93476Y522990D01*
X93454Y522948D01*
X93425Y522911D01*
X93404Y522849D01*
X93373Y522790D01*
X93365Y522736D01*
X93353Y522699D01*
X93353Y522695D01*
X93353Y522694D01*
X93354Y522659D01*
X93346Y522605D01*
X93346Y518795D01*
X93357Y518730D01*
X93359Y518664D01*
X93377Y518621D01*
X93385Y518574D01*
X93419Y518517D01*
X93444Y518457D01*
X93475Y518422D01*
X93500Y518381D01*
X93551Y518340D01*
X93595Y518291D01*
X93637Y518269D01*
X93674Y518240D01*
X93736Y518219D01*
X93795Y518188D01*
X93849Y518180D01*
X93886Y518168D01*
X93926Y518169D01*
X93980Y518161D01*
X96520Y518161D01*
X96585Y518172D01*
G37*
G36*
X355665Y518172D02*
X355665Y518172D01*
X355731Y518174D01*
X355774Y518192D01*
X355821Y518200D01*
X355878Y518234D01*
X355938Y518259D01*
X355973Y518290D01*
X356014Y518315D01*
X356056Y518366D01*
X356104Y518410D01*
X356126Y518452D01*
X356155Y518489D01*
X356176Y518551D01*
X356207Y518610D01*
X356215Y518664D01*
X356227Y518701D01*
X356226Y518741D01*
X356234Y518795D01*
X356234Y522605D01*
X356223Y522670D01*
X356221Y522736D01*
X356203Y522779D01*
X356195Y522826D01*
X356161Y522883D01*
X356136Y522943D01*
X356105Y522978D01*
X356080Y523019D01*
X356029Y523061D01*
X355985Y523109D01*
X355943Y523131D01*
X355906Y523160D01*
X355844Y523181D01*
X355785Y523212D01*
X355731Y523220D01*
X355694Y523232D01*
X355654Y523231D01*
X355600Y523239D01*
X353060Y523239D01*
X352995Y523228D01*
X352929Y523226D01*
X352886Y523208D01*
X352839Y523200D01*
X352782Y523166D01*
X352722Y523141D01*
X352687Y523110D01*
X352646Y523085D01*
X352605Y523034D01*
X352556Y522990D01*
X352534Y522948D01*
X352505Y522911D01*
X352484Y522849D01*
X352453Y522790D01*
X352445Y522736D01*
X352433Y522699D01*
X352433Y522695D01*
X352433Y522694D01*
X352434Y522659D01*
X352426Y522605D01*
X352426Y518795D01*
X352437Y518730D01*
X352439Y518664D01*
X352457Y518621D01*
X352465Y518574D01*
X352499Y518517D01*
X352524Y518457D01*
X352555Y518422D01*
X352580Y518381D01*
X352631Y518340D01*
X352675Y518291D01*
X352717Y518269D01*
X352754Y518240D01*
X352816Y518219D01*
X352875Y518188D01*
X352929Y518180D01*
X352966Y518168D01*
X353006Y518169D01*
X353060Y518161D01*
X355600Y518161D01*
X355665Y518172D01*
G37*
G36*
X660973Y488226D02*
X660973Y488226D01*
X661039Y488228D01*
X661082Y488245D01*
X661129Y488254D01*
X661186Y488287D01*
X661246Y488312D01*
X661281Y488344D01*
X661322Y488368D01*
X661364Y488419D01*
X661412Y488463D01*
X661434Y488506D01*
X661463Y488542D01*
X661484Y488604D01*
X661515Y488663D01*
X661523Y488717D01*
X661535Y488755D01*
X661534Y488794D01*
X661542Y488848D01*
X661542Y492658D01*
X661531Y492723D01*
X661529Y492789D01*
X661511Y492833D01*
X661503Y492879D01*
X661469Y492936D01*
X661444Y492997D01*
X661413Y493032D01*
X661388Y493072D01*
X661337Y493114D01*
X661293Y493162D01*
X661251Y493184D01*
X661214Y493214D01*
X661152Y493235D01*
X661093Y493265D01*
X661039Y493273D01*
X661002Y493286D01*
X660962Y493285D01*
X660908Y493293D01*
X658368Y493293D01*
X658303Y493281D01*
X658237Y493279D01*
X658194Y493261D01*
X658147Y493253D01*
X658090Y493219D01*
X658030Y493195D01*
X657995Y493163D01*
X657954Y493139D01*
X657913Y493088D01*
X657864Y493043D01*
X657842Y493001D01*
X657813Y492965D01*
X657792Y492902D01*
X657761Y492844D01*
X657753Y492789D01*
X657741Y492752D01*
X657741Y492748D01*
X657742Y492712D01*
X657734Y492658D01*
X657734Y488848D01*
X657745Y488784D01*
X657747Y488718D01*
X657765Y488674D01*
X657773Y488628D01*
X657807Y488571D01*
X657832Y488510D01*
X657863Y488475D01*
X657888Y488434D01*
X657939Y488393D01*
X657983Y488344D01*
X658025Y488323D01*
X658062Y488293D01*
X658124Y488272D01*
X658183Y488242D01*
X658237Y488234D01*
X658274Y488221D01*
X658314Y488222D01*
X658368Y488214D01*
X660908Y488214D01*
X660973Y488226D01*
G37*
G36*
X142813Y488226D02*
X142813Y488226D01*
X142879Y488228D01*
X142922Y488245D01*
X142969Y488254D01*
X143026Y488287D01*
X143086Y488312D01*
X143121Y488344D01*
X143162Y488368D01*
X143204Y488419D01*
X143252Y488463D01*
X143274Y488506D01*
X143303Y488542D01*
X143324Y488604D01*
X143355Y488663D01*
X143363Y488717D01*
X143375Y488755D01*
X143374Y488794D01*
X143382Y488848D01*
X143382Y492658D01*
X143371Y492723D01*
X143369Y492789D01*
X143351Y492833D01*
X143343Y492879D01*
X143309Y492936D01*
X143284Y492997D01*
X143253Y493032D01*
X143228Y493072D01*
X143177Y493114D01*
X143133Y493162D01*
X143091Y493184D01*
X143054Y493214D01*
X142992Y493235D01*
X142933Y493265D01*
X142879Y493273D01*
X142842Y493286D01*
X142802Y493285D01*
X142748Y493293D01*
X140208Y493293D01*
X140143Y493281D01*
X140077Y493279D01*
X140034Y493261D01*
X139987Y493253D01*
X139930Y493219D01*
X139870Y493195D01*
X139835Y493163D01*
X139794Y493139D01*
X139753Y493088D01*
X139704Y493043D01*
X139682Y493001D01*
X139653Y492965D01*
X139632Y492902D01*
X139601Y492844D01*
X139593Y492789D01*
X139581Y492752D01*
X139581Y492748D01*
X139582Y492712D01*
X139574Y492658D01*
X139574Y488848D01*
X139585Y488784D01*
X139587Y488718D01*
X139605Y488674D01*
X139613Y488628D01*
X139647Y488571D01*
X139672Y488510D01*
X139703Y488475D01*
X139728Y488434D01*
X139779Y488393D01*
X139823Y488344D01*
X139865Y488323D01*
X139902Y488293D01*
X139964Y488272D01*
X140023Y488242D01*
X140077Y488234D01*
X140114Y488221D01*
X140154Y488222D01*
X140208Y488214D01*
X142748Y488214D01*
X142813Y488226D01*
G37*
G36*
X401893Y488226D02*
X401893Y488226D01*
X401959Y488228D01*
X402002Y488245D01*
X402049Y488254D01*
X402106Y488287D01*
X402166Y488312D01*
X402201Y488344D01*
X402242Y488368D01*
X402284Y488419D01*
X402332Y488463D01*
X402354Y488506D01*
X402383Y488542D01*
X402404Y488604D01*
X402435Y488663D01*
X402443Y488717D01*
X402455Y488755D01*
X402454Y488794D01*
X402462Y488848D01*
X402462Y492658D01*
X402451Y492723D01*
X402449Y492789D01*
X402431Y492833D01*
X402423Y492879D01*
X402389Y492936D01*
X402364Y492997D01*
X402333Y493032D01*
X402308Y493072D01*
X402257Y493114D01*
X402213Y493162D01*
X402171Y493184D01*
X402134Y493214D01*
X402072Y493235D01*
X402013Y493265D01*
X401959Y493273D01*
X401922Y493286D01*
X401882Y493285D01*
X401828Y493293D01*
X399288Y493293D01*
X399223Y493281D01*
X399157Y493279D01*
X399114Y493261D01*
X399067Y493253D01*
X399010Y493219D01*
X398950Y493195D01*
X398915Y493163D01*
X398874Y493139D01*
X398833Y493088D01*
X398784Y493043D01*
X398762Y493001D01*
X398733Y492965D01*
X398712Y492902D01*
X398681Y492844D01*
X398673Y492789D01*
X398661Y492752D01*
X398661Y492748D01*
X398662Y492712D01*
X398654Y492658D01*
X398654Y488848D01*
X398665Y488784D01*
X398667Y488718D01*
X398685Y488674D01*
X398693Y488628D01*
X398727Y488571D01*
X398752Y488510D01*
X398783Y488475D01*
X398808Y488434D01*
X398859Y488393D01*
X398903Y488344D01*
X398945Y488323D01*
X398982Y488293D01*
X399044Y488272D01*
X399103Y488242D01*
X399157Y488234D01*
X399194Y488221D01*
X399234Y488222D01*
X399288Y488214D01*
X401828Y488214D01*
X401893Y488226D01*
G37*
G36*
X369914Y446189D02*
X369914Y446189D01*
X369980Y446191D01*
X370024Y446208D01*
X370070Y446217D01*
X370127Y446250D01*
X370188Y446275D01*
X370223Y446307D01*
X370263Y446331D01*
X370305Y446382D01*
X370353Y446426D01*
X370375Y446469D01*
X370405Y446505D01*
X370426Y446567D01*
X370456Y446626D01*
X370464Y446680D01*
X370477Y446718D01*
X370476Y446757D01*
X370484Y446811D01*
X370484Y450621D01*
X370472Y450686D01*
X370470Y450752D01*
X370452Y450796D01*
X370444Y450842D01*
X370410Y450899D01*
X370386Y450960D01*
X370354Y450995D01*
X370330Y451035D01*
X370279Y451077D01*
X370234Y451125D01*
X370192Y451147D01*
X370156Y451177D01*
X370093Y451198D01*
X370035Y451228D01*
X369980Y451236D01*
X369943Y451249D01*
X369904Y451248D01*
X369849Y451256D01*
X367309Y451256D01*
X367245Y451244D01*
X367179Y451242D01*
X367135Y451224D01*
X367089Y451216D01*
X367032Y451182D01*
X366971Y451158D01*
X366936Y451126D01*
X366895Y451102D01*
X366854Y451051D01*
X366805Y451006D01*
X366784Y450964D01*
X366754Y450928D01*
X366733Y450865D01*
X366703Y450807D01*
X366695Y450752D01*
X366682Y450715D01*
X366682Y450711D01*
X366683Y450675D01*
X366675Y450621D01*
X366675Y446811D01*
X366687Y446747D01*
X366689Y446681D01*
X366706Y446637D01*
X366715Y446591D01*
X366748Y446534D01*
X366773Y446473D01*
X366805Y446438D01*
X366829Y446397D01*
X366880Y446356D01*
X366924Y446307D01*
X366967Y446286D01*
X367003Y446256D01*
X367065Y446235D01*
X367124Y446205D01*
X367178Y446197D01*
X367216Y446184D01*
X367255Y446185D01*
X367309Y446177D01*
X369849Y446177D01*
X369914Y446189D01*
G37*
G36*
X110834Y446189D02*
X110834Y446189D01*
X110900Y446191D01*
X110944Y446208D01*
X110990Y446217D01*
X111047Y446250D01*
X111108Y446275D01*
X111143Y446307D01*
X111183Y446331D01*
X111225Y446382D01*
X111273Y446426D01*
X111295Y446469D01*
X111325Y446505D01*
X111346Y446567D01*
X111376Y446626D01*
X111384Y446680D01*
X111397Y446718D01*
X111396Y446757D01*
X111404Y446811D01*
X111404Y450621D01*
X111392Y450686D01*
X111390Y450752D01*
X111372Y450796D01*
X111364Y450842D01*
X111330Y450899D01*
X111306Y450960D01*
X111274Y450995D01*
X111250Y451035D01*
X111199Y451077D01*
X111154Y451125D01*
X111112Y451147D01*
X111076Y451177D01*
X111013Y451198D01*
X110955Y451228D01*
X110900Y451236D01*
X110863Y451249D01*
X110824Y451248D01*
X110769Y451256D01*
X108229Y451256D01*
X108165Y451244D01*
X108099Y451242D01*
X108055Y451224D01*
X108009Y451216D01*
X107952Y451182D01*
X107891Y451158D01*
X107856Y451126D01*
X107815Y451102D01*
X107774Y451051D01*
X107725Y451006D01*
X107704Y450964D01*
X107674Y450928D01*
X107653Y450865D01*
X107623Y450807D01*
X107615Y450752D01*
X107602Y450715D01*
X107602Y450711D01*
X107603Y450675D01*
X107595Y450621D01*
X107595Y446811D01*
X107607Y446747D01*
X107609Y446681D01*
X107626Y446637D01*
X107635Y446591D01*
X107668Y446534D01*
X107693Y446473D01*
X107725Y446438D01*
X107749Y446397D01*
X107800Y446356D01*
X107844Y446307D01*
X107887Y446286D01*
X107923Y446256D01*
X107985Y446235D01*
X108044Y446205D01*
X108098Y446197D01*
X108136Y446184D01*
X108175Y446185D01*
X108229Y446177D01*
X110769Y446177D01*
X110834Y446189D01*
G37*
G36*
X628994Y446189D02*
X628994Y446189D01*
X629060Y446191D01*
X629104Y446208D01*
X629150Y446217D01*
X629207Y446250D01*
X629268Y446275D01*
X629303Y446307D01*
X629343Y446331D01*
X629385Y446382D01*
X629433Y446426D01*
X629455Y446469D01*
X629485Y446505D01*
X629506Y446567D01*
X629536Y446626D01*
X629544Y446680D01*
X629557Y446718D01*
X629556Y446757D01*
X629564Y446811D01*
X629564Y450621D01*
X629552Y450686D01*
X629550Y450752D01*
X629532Y450796D01*
X629524Y450842D01*
X629490Y450899D01*
X629466Y450960D01*
X629434Y450995D01*
X629410Y451035D01*
X629359Y451077D01*
X629314Y451125D01*
X629272Y451147D01*
X629236Y451177D01*
X629173Y451198D01*
X629115Y451228D01*
X629060Y451236D01*
X629023Y451249D01*
X628984Y451248D01*
X628929Y451256D01*
X626389Y451256D01*
X626325Y451244D01*
X626259Y451242D01*
X626215Y451224D01*
X626169Y451216D01*
X626112Y451182D01*
X626051Y451158D01*
X626016Y451126D01*
X625975Y451102D01*
X625934Y451051D01*
X625885Y451006D01*
X625864Y450964D01*
X625834Y450928D01*
X625813Y450865D01*
X625783Y450807D01*
X625775Y450752D01*
X625762Y450715D01*
X625762Y450711D01*
X625763Y450675D01*
X625755Y450621D01*
X625755Y446811D01*
X625767Y446747D01*
X625769Y446681D01*
X625786Y446637D01*
X625795Y446591D01*
X625828Y446534D01*
X625853Y446473D01*
X625885Y446438D01*
X625909Y446397D01*
X625960Y446356D01*
X626004Y446307D01*
X626047Y446286D01*
X626083Y446256D01*
X626145Y446235D01*
X626204Y446205D01*
X626258Y446197D01*
X626296Y446184D01*
X626335Y446185D01*
X626389Y446177D01*
X628929Y446177D01*
X628994Y446189D01*
G37*
G36*
X355665Y106692D02*
X355665Y106692D01*
X355731Y106694D01*
X355774Y106712D01*
X355821Y106720D01*
X355878Y106754D01*
X355938Y106779D01*
X355973Y106810D01*
X356014Y106835D01*
X356056Y106886D01*
X356104Y106930D01*
X356126Y106972D01*
X356155Y107009D01*
X356176Y107071D01*
X356207Y107130D01*
X356215Y107184D01*
X356227Y107221D01*
X356226Y107261D01*
X356234Y107315D01*
X356234Y111125D01*
X356223Y111190D01*
X356221Y111256D01*
X356203Y111299D01*
X356195Y111346D01*
X356161Y111403D01*
X356136Y111463D01*
X356105Y111498D01*
X356080Y111539D01*
X356029Y111581D01*
X355985Y111629D01*
X355943Y111651D01*
X355906Y111680D01*
X355844Y111701D01*
X355785Y111732D01*
X355731Y111740D01*
X355694Y111752D01*
X355654Y111751D01*
X355600Y111759D01*
X353060Y111759D01*
X352995Y111748D01*
X352929Y111746D01*
X352886Y111728D01*
X352839Y111720D01*
X352782Y111686D01*
X352722Y111661D01*
X352687Y111630D01*
X352646Y111605D01*
X352605Y111554D01*
X352556Y111510D01*
X352534Y111468D01*
X352505Y111431D01*
X352484Y111369D01*
X352453Y111310D01*
X352445Y111256D01*
X352433Y111219D01*
X352433Y111215D01*
X352433Y111214D01*
X352434Y111179D01*
X352426Y111125D01*
X352426Y107315D01*
X352437Y107250D01*
X352439Y107184D01*
X352457Y107141D01*
X352465Y107094D01*
X352499Y107037D01*
X352524Y106977D01*
X352555Y106942D01*
X352580Y106901D01*
X352631Y106860D01*
X352675Y106811D01*
X352717Y106789D01*
X352754Y106760D01*
X352816Y106739D01*
X352875Y106708D01*
X352929Y106700D01*
X352966Y106688D01*
X353006Y106689D01*
X353060Y106681D01*
X355600Y106681D01*
X355665Y106692D01*
G37*
G36*
X96585Y106692D02*
X96585Y106692D01*
X96651Y106694D01*
X96694Y106712D01*
X96741Y106720D01*
X96798Y106754D01*
X96858Y106779D01*
X96893Y106810D01*
X96934Y106835D01*
X96976Y106886D01*
X97024Y106930D01*
X97046Y106972D01*
X97075Y107009D01*
X97096Y107071D01*
X97127Y107130D01*
X97135Y107184D01*
X97147Y107221D01*
X97146Y107261D01*
X97154Y107315D01*
X97154Y111125D01*
X97143Y111190D01*
X97141Y111256D01*
X97123Y111299D01*
X97115Y111346D01*
X97081Y111403D01*
X97056Y111463D01*
X97025Y111498D01*
X97000Y111539D01*
X96949Y111581D01*
X96905Y111629D01*
X96863Y111651D01*
X96826Y111680D01*
X96764Y111701D01*
X96705Y111732D01*
X96651Y111740D01*
X96614Y111752D01*
X96574Y111751D01*
X96520Y111759D01*
X93980Y111759D01*
X93915Y111748D01*
X93849Y111746D01*
X93806Y111728D01*
X93759Y111720D01*
X93702Y111686D01*
X93642Y111661D01*
X93607Y111630D01*
X93566Y111605D01*
X93525Y111554D01*
X93476Y111510D01*
X93454Y111468D01*
X93425Y111431D01*
X93404Y111369D01*
X93373Y111310D01*
X93365Y111256D01*
X93353Y111219D01*
X93353Y111215D01*
X93353Y111214D01*
X93354Y111179D01*
X93346Y111125D01*
X93346Y107315D01*
X93357Y107250D01*
X93359Y107184D01*
X93377Y107141D01*
X93385Y107094D01*
X93419Y107037D01*
X93444Y106977D01*
X93475Y106942D01*
X93500Y106901D01*
X93551Y106860D01*
X93595Y106811D01*
X93637Y106789D01*
X93674Y106760D01*
X93736Y106739D01*
X93795Y106708D01*
X93849Y106700D01*
X93886Y106688D01*
X93926Y106689D01*
X93980Y106681D01*
X96520Y106681D01*
X96585Y106692D01*
G37*
G36*
X614745Y106692D02*
X614745Y106692D01*
X614811Y106694D01*
X614854Y106712D01*
X614901Y106720D01*
X614958Y106754D01*
X615018Y106779D01*
X615053Y106810D01*
X615094Y106835D01*
X615136Y106886D01*
X615184Y106930D01*
X615206Y106972D01*
X615235Y107009D01*
X615256Y107071D01*
X615287Y107130D01*
X615295Y107184D01*
X615307Y107221D01*
X615306Y107261D01*
X615314Y107315D01*
X615314Y111125D01*
X615303Y111190D01*
X615301Y111256D01*
X615283Y111299D01*
X615275Y111346D01*
X615241Y111403D01*
X615216Y111463D01*
X615185Y111498D01*
X615160Y111539D01*
X615109Y111581D01*
X615065Y111629D01*
X615023Y111651D01*
X614986Y111680D01*
X614924Y111701D01*
X614865Y111732D01*
X614811Y111740D01*
X614774Y111752D01*
X614734Y111751D01*
X614680Y111759D01*
X612140Y111759D01*
X612075Y111748D01*
X612009Y111746D01*
X611966Y111728D01*
X611919Y111720D01*
X611862Y111686D01*
X611802Y111661D01*
X611767Y111630D01*
X611726Y111605D01*
X611685Y111554D01*
X611636Y111510D01*
X611614Y111468D01*
X611585Y111431D01*
X611564Y111369D01*
X611533Y111310D01*
X611525Y111256D01*
X611513Y111219D01*
X611513Y111215D01*
X611513Y111214D01*
X611514Y111179D01*
X611506Y111125D01*
X611506Y107315D01*
X611517Y107250D01*
X611519Y107184D01*
X611537Y107141D01*
X611545Y107094D01*
X611579Y107037D01*
X611604Y106977D01*
X611635Y106942D01*
X611660Y106901D01*
X611711Y106860D01*
X611755Y106811D01*
X611797Y106789D01*
X611834Y106760D01*
X611896Y106739D01*
X611955Y106708D01*
X612009Y106700D01*
X612046Y106688D01*
X612086Y106689D01*
X612140Y106681D01*
X614680Y106681D01*
X614745Y106692D01*
G37*
G36*
X142813Y76746D02*
X142813Y76746D01*
X142879Y76748D01*
X142922Y76765D01*
X142969Y76774D01*
X143026Y76807D01*
X143086Y76832D01*
X143121Y76864D01*
X143162Y76888D01*
X143204Y76939D01*
X143252Y76983D01*
X143274Y77026D01*
X143303Y77062D01*
X143324Y77124D01*
X143355Y77183D01*
X143363Y77237D01*
X143375Y77275D01*
X143374Y77314D01*
X143382Y77368D01*
X143382Y81178D01*
X143371Y81243D01*
X143369Y81309D01*
X143351Y81353D01*
X143343Y81399D01*
X143309Y81456D01*
X143284Y81517D01*
X143253Y81552D01*
X143228Y81592D01*
X143177Y81634D01*
X143133Y81682D01*
X143091Y81704D01*
X143054Y81734D01*
X142992Y81755D01*
X142933Y81785D01*
X142879Y81793D01*
X142842Y81806D01*
X142802Y81805D01*
X142748Y81813D01*
X140208Y81813D01*
X140143Y81801D01*
X140077Y81799D01*
X140034Y81781D01*
X139987Y81773D01*
X139930Y81739D01*
X139870Y81715D01*
X139835Y81683D01*
X139794Y81659D01*
X139753Y81608D01*
X139704Y81563D01*
X139682Y81521D01*
X139653Y81485D01*
X139632Y81422D01*
X139601Y81364D01*
X139593Y81309D01*
X139581Y81272D01*
X139581Y81268D01*
X139582Y81232D01*
X139574Y81178D01*
X139574Y77368D01*
X139585Y77304D01*
X139587Y77238D01*
X139605Y77194D01*
X139613Y77148D01*
X139647Y77091D01*
X139672Y77030D01*
X139703Y76995D01*
X139728Y76954D01*
X139779Y76913D01*
X139823Y76864D01*
X139865Y76843D01*
X139902Y76813D01*
X139964Y76792D01*
X140023Y76762D01*
X140077Y76754D01*
X140114Y76741D01*
X140154Y76742D01*
X140208Y76734D01*
X142748Y76734D01*
X142813Y76746D01*
G37*
G36*
X401893Y76746D02*
X401893Y76746D01*
X401959Y76748D01*
X402002Y76765D01*
X402049Y76774D01*
X402106Y76807D01*
X402166Y76832D01*
X402201Y76864D01*
X402242Y76888D01*
X402284Y76939D01*
X402332Y76983D01*
X402354Y77026D01*
X402383Y77062D01*
X402404Y77124D01*
X402435Y77183D01*
X402443Y77237D01*
X402455Y77275D01*
X402454Y77314D01*
X402462Y77368D01*
X402462Y81178D01*
X402451Y81243D01*
X402449Y81309D01*
X402431Y81353D01*
X402423Y81399D01*
X402389Y81456D01*
X402364Y81517D01*
X402333Y81552D01*
X402308Y81592D01*
X402257Y81634D01*
X402213Y81682D01*
X402171Y81704D01*
X402134Y81734D01*
X402072Y81755D01*
X402013Y81785D01*
X401959Y81793D01*
X401922Y81806D01*
X401882Y81805D01*
X401828Y81813D01*
X399288Y81813D01*
X399223Y81801D01*
X399157Y81799D01*
X399114Y81781D01*
X399067Y81773D01*
X399010Y81739D01*
X398950Y81715D01*
X398915Y81683D01*
X398874Y81659D01*
X398833Y81608D01*
X398784Y81563D01*
X398762Y81521D01*
X398733Y81485D01*
X398712Y81422D01*
X398681Y81364D01*
X398673Y81309D01*
X398661Y81272D01*
X398661Y81268D01*
X398662Y81232D01*
X398654Y81178D01*
X398654Y77368D01*
X398665Y77304D01*
X398667Y77238D01*
X398685Y77194D01*
X398693Y77148D01*
X398727Y77091D01*
X398752Y77030D01*
X398783Y76995D01*
X398808Y76954D01*
X398859Y76913D01*
X398903Y76864D01*
X398945Y76843D01*
X398982Y76813D01*
X399044Y76792D01*
X399103Y76762D01*
X399157Y76754D01*
X399194Y76741D01*
X399234Y76742D01*
X399288Y76734D01*
X401828Y76734D01*
X401893Y76746D01*
G37*
G36*
X660973Y76746D02*
X660973Y76746D01*
X661039Y76748D01*
X661082Y76765D01*
X661129Y76774D01*
X661186Y76807D01*
X661246Y76832D01*
X661281Y76864D01*
X661322Y76888D01*
X661364Y76939D01*
X661412Y76983D01*
X661434Y77026D01*
X661463Y77062D01*
X661484Y77124D01*
X661515Y77183D01*
X661523Y77237D01*
X661535Y77275D01*
X661534Y77314D01*
X661542Y77368D01*
X661542Y81178D01*
X661531Y81243D01*
X661529Y81309D01*
X661511Y81353D01*
X661503Y81399D01*
X661469Y81456D01*
X661444Y81517D01*
X661413Y81552D01*
X661388Y81592D01*
X661337Y81634D01*
X661293Y81682D01*
X661251Y81704D01*
X661214Y81734D01*
X661152Y81755D01*
X661093Y81785D01*
X661039Y81793D01*
X661002Y81806D01*
X660962Y81805D01*
X660908Y81813D01*
X658368Y81813D01*
X658303Y81801D01*
X658237Y81799D01*
X658194Y81781D01*
X658147Y81773D01*
X658090Y81739D01*
X658030Y81715D01*
X657995Y81683D01*
X657954Y81659D01*
X657913Y81608D01*
X657864Y81563D01*
X657842Y81521D01*
X657813Y81485D01*
X657792Y81422D01*
X657761Y81364D01*
X657753Y81309D01*
X657741Y81272D01*
X657741Y81268D01*
X657742Y81232D01*
X657734Y81178D01*
X657734Y77368D01*
X657745Y77304D01*
X657747Y77238D01*
X657765Y77194D01*
X657773Y77148D01*
X657807Y77091D01*
X657832Y77030D01*
X657863Y76995D01*
X657888Y76954D01*
X657939Y76913D01*
X657983Y76864D01*
X658025Y76843D01*
X658062Y76813D01*
X658124Y76792D01*
X658183Y76762D01*
X658237Y76754D01*
X658274Y76741D01*
X658314Y76742D01*
X658368Y76734D01*
X660908Y76734D01*
X660973Y76746D01*
G37*
G36*
X628994Y44869D02*
X628994Y44869D01*
X629060Y44871D01*
X629104Y44888D01*
X629150Y44897D01*
X629207Y44930D01*
X629268Y44955D01*
X629303Y44987D01*
X629343Y45011D01*
X629385Y45062D01*
X629433Y45106D01*
X629455Y45149D01*
X629485Y45185D01*
X629506Y45247D01*
X629536Y45306D01*
X629544Y45360D01*
X629557Y45398D01*
X629556Y45437D01*
X629564Y45491D01*
X629564Y49301D01*
X629552Y49366D01*
X629550Y49432D01*
X629532Y49476D01*
X629524Y49522D01*
X629490Y49579D01*
X629466Y49640D01*
X629434Y49675D01*
X629410Y49715D01*
X629359Y49757D01*
X629314Y49805D01*
X629272Y49827D01*
X629236Y49857D01*
X629173Y49878D01*
X629115Y49908D01*
X629060Y49916D01*
X629023Y49929D01*
X628984Y49928D01*
X628929Y49936D01*
X626389Y49936D01*
X626325Y49924D01*
X626259Y49922D01*
X626215Y49904D01*
X626169Y49896D01*
X626112Y49862D01*
X626051Y49838D01*
X626016Y49806D01*
X625975Y49782D01*
X625934Y49731D01*
X625885Y49686D01*
X625864Y49644D01*
X625834Y49608D01*
X625813Y49545D01*
X625783Y49487D01*
X625775Y49432D01*
X625762Y49395D01*
X625762Y49391D01*
X625763Y49355D01*
X625755Y49301D01*
X625755Y45491D01*
X625767Y45427D01*
X625769Y45361D01*
X625786Y45317D01*
X625795Y45271D01*
X625828Y45214D01*
X625853Y45153D01*
X625885Y45118D01*
X625909Y45077D01*
X625960Y45036D01*
X626004Y44987D01*
X626047Y44966D01*
X626083Y44936D01*
X626145Y44915D01*
X626204Y44885D01*
X626258Y44877D01*
X626296Y44864D01*
X626335Y44865D01*
X626389Y44857D01*
X628929Y44857D01*
X628994Y44869D01*
G37*
G36*
X369914Y44869D02*
X369914Y44869D01*
X369980Y44871D01*
X370024Y44888D01*
X370070Y44897D01*
X370127Y44930D01*
X370188Y44955D01*
X370223Y44987D01*
X370263Y45011D01*
X370305Y45062D01*
X370353Y45106D01*
X370375Y45149D01*
X370405Y45185D01*
X370426Y45247D01*
X370456Y45306D01*
X370464Y45360D01*
X370477Y45398D01*
X370476Y45437D01*
X370484Y45491D01*
X370484Y49301D01*
X370472Y49366D01*
X370470Y49432D01*
X370452Y49476D01*
X370444Y49522D01*
X370410Y49579D01*
X370386Y49640D01*
X370354Y49675D01*
X370330Y49715D01*
X370279Y49757D01*
X370234Y49805D01*
X370192Y49827D01*
X370156Y49857D01*
X370093Y49878D01*
X370035Y49908D01*
X369980Y49916D01*
X369943Y49929D01*
X369904Y49928D01*
X369849Y49936D01*
X367309Y49936D01*
X367245Y49924D01*
X367179Y49922D01*
X367135Y49904D01*
X367089Y49896D01*
X367032Y49862D01*
X366971Y49838D01*
X366936Y49806D01*
X366895Y49782D01*
X366854Y49731D01*
X366805Y49686D01*
X366784Y49644D01*
X366754Y49608D01*
X366733Y49545D01*
X366703Y49487D01*
X366695Y49432D01*
X366682Y49395D01*
X366682Y49391D01*
X366683Y49355D01*
X366675Y49301D01*
X366675Y45491D01*
X366687Y45427D01*
X366689Y45361D01*
X366706Y45317D01*
X366715Y45271D01*
X366748Y45214D01*
X366773Y45153D01*
X366805Y45118D01*
X366829Y45077D01*
X366880Y45036D01*
X366924Y44987D01*
X366967Y44966D01*
X367003Y44936D01*
X367065Y44915D01*
X367124Y44885D01*
X367178Y44877D01*
X367216Y44864D01*
X367255Y44865D01*
X367309Y44857D01*
X369849Y44857D01*
X369914Y44869D01*
G37*
G36*
X110834Y44869D02*
X110834Y44869D01*
X110900Y44871D01*
X110944Y44888D01*
X110990Y44897D01*
X111047Y44930D01*
X111108Y44955D01*
X111143Y44987D01*
X111183Y45011D01*
X111225Y45062D01*
X111273Y45106D01*
X111295Y45149D01*
X111325Y45185D01*
X111346Y45247D01*
X111376Y45306D01*
X111384Y45360D01*
X111397Y45398D01*
X111396Y45437D01*
X111404Y45491D01*
X111404Y49301D01*
X111392Y49366D01*
X111390Y49432D01*
X111372Y49476D01*
X111364Y49522D01*
X111330Y49579D01*
X111306Y49640D01*
X111274Y49675D01*
X111250Y49715D01*
X111199Y49757D01*
X111154Y49805D01*
X111112Y49827D01*
X111076Y49857D01*
X111013Y49878D01*
X110955Y49908D01*
X110900Y49916D01*
X110863Y49929D01*
X110824Y49928D01*
X110769Y49936D01*
X108229Y49936D01*
X108165Y49924D01*
X108099Y49922D01*
X108055Y49904D01*
X108009Y49896D01*
X107952Y49862D01*
X107891Y49838D01*
X107856Y49806D01*
X107815Y49782D01*
X107774Y49731D01*
X107725Y49686D01*
X107704Y49644D01*
X107674Y49608D01*
X107653Y49545D01*
X107623Y49487D01*
X107615Y49432D01*
X107602Y49395D01*
X107602Y49391D01*
X107603Y49355D01*
X107595Y49301D01*
X107595Y45491D01*
X107607Y45427D01*
X107609Y45361D01*
X107626Y45317D01*
X107635Y45271D01*
X107668Y45214D01*
X107693Y45153D01*
X107725Y45118D01*
X107749Y45077D01*
X107800Y45036D01*
X107844Y44987D01*
X107887Y44966D01*
X107923Y44936D01*
X107985Y44915D01*
X108044Y44885D01*
X108098Y44877D01*
X108136Y44864D01*
X108175Y44865D01*
X108229Y44857D01*
X110769Y44857D01*
X110834Y44869D01*
G37*
G36*
X628994Y34709D02*
X628994Y34709D01*
X629060Y34711D01*
X629104Y34728D01*
X629150Y34737D01*
X629207Y34770D01*
X629268Y34795D01*
X629303Y34827D01*
X629343Y34851D01*
X629385Y34902D01*
X629433Y34946D01*
X629455Y34989D01*
X629485Y35025D01*
X629506Y35087D01*
X629536Y35146D01*
X629544Y35200D01*
X629557Y35238D01*
X629556Y35277D01*
X629564Y35331D01*
X629564Y39141D01*
X629552Y39206D01*
X629550Y39272D01*
X629532Y39316D01*
X629524Y39362D01*
X629490Y39419D01*
X629466Y39480D01*
X629434Y39515D01*
X629410Y39555D01*
X629359Y39597D01*
X629314Y39645D01*
X629272Y39667D01*
X629236Y39697D01*
X629173Y39718D01*
X629115Y39748D01*
X629060Y39756D01*
X629023Y39769D01*
X628984Y39768D01*
X628929Y39776D01*
X626389Y39776D01*
X626325Y39764D01*
X626259Y39762D01*
X626215Y39744D01*
X626169Y39736D01*
X626112Y39702D01*
X626051Y39678D01*
X626016Y39646D01*
X625975Y39622D01*
X625934Y39571D01*
X625885Y39526D01*
X625864Y39484D01*
X625834Y39448D01*
X625813Y39385D01*
X625783Y39327D01*
X625775Y39272D01*
X625762Y39235D01*
X625762Y39231D01*
X625763Y39195D01*
X625755Y39141D01*
X625755Y35331D01*
X625767Y35267D01*
X625769Y35201D01*
X625786Y35157D01*
X625795Y35111D01*
X625828Y35054D01*
X625853Y34993D01*
X625885Y34958D01*
X625909Y34917D01*
X625960Y34876D01*
X626004Y34827D01*
X626047Y34806D01*
X626083Y34776D01*
X626145Y34755D01*
X626204Y34725D01*
X626258Y34717D01*
X626296Y34704D01*
X626335Y34705D01*
X626389Y34697D01*
X628929Y34697D01*
X628994Y34709D01*
G37*
G36*
X369914Y34709D02*
X369914Y34709D01*
X369980Y34711D01*
X370024Y34728D01*
X370070Y34737D01*
X370127Y34770D01*
X370188Y34795D01*
X370223Y34827D01*
X370263Y34851D01*
X370305Y34902D01*
X370353Y34946D01*
X370375Y34989D01*
X370405Y35025D01*
X370426Y35087D01*
X370456Y35146D01*
X370464Y35200D01*
X370477Y35238D01*
X370476Y35277D01*
X370484Y35331D01*
X370484Y39141D01*
X370472Y39206D01*
X370470Y39272D01*
X370452Y39316D01*
X370444Y39362D01*
X370410Y39419D01*
X370386Y39480D01*
X370354Y39515D01*
X370330Y39555D01*
X370279Y39597D01*
X370234Y39645D01*
X370192Y39667D01*
X370156Y39697D01*
X370093Y39718D01*
X370035Y39748D01*
X369980Y39756D01*
X369943Y39769D01*
X369904Y39768D01*
X369849Y39776D01*
X367309Y39776D01*
X367245Y39764D01*
X367179Y39762D01*
X367135Y39744D01*
X367089Y39736D01*
X367032Y39702D01*
X366971Y39678D01*
X366936Y39646D01*
X366895Y39622D01*
X366854Y39571D01*
X366805Y39526D01*
X366784Y39484D01*
X366754Y39448D01*
X366733Y39385D01*
X366703Y39327D01*
X366695Y39272D01*
X366682Y39235D01*
X366682Y39231D01*
X366683Y39195D01*
X366675Y39141D01*
X366675Y35331D01*
X366687Y35267D01*
X366689Y35201D01*
X366706Y35157D01*
X366715Y35111D01*
X366748Y35054D01*
X366773Y34993D01*
X366805Y34958D01*
X366829Y34917D01*
X366880Y34876D01*
X366924Y34827D01*
X366967Y34806D01*
X367003Y34776D01*
X367065Y34755D01*
X367124Y34725D01*
X367178Y34717D01*
X367216Y34704D01*
X367255Y34705D01*
X367309Y34697D01*
X369849Y34697D01*
X369914Y34709D01*
G37*
G36*
X110834Y34709D02*
X110834Y34709D01*
X110900Y34711D01*
X110944Y34728D01*
X110990Y34737D01*
X111047Y34770D01*
X111108Y34795D01*
X111143Y34827D01*
X111183Y34851D01*
X111225Y34902D01*
X111273Y34946D01*
X111295Y34989D01*
X111325Y35025D01*
X111346Y35087D01*
X111376Y35146D01*
X111384Y35200D01*
X111397Y35238D01*
X111396Y35277D01*
X111404Y35331D01*
X111404Y39141D01*
X111392Y39206D01*
X111390Y39272D01*
X111372Y39316D01*
X111364Y39362D01*
X111330Y39419D01*
X111306Y39480D01*
X111274Y39515D01*
X111250Y39555D01*
X111199Y39597D01*
X111154Y39645D01*
X111112Y39667D01*
X111076Y39697D01*
X111013Y39718D01*
X110955Y39748D01*
X110900Y39756D01*
X110863Y39769D01*
X110824Y39768D01*
X110769Y39776D01*
X108229Y39776D01*
X108165Y39764D01*
X108099Y39762D01*
X108055Y39744D01*
X108009Y39736D01*
X107952Y39702D01*
X107891Y39678D01*
X107856Y39646D01*
X107815Y39622D01*
X107774Y39571D01*
X107725Y39526D01*
X107704Y39484D01*
X107674Y39448D01*
X107653Y39385D01*
X107623Y39327D01*
X107615Y39272D01*
X107602Y39235D01*
X107602Y39231D01*
X107603Y39195D01*
X107595Y39141D01*
X107595Y35331D01*
X107607Y35267D01*
X107609Y35201D01*
X107626Y35157D01*
X107635Y35111D01*
X107668Y35054D01*
X107693Y34993D01*
X107725Y34958D01*
X107749Y34917D01*
X107800Y34876D01*
X107844Y34827D01*
X107887Y34806D01*
X107923Y34776D01*
X107985Y34755D01*
X108044Y34725D01*
X108098Y34717D01*
X108136Y34704D01*
X108175Y34705D01*
X108229Y34697D01*
X110769Y34697D01*
X110834Y34709D01*
G37*
G36*
X668466Y461683D02*
X668466Y461683D01*
X668532Y461685D01*
X668575Y461702D01*
X668622Y461711D01*
X668679Y461744D01*
X668740Y461769D01*
X668774Y461801D01*
X668815Y461825D01*
X668857Y461876D01*
X668905Y461920D01*
X668927Y461962D01*
X668956Y461999D01*
X668978Y462061D01*
X669008Y462120D01*
X669016Y462174D01*
X669028Y462212D01*
X669027Y462251D01*
X669035Y462305D01*
X669035Y464845D01*
X669024Y464910D01*
X669022Y464976D01*
X669004Y465020D01*
X668996Y465066D01*
X668962Y465123D01*
X668937Y465184D01*
X668906Y465219D01*
X668882Y465259D01*
X668830Y465301D01*
X668786Y465349D01*
X668744Y465371D01*
X668707Y465401D01*
X668645Y465422D01*
X668586Y465452D01*
X668532Y465460D01*
X668495Y465473D01*
X668455Y465472D01*
X668401Y465480D01*
X664591Y465480D01*
X664526Y465468D01*
X664461Y465466D01*
X664417Y465448D01*
X664370Y465440D01*
X664313Y465406D01*
X664253Y465382D01*
X664218Y465350D01*
X664177Y465326D01*
X664136Y465275D01*
X664087Y465230D01*
X664065Y465188D01*
X664036Y465152D01*
X664015Y465089D01*
X663984Y465031D01*
X663976Y464976D01*
X663964Y464939D01*
X663964Y464936D01*
X663965Y464899D01*
X663957Y464845D01*
X663957Y462305D01*
X663968Y462241D01*
X663970Y462175D01*
X663988Y462131D01*
X663996Y462085D01*
X664030Y462028D01*
X664055Y461967D01*
X664087Y461932D01*
X664111Y461891D01*
X664162Y461850D01*
X664206Y461801D01*
X664248Y461780D01*
X664285Y461750D01*
X664347Y461729D01*
X664406Y461699D01*
X664460Y461691D01*
X664497Y461678D01*
X664537Y461679D01*
X664591Y461671D01*
X668401Y461671D01*
X668466Y461683D01*
G37*
G36*
X409386Y461683D02*
X409386Y461683D01*
X409452Y461685D01*
X409495Y461702D01*
X409542Y461711D01*
X409599Y461744D01*
X409660Y461769D01*
X409694Y461801D01*
X409735Y461825D01*
X409777Y461876D01*
X409825Y461920D01*
X409847Y461962D01*
X409876Y461999D01*
X409898Y462061D01*
X409928Y462120D01*
X409936Y462174D01*
X409948Y462212D01*
X409947Y462251D01*
X409955Y462305D01*
X409955Y464845D01*
X409944Y464910D01*
X409942Y464976D01*
X409924Y465020D01*
X409916Y465066D01*
X409882Y465123D01*
X409857Y465184D01*
X409826Y465219D01*
X409802Y465259D01*
X409750Y465301D01*
X409706Y465349D01*
X409664Y465371D01*
X409627Y465401D01*
X409565Y465422D01*
X409506Y465452D01*
X409452Y465460D01*
X409415Y465473D01*
X409375Y465472D01*
X409321Y465480D01*
X405511Y465480D01*
X405446Y465468D01*
X405381Y465466D01*
X405337Y465448D01*
X405290Y465440D01*
X405233Y465406D01*
X405173Y465382D01*
X405138Y465350D01*
X405097Y465326D01*
X405056Y465275D01*
X405007Y465230D01*
X404985Y465188D01*
X404956Y465152D01*
X404935Y465089D01*
X404904Y465031D01*
X404896Y464976D01*
X404884Y464939D01*
X404884Y464936D01*
X404885Y464899D01*
X404877Y464845D01*
X404877Y462305D01*
X404888Y462241D01*
X404890Y462175D01*
X404908Y462131D01*
X404916Y462085D01*
X404950Y462028D01*
X404975Y461967D01*
X405007Y461932D01*
X405031Y461891D01*
X405082Y461850D01*
X405126Y461801D01*
X405168Y461780D01*
X405205Y461750D01*
X405267Y461729D01*
X405326Y461699D01*
X405380Y461691D01*
X405417Y461678D01*
X405457Y461679D01*
X405511Y461671D01*
X409321Y461671D01*
X409386Y461683D01*
G37*
G36*
X150306Y461683D02*
X150306Y461683D01*
X150372Y461685D01*
X150415Y461702D01*
X150462Y461711D01*
X150519Y461744D01*
X150580Y461769D01*
X150614Y461801D01*
X150655Y461825D01*
X150697Y461876D01*
X150745Y461920D01*
X150767Y461962D01*
X150796Y461999D01*
X150818Y462061D01*
X150848Y462120D01*
X150856Y462174D01*
X150868Y462212D01*
X150867Y462251D01*
X150875Y462305D01*
X150875Y464845D01*
X150864Y464910D01*
X150862Y464976D01*
X150844Y465020D01*
X150836Y465066D01*
X150802Y465123D01*
X150777Y465184D01*
X150746Y465219D01*
X150722Y465259D01*
X150670Y465301D01*
X150626Y465349D01*
X150584Y465371D01*
X150547Y465401D01*
X150485Y465422D01*
X150426Y465452D01*
X150372Y465460D01*
X150335Y465473D01*
X150295Y465472D01*
X150241Y465480D01*
X146431Y465480D01*
X146366Y465468D01*
X146301Y465466D01*
X146257Y465448D01*
X146210Y465440D01*
X146153Y465406D01*
X146093Y465382D01*
X146058Y465350D01*
X146017Y465326D01*
X145976Y465275D01*
X145927Y465230D01*
X145905Y465188D01*
X145876Y465152D01*
X145855Y465089D01*
X145824Y465031D01*
X145816Y464976D01*
X145804Y464939D01*
X145804Y464936D01*
X145805Y464899D01*
X145797Y464845D01*
X145797Y462305D01*
X145808Y462241D01*
X145810Y462175D01*
X145828Y462131D01*
X145836Y462085D01*
X145870Y462028D01*
X145895Y461967D01*
X145927Y461932D01*
X145951Y461891D01*
X146002Y461850D01*
X146046Y461801D01*
X146088Y461780D01*
X146125Y461750D01*
X146187Y461729D01*
X146246Y461699D01*
X146300Y461691D01*
X146337Y461678D01*
X146377Y461679D01*
X146431Y461671D01*
X150241Y461671D01*
X150306Y461683D01*
G37*
G36*
X150306Y50203D02*
X150306Y50203D01*
X150372Y50205D01*
X150415Y50222D01*
X150462Y50231D01*
X150519Y50264D01*
X150580Y50289D01*
X150614Y50321D01*
X150655Y50345D01*
X150697Y50396D01*
X150745Y50440D01*
X150767Y50482D01*
X150796Y50519D01*
X150818Y50581D01*
X150848Y50640D01*
X150856Y50694D01*
X150868Y50732D01*
X150867Y50771D01*
X150875Y50825D01*
X150875Y53365D01*
X150864Y53430D01*
X150862Y53496D01*
X150844Y53540D01*
X150836Y53586D01*
X150802Y53643D01*
X150777Y53704D01*
X150746Y53739D01*
X150722Y53779D01*
X150670Y53821D01*
X150626Y53869D01*
X150584Y53891D01*
X150547Y53921D01*
X150485Y53942D01*
X150426Y53972D01*
X150372Y53980D01*
X150335Y53993D01*
X150295Y53992D01*
X150241Y54000D01*
X146431Y54000D01*
X146366Y53988D01*
X146301Y53986D01*
X146257Y53968D01*
X146210Y53960D01*
X146153Y53926D01*
X146093Y53902D01*
X146058Y53870D01*
X146017Y53846D01*
X145976Y53795D01*
X145927Y53750D01*
X145905Y53708D01*
X145876Y53672D01*
X145855Y53609D01*
X145824Y53551D01*
X145816Y53496D01*
X145804Y53459D01*
X145804Y53456D01*
X145805Y53419D01*
X145797Y53365D01*
X145797Y50825D01*
X145808Y50761D01*
X145810Y50695D01*
X145828Y50651D01*
X145836Y50605D01*
X145870Y50548D01*
X145895Y50487D01*
X145927Y50452D01*
X145951Y50411D01*
X146002Y50370D01*
X146046Y50321D01*
X146088Y50300D01*
X146125Y50270D01*
X146187Y50249D01*
X146246Y50219D01*
X146300Y50211D01*
X146337Y50198D01*
X146377Y50199D01*
X146431Y50191D01*
X150241Y50191D01*
X150306Y50203D01*
G37*
G36*
X668466Y50203D02*
X668466Y50203D01*
X668532Y50205D01*
X668575Y50222D01*
X668622Y50231D01*
X668679Y50264D01*
X668740Y50289D01*
X668774Y50321D01*
X668815Y50345D01*
X668857Y50396D01*
X668905Y50440D01*
X668927Y50482D01*
X668956Y50519D01*
X668978Y50581D01*
X669008Y50640D01*
X669016Y50694D01*
X669028Y50732D01*
X669027Y50771D01*
X669035Y50825D01*
X669035Y53365D01*
X669024Y53430D01*
X669022Y53496D01*
X669004Y53540D01*
X668996Y53586D01*
X668962Y53643D01*
X668937Y53704D01*
X668906Y53739D01*
X668882Y53779D01*
X668830Y53821D01*
X668786Y53869D01*
X668744Y53891D01*
X668707Y53921D01*
X668645Y53942D01*
X668586Y53972D01*
X668532Y53980D01*
X668495Y53993D01*
X668455Y53992D01*
X668401Y54000D01*
X664591Y54000D01*
X664526Y53988D01*
X664461Y53986D01*
X664417Y53968D01*
X664370Y53960D01*
X664313Y53926D01*
X664253Y53902D01*
X664218Y53870D01*
X664177Y53846D01*
X664136Y53795D01*
X664087Y53750D01*
X664065Y53708D01*
X664036Y53672D01*
X664015Y53609D01*
X663984Y53551D01*
X663976Y53496D01*
X663964Y53459D01*
X663964Y53456D01*
X663965Y53419D01*
X663957Y53365D01*
X663957Y50825D01*
X663968Y50761D01*
X663970Y50695D01*
X663988Y50651D01*
X663996Y50605D01*
X664030Y50548D01*
X664055Y50487D01*
X664087Y50452D01*
X664111Y50411D01*
X664162Y50370D01*
X664206Y50321D01*
X664248Y50300D01*
X664285Y50270D01*
X664347Y50249D01*
X664406Y50219D01*
X664460Y50211D01*
X664497Y50198D01*
X664537Y50199D01*
X664591Y50191D01*
X668401Y50191D01*
X668466Y50203D01*
G37*
G36*
X409386Y50203D02*
X409386Y50203D01*
X409452Y50205D01*
X409495Y50222D01*
X409542Y50231D01*
X409599Y50264D01*
X409660Y50289D01*
X409694Y50321D01*
X409735Y50345D01*
X409777Y50396D01*
X409825Y50440D01*
X409847Y50482D01*
X409876Y50519D01*
X409898Y50581D01*
X409928Y50640D01*
X409936Y50694D01*
X409948Y50732D01*
X409947Y50771D01*
X409955Y50825D01*
X409955Y53365D01*
X409944Y53430D01*
X409942Y53496D01*
X409924Y53540D01*
X409916Y53586D01*
X409882Y53643D01*
X409857Y53704D01*
X409826Y53739D01*
X409802Y53779D01*
X409750Y53821D01*
X409706Y53869D01*
X409664Y53891D01*
X409627Y53921D01*
X409565Y53942D01*
X409506Y53972D01*
X409452Y53980D01*
X409415Y53993D01*
X409375Y53992D01*
X409321Y54000D01*
X405511Y54000D01*
X405446Y53988D01*
X405381Y53986D01*
X405337Y53968D01*
X405290Y53960D01*
X405233Y53926D01*
X405173Y53902D01*
X405138Y53870D01*
X405097Y53846D01*
X405056Y53795D01*
X405007Y53750D01*
X404985Y53708D01*
X404956Y53672D01*
X404935Y53609D01*
X404904Y53551D01*
X404896Y53496D01*
X404884Y53459D01*
X404884Y53456D01*
X404885Y53419D01*
X404877Y53365D01*
X404877Y50825D01*
X404888Y50761D01*
X404890Y50695D01*
X404908Y50651D01*
X404916Y50605D01*
X404950Y50548D01*
X404975Y50487D01*
X405007Y50452D01*
X405031Y50411D01*
X405082Y50370D01*
X405126Y50321D01*
X405168Y50300D01*
X405205Y50270D01*
X405267Y50249D01*
X405326Y50219D01*
X405380Y50211D01*
X405417Y50198D01*
X405457Y50199D01*
X405511Y50191D01*
X409321Y50191D01*
X409386Y50203D01*
G37*
D10*
X115343Y34698D02*
X115343Y29106D01*
X103655Y29106D01*
X103655Y34698D01*
X115343Y34698D01*
X115343Y31275D02*
X103655Y31275D01*
X103655Y33444D02*
X115343Y33444D01*
X115343Y39520D02*
X115343Y45112D01*
X115343Y39520D02*
X103655Y39520D01*
X103655Y45112D01*
X115343Y45112D01*
X115343Y41689D02*
X103655Y41689D01*
X103655Y43858D02*
X115343Y43858D01*
X115343Y49934D02*
X115343Y55526D01*
X115343Y49934D02*
X103655Y49934D01*
X103655Y55526D01*
X115343Y55526D01*
X115343Y52103D02*
X103655Y52103D01*
X103655Y54272D02*
X115343Y54272D01*
D11*
X20787Y25357D03*
X226226Y400021D03*
D10*
X156339Y57939D02*
X150747Y57939D01*
X156339Y57939D02*
X156339Y46251D01*
X150747Y46251D01*
X150747Y57939D01*
X150747Y48420D02*
X156339Y48420D01*
X156339Y50589D02*
X150747Y50589D01*
X150747Y52758D02*
X156339Y52758D01*
X156339Y54927D02*
X150747Y54927D01*
X150747Y57096D02*
X156339Y57096D01*
X145925Y57939D02*
X140333Y57939D01*
X145925Y57939D02*
X145925Y46251D01*
X140333Y46251D01*
X140333Y57939D01*
X140333Y48420D02*
X145925Y48420D01*
X145925Y50589D02*
X140333Y50589D01*
X140333Y52758D02*
X145925Y52758D01*
X145925Y54927D02*
X140333Y54927D01*
X140333Y57096D02*
X145925Y57096D01*
X89406Y121918D02*
X89406Y127510D01*
X101094Y127510D01*
X101094Y121918D01*
X89406Y121918D01*
X89406Y124087D02*
X101094Y124087D01*
X101094Y126256D02*
X89406Y126256D01*
X89406Y117096D02*
X89406Y111504D01*
X89406Y117096D02*
X101094Y117096D01*
X101094Y111504D01*
X89406Y111504D01*
X89406Y113673D02*
X101094Y113673D01*
X101094Y115842D02*
X89406Y115842D01*
X89406Y106682D02*
X89406Y101090D01*
X89406Y106682D02*
X101094Y106682D01*
X101094Y101090D01*
X89406Y101090D01*
X89406Y103259D02*
X101094Y103259D01*
X101094Y105428D02*
X89406Y105428D01*
X135634Y87276D02*
X135634Y81684D01*
X135634Y87276D02*
X147322Y87276D01*
X147322Y81684D01*
X135634Y81684D01*
X135634Y83853D02*
X147322Y83853D01*
X147322Y86022D02*
X135634Y86022D01*
X135634Y76862D02*
X135634Y71270D01*
X135634Y76862D02*
X147322Y76862D01*
X147322Y71270D01*
X135634Y71270D01*
X135634Y73439D02*
X147322Y73439D01*
X147322Y75608D02*
X135634Y75608D01*
D12*
X12700Y12700D03*
X12700Y38100D03*
X12700Y63500D03*
X12700Y88900D03*
X12700Y114300D03*
X12700Y139700D03*
X12700Y165100D03*
X12700Y190500D03*
X12700Y215900D03*
X12700Y241300D03*
X12700Y266700D03*
X12700Y292100D03*
X12700Y317500D03*
X12700Y342900D03*
X12700Y368300D03*
X12700Y393700D03*
X241300Y12700D03*
X241300Y38100D03*
X241300Y63500D03*
X241300Y88900D03*
X241300Y114300D03*
X241300Y139700D03*
X241300Y165100D03*
X241300Y190500D03*
X241300Y215900D03*
X241300Y241300D03*
X241300Y266700D03*
X241300Y292100D03*
X241300Y317500D03*
X241300Y342900D03*
X241300Y368300D03*
X241300Y393700D03*
D10*
X374423Y34698D02*
X374423Y29106D01*
X362735Y29106D01*
X362735Y34698D01*
X374423Y34698D01*
X374423Y31275D02*
X362735Y31275D01*
X362735Y33444D02*
X374423Y33444D01*
X374423Y39520D02*
X374423Y45112D01*
X374423Y39520D02*
X362735Y39520D01*
X362735Y45112D01*
X374423Y45112D01*
X374423Y41689D02*
X362735Y41689D01*
X362735Y43858D02*
X374423Y43858D01*
X374423Y49934D02*
X374423Y55526D01*
X374423Y49934D02*
X362735Y49934D01*
X362735Y55526D01*
X374423Y55526D01*
X374423Y52103D02*
X362735Y52103D01*
X362735Y54272D02*
X374423Y54272D01*
D11*
X279867Y25357D03*
X485306Y400021D03*
D10*
X415419Y57939D02*
X409827Y57939D01*
X415419Y57939D02*
X415419Y46251D01*
X409827Y46251D01*
X409827Y57939D01*
X409827Y48420D02*
X415419Y48420D01*
X415419Y50589D02*
X409827Y50589D01*
X409827Y52758D02*
X415419Y52758D01*
X415419Y54927D02*
X409827Y54927D01*
X409827Y57096D02*
X415419Y57096D01*
X405005Y57939D02*
X399413Y57939D01*
X405005Y57939D02*
X405005Y46251D01*
X399413Y46251D01*
X399413Y57939D01*
X399413Y48420D02*
X405005Y48420D01*
X405005Y50589D02*
X399413Y50589D01*
X399413Y52758D02*
X405005Y52758D01*
X405005Y54927D02*
X399413Y54927D01*
X399413Y57096D02*
X405005Y57096D01*
X348486Y121918D02*
X348486Y127510D01*
X360174Y127510D01*
X360174Y121918D01*
X348486Y121918D01*
X348486Y124087D02*
X360174Y124087D01*
X360174Y126256D02*
X348486Y126256D01*
X348486Y117096D02*
X348486Y111504D01*
X348486Y117096D02*
X360174Y117096D01*
X360174Y111504D01*
X348486Y111504D01*
X348486Y113673D02*
X360174Y113673D01*
X360174Y115842D02*
X348486Y115842D01*
X348486Y106682D02*
X348486Y101090D01*
X348486Y106682D02*
X360174Y106682D01*
X360174Y101090D01*
X348486Y101090D01*
X348486Y103259D02*
X360174Y103259D01*
X360174Y105428D02*
X348486Y105428D01*
X394714Y87276D02*
X394714Y81684D01*
X394714Y87276D02*
X406402Y87276D01*
X406402Y81684D01*
X394714Y81684D01*
X394714Y83853D02*
X406402Y83853D01*
X406402Y86022D02*
X394714Y86022D01*
X394714Y76862D02*
X394714Y71270D01*
X394714Y76862D02*
X406402Y76862D01*
X406402Y71270D01*
X394714Y71270D01*
X394714Y73439D02*
X406402Y73439D01*
X406402Y75608D02*
X394714Y75608D01*
D12*
X271780Y12700D03*
X271780Y38100D03*
X271780Y63500D03*
X271780Y88900D03*
X271780Y114300D03*
X271780Y139700D03*
X271780Y165100D03*
X271780Y190500D03*
X271780Y215900D03*
X271780Y241300D03*
X271780Y266700D03*
X271780Y292100D03*
X271780Y317500D03*
X271780Y342900D03*
X271780Y368300D03*
X271780Y393700D03*
X500380Y12700D03*
X500380Y38100D03*
X500380Y63500D03*
X500380Y88900D03*
X500380Y114300D03*
X500380Y139700D03*
X500380Y165100D03*
X500380Y190500D03*
X500380Y215900D03*
X500380Y241300D03*
X500380Y266700D03*
X500380Y292100D03*
X500380Y317500D03*
X500380Y342900D03*
X500380Y368300D03*
X500380Y393700D03*
D10*
X633503Y34698D02*
X633503Y29106D01*
X621815Y29106D01*
X621815Y34698D01*
X633503Y34698D01*
X633503Y31275D02*
X621815Y31275D01*
X621815Y33444D02*
X633503Y33444D01*
X633503Y39520D02*
X633503Y45112D01*
X633503Y39520D02*
X621815Y39520D01*
X621815Y45112D01*
X633503Y45112D01*
X633503Y41689D02*
X621815Y41689D01*
X621815Y43858D02*
X633503Y43858D01*
X633503Y49934D02*
X633503Y55526D01*
X633503Y49934D02*
X621815Y49934D01*
X621815Y55526D01*
X633503Y55526D01*
X633503Y52103D02*
X621815Y52103D01*
X621815Y54272D02*
X633503Y54272D01*
D11*
X538947Y25357D03*
X744386Y400021D03*
D10*
X674499Y57939D02*
X668907Y57939D01*
X674499Y57939D02*
X674499Y46251D01*
X668907Y46251D01*
X668907Y57939D01*
X668907Y48420D02*
X674499Y48420D01*
X674499Y50589D02*
X668907Y50589D01*
X668907Y52758D02*
X674499Y52758D01*
X674499Y54927D02*
X668907Y54927D01*
X668907Y57096D02*
X674499Y57096D01*
X664085Y57939D02*
X658493Y57939D01*
X664085Y57939D02*
X664085Y46251D01*
X658493Y46251D01*
X658493Y57939D01*
X658493Y48420D02*
X664085Y48420D01*
X664085Y50589D02*
X658493Y50589D01*
X658493Y52758D02*
X664085Y52758D01*
X664085Y54927D02*
X658493Y54927D01*
X658493Y57096D02*
X664085Y57096D01*
X607566Y121918D02*
X607566Y127510D01*
X619254Y127510D01*
X619254Y121918D01*
X607566Y121918D01*
X607566Y124087D02*
X619254Y124087D01*
X619254Y126256D02*
X607566Y126256D01*
X607566Y117096D02*
X607566Y111504D01*
X607566Y117096D02*
X619254Y117096D01*
X619254Y111504D01*
X607566Y111504D01*
X607566Y113673D02*
X619254Y113673D01*
X619254Y115842D02*
X607566Y115842D01*
X607566Y106682D02*
X607566Y101090D01*
X607566Y106682D02*
X619254Y106682D01*
X619254Y101090D01*
X607566Y101090D01*
X607566Y103259D02*
X619254Y103259D01*
X619254Y105428D02*
X607566Y105428D01*
X653794Y87276D02*
X653794Y81684D01*
X653794Y87276D02*
X665482Y87276D01*
X665482Y81684D01*
X653794Y81684D01*
X653794Y83853D02*
X665482Y83853D01*
X665482Y86022D02*
X653794Y86022D01*
X653794Y76862D02*
X653794Y71270D01*
X653794Y76862D02*
X665482Y76862D01*
X665482Y71270D01*
X653794Y71270D01*
X653794Y73439D02*
X665482Y73439D01*
X665482Y75608D02*
X653794Y75608D01*
D12*
X530860Y12700D03*
X530860Y38100D03*
X530860Y63500D03*
X530860Y88900D03*
X530860Y114300D03*
X530860Y139700D03*
X530860Y165100D03*
X530860Y190500D03*
X530860Y215900D03*
X530860Y241300D03*
X530860Y266700D03*
X530860Y292100D03*
X530860Y317500D03*
X530860Y342900D03*
X530860Y368300D03*
X530860Y393700D03*
X759460Y12700D03*
X759460Y38100D03*
X759460Y63500D03*
X759460Y88900D03*
X759460Y114300D03*
X759460Y139700D03*
X759460Y165100D03*
X759460Y190500D03*
X759460Y215900D03*
X759460Y241300D03*
X759460Y266700D03*
X759460Y292100D03*
X759460Y317500D03*
X759460Y342900D03*
X759460Y368300D03*
X759460Y393700D03*
D10*
X115343Y440586D02*
X115343Y446178D01*
X115343Y440586D02*
X103655Y440586D01*
X103655Y446178D01*
X115343Y446178D01*
X115343Y442755D02*
X103655Y442755D01*
X103655Y444924D02*
X115343Y444924D01*
X115343Y451000D02*
X115343Y456592D01*
X115343Y451000D02*
X103655Y451000D01*
X103655Y456592D01*
X115343Y456592D01*
X115343Y453169D02*
X103655Y453169D01*
X103655Y455338D02*
X115343Y455338D01*
X115343Y461414D02*
X115343Y467006D01*
X115343Y461414D02*
X103655Y461414D01*
X103655Y467006D01*
X115343Y467006D01*
X115343Y463583D02*
X103655Y463583D01*
X103655Y465752D02*
X115343Y465752D01*
D11*
X20787Y436837D03*
X226226Y811501D03*
D10*
X156339Y469419D02*
X150747Y469419D01*
X156339Y469419D02*
X156339Y457731D01*
X150747Y457731D01*
X150747Y469419D01*
X150747Y459900D02*
X156339Y459900D01*
X156339Y462069D02*
X150747Y462069D01*
X150747Y464238D02*
X156339Y464238D01*
X156339Y466407D02*
X150747Y466407D01*
X150747Y468576D02*
X156339Y468576D01*
X145925Y469419D02*
X140333Y469419D01*
X145925Y469419D02*
X145925Y457731D01*
X140333Y457731D01*
X140333Y469419D01*
X140333Y459900D02*
X145925Y459900D01*
X145925Y462069D02*
X140333Y462069D01*
X140333Y464238D02*
X145925Y464238D01*
X145925Y466407D02*
X140333Y466407D01*
X140333Y468576D02*
X145925Y468576D01*
X89406Y533398D02*
X89406Y538990D01*
X101094Y538990D01*
X101094Y533398D01*
X89406Y533398D01*
X89406Y535567D02*
X101094Y535567D01*
X101094Y537736D02*
X89406Y537736D01*
X89406Y528576D02*
X89406Y522984D01*
X89406Y528576D02*
X101094Y528576D01*
X101094Y522984D01*
X89406Y522984D01*
X89406Y525153D02*
X101094Y525153D01*
X101094Y527322D02*
X89406Y527322D01*
X89406Y518162D02*
X89406Y512570D01*
X89406Y518162D02*
X101094Y518162D01*
X101094Y512570D01*
X89406Y512570D01*
X89406Y514739D02*
X101094Y514739D01*
X101094Y516908D02*
X89406Y516908D01*
X135634Y498756D02*
X135634Y493164D01*
X135634Y498756D02*
X147322Y498756D01*
X147322Y493164D01*
X135634Y493164D01*
X135634Y495333D02*
X147322Y495333D01*
X147322Y497502D02*
X135634Y497502D01*
X135634Y488342D02*
X135634Y482750D01*
X135634Y488342D02*
X147322Y488342D01*
X147322Y482750D01*
X135634Y482750D01*
X135634Y484919D02*
X147322Y484919D01*
X147322Y487088D02*
X135634Y487088D01*
D12*
X12700Y424180D03*
X12700Y449580D03*
X12700Y474980D03*
X12700Y500380D03*
X12700Y525780D03*
X12700Y551180D03*
X12700Y576580D03*
X12700Y601980D03*
X12700Y627380D03*
X12700Y652780D03*
X12700Y678180D03*
X12700Y703580D03*
X12700Y728980D03*
X12700Y754380D03*
X12700Y779780D03*
X12700Y805180D03*
X241300Y424180D03*
X241300Y449580D03*
X241300Y474980D03*
X241300Y500380D03*
X241300Y525780D03*
X241300Y551180D03*
X241300Y576580D03*
X241300Y601980D03*
X241300Y627380D03*
X241300Y652780D03*
X241300Y678180D03*
X241300Y703580D03*
X241300Y728980D03*
X241300Y754380D03*
X241300Y779780D03*
X241300Y805180D03*
D10*
X374423Y446178D02*
X374423Y440586D01*
X362735Y440586D01*
X362735Y446178D01*
X374423Y446178D01*
X374423Y442755D02*
X362735Y442755D01*
X362735Y444924D02*
X374423Y444924D01*
X374423Y451000D02*
X374423Y456592D01*
X374423Y451000D02*
X362735Y451000D01*
X362735Y456592D01*
X374423Y456592D01*
X374423Y453169D02*
X362735Y453169D01*
X362735Y455338D02*
X374423Y455338D01*
X374423Y461414D02*
X374423Y467006D01*
X374423Y461414D02*
X362735Y461414D01*
X362735Y467006D01*
X374423Y467006D01*
X374423Y463583D02*
X362735Y463583D01*
X362735Y465752D02*
X374423Y465752D01*
D11*
X279867Y436837D03*
X485306Y811501D03*
D10*
X415419Y469419D02*
X409827Y469419D01*
X415419Y469419D02*
X415419Y457731D01*
X409827Y457731D01*
X409827Y469419D01*
X409827Y459900D02*
X415419Y459900D01*
X415419Y462069D02*
X409827Y462069D01*
X409827Y464238D02*
X415419Y464238D01*
X415419Y466407D02*
X409827Y466407D01*
X409827Y468576D02*
X415419Y468576D01*
X405005Y469419D02*
X399413Y469419D01*
X405005Y469419D02*
X405005Y457731D01*
X399413Y457731D01*
X399413Y469419D01*
X399413Y459900D02*
X405005Y459900D01*
X405005Y462069D02*
X399413Y462069D01*
X399413Y464238D02*
X405005Y464238D01*
X405005Y466407D02*
X399413Y466407D01*
X399413Y468576D02*
X405005Y468576D01*
X348486Y533398D02*
X348486Y538990D01*
X360174Y538990D01*
X360174Y533398D01*
X348486Y533398D01*
X348486Y535567D02*
X360174Y535567D01*
X360174Y537736D02*
X348486Y537736D01*
X348486Y528576D02*
X348486Y522984D01*
X348486Y528576D02*
X360174Y528576D01*
X360174Y522984D01*
X348486Y522984D01*
X348486Y525153D02*
X360174Y525153D01*
X360174Y527322D02*
X348486Y527322D01*
X348486Y518162D02*
X348486Y512570D01*
X348486Y518162D02*
X360174Y518162D01*
X360174Y512570D01*
X348486Y512570D01*
X348486Y514739D02*
X360174Y514739D01*
X360174Y516908D02*
X348486Y516908D01*
X394714Y498756D02*
X394714Y493164D01*
X394714Y498756D02*
X406402Y498756D01*
X406402Y493164D01*
X394714Y493164D01*
X394714Y495333D02*
X406402Y495333D01*
X406402Y497502D02*
X394714Y497502D01*
X394714Y488342D02*
X394714Y482750D01*
X394714Y488342D02*
X406402Y488342D01*
X406402Y482750D01*
X394714Y482750D01*
X394714Y484919D02*
X406402Y484919D01*
X406402Y487088D02*
X394714Y487088D01*
D12*
X271780Y424180D03*
X271780Y449580D03*
X271780Y474980D03*
X271780Y500380D03*
X271780Y525780D03*
X271780Y551180D03*
X271780Y576580D03*
X271780Y601980D03*
X271780Y627380D03*
X271780Y652780D03*
X271780Y678180D03*
X271780Y703580D03*
X271780Y728980D03*
X271780Y754380D03*
X271780Y779780D03*
X271780Y805180D03*
X500380Y424180D03*
X500380Y449580D03*
X500380Y474980D03*
X500380Y500380D03*
X500380Y525780D03*
X500380Y551180D03*
X500380Y576580D03*
X500380Y601980D03*
X500380Y627380D03*
X500380Y652780D03*
X500380Y678180D03*
X500380Y703580D03*
X500380Y728980D03*
X500380Y754380D03*
X500380Y779780D03*
X500380Y805180D03*
D10*
X633503Y446178D02*
X633503Y440586D01*
X621815Y440586D01*
X621815Y446178D01*
X633503Y446178D01*
X633503Y442755D02*
X621815Y442755D01*
X621815Y444924D02*
X633503Y444924D01*
X633503Y451000D02*
X633503Y456592D01*
X633503Y451000D02*
X621815Y451000D01*
X621815Y456592D01*
X633503Y456592D01*
X633503Y453169D02*
X621815Y453169D01*
X621815Y455338D02*
X633503Y455338D01*
X633503Y461414D02*
X633503Y467006D01*
X633503Y461414D02*
X621815Y461414D01*
X621815Y467006D01*
X633503Y467006D01*
X633503Y463583D02*
X621815Y463583D01*
X621815Y465752D02*
X633503Y465752D01*
D11*
X538947Y436837D03*
X744386Y811501D03*
D10*
X674499Y469419D02*
X668907Y469419D01*
X674499Y469419D02*
X674499Y457731D01*
X668907Y457731D01*
X668907Y469419D01*
X668907Y459900D02*
X674499Y459900D01*
X674499Y462069D02*
X668907Y462069D01*
X668907Y464238D02*
X674499Y464238D01*
X674499Y466407D02*
X668907Y466407D01*
X668907Y468576D02*
X674499Y468576D01*
X664085Y469419D02*
X658493Y469419D01*
X664085Y469419D02*
X664085Y457731D01*
X658493Y457731D01*
X658493Y469419D01*
X658493Y459900D02*
X664085Y459900D01*
X664085Y462069D02*
X658493Y462069D01*
X658493Y464238D02*
X664085Y464238D01*
X664085Y466407D02*
X658493Y466407D01*
X658493Y468576D02*
X664085Y468576D01*
X607566Y533398D02*
X607566Y538990D01*
X619254Y538990D01*
X619254Y533398D01*
X607566Y533398D01*
X607566Y535567D02*
X619254Y535567D01*
X619254Y537736D02*
X607566Y537736D01*
X607566Y528576D02*
X607566Y522984D01*
X607566Y528576D02*
X619254Y528576D01*
X619254Y522984D01*
X607566Y522984D01*
X607566Y525153D02*
X619254Y525153D01*
X619254Y527322D02*
X607566Y527322D01*
X607566Y518162D02*
X607566Y512570D01*
X607566Y518162D02*
X619254Y518162D01*
X619254Y512570D01*
X607566Y512570D01*
X607566Y514739D02*
X619254Y514739D01*
X619254Y516908D02*
X607566Y516908D01*
X653794Y498756D02*
X653794Y493164D01*
X653794Y498756D02*
X665482Y498756D01*
X665482Y493164D01*
X653794Y493164D01*
X653794Y495333D02*
X665482Y495333D01*
X665482Y497502D02*
X653794Y497502D01*
X653794Y488342D02*
X653794Y482750D01*
X653794Y488342D02*
X665482Y488342D01*
X665482Y482750D01*
X653794Y482750D01*
X653794Y484919D02*
X665482Y484919D01*
X665482Y487088D02*
X653794Y487088D01*
D12*
X530860Y424180D03*
X530860Y449580D03*
X530860Y474980D03*
X530860Y500380D03*
X530860Y525780D03*
X530860Y551180D03*
X530860Y576580D03*
X530860Y601980D03*
X530860Y627380D03*
X530860Y652780D03*
X530860Y678180D03*
X530860Y703580D03*
X530860Y728980D03*
X530860Y754380D03*
X530860Y779780D03*
X530860Y805180D03*
X759460Y424180D03*
X759460Y449580D03*
X759460Y474980D03*
X759460Y500380D03*
X759460Y525780D03*
X759460Y551180D03*
X759460Y576580D03*
X759460Y601980D03*
X759460Y627380D03*
X759460Y652780D03*
X759460Y678180D03*
X759460Y703580D03*
X759460Y728980D03*
X759460Y754380D03*
X759460Y779780D03*
X759460Y805180D03*
D13*
X68580Y838835D03*
X702945Y838835D03*
D14*
X59525Y-20955D02*
X59528Y-20733D01*
X59536Y-20511D01*
X59550Y-20289D01*
X59569Y-20067D01*
X59593Y-19847D01*
X59623Y-19626D01*
X59658Y-19407D01*
X59699Y-19188D01*
X59745Y-18971D01*
X59796Y-18755D01*
X59853Y-18540D01*
X59915Y-18326D01*
X59982Y-18115D01*
X60054Y-17904D01*
X60132Y-17696D01*
X60214Y-17490D01*
X60302Y-17286D01*
X60394Y-17083D01*
X60492Y-16884D01*
X60594Y-16687D01*
X60701Y-16492D01*
X60813Y-16300D01*
X60930Y-16111D01*
X61051Y-15924D01*
X61177Y-15741D01*
X61307Y-15561D01*
X61442Y-15384D01*
X61580Y-15211D01*
X61723Y-15041D01*
X61871Y-14874D01*
X62022Y-14711D01*
X62177Y-14552D01*
X62336Y-14397D01*
X62499Y-14246D01*
X62666Y-14098D01*
X62836Y-13955D01*
X63009Y-13817D01*
X63186Y-13682D01*
X63366Y-13552D01*
X63549Y-13426D01*
X63736Y-13305D01*
X63925Y-13188D01*
X64117Y-13076D01*
X64312Y-12969D01*
X64509Y-12867D01*
X64708Y-12769D01*
X64911Y-12677D01*
X65115Y-12589D01*
X65321Y-12507D01*
X65529Y-12429D01*
X65740Y-12357D01*
X65951Y-12290D01*
X66165Y-12228D01*
X66380Y-12171D01*
X66596Y-12120D01*
X66813Y-12074D01*
X67032Y-12033D01*
X67251Y-11998D01*
X67472Y-11968D01*
X67692Y-11944D01*
X67914Y-11925D01*
X68136Y-11911D01*
X68358Y-11903D01*
X68580Y-11900D01*
X68802Y-11903D01*
X69024Y-11911D01*
X69246Y-11925D01*
X69468Y-11944D01*
X69688Y-11968D01*
X69909Y-11998D01*
X70128Y-12033D01*
X70347Y-12074D01*
X70564Y-12120D01*
X70780Y-12171D01*
X70995Y-12228D01*
X71209Y-12290D01*
X71420Y-12357D01*
X71631Y-12429D01*
X71839Y-12507D01*
X72045Y-12589D01*
X72249Y-12677D01*
X72452Y-12769D01*
X72651Y-12867D01*
X72848Y-12969D01*
X73043Y-13076D01*
X73235Y-13188D01*
X73424Y-13305D01*
X73611Y-13426D01*
X73794Y-13552D01*
X73974Y-13682D01*
X74151Y-13817D01*
X74324Y-13955D01*
X74494Y-14098D01*
X74661Y-14246D01*
X74824Y-14397D01*
X74983Y-14552D01*
X75138Y-14711D01*
X75289Y-14874D01*
X75437Y-15041D01*
X75580Y-15211D01*
X75718Y-15384D01*
X75853Y-15561D01*
X75983Y-15741D01*
X76109Y-15924D01*
X76230Y-16111D01*
X76347Y-16300D01*
X76459Y-16492D01*
X76566Y-16687D01*
X76668Y-16884D01*
X76766Y-17083D01*
X76858Y-17286D01*
X76946Y-17490D01*
X77028Y-17696D01*
X77106Y-17904D01*
X77178Y-18115D01*
X77245Y-18326D01*
X77307Y-18540D01*
X77364Y-18755D01*
X77415Y-18971D01*
X77461Y-19188D01*
X77502Y-19407D01*
X77537Y-19626D01*
X77567Y-19847D01*
X77591Y-20067D01*
X77610Y-20289D01*
X77624Y-20511D01*
X77632Y-20733D01*
X77635Y-20955D01*
X77632Y-21177D01*
X77624Y-21399D01*
X77610Y-21621D01*
X77591Y-21843D01*
X77567Y-22063D01*
X77537Y-22284D01*
X77502Y-22503D01*
X77461Y-22722D01*
X77415Y-22939D01*
X77364Y-23155D01*
X77307Y-23370D01*
X77245Y-23584D01*
X77178Y-23795D01*
X77106Y-24006D01*
X77028Y-24214D01*
X76946Y-24420D01*
X76858Y-24624D01*
X76766Y-24827D01*
X76668Y-25026D01*
X76566Y-25223D01*
X76459Y-25418D01*
X76347Y-25610D01*
X76230Y-25799D01*
X76109Y-25986D01*
X75983Y-26169D01*
X75853Y-26349D01*
X75718Y-26526D01*
X75580Y-26699D01*
X75437Y-26869D01*
X75289Y-27036D01*
X75138Y-27199D01*
X74983Y-27358D01*
X74824Y-27513D01*
X74661Y-27664D01*
X74494Y-27812D01*
X74324Y-27955D01*
X74151Y-28093D01*
X73974Y-28228D01*
X73794Y-28358D01*
X73611Y-28484D01*
X73424Y-28605D01*
X73235Y-28722D01*
X73043Y-28834D01*
X72848Y-28941D01*
X72651Y-29043D01*
X72452Y-29141D01*
X72249Y-29233D01*
X72045Y-29321D01*
X71839Y-29403D01*
X71631Y-29481D01*
X71420Y-29553D01*
X71209Y-29620D01*
X70995Y-29682D01*
X70780Y-29739D01*
X70564Y-29790D01*
X70347Y-29836D01*
X70128Y-29877D01*
X69909Y-29912D01*
X69688Y-29942D01*
X69468Y-29966D01*
X69246Y-29985D01*
X69024Y-29999D01*
X68802Y-30007D01*
X68580Y-30010D01*
X68358Y-30007D01*
X68136Y-29999D01*
X67914Y-29985D01*
X67692Y-29966D01*
X67472Y-29942D01*
X67251Y-29912D01*
X67032Y-29877D01*
X66813Y-29836D01*
X66596Y-29790D01*
X66380Y-29739D01*
X66165Y-29682D01*
X65951Y-29620D01*
X65740Y-29553D01*
X65529Y-29481D01*
X65321Y-29403D01*
X65115Y-29321D01*
X64911Y-29233D01*
X64708Y-29141D01*
X64509Y-29043D01*
X64312Y-28941D01*
X64117Y-28834D01*
X63925Y-28722D01*
X63736Y-28605D01*
X63549Y-28484D01*
X63366Y-28358D01*
X63186Y-28228D01*
X63009Y-28093D01*
X62836Y-27955D01*
X62666Y-27812D01*
X62499Y-27664D01*
X62336Y-27513D01*
X62177Y-27358D01*
X62022Y-27199D01*
X61871Y-27036D01*
X61723Y-26869D01*
X61580Y-26699D01*
X61442Y-26526D01*
X61307Y-26349D01*
X61177Y-26169D01*
X61051Y-25986D01*
X60930Y-25799D01*
X60813Y-25610D01*
X60701Y-25418D01*
X60594Y-25223D01*
X60492Y-25026D01*
X60394Y-24827D01*
X60302Y-24624D01*
X60214Y-24420D01*
X60132Y-24214D01*
X60054Y-24006D01*
X59982Y-23795D01*
X59915Y-23584D01*
X59853Y-23370D01*
X59796Y-23155D01*
X59745Y-22939D01*
X59699Y-22722D01*
X59658Y-22503D01*
X59623Y-22284D01*
X59593Y-22063D01*
X59569Y-21843D01*
X59550Y-21621D01*
X59536Y-21399D01*
X59528Y-21177D01*
X59525Y-20955D01*
D15*
X68580Y-20955D03*
M02*
