G04 EAGLE Gerber RS-274X export*
G75*
%MOMM*%
%FSLAX34Y34*%
%LPD*%
%IN*%
%IPPOS*%
%AMOC8*
5,1,8,0,0,1.08239X$1,22.5*%
G01*
%ADD10C,0.203200*%
%ADD11C,0.381000*%
%ADD12C,0.279400*%
%ADD13C,0.254000*%


D10*
X0Y0D02*
X254000Y0D01*
X254000Y406400D01*
X0Y406400D01*
X0Y0D01*
X259080Y0D02*
X513080Y0D01*
X513080Y406400D01*
X259080Y406400D01*
X259080Y0D01*
X518160Y0D02*
X772160Y0D01*
X772160Y406400D01*
X518160Y406400D01*
X518160Y0D01*
X254000Y411480D02*
X0Y411480D01*
X254000Y411480D02*
X254000Y817880D01*
X0Y817880D01*
X0Y411480D01*
X259080Y411480D02*
X513080Y411480D01*
X513080Y817880D01*
X259080Y817880D01*
X259080Y411480D01*
X518160Y411480D02*
X772160Y411480D01*
X772160Y817880D01*
X518160Y817880D01*
X518160Y411480D01*
D11*
X-2540Y-68580D02*
X-2540Y891540D01*
D12*
X-42921Y906907D02*
X-46251Y916898D01*
X-39590Y916898D02*
X-42921Y906907D01*
X-32806Y912735D02*
X-22815Y912735D01*
X-14261Y912735D02*
X-10098Y911070D01*
X-14261Y912734D02*
X-14346Y912770D01*
X-14429Y912810D01*
X-14510Y912853D01*
X-14590Y912900D01*
X-14667Y912950D01*
X-14743Y913003D01*
X-14816Y913059D01*
X-14886Y913119D01*
X-14954Y913181D01*
X-15019Y913246D01*
X-15081Y913314D01*
X-15141Y913385D01*
X-15197Y913458D01*
X-15250Y913533D01*
X-15300Y913611D01*
X-15346Y913690D01*
X-15389Y913772D01*
X-15429Y913855D01*
X-15465Y913940D01*
X-15497Y914026D01*
X-15526Y914114D01*
X-15550Y914203D01*
X-15571Y914293D01*
X-15588Y914383D01*
X-15602Y914474D01*
X-15611Y914566D01*
X-15616Y914658D01*
X-15618Y914750D01*
X-15616Y914842D01*
X-15609Y914934D01*
X-15599Y915026D01*
X-15585Y915117D01*
X-15567Y915208D01*
X-15545Y915297D01*
X-15519Y915386D01*
X-15489Y915473D01*
X-15456Y915559D01*
X-15419Y915643D01*
X-15379Y915726D01*
X-15335Y915807D01*
X-15288Y915886D01*
X-15237Y915963D01*
X-15183Y916038D01*
X-15126Y916111D01*
X-15066Y916181D01*
X-15003Y916248D01*
X-14937Y916312D01*
X-14869Y916374D01*
X-14798Y916433D01*
X-14724Y916488D01*
X-14648Y916541D01*
X-14570Y916590D01*
X-14490Y916636D01*
X-14409Y916678D01*
X-14325Y916717D01*
X-14240Y916752D01*
X-14153Y916783D01*
X-14065Y916811D01*
X-13976Y916835D01*
X-13886Y916855D01*
X-13796Y916872D01*
X-13704Y916884D01*
X-13612Y916893D01*
X-13520Y916897D01*
X-13428Y916898D01*
X-13201Y916892D01*
X-12974Y916881D01*
X-12747Y916864D01*
X-12521Y916841D01*
X-12295Y916814D01*
X-12070Y916780D01*
X-11846Y916742D01*
X-11623Y916698D01*
X-11401Y916649D01*
X-11180Y916594D01*
X-10961Y916534D01*
X-10743Y916469D01*
X-10527Y916398D01*
X-10313Y916323D01*
X-10100Y916242D01*
X-9890Y916156D01*
X-9681Y916065D01*
X-10098Y911070D02*
X-10013Y911034D01*
X-9930Y910994D01*
X-9849Y910951D01*
X-9769Y910904D01*
X-9692Y910854D01*
X-9616Y910801D01*
X-9543Y910745D01*
X-9473Y910685D01*
X-9405Y910623D01*
X-9340Y910558D01*
X-9278Y910490D01*
X-9218Y910419D01*
X-9162Y910346D01*
X-9109Y910271D01*
X-9059Y910193D01*
X-9013Y910114D01*
X-8970Y910032D01*
X-8930Y909949D01*
X-8894Y909864D01*
X-8862Y909778D01*
X-8833Y909690D01*
X-8809Y909601D01*
X-8788Y909511D01*
X-8771Y909421D01*
X-8757Y909330D01*
X-8748Y909238D01*
X-8743Y909146D01*
X-8741Y909054D01*
X-8743Y908962D01*
X-8750Y908870D01*
X-8760Y908778D01*
X-8774Y908687D01*
X-8792Y908596D01*
X-8814Y908507D01*
X-8840Y908418D01*
X-8870Y908331D01*
X-8903Y908245D01*
X-8940Y908161D01*
X-8980Y908078D01*
X-9024Y907997D01*
X-9071Y907918D01*
X-9122Y907841D01*
X-9176Y907766D01*
X-9233Y907693D01*
X-9293Y907623D01*
X-9356Y907556D01*
X-9422Y907492D01*
X-9490Y907430D01*
X-9561Y907371D01*
X-9635Y907316D01*
X-9711Y907263D01*
X-9789Y907214D01*
X-9869Y907168D01*
X-9950Y907126D01*
X-10034Y907087D01*
X-10119Y907052D01*
X-10206Y907021D01*
X-10294Y906993D01*
X-10383Y906969D01*
X-10473Y906949D01*
X-10563Y906932D01*
X-10655Y906920D01*
X-10747Y906911D01*
X-10839Y906907D01*
X-10931Y906906D01*
X-10931Y906907D02*
X-11265Y906916D01*
X-11598Y906933D01*
X-11931Y906957D01*
X-12264Y906990D01*
X-12595Y907030D01*
X-12926Y907078D01*
X-13255Y907134D01*
X-13583Y907197D01*
X-13909Y907269D01*
X-14233Y907348D01*
X-14556Y907434D01*
X-14876Y907529D01*
X-15194Y907631D01*
X-15510Y907740D01*
X562Y906907D02*
X3892Y906907D01*
X562Y906907D02*
X464Y906909D01*
X366Y906915D01*
X268Y906924D01*
X171Y906938D01*
X75Y906955D01*
X-21Y906976D01*
X-116Y907001D01*
X-210Y907029D01*
X-303Y907061D01*
X-394Y907097D01*
X-484Y907136D01*
X-572Y907179D01*
X-659Y907226D01*
X-743Y907275D01*
X-826Y907328D01*
X-906Y907384D01*
X-985Y907443D01*
X-1060Y907506D01*
X-1134Y907571D01*
X-1204Y907639D01*
X-1272Y907709D01*
X-1338Y907783D01*
X-1400Y907859D01*
X-1459Y907937D01*
X-1515Y908017D01*
X-1568Y908100D01*
X-1618Y908184D01*
X-1664Y908271D01*
X-1707Y908359D01*
X-1746Y908449D01*
X-1782Y908540D01*
X-1814Y908633D01*
X-1842Y908727D01*
X-1867Y908822D01*
X-1888Y908918D01*
X-1905Y909014D01*
X-1919Y909111D01*
X-1928Y909209D01*
X-1934Y909307D01*
X-1936Y909405D01*
X-1936Y914400D01*
X-1934Y914498D01*
X-1928Y914596D01*
X-1919Y914694D01*
X-1905Y914791D01*
X-1888Y914887D01*
X-1867Y914983D01*
X-1842Y915078D01*
X-1814Y915172D01*
X-1782Y915265D01*
X-1746Y915356D01*
X-1707Y915446D01*
X-1664Y915534D01*
X-1617Y915621D01*
X-1568Y915705D01*
X-1515Y915788D01*
X-1459Y915868D01*
X-1400Y915946D01*
X-1337Y916022D01*
X-1272Y916096D01*
X-1204Y916166D01*
X-1134Y916234D01*
X-1060Y916299D01*
X-984Y916362D01*
X-906Y916421D01*
X-826Y916477D01*
X-743Y916530D01*
X-659Y916579D01*
X-572Y916626D01*
X-484Y916669D01*
X-394Y916708D01*
X-303Y916744D01*
X-210Y916776D01*
X-116Y916804D01*
X-21Y916829D01*
X75Y916850D01*
X171Y916867D01*
X268Y916881D01*
X366Y916890D01*
X464Y916896D01*
X562Y916898D01*
X3892Y916898D01*
X10022Y913567D02*
X10022Y910237D01*
X10022Y913567D02*
X10024Y913681D01*
X10030Y913794D01*
X10039Y913908D01*
X10053Y914020D01*
X10070Y914133D01*
X10092Y914245D01*
X10117Y914355D01*
X10145Y914465D01*
X10178Y914574D01*
X10214Y914682D01*
X10254Y914789D01*
X10298Y914894D01*
X10345Y914997D01*
X10395Y915099D01*
X10449Y915199D01*
X10507Y915297D01*
X10568Y915393D01*
X10631Y915487D01*
X10699Y915579D01*
X10769Y915669D01*
X10842Y915755D01*
X10918Y915840D01*
X10997Y915922D01*
X11079Y916001D01*
X11164Y916077D01*
X11250Y916150D01*
X11340Y916220D01*
X11432Y916288D01*
X11526Y916351D01*
X11622Y916412D01*
X11720Y916470D01*
X11820Y916524D01*
X11922Y916574D01*
X12025Y916621D01*
X12130Y916665D01*
X12237Y916705D01*
X12345Y916741D01*
X12454Y916774D01*
X12564Y916802D01*
X12674Y916827D01*
X12786Y916849D01*
X12899Y916866D01*
X13011Y916880D01*
X13125Y916889D01*
X13238Y916895D01*
X13352Y916897D01*
X13466Y916895D01*
X13579Y916889D01*
X13693Y916880D01*
X13805Y916866D01*
X13918Y916849D01*
X14030Y916827D01*
X14140Y916802D01*
X14250Y916774D01*
X14359Y916741D01*
X14467Y916705D01*
X14574Y916665D01*
X14679Y916621D01*
X14782Y916574D01*
X14884Y916524D01*
X14984Y916470D01*
X15082Y916412D01*
X15178Y916351D01*
X15272Y916288D01*
X15364Y916220D01*
X15454Y916150D01*
X15540Y916077D01*
X15625Y916001D01*
X15707Y915922D01*
X15786Y915840D01*
X15862Y915755D01*
X15935Y915669D01*
X16005Y915579D01*
X16073Y915487D01*
X16136Y915393D01*
X16197Y915297D01*
X16255Y915199D01*
X16309Y915099D01*
X16359Y914997D01*
X16406Y914894D01*
X16450Y914789D01*
X16490Y914682D01*
X16526Y914574D01*
X16559Y914465D01*
X16587Y914355D01*
X16612Y914245D01*
X16634Y914133D01*
X16651Y914020D01*
X16665Y913908D01*
X16674Y913794D01*
X16680Y913681D01*
X16682Y913567D01*
X16682Y910237D01*
X16680Y910123D01*
X16674Y910010D01*
X16665Y909896D01*
X16651Y909784D01*
X16634Y909671D01*
X16612Y909559D01*
X16587Y909449D01*
X16559Y909339D01*
X16526Y909230D01*
X16490Y909122D01*
X16450Y909015D01*
X16406Y908910D01*
X16359Y908807D01*
X16309Y908705D01*
X16255Y908605D01*
X16197Y908507D01*
X16136Y908411D01*
X16073Y908317D01*
X16005Y908225D01*
X15935Y908135D01*
X15862Y908049D01*
X15786Y907964D01*
X15707Y907882D01*
X15625Y907803D01*
X15540Y907727D01*
X15454Y907654D01*
X15364Y907584D01*
X15272Y907516D01*
X15178Y907453D01*
X15082Y907392D01*
X14984Y907334D01*
X14884Y907280D01*
X14782Y907230D01*
X14679Y907183D01*
X14574Y907139D01*
X14467Y907099D01*
X14359Y907063D01*
X14250Y907030D01*
X14140Y907002D01*
X14030Y906977D01*
X13918Y906955D01*
X13805Y906938D01*
X13693Y906924D01*
X13579Y906915D01*
X13466Y906909D01*
X13352Y906907D01*
X13238Y906909D01*
X13125Y906915D01*
X13011Y906924D01*
X12899Y906938D01*
X12786Y906955D01*
X12674Y906977D01*
X12564Y907002D01*
X12454Y907030D01*
X12345Y907063D01*
X12237Y907099D01*
X12130Y907139D01*
X12025Y907183D01*
X11922Y907230D01*
X11820Y907280D01*
X11720Y907334D01*
X11622Y907392D01*
X11526Y907453D01*
X11432Y907516D01*
X11340Y907584D01*
X11250Y907654D01*
X11164Y907727D01*
X11079Y907803D01*
X10997Y907882D01*
X10918Y907964D01*
X10842Y908049D01*
X10769Y908135D01*
X10699Y908225D01*
X10631Y908317D01*
X10568Y908411D01*
X10507Y908507D01*
X10449Y908605D01*
X10395Y908705D01*
X10345Y908807D01*
X10298Y908910D01*
X10254Y909015D01*
X10214Y909122D01*
X10178Y909230D01*
X10145Y909339D01*
X10117Y909449D01*
X10092Y909559D01*
X10070Y909671D01*
X10053Y909784D01*
X10039Y909896D01*
X10030Y910010D01*
X10024Y910123D01*
X10022Y910237D01*
X24218Y906907D02*
X24218Y916898D01*
X29213Y916898D01*
X29213Y915233D01*
X37008Y906907D02*
X41171Y906907D01*
X37008Y906907D02*
X36910Y906909D01*
X36812Y906915D01*
X36714Y906924D01*
X36617Y906938D01*
X36521Y906955D01*
X36425Y906976D01*
X36330Y907001D01*
X36236Y907029D01*
X36143Y907061D01*
X36052Y907097D01*
X35962Y907136D01*
X35874Y907179D01*
X35787Y907226D01*
X35703Y907275D01*
X35620Y907328D01*
X35540Y907384D01*
X35462Y907443D01*
X35386Y907506D01*
X35312Y907571D01*
X35242Y907639D01*
X35174Y907709D01*
X35109Y907783D01*
X35046Y907859D01*
X34987Y907937D01*
X34931Y908017D01*
X34878Y908100D01*
X34829Y908184D01*
X34782Y908271D01*
X34739Y908359D01*
X34700Y908449D01*
X34664Y908540D01*
X34632Y908633D01*
X34604Y908727D01*
X34579Y908822D01*
X34558Y908918D01*
X34541Y909014D01*
X34527Y909111D01*
X34518Y909209D01*
X34512Y909307D01*
X34510Y909405D01*
X34510Y913567D01*
X34511Y913567D02*
X34513Y913681D01*
X34519Y913794D01*
X34528Y913908D01*
X34542Y914020D01*
X34559Y914133D01*
X34581Y914245D01*
X34606Y914355D01*
X34634Y914465D01*
X34667Y914574D01*
X34703Y914682D01*
X34743Y914789D01*
X34787Y914894D01*
X34834Y914997D01*
X34884Y915099D01*
X34938Y915199D01*
X34996Y915297D01*
X35057Y915393D01*
X35120Y915487D01*
X35188Y915579D01*
X35258Y915669D01*
X35331Y915755D01*
X35407Y915840D01*
X35486Y915922D01*
X35568Y916001D01*
X35653Y916077D01*
X35739Y916150D01*
X35829Y916220D01*
X35921Y916288D01*
X36015Y916351D01*
X36111Y916412D01*
X36209Y916470D01*
X36309Y916524D01*
X36411Y916574D01*
X36514Y916621D01*
X36619Y916665D01*
X36726Y916705D01*
X36834Y916741D01*
X36943Y916774D01*
X37053Y916802D01*
X37163Y916827D01*
X37275Y916849D01*
X37388Y916866D01*
X37500Y916880D01*
X37614Y916889D01*
X37727Y916895D01*
X37841Y916897D01*
X37955Y916895D01*
X38068Y916889D01*
X38182Y916880D01*
X38294Y916866D01*
X38407Y916849D01*
X38519Y916827D01*
X38629Y916802D01*
X38739Y916774D01*
X38848Y916741D01*
X38956Y916705D01*
X39063Y916665D01*
X39168Y916621D01*
X39271Y916574D01*
X39373Y916524D01*
X39473Y916470D01*
X39571Y916412D01*
X39667Y916351D01*
X39761Y916288D01*
X39853Y916220D01*
X39943Y916150D01*
X40029Y916077D01*
X40114Y916001D01*
X40196Y915922D01*
X40275Y915840D01*
X40351Y915755D01*
X40424Y915669D01*
X40494Y915579D01*
X40562Y915487D01*
X40625Y915393D01*
X40686Y915297D01*
X40744Y915199D01*
X40798Y915099D01*
X40848Y914997D01*
X40895Y914894D01*
X40939Y914789D01*
X40979Y914682D01*
X41015Y914574D01*
X41048Y914465D01*
X41076Y914355D01*
X41101Y914245D01*
X41123Y914133D01*
X41140Y914020D01*
X41154Y913908D01*
X41163Y913794D01*
X41169Y913681D01*
X41171Y913567D01*
X41171Y911902D01*
X34510Y911902D01*
D11*
X256540Y891540D02*
X256540Y-68580D01*
D12*
X216159Y906907D02*
X212829Y916898D01*
X219490Y916898D02*
X216159Y906907D01*
X226274Y912735D02*
X236265Y912735D01*
X244819Y912735D02*
X248982Y911070D01*
X244819Y912734D02*
X244734Y912770D01*
X244651Y912810D01*
X244570Y912853D01*
X244490Y912900D01*
X244413Y912950D01*
X244337Y913003D01*
X244264Y913059D01*
X244194Y913119D01*
X244126Y913181D01*
X244061Y913246D01*
X243999Y913314D01*
X243939Y913385D01*
X243883Y913458D01*
X243830Y913533D01*
X243780Y913611D01*
X243734Y913690D01*
X243691Y913772D01*
X243651Y913855D01*
X243615Y913940D01*
X243583Y914026D01*
X243554Y914114D01*
X243530Y914203D01*
X243509Y914293D01*
X243492Y914383D01*
X243478Y914474D01*
X243469Y914566D01*
X243464Y914658D01*
X243462Y914750D01*
X243464Y914842D01*
X243471Y914934D01*
X243481Y915026D01*
X243495Y915117D01*
X243513Y915208D01*
X243535Y915297D01*
X243561Y915386D01*
X243591Y915473D01*
X243624Y915559D01*
X243661Y915643D01*
X243701Y915726D01*
X243745Y915807D01*
X243792Y915886D01*
X243843Y915963D01*
X243897Y916038D01*
X243954Y916111D01*
X244014Y916181D01*
X244077Y916248D01*
X244143Y916312D01*
X244211Y916374D01*
X244282Y916433D01*
X244356Y916488D01*
X244432Y916541D01*
X244510Y916590D01*
X244590Y916636D01*
X244671Y916678D01*
X244755Y916717D01*
X244840Y916752D01*
X244927Y916783D01*
X245015Y916811D01*
X245104Y916835D01*
X245194Y916855D01*
X245284Y916872D01*
X245376Y916884D01*
X245468Y916893D01*
X245560Y916897D01*
X245652Y916898D01*
X245879Y916892D01*
X246106Y916881D01*
X246333Y916864D01*
X246559Y916841D01*
X246785Y916814D01*
X247010Y916780D01*
X247234Y916742D01*
X247457Y916698D01*
X247679Y916649D01*
X247900Y916594D01*
X248119Y916534D01*
X248337Y916469D01*
X248553Y916398D01*
X248767Y916323D01*
X248980Y916242D01*
X249190Y916156D01*
X249399Y916065D01*
X248982Y911070D02*
X249067Y911034D01*
X249150Y910994D01*
X249231Y910951D01*
X249311Y910904D01*
X249388Y910854D01*
X249464Y910801D01*
X249537Y910745D01*
X249607Y910685D01*
X249675Y910623D01*
X249740Y910558D01*
X249802Y910490D01*
X249862Y910419D01*
X249918Y910346D01*
X249971Y910271D01*
X250021Y910193D01*
X250067Y910114D01*
X250110Y910032D01*
X250150Y909949D01*
X250186Y909864D01*
X250218Y909778D01*
X250247Y909690D01*
X250271Y909601D01*
X250292Y909511D01*
X250309Y909421D01*
X250323Y909330D01*
X250332Y909238D01*
X250337Y909146D01*
X250339Y909054D01*
X250337Y908962D01*
X250330Y908870D01*
X250320Y908778D01*
X250306Y908687D01*
X250288Y908596D01*
X250266Y908507D01*
X250240Y908418D01*
X250210Y908331D01*
X250177Y908245D01*
X250140Y908161D01*
X250100Y908078D01*
X250056Y907997D01*
X250009Y907918D01*
X249958Y907841D01*
X249904Y907766D01*
X249847Y907693D01*
X249787Y907623D01*
X249724Y907556D01*
X249658Y907492D01*
X249590Y907430D01*
X249519Y907371D01*
X249445Y907316D01*
X249369Y907263D01*
X249291Y907214D01*
X249211Y907168D01*
X249130Y907126D01*
X249046Y907087D01*
X248961Y907052D01*
X248874Y907021D01*
X248786Y906993D01*
X248697Y906969D01*
X248607Y906949D01*
X248517Y906932D01*
X248425Y906920D01*
X248333Y906911D01*
X248241Y906907D01*
X248149Y906906D01*
X248149Y906907D02*
X247815Y906916D01*
X247482Y906933D01*
X247149Y906957D01*
X246816Y906990D01*
X246485Y907030D01*
X246154Y907078D01*
X245825Y907134D01*
X245497Y907197D01*
X245171Y907269D01*
X244847Y907348D01*
X244524Y907434D01*
X244204Y907529D01*
X243886Y907631D01*
X243570Y907740D01*
X259642Y906907D02*
X262972Y906907D01*
X259642Y906907D02*
X259544Y906909D01*
X259446Y906915D01*
X259348Y906924D01*
X259251Y906938D01*
X259155Y906955D01*
X259059Y906976D01*
X258964Y907001D01*
X258870Y907029D01*
X258777Y907061D01*
X258686Y907097D01*
X258596Y907136D01*
X258508Y907179D01*
X258421Y907226D01*
X258337Y907275D01*
X258254Y907328D01*
X258174Y907384D01*
X258096Y907443D01*
X258020Y907506D01*
X257946Y907571D01*
X257876Y907639D01*
X257808Y907709D01*
X257743Y907783D01*
X257680Y907859D01*
X257621Y907937D01*
X257565Y908017D01*
X257512Y908100D01*
X257463Y908184D01*
X257416Y908271D01*
X257373Y908359D01*
X257334Y908449D01*
X257298Y908540D01*
X257266Y908633D01*
X257238Y908727D01*
X257213Y908822D01*
X257192Y908918D01*
X257175Y909014D01*
X257161Y909111D01*
X257152Y909209D01*
X257146Y909307D01*
X257144Y909405D01*
X257144Y914400D01*
X257146Y914498D01*
X257152Y914596D01*
X257161Y914694D01*
X257175Y914791D01*
X257192Y914887D01*
X257213Y914983D01*
X257238Y915078D01*
X257266Y915172D01*
X257298Y915265D01*
X257334Y915356D01*
X257373Y915446D01*
X257416Y915534D01*
X257463Y915621D01*
X257512Y915705D01*
X257565Y915788D01*
X257621Y915868D01*
X257680Y915947D01*
X257743Y916022D01*
X257808Y916096D01*
X257876Y916166D01*
X257946Y916234D01*
X258020Y916300D01*
X258096Y916362D01*
X258174Y916421D01*
X258254Y916477D01*
X258337Y916530D01*
X258421Y916580D01*
X258508Y916626D01*
X258596Y916669D01*
X258686Y916708D01*
X258777Y916744D01*
X258870Y916776D01*
X258964Y916804D01*
X259059Y916829D01*
X259155Y916850D01*
X259251Y916867D01*
X259348Y916881D01*
X259446Y916890D01*
X259544Y916896D01*
X259642Y916898D01*
X262972Y916898D01*
X269102Y913567D02*
X269102Y910237D01*
X269102Y913567D02*
X269104Y913681D01*
X269110Y913794D01*
X269119Y913908D01*
X269133Y914020D01*
X269150Y914133D01*
X269172Y914245D01*
X269197Y914355D01*
X269225Y914465D01*
X269258Y914574D01*
X269294Y914682D01*
X269334Y914789D01*
X269378Y914894D01*
X269425Y914997D01*
X269475Y915099D01*
X269529Y915199D01*
X269587Y915297D01*
X269648Y915393D01*
X269711Y915487D01*
X269779Y915579D01*
X269849Y915669D01*
X269922Y915755D01*
X269998Y915840D01*
X270077Y915922D01*
X270159Y916001D01*
X270244Y916077D01*
X270330Y916150D01*
X270420Y916220D01*
X270512Y916288D01*
X270606Y916351D01*
X270702Y916412D01*
X270800Y916470D01*
X270900Y916524D01*
X271002Y916574D01*
X271105Y916621D01*
X271210Y916665D01*
X271317Y916705D01*
X271425Y916741D01*
X271534Y916774D01*
X271644Y916802D01*
X271754Y916827D01*
X271866Y916849D01*
X271979Y916866D01*
X272091Y916880D01*
X272205Y916889D01*
X272318Y916895D01*
X272432Y916897D01*
X272546Y916895D01*
X272659Y916889D01*
X272773Y916880D01*
X272885Y916866D01*
X272998Y916849D01*
X273110Y916827D01*
X273220Y916802D01*
X273330Y916774D01*
X273439Y916741D01*
X273547Y916705D01*
X273654Y916665D01*
X273759Y916621D01*
X273862Y916574D01*
X273964Y916524D01*
X274064Y916470D01*
X274162Y916412D01*
X274258Y916351D01*
X274352Y916288D01*
X274444Y916220D01*
X274534Y916150D01*
X274620Y916077D01*
X274705Y916001D01*
X274787Y915922D01*
X274866Y915840D01*
X274942Y915755D01*
X275015Y915669D01*
X275085Y915579D01*
X275153Y915487D01*
X275216Y915393D01*
X275277Y915297D01*
X275335Y915199D01*
X275389Y915099D01*
X275439Y914997D01*
X275486Y914894D01*
X275530Y914789D01*
X275570Y914682D01*
X275606Y914574D01*
X275639Y914465D01*
X275667Y914355D01*
X275692Y914245D01*
X275714Y914133D01*
X275731Y914020D01*
X275745Y913908D01*
X275754Y913794D01*
X275760Y913681D01*
X275762Y913567D01*
X275762Y910237D01*
X275760Y910123D01*
X275754Y910010D01*
X275745Y909896D01*
X275731Y909784D01*
X275714Y909671D01*
X275692Y909559D01*
X275667Y909449D01*
X275639Y909339D01*
X275606Y909230D01*
X275570Y909122D01*
X275530Y909015D01*
X275486Y908910D01*
X275439Y908807D01*
X275389Y908705D01*
X275335Y908605D01*
X275277Y908507D01*
X275216Y908411D01*
X275153Y908317D01*
X275085Y908225D01*
X275015Y908135D01*
X274942Y908049D01*
X274866Y907964D01*
X274787Y907882D01*
X274705Y907803D01*
X274620Y907727D01*
X274534Y907654D01*
X274444Y907584D01*
X274352Y907516D01*
X274258Y907453D01*
X274162Y907392D01*
X274064Y907334D01*
X273964Y907280D01*
X273862Y907230D01*
X273759Y907183D01*
X273654Y907139D01*
X273547Y907099D01*
X273439Y907063D01*
X273330Y907030D01*
X273220Y907002D01*
X273110Y906977D01*
X272998Y906955D01*
X272885Y906938D01*
X272773Y906924D01*
X272659Y906915D01*
X272546Y906909D01*
X272432Y906907D01*
X272318Y906909D01*
X272205Y906915D01*
X272091Y906924D01*
X271979Y906938D01*
X271866Y906955D01*
X271754Y906977D01*
X271644Y907002D01*
X271534Y907030D01*
X271425Y907063D01*
X271317Y907099D01*
X271210Y907139D01*
X271105Y907183D01*
X271002Y907230D01*
X270900Y907280D01*
X270800Y907334D01*
X270702Y907392D01*
X270606Y907453D01*
X270512Y907516D01*
X270420Y907584D01*
X270330Y907654D01*
X270244Y907727D01*
X270159Y907803D01*
X270077Y907882D01*
X269998Y907964D01*
X269922Y908049D01*
X269849Y908135D01*
X269779Y908225D01*
X269711Y908317D01*
X269648Y908411D01*
X269587Y908507D01*
X269529Y908605D01*
X269475Y908705D01*
X269425Y908807D01*
X269378Y908910D01*
X269334Y909015D01*
X269294Y909122D01*
X269258Y909230D01*
X269225Y909339D01*
X269197Y909449D01*
X269172Y909559D01*
X269150Y909671D01*
X269133Y909784D01*
X269119Y909896D01*
X269110Y910010D01*
X269104Y910123D01*
X269102Y910237D01*
X283298Y906907D02*
X283298Y916898D01*
X288293Y916898D01*
X288293Y915233D01*
X296088Y906907D02*
X300251Y906907D01*
X296088Y906907D02*
X295990Y906909D01*
X295892Y906915D01*
X295794Y906924D01*
X295697Y906938D01*
X295601Y906955D01*
X295505Y906976D01*
X295410Y907001D01*
X295316Y907029D01*
X295223Y907061D01*
X295132Y907097D01*
X295042Y907136D01*
X294954Y907179D01*
X294867Y907226D01*
X294783Y907275D01*
X294700Y907328D01*
X294620Y907384D01*
X294542Y907443D01*
X294466Y907506D01*
X294392Y907571D01*
X294322Y907639D01*
X294254Y907709D01*
X294189Y907783D01*
X294126Y907859D01*
X294067Y907937D01*
X294011Y908017D01*
X293958Y908100D01*
X293909Y908184D01*
X293862Y908271D01*
X293819Y908359D01*
X293780Y908449D01*
X293744Y908540D01*
X293712Y908633D01*
X293684Y908727D01*
X293659Y908822D01*
X293638Y908918D01*
X293621Y909014D01*
X293607Y909111D01*
X293598Y909209D01*
X293592Y909307D01*
X293590Y909405D01*
X293590Y913567D01*
X293591Y913567D02*
X293593Y913681D01*
X293599Y913794D01*
X293608Y913908D01*
X293622Y914020D01*
X293639Y914133D01*
X293661Y914245D01*
X293686Y914355D01*
X293714Y914465D01*
X293747Y914574D01*
X293783Y914682D01*
X293823Y914789D01*
X293867Y914894D01*
X293914Y914997D01*
X293964Y915099D01*
X294018Y915199D01*
X294076Y915297D01*
X294137Y915393D01*
X294200Y915487D01*
X294268Y915579D01*
X294338Y915669D01*
X294411Y915755D01*
X294487Y915840D01*
X294566Y915922D01*
X294648Y916001D01*
X294733Y916077D01*
X294819Y916150D01*
X294909Y916220D01*
X295001Y916288D01*
X295095Y916351D01*
X295191Y916412D01*
X295289Y916470D01*
X295389Y916524D01*
X295491Y916574D01*
X295594Y916621D01*
X295699Y916665D01*
X295806Y916705D01*
X295914Y916741D01*
X296023Y916774D01*
X296133Y916802D01*
X296243Y916827D01*
X296355Y916849D01*
X296468Y916866D01*
X296580Y916880D01*
X296694Y916889D01*
X296807Y916895D01*
X296921Y916897D01*
X297035Y916895D01*
X297148Y916889D01*
X297262Y916880D01*
X297374Y916866D01*
X297487Y916849D01*
X297599Y916827D01*
X297709Y916802D01*
X297819Y916774D01*
X297928Y916741D01*
X298036Y916705D01*
X298143Y916665D01*
X298248Y916621D01*
X298351Y916574D01*
X298453Y916524D01*
X298553Y916470D01*
X298651Y916412D01*
X298747Y916351D01*
X298841Y916288D01*
X298933Y916220D01*
X299023Y916150D01*
X299109Y916077D01*
X299194Y916001D01*
X299276Y915922D01*
X299355Y915840D01*
X299431Y915755D01*
X299504Y915669D01*
X299574Y915579D01*
X299642Y915487D01*
X299705Y915393D01*
X299766Y915297D01*
X299824Y915199D01*
X299878Y915099D01*
X299928Y914997D01*
X299975Y914894D01*
X300019Y914789D01*
X300059Y914682D01*
X300095Y914574D01*
X300128Y914465D01*
X300156Y914355D01*
X300181Y914245D01*
X300203Y914133D01*
X300220Y914020D01*
X300234Y913908D01*
X300243Y913794D01*
X300249Y913681D01*
X300251Y913567D01*
X300251Y911902D01*
X293590Y911902D01*
D11*
X515620Y891540D02*
X515620Y-68580D01*
D12*
X475239Y906907D02*
X471909Y916898D01*
X478570Y916898D02*
X475239Y906907D01*
X485354Y912735D02*
X495345Y912735D01*
X503899Y912735D02*
X508062Y911070D01*
X503899Y912734D02*
X503814Y912770D01*
X503731Y912810D01*
X503650Y912853D01*
X503570Y912900D01*
X503493Y912950D01*
X503417Y913003D01*
X503344Y913059D01*
X503274Y913119D01*
X503206Y913181D01*
X503141Y913246D01*
X503079Y913314D01*
X503019Y913385D01*
X502963Y913458D01*
X502910Y913533D01*
X502860Y913611D01*
X502814Y913690D01*
X502771Y913772D01*
X502731Y913855D01*
X502695Y913940D01*
X502663Y914026D01*
X502634Y914114D01*
X502610Y914203D01*
X502589Y914293D01*
X502572Y914383D01*
X502558Y914474D01*
X502549Y914566D01*
X502544Y914658D01*
X502542Y914750D01*
X502544Y914842D01*
X502551Y914934D01*
X502561Y915026D01*
X502575Y915117D01*
X502593Y915208D01*
X502615Y915297D01*
X502641Y915386D01*
X502671Y915473D01*
X502704Y915559D01*
X502741Y915643D01*
X502781Y915726D01*
X502825Y915807D01*
X502872Y915886D01*
X502923Y915963D01*
X502977Y916038D01*
X503034Y916111D01*
X503094Y916181D01*
X503157Y916248D01*
X503223Y916312D01*
X503291Y916374D01*
X503362Y916433D01*
X503436Y916488D01*
X503512Y916541D01*
X503590Y916590D01*
X503670Y916636D01*
X503751Y916678D01*
X503835Y916717D01*
X503920Y916752D01*
X504007Y916783D01*
X504095Y916811D01*
X504184Y916835D01*
X504274Y916855D01*
X504364Y916872D01*
X504456Y916884D01*
X504548Y916893D01*
X504640Y916897D01*
X504732Y916898D01*
X504959Y916892D01*
X505186Y916881D01*
X505413Y916864D01*
X505639Y916841D01*
X505865Y916814D01*
X506090Y916780D01*
X506314Y916742D01*
X506537Y916698D01*
X506759Y916649D01*
X506980Y916594D01*
X507199Y916534D01*
X507417Y916469D01*
X507633Y916398D01*
X507847Y916323D01*
X508060Y916242D01*
X508270Y916156D01*
X508479Y916065D01*
X508062Y911070D02*
X508147Y911034D01*
X508230Y910994D01*
X508311Y910951D01*
X508391Y910904D01*
X508468Y910854D01*
X508544Y910801D01*
X508617Y910745D01*
X508687Y910685D01*
X508755Y910623D01*
X508820Y910558D01*
X508882Y910490D01*
X508942Y910419D01*
X508998Y910346D01*
X509051Y910271D01*
X509101Y910193D01*
X509147Y910114D01*
X509190Y910032D01*
X509230Y909949D01*
X509266Y909864D01*
X509298Y909778D01*
X509327Y909690D01*
X509351Y909601D01*
X509372Y909511D01*
X509389Y909421D01*
X509403Y909330D01*
X509412Y909238D01*
X509417Y909146D01*
X509419Y909054D01*
X509417Y908962D01*
X509410Y908870D01*
X509400Y908778D01*
X509386Y908687D01*
X509368Y908596D01*
X509346Y908507D01*
X509320Y908418D01*
X509290Y908331D01*
X509257Y908245D01*
X509220Y908161D01*
X509180Y908078D01*
X509136Y907997D01*
X509089Y907918D01*
X509038Y907841D01*
X508984Y907766D01*
X508927Y907693D01*
X508867Y907623D01*
X508804Y907556D01*
X508738Y907492D01*
X508670Y907430D01*
X508599Y907371D01*
X508525Y907316D01*
X508449Y907263D01*
X508371Y907214D01*
X508291Y907168D01*
X508210Y907126D01*
X508126Y907087D01*
X508041Y907052D01*
X507954Y907021D01*
X507866Y906993D01*
X507777Y906969D01*
X507687Y906949D01*
X507597Y906932D01*
X507505Y906920D01*
X507413Y906911D01*
X507321Y906907D01*
X507229Y906906D01*
X507229Y906907D02*
X506895Y906916D01*
X506562Y906933D01*
X506229Y906957D01*
X505896Y906990D01*
X505565Y907030D01*
X505234Y907078D01*
X504905Y907134D01*
X504577Y907197D01*
X504251Y907269D01*
X503927Y907348D01*
X503604Y907434D01*
X503284Y907529D01*
X502966Y907631D01*
X502650Y907740D01*
X518722Y906907D02*
X522052Y906907D01*
X518722Y906907D02*
X518624Y906909D01*
X518526Y906915D01*
X518428Y906924D01*
X518331Y906938D01*
X518235Y906955D01*
X518139Y906976D01*
X518044Y907001D01*
X517950Y907029D01*
X517857Y907061D01*
X517766Y907097D01*
X517676Y907136D01*
X517588Y907179D01*
X517501Y907226D01*
X517417Y907275D01*
X517334Y907328D01*
X517254Y907384D01*
X517176Y907443D01*
X517100Y907506D01*
X517026Y907571D01*
X516956Y907639D01*
X516888Y907709D01*
X516823Y907783D01*
X516760Y907859D01*
X516701Y907937D01*
X516645Y908017D01*
X516592Y908100D01*
X516543Y908184D01*
X516496Y908271D01*
X516453Y908359D01*
X516414Y908449D01*
X516378Y908540D01*
X516346Y908633D01*
X516318Y908727D01*
X516293Y908822D01*
X516272Y908918D01*
X516255Y909014D01*
X516241Y909111D01*
X516232Y909209D01*
X516226Y909307D01*
X516224Y909405D01*
X516224Y914400D01*
X516226Y914498D01*
X516232Y914596D01*
X516241Y914694D01*
X516255Y914791D01*
X516272Y914887D01*
X516293Y914983D01*
X516318Y915078D01*
X516346Y915172D01*
X516378Y915265D01*
X516414Y915356D01*
X516453Y915446D01*
X516496Y915534D01*
X516543Y915621D01*
X516592Y915705D01*
X516645Y915788D01*
X516701Y915868D01*
X516760Y915947D01*
X516823Y916022D01*
X516888Y916096D01*
X516956Y916166D01*
X517026Y916234D01*
X517100Y916300D01*
X517176Y916362D01*
X517254Y916421D01*
X517334Y916477D01*
X517417Y916530D01*
X517501Y916580D01*
X517588Y916626D01*
X517676Y916669D01*
X517766Y916708D01*
X517857Y916744D01*
X517950Y916776D01*
X518044Y916804D01*
X518139Y916829D01*
X518235Y916850D01*
X518331Y916867D01*
X518428Y916881D01*
X518526Y916890D01*
X518624Y916896D01*
X518722Y916898D01*
X522052Y916898D01*
X528182Y913567D02*
X528182Y910237D01*
X528182Y913567D02*
X528184Y913681D01*
X528190Y913794D01*
X528199Y913908D01*
X528213Y914020D01*
X528230Y914133D01*
X528252Y914245D01*
X528277Y914355D01*
X528305Y914465D01*
X528338Y914574D01*
X528374Y914682D01*
X528414Y914789D01*
X528458Y914894D01*
X528505Y914997D01*
X528555Y915099D01*
X528609Y915199D01*
X528667Y915297D01*
X528728Y915393D01*
X528791Y915487D01*
X528859Y915579D01*
X528929Y915669D01*
X529002Y915755D01*
X529078Y915840D01*
X529157Y915922D01*
X529239Y916001D01*
X529324Y916077D01*
X529410Y916150D01*
X529500Y916220D01*
X529592Y916288D01*
X529686Y916351D01*
X529782Y916412D01*
X529880Y916470D01*
X529980Y916524D01*
X530082Y916574D01*
X530185Y916621D01*
X530290Y916665D01*
X530397Y916705D01*
X530505Y916741D01*
X530614Y916774D01*
X530724Y916802D01*
X530834Y916827D01*
X530946Y916849D01*
X531059Y916866D01*
X531171Y916880D01*
X531285Y916889D01*
X531398Y916895D01*
X531512Y916897D01*
X531626Y916895D01*
X531739Y916889D01*
X531853Y916880D01*
X531965Y916866D01*
X532078Y916849D01*
X532190Y916827D01*
X532300Y916802D01*
X532410Y916774D01*
X532519Y916741D01*
X532627Y916705D01*
X532734Y916665D01*
X532839Y916621D01*
X532942Y916574D01*
X533044Y916524D01*
X533144Y916470D01*
X533242Y916412D01*
X533338Y916351D01*
X533432Y916288D01*
X533524Y916220D01*
X533614Y916150D01*
X533700Y916077D01*
X533785Y916001D01*
X533867Y915922D01*
X533946Y915840D01*
X534022Y915755D01*
X534095Y915669D01*
X534165Y915579D01*
X534233Y915487D01*
X534296Y915393D01*
X534357Y915297D01*
X534415Y915199D01*
X534469Y915099D01*
X534519Y914997D01*
X534566Y914894D01*
X534610Y914789D01*
X534650Y914682D01*
X534686Y914574D01*
X534719Y914465D01*
X534747Y914355D01*
X534772Y914245D01*
X534794Y914133D01*
X534811Y914020D01*
X534825Y913908D01*
X534834Y913794D01*
X534840Y913681D01*
X534842Y913567D01*
X534842Y910237D01*
X534840Y910123D01*
X534834Y910010D01*
X534825Y909896D01*
X534811Y909784D01*
X534794Y909671D01*
X534772Y909559D01*
X534747Y909449D01*
X534719Y909339D01*
X534686Y909230D01*
X534650Y909122D01*
X534610Y909015D01*
X534566Y908910D01*
X534519Y908807D01*
X534469Y908705D01*
X534415Y908605D01*
X534357Y908507D01*
X534296Y908411D01*
X534233Y908317D01*
X534165Y908225D01*
X534095Y908135D01*
X534022Y908049D01*
X533946Y907964D01*
X533867Y907882D01*
X533785Y907803D01*
X533700Y907727D01*
X533614Y907654D01*
X533524Y907584D01*
X533432Y907516D01*
X533338Y907453D01*
X533242Y907392D01*
X533144Y907334D01*
X533044Y907280D01*
X532942Y907230D01*
X532839Y907183D01*
X532734Y907139D01*
X532627Y907099D01*
X532519Y907063D01*
X532410Y907030D01*
X532300Y907002D01*
X532190Y906977D01*
X532078Y906955D01*
X531965Y906938D01*
X531853Y906924D01*
X531739Y906915D01*
X531626Y906909D01*
X531512Y906907D01*
X531398Y906909D01*
X531285Y906915D01*
X531171Y906924D01*
X531059Y906938D01*
X530946Y906955D01*
X530834Y906977D01*
X530724Y907002D01*
X530614Y907030D01*
X530505Y907063D01*
X530397Y907099D01*
X530290Y907139D01*
X530185Y907183D01*
X530082Y907230D01*
X529980Y907280D01*
X529880Y907334D01*
X529782Y907392D01*
X529686Y907453D01*
X529592Y907516D01*
X529500Y907584D01*
X529410Y907654D01*
X529324Y907727D01*
X529239Y907803D01*
X529157Y907882D01*
X529078Y907964D01*
X529002Y908049D01*
X528929Y908135D01*
X528859Y908225D01*
X528791Y908317D01*
X528728Y908411D01*
X528667Y908507D01*
X528609Y908605D01*
X528555Y908705D01*
X528505Y908807D01*
X528458Y908910D01*
X528414Y909015D01*
X528374Y909122D01*
X528338Y909230D01*
X528305Y909339D01*
X528277Y909449D01*
X528252Y909559D01*
X528230Y909671D01*
X528213Y909784D01*
X528199Y909896D01*
X528190Y910010D01*
X528184Y910123D01*
X528182Y910237D01*
X542378Y906907D02*
X542378Y916898D01*
X547373Y916898D01*
X547373Y915233D01*
X555168Y906907D02*
X559331Y906907D01*
X555168Y906907D02*
X555070Y906909D01*
X554972Y906915D01*
X554874Y906924D01*
X554777Y906938D01*
X554681Y906955D01*
X554585Y906976D01*
X554490Y907001D01*
X554396Y907029D01*
X554303Y907061D01*
X554212Y907097D01*
X554122Y907136D01*
X554034Y907179D01*
X553947Y907226D01*
X553863Y907275D01*
X553780Y907328D01*
X553700Y907384D01*
X553622Y907443D01*
X553546Y907506D01*
X553472Y907571D01*
X553402Y907639D01*
X553334Y907709D01*
X553269Y907783D01*
X553206Y907859D01*
X553147Y907937D01*
X553091Y908017D01*
X553038Y908100D01*
X552989Y908184D01*
X552942Y908271D01*
X552899Y908359D01*
X552860Y908449D01*
X552824Y908540D01*
X552792Y908633D01*
X552764Y908727D01*
X552739Y908822D01*
X552718Y908918D01*
X552701Y909014D01*
X552687Y909111D01*
X552678Y909209D01*
X552672Y909307D01*
X552670Y909405D01*
X552670Y913567D01*
X552671Y913567D02*
X552673Y913681D01*
X552679Y913794D01*
X552688Y913908D01*
X552702Y914020D01*
X552719Y914133D01*
X552741Y914245D01*
X552766Y914355D01*
X552794Y914465D01*
X552827Y914574D01*
X552863Y914682D01*
X552903Y914789D01*
X552947Y914894D01*
X552994Y914997D01*
X553044Y915099D01*
X553098Y915199D01*
X553156Y915297D01*
X553217Y915393D01*
X553280Y915487D01*
X553348Y915579D01*
X553418Y915669D01*
X553491Y915755D01*
X553567Y915840D01*
X553646Y915922D01*
X553728Y916001D01*
X553813Y916077D01*
X553899Y916150D01*
X553989Y916220D01*
X554081Y916288D01*
X554175Y916351D01*
X554271Y916412D01*
X554369Y916470D01*
X554469Y916524D01*
X554571Y916574D01*
X554674Y916621D01*
X554779Y916665D01*
X554886Y916705D01*
X554994Y916741D01*
X555103Y916774D01*
X555213Y916802D01*
X555323Y916827D01*
X555435Y916849D01*
X555548Y916866D01*
X555660Y916880D01*
X555774Y916889D01*
X555887Y916895D01*
X556001Y916897D01*
X556115Y916895D01*
X556228Y916889D01*
X556342Y916880D01*
X556454Y916866D01*
X556567Y916849D01*
X556679Y916827D01*
X556789Y916802D01*
X556899Y916774D01*
X557008Y916741D01*
X557116Y916705D01*
X557223Y916665D01*
X557328Y916621D01*
X557431Y916574D01*
X557533Y916524D01*
X557633Y916470D01*
X557731Y916412D01*
X557827Y916351D01*
X557921Y916288D01*
X558013Y916220D01*
X558103Y916150D01*
X558189Y916077D01*
X558274Y916001D01*
X558356Y915922D01*
X558435Y915840D01*
X558511Y915755D01*
X558584Y915669D01*
X558654Y915579D01*
X558722Y915487D01*
X558785Y915393D01*
X558846Y915297D01*
X558904Y915199D01*
X558958Y915099D01*
X559008Y914997D01*
X559055Y914894D01*
X559099Y914789D01*
X559139Y914682D01*
X559175Y914574D01*
X559208Y914465D01*
X559236Y914355D01*
X559261Y914245D01*
X559283Y914133D01*
X559300Y914020D01*
X559314Y913908D01*
X559323Y913794D01*
X559329Y913681D01*
X559331Y913567D01*
X559331Y911902D01*
X552670Y911902D01*
D11*
X774700Y891540D02*
X774700Y-68580D01*
D12*
X734319Y906907D02*
X730989Y916898D01*
X737650Y916898D02*
X734319Y906907D01*
X744434Y912735D02*
X754425Y912735D01*
X762979Y912735D02*
X767142Y911070D01*
X762979Y912734D02*
X762894Y912770D01*
X762811Y912810D01*
X762730Y912853D01*
X762650Y912900D01*
X762573Y912950D01*
X762497Y913003D01*
X762424Y913059D01*
X762354Y913119D01*
X762286Y913181D01*
X762221Y913246D01*
X762159Y913314D01*
X762099Y913385D01*
X762043Y913458D01*
X761990Y913533D01*
X761940Y913611D01*
X761894Y913690D01*
X761851Y913772D01*
X761811Y913855D01*
X761775Y913940D01*
X761743Y914026D01*
X761714Y914114D01*
X761690Y914203D01*
X761669Y914293D01*
X761652Y914383D01*
X761638Y914474D01*
X761629Y914566D01*
X761624Y914658D01*
X761622Y914750D01*
X761624Y914842D01*
X761631Y914934D01*
X761641Y915026D01*
X761655Y915117D01*
X761673Y915208D01*
X761695Y915297D01*
X761721Y915386D01*
X761751Y915473D01*
X761784Y915559D01*
X761821Y915643D01*
X761861Y915726D01*
X761905Y915807D01*
X761952Y915886D01*
X762003Y915963D01*
X762057Y916038D01*
X762114Y916111D01*
X762174Y916181D01*
X762237Y916248D01*
X762303Y916312D01*
X762371Y916374D01*
X762442Y916433D01*
X762516Y916488D01*
X762592Y916541D01*
X762670Y916590D01*
X762750Y916636D01*
X762831Y916678D01*
X762915Y916717D01*
X763000Y916752D01*
X763087Y916783D01*
X763175Y916811D01*
X763264Y916835D01*
X763354Y916855D01*
X763444Y916872D01*
X763536Y916884D01*
X763628Y916893D01*
X763720Y916897D01*
X763812Y916898D01*
X764039Y916892D01*
X764266Y916881D01*
X764493Y916864D01*
X764719Y916841D01*
X764945Y916814D01*
X765170Y916780D01*
X765394Y916742D01*
X765617Y916698D01*
X765839Y916649D01*
X766060Y916594D01*
X766279Y916534D01*
X766497Y916469D01*
X766713Y916398D01*
X766927Y916323D01*
X767140Y916242D01*
X767350Y916156D01*
X767559Y916065D01*
X767142Y911070D02*
X767227Y911034D01*
X767310Y910994D01*
X767391Y910951D01*
X767471Y910904D01*
X767548Y910854D01*
X767624Y910801D01*
X767697Y910745D01*
X767767Y910685D01*
X767835Y910623D01*
X767900Y910558D01*
X767962Y910490D01*
X768022Y910419D01*
X768078Y910346D01*
X768131Y910271D01*
X768181Y910193D01*
X768227Y910114D01*
X768270Y910032D01*
X768310Y909949D01*
X768346Y909864D01*
X768378Y909778D01*
X768407Y909690D01*
X768431Y909601D01*
X768452Y909511D01*
X768469Y909421D01*
X768483Y909330D01*
X768492Y909238D01*
X768497Y909146D01*
X768499Y909054D01*
X768497Y908962D01*
X768490Y908870D01*
X768480Y908778D01*
X768466Y908687D01*
X768448Y908596D01*
X768426Y908507D01*
X768400Y908418D01*
X768370Y908331D01*
X768337Y908245D01*
X768300Y908161D01*
X768260Y908078D01*
X768216Y907997D01*
X768169Y907918D01*
X768118Y907841D01*
X768064Y907766D01*
X768007Y907693D01*
X767947Y907623D01*
X767884Y907556D01*
X767818Y907492D01*
X767750Y907430D01*
X767679Y907371D01*
X767605Y907316D01*
X767529Y907263D01*
X767451Y907214D01*
X767371Y907168D01*
X767290Y907126D01*
X767206Y907087D01*
X767121Y907052D01*
X767034Y907021D01*
X766946Y906993D01*
X766857Y906969D01*
X766767Y906949D01*
X766677Y906932D01*
X766585Y906920D01*
X766493Y906911D01*
X766401Y906907D01*
X766309Y906906D01*
X766309Y906907D02*
X765975Y906916D01*
X765642Y906933D01*
X765309Y906957D01*
X764976Y906990D01*
X764645Y907030D01*
X764314Y907078D01*
X763985Y907134D01*
X763657Y907197D01*
X763331Y907269D01*
X763007Y907348D01*
X762684Y907434D01*
X762364Y907529D01*
X762046Y907631D01*
X761730Y907740D01*
X777802Y906907D02*
X781132Y906907D01*
X777802Y906907D02*
X777704Y906909D01*
X777606Y906915D01*
X777508Y906924D01*
X777411Y906938D01*
X777315Y906955D01*
X777219Y906976D01*
X777124Y907001D01*
X777030Y907029D01*
X776937Y907061D01*
X776846Y907097D01*
X776756Y907136D01*
X776668Y907179D01*
X776581Y907226D01*
X776497Y907275D01*
X776414Y907328D01*
X776334Y907384D01*
X776256Y907443D01*
X776180Y907506D01*
X776106Y907571D01*
X776036Y907639D01*
X775968Y907709D01*
X775903Y907783D01*
X775840Y907859D01*
X775781Y907937D01*
X775725Y908017D01*
X775672Y908100D01*
X775623Y908184D01*
X775576Y908271D01*
X775533Y908359D01*
X775494Y908449D01*
X775458Y908540D01*
X775426Y908633D01*
X775398Y908727D01*
X775373Y908822D01*
X775352Y908918D01*
X775335Y909014D01*
X775321Y909111D01*
X775312Y909209D01*
X775306Y909307D01*
X775304Y909405D01*
X775304Y914400D01*
X775306Y914498D01*
X775312Y914596D01*
X775321Y914694D01*
X775335Y914791D01*
X775352Y914887D01*
X775373Y914983D01*
X775398Y915078D01*
X775426Y915172D01*
X775458Y915265D01*
X775494Y915356D01*
X775533Y915446D01*
X775576Y915534D01*
X775623Y915621D01*
X775672Y915705D01*
X775725Y915788D01*
X775781Y915868D01*
X775840Y915947D01*
X775903Y916022D01*
X775968Y916096D01*
X776036Y916166D01*
X776106Y916234D01*
X776180Y916300D01*
X776256Y916362D01*
X776334Y916421D01*
X776414Y916477D01*
X776497Y916530D01*
X776581Y916580D01*
X776668Y916626D01*
X776756Y916669D01*
X776846Y916708D01*
X776937Y916744D01*
X777030Y916776D01*
X777124Y916804D01*
X777219Y916829D01*
X777315Y916850D01*
X777411Y916867D01*
X777508Y916881D01*
X777606Y916890D01*
X777704Y916896D01*
X777802Y916898D01*
X781132Y916898D01*
X787262Y913567D02*
X787262Y910237D01*
X787262Y913567D02*
X787264Y913681D01*
X787270Y913794D01*
X787279Y913908D01*
X787293Y914020D01*
X787310Y914133D01*
X787332Y914245D01*
X787357Y914355D01*
X787385Y914465D01*
X787418Y914574D01*
X787454Y914682D01*
X787494Y914789D01*
X787538Y914894D01*
X787585Y914997D01*
X787635Y915099D01*
X787689Y915199D01*
X787747Y915297D01*
X787808Y915393D01*
X787871Y915487D01*
X787939Y915579D01*
X788009Y915669D01*
X788082Y915755D01*
X788158Y915840D01*
X788237Y915922D01*
X788319Y916001D01*
X788404Y916077D01*
X788490Y916150D01*
X788580Y916220D01*
X788672Y916288D01*
X788766Y916351D01*
X788862Y916412D01*
X788960Y916470D01*
X789060Y916524D01*
X789162Y916574D01*
X789265Y916621D01*
X789370Y916665D01*
X789477Y916705D01*
X789585Y916741D01*
X789694Y916774D01*
X789804Y916802D01*
X789914Y916827D01*
X790026Y916849D01*
X790139Y916866D01*
X790251Y916880D01*
X790365Y916889D01*
X790478Y916895D01*
X790592Y916897D01*
X790706Y916895D01*
X790819Y916889D01*
X790933Y916880D01*
X791045Y916866D01*
X791158Y916849D01*
X791270Y916827D01*
X791380Y916802D01*
X791490Y916774D01*
X791599Y916741D01*
X791707Y916705D01*
X791814Y916665D01*
X791919Y916621D01*
X792022Y916574D01*
X792124Y916524D01*
X792224Y916470D01*
X792322Y916412D01*
X792418Y916351D01*
X792512Y916288D01*
X792604Y916220D01*
X792694Y916150D01*
X792780Y916077D01*
X792865Y916001D01*
X792947Y915922D01*
X793026Y915840D01*
X793102Y915755D01*
X793175Y915669D01*
X793245Y915579D01*
X793313Y915487D01*
X793376Y915393D01*
X793437Y915297D01*
X793495Y915199D01*
X793549Y915099D01*
X793599Y914997D01*
X793646Y914894D01*
X793690Y914789D01*
X793730Y914682D01*
X793766Y914574D01*
X793799Y914465D01*
X793827Y914355D01*
X793852Y914245D01*
X793874Y914133D01*
X793891Y914020D01*
X793905Y913908D01*
X793914Y913794D01*
X793920Y913681D01*
X793922Y913567D01*
X793922Y910237D01*
X793920Y910123D01*
X793914Y910010D01*
X793905Y909896D01*
X793891Y909784D01*
X793874Y909671D01*
X793852Y909559D01*
X793827Y909449D01*
X793799Y909339D01*
X793766Y909230D01*
X793730Y909122D01*
X793690Y909015D01*
X793646Y908910D01*
X793599Y908807D01*
X793549Y908705D01*
X793495Y908605D01*
X793437Y908507D01*
X793376Y908411D01*
X793313Y908317D01*
X793245Y908225D01*
X793175Y908135D01*
X793102Y908049D01*
X793026Y907964D01*
X792947Y907882D01*
X792865Y907803D01*
X792780Y907727D01*
X792694Y907654D01*
X792604Y907584D01*
X792512Y907516D01*
X792418Y907453D01*
X792322Y907392D01*
X792224Y907334D01*
X792124Y907280D01*
X792022Y907230D01*
X791919Y907183D01*
X791814Y907139D01*
X791707Y907099D01*
X791599Y907063D01*
X791490Y907030D01*
X791380Y907002D01*
X791270Y906977D01*
X791158Y906955D01*
X791045Y906938D01*
X790933Y906924D01*
X790819Y906915D01*
X790706Y906909D01*
X790592Y906907D01*
X790478Y906909D01*
X790365Y906915D01*
X790251Y906924D01*
X790139Y906938D01*
X790026Y906955D01*
X789914Y906977D01*
X789804Y907002D01*
X789694Y907030D01*
X789585Y907063D01*
X789477Y907099D01*
X789370Y907139D01*
X789265Y907183D01*
X789162Y907230D01*
X789060Y907280D01*
X788960Y907334D01*
X788862Y907392D01*
X788766Y907453D01*
X788672Y907516D01*
X788580Y907584D01*
X788490Y907654D01*
X788404Y907727D01*
X788319Y907803D01*
X788237Y907882D01*
X788158Y907964D01*
X788082Y908049D01*
X788009Y908135D01*
X787939Y908225D01*
X787871Y908317D01*
X787808Y908411D01*
X787747Y908507D01*
X787689Y908605D01*
X787635Y908705D01*
X787585Y908807D01*
X787538Y908910D01*
X787494Y909015D01*
X787454Y909122D01*
X787418Y909230D01*
X787385Y909339D01*
X787357Y909449D01*
X787332Y909559D01*
X787310Y909671D01*
X787293Y909784D01*
X787279Y909896D01*
X787270Y910010D01*
X787264Y910123D01*
X787262Y910237D01*
X801458Y906907D02*
X801458Y916898D01*
X806453Y916898D01*
X806453Y915233D01*
X814248Y906907D02*
X818411Y906907D01*
X814248Y906907D02*
X814150Y906909D01*
X814052Y906915D01*
X813954Y906924D01*
X813857Y906938D01*
X813761Y906955D01*
X813665Y906976D01*
X813570Y907001D01*
X813476Y907029D01*
X813383Y907061D01*
X813292Y907097D01*
X813202Y907136D01*
X813114Y907179D01*
X813027Y907226D01*
X812943Y907275D01*
X812860Y907328D01*
X812780Y907384D01*
X812702Y907443D01*
X812626Y907506D01*
X812552Y907571D01*
X812482Y907639D01*
X812414Y907709D01*
X812349Y907783D01*
X812286Y907859D01*
X812227Y907937D01*
X812171Y908017D01*
X812118Y908100D01*
X812069Y908184D01*
X812022Y908271D01*
X811979Y908359D01*
X811940Y908449D01*
X811904Y908540D01*
X811872Y908633D01*
X811844Y908727D01*
X811819Y908822D01*
X811798Y908918D01*
X811781Y909014D01*
X811767Y909111D01*
X811758Y909209D01*
X811752Y909307D01*
X811750Y909405D01*
X811750Y913567D01*
X811751Y913567D02*
X811753Y913681D01*
X811759Y913794D01*
X811768Y913908D01*
X811782Y914020D01*
X811799Y914133D01*
X811821Y914245D01*
X811846Y914355D01*
X811874Y914465D01*
X811907Y914574D01*
X811943Y914682D01*
X811983Y914789D01*
X812027Y914894D01*
X812074Y914997D01*
X812124Y915099D01*
X812178Y915199D01*
X812236Y915297D01*
X812297Y915393D01*
X812360Y915487D01*
X812428Y915579D01*
X812498Y915669D01*
X812571Y915755D01*
X812647Y915840D01*
X812726Y915922D01*
X812808Y916001D01*
X812893Y916077D01*
X812979Y916150D01*
X813069Y916220D01*
X813161Y916288D01*
X813255Y916351D01*
X813351Y916412D01*
X813449Y916470D01*
X813549Y916524D01*
X813651Y916574D01*
X813754Y916621D01*
X813859Y916665D01*
X813966Y916705D01*
X814074Y916741D01*
X814183Y916774D01*
X814293Y916802D01*
X814403Y916827D01*
X814515Y916849D01*
X814628Y916866D01*
X814740Y916880D01*
X814854Y916889D01*
X814967Y916895D01*
X815081Y916897D01*
X815195Y916895D01*
X815308Y916889D01*
X815422Y916880D01*
X815534Y916866D01*
X815647Y916849D01*
X815759Y916827D01*
X815869Y916802D01*
X815979Y916774D01*
X816088Y916741D01*
X816196Y916705D01*
X816303Y916665D01*
X816408Y916621D01*
X816511Y916574D01*
X816613Y916524D01*
X816713Y916470D01*
X816811Y916412D01*
X816907Y916351D01*
X817001Y916288D01*
X817093Y916220D01*
X817183Y916150D01*
X817269Y916077D01*
X817354Y916001D01*
X817436Y915922D01*
X817515Y915840D01*
X817591Y915755D01*
X817664Y915669D01*
X817734Y915579D01*
X817802Y915487D01*
X817865Y915393D01*
X817926Y915297D01*
X817984Y915199D01*
X818038Y915099D01*
X818088Y914997D01*
X818135Y914894D01*
X818179Y914789D01*
X818219Y914682D01*
X818255Y914574D01*
X818288Y914465D01*
X818316Y914355D01*
X818341Y914245D01*
X818363Y914133D01*
X818380Y914020D01*
X818394Y913908D01*
X818403Y913794D01*
X818409Y913681D01*
X818411Y913567D01*
X818411Y911902D01*
X811750Y911902D01*
D11*
X904240Y-2540D02*
X-68580Y-2540D01*
D12*
X936729Y-42D02*
X940059Y-10033D01*
X943390Y-42D01*
X950174Y-4205D02*
X960165Y-4205D01*
X968719Y-4205D02*
X972882Y-5870D01*
X968719Y-4206D02*
X968634Y-4170D01*
X968551Y-4130D01*
X968470Y-4087D01*
X968390Y-4040D01*
X968313Y-3990D01*
X968237Y-3937D01*
X968164Y-3881D01*
X968094Y-3821D01*
X968026Y-3759D01*
X967961Y-3694D01*
X967899Y-3626D01*
X967839Y-3555D01*
X967783Y-3482D01*
X967730Y-3407D01*
X967680Y-3329D01*
X967634Y-3250D01*
X967591Y-3168D01*
X967551Y-3085D01*
X967515Y-3000D01*
X967483Y-2914D01*
X967454Y-2826D01*
X967430Y-2737D01*
X967409Y-2647D01*
X967392Y-2557D01*
X967378Y-2466D01*
X967369Y-2374D01*
X967364Y-2282D01*
X967362Y-2190D01*
X967364Y-2098D01*
X967371Y-2006D01*
X967381Y-1914D01*
X967395Y-1823D01*
X967413Y-1732D01*
X967435Y-1643D01*
X967461Y-1554D01*
X967491Y-1467D01*
X967524Y-1381D01*
X967561Y-1297D01*
X967601Y-1214D01*
X967645Y-1133D01*
X967692Y-1054D01*
X967743Y-977D01*
X967797Y-902D01*
X967854Y-829D01*
X967914Y-759D01*
X967977Y-692D01*
X968043Y-628D01*
X968111Y-566D01*
X968182Y-507D01*
X968256Y-452D01*
X968332Y-399D01*
X968410Y-350D01*
X968490Y-304D01*
X968571Y-262D01*
X968655Y-223D01*
X968740Y-188D01*
X968827Y-157D01*
X968915Y-129D01*
X969004Y-105D01*
X969094Y-85D01*
X969184Y-68D01*
X969276Y-56D01*
X969368Y-47D01*
X969460Y-43D01*
X969552Y-42D01*
X969779Y-48D01*
X970006Y-59D01*
X970233Y-76D01*
X970459Y-99D01*
X970685Y-126D01*
X970910Y-160D01*
X971134Y-198D01*
X971357Y-242D01*
X971579Y-291D01*
X971800Y-346D01*
X972019Y-406D01*
X972237Y-471D01*
X972453Y-542D01*
X972667Y-617D01*
X972880Y-698D01*
X973090Y-784D01*
X973299Y-875D01*
X972882Y-5870D02*
X972967Y-5906D01*
X973050Y-5946D01*
X973131Y-5989D01*
X973211Y-6036D01*
X973288Y-6086D01*
X973364Y-6139D01*
X973437Y-6195D01*
X973507Y-6255D01*
X973575Y-6317D01*
X973640Y-6382D01*
X973702Y-6450D01*
X973762Y-6521D01*
X973818Y-6594D01*
X973871Y-6669D01*
X973921Y-6747D01*
X973967Y-6826D01*
X974010Y-6908D01*
X974050Y-6991D01*
X974086Y-7076D01*
X974118Y-7162D01*
X974147Y-7250D01*
X974171Y-7339D01*
X974192Y-7429D01*
X974209Y-7519D01*
X974223Y-7610D01*
X974232Y-7702D01*
X974237Y-7794D01*
X974239Y-7886D01*
X974237Y-7978D01*
X974230Y-8070D01*
X974220Y-8162D01*
X974206Y-8253D01*
X974188Y-8344D01*
X974166Y-8433D01*
X974140Y-8522D01*
X974110Y-8609D01*
X974077Y-8695D01*
X974040Y-8779D01*
X974000Y-8862D01*
X973956Y-8943D01*
X973909Y-9022D01*
X973858Y-9099D01*
X973804Y-9174D01*
X973747Y-9247D01*
X973687Y-9317D01*
X973624Y-9384D01*
X973558Y-9448D01*
X973490Y-9510D01*
X973419Y-9569D01*
X973345Y-9624D01*
X973269Y-9677D01*
X973191Y-9726D01*
X973111Y-9772D01*
X973030Y-9814D01*
X972946Y-9853D01*
X972861Y-9888D01*
X972774Y-9919D01*
X972686Y-9947D01*
X972597Y-9971D01*
X972507Y-9991D01*
X972417Y-10008D01*
X972325Y-10020D01*
X972233Y-10029D01*
X972141Y-10033D01*
X972049Y-10034D01*
X972049Y-10033D02*
X971715Y-10024D01*
X971382Y-10007D01*
X971049Y-9983D01*
X970716Y-9950D01*
X970385Y-9910D01*
X970054Y-9862D01*
X969725Y-9806D01*
X969397Y-9743D01*
X969071Y-9671D01*
X968747Y-9592D01*
X968424Y-9506D01*
X968104Y-9411D01*
X967786Y-9309D01*
X967470Y-9200D01*
X983542Y-10033D02*
X986872Y-10033D01*
X983542Y-10033D02*
X983444Y-10031D01*
X983346Y-10025D01*
X983248Y-10016D01*
X983151Y-10002D01*
X983055Y-9985D01*
X982959Y-9964D01*
X982864Y-9939D01*
X982770Y-9911D01*
X982677Y-9879D01*
X982586Y-9843D01*
X982496Y-9804D01*
X982408Y-9761D01*
X982321Y-9714D01*
X982237Y-9665D01*
X982154Y-9612D01*
X982074Y-9556D01*
X981996Y-9497D01*
X981920Y-9435D01*
X981846Y-9369D01*
X981776Y-9301D01*
X981708Y-9231D01*
X981643Y-9157D01*
X981580Y-9082D01*
X981521Y-9003D01*
X981465Y-8923D01*
X981412Y-8840D01*
X981363Y-8756D01*
X981316Y-8669D01*
X981273Y-8581D01*
X981234Y-8491D01*
X981198Y-8400D01*
X981166Y-8307D01*
X981138Y-8213D01*
X981113Y-8118D01*
X981092Y-8022D01*
X981075Y-7926D01*
X981061Y-7829D01*
X981052Y-7731D01*
X981046Y-7633D01*
X981044Y-7535D01*
X981044Y-2540D01*
X981046Y-2442D01*
X981052Y-2344D01*
X981061Y-2246D01*
X981075Y-2149D01*
X981092Y-2053D01*
X981113Y-1957D01*
X981138Y-1862D01*
X981166Y-1768D01*
X981198Y-1675D01*
X981234Y-1584D01*
X981273Y-1494D01*
X981316Y-1406D01*
X981363Y-1319D01*
X981412Y-1235D01*
X981465Y-1152D01*
X981521Y-1072D01*
X981580Y-994D01*
X981643Y-918D01*
X981708Y-844D01*
X981776Y-774D01*
X981846Y-706D01*
X981920Y-641D01*
X981996Y-578D01*
X982074Y-519D01*
X982154Y-463D01*
X982237Y-410D01*
X982321Y-361D01*
X982408Y-314D01*
X982496Y-271D01*
X982586Y-232D01*
X982677Y-196D01*
X982770Y-164D01*
X982864Y-136D01*
X982959Y-111D01*
X983055Y-90D01*
X983151Y-73D01*
X983248Y-59D01*
X983346Y-50D01*
X983444Y-44D01*
X983542Y-42D01*
X986872Y-42D01*
X993002Y-3373D02*
X993002Y-6703D01*
X993002Y-3373D02*
X993004Y-3259D01*
X993010Y-3146D01*
X993019Y-3032D01*
X993033Y-2920D01*
X993050Y-2807D01*
X993072Y-2695D01*
X993097Y-2585D01*
X993125Y-2475D01*
X993158Y-2366D01*
X993194Y-2258D01*
X993234Y-2151D01*
X993278Y-2046D01*
X993325Y-1943D01*
X993375Y-1841D01*
X993429Y-1741D01*
X993487Y-1643D01*
X993548Y-1547D01*
X993611Y-1453D01*
X993679Y-1361D01*
X993749Y-1271D01*
X993822Y-1185D01*
X993898Y-1100D01*
X993977Y-1018D01*
X994059Y-939D01*
X994144Y-863D01*
X994230Y-790D01*
X994320Y-720D01*
X994412Y-652D01*
X994506Y-589D01*
X994602Y-528D01*
X994700Y-470D01*
X994800Y-416D01*
X994902Y-366D01*
X995005Y-319D01*
X995110Y-275D01*
X995217Y-235D01*
X995325Y-199D01*
X995434Y-166D01*
X995544Y-138D01*
X995654Y-113D01*
X995766Y-91D01*
X995879Y-74D01*
X995991Y-60D01*
X996105Y-51D01*
X996218Y-45D01*
X996332Y-43D01*
X996446Y-45D01*
X996559Y-51D01*
X996673Y-60D01*
X996785Y-74D01*
X996898Y-91D01*
X997010Y-113D01*
X997120Y-138D01*
X997230Y-166D01*
X997339Y-199D01*
X997447Y-235D01*
X997554Y-275D01*
X997659Y-319D01*
X997762Y-366D01*
X997864Y-416D01*
X997964Y-470D01*
X998062Y-528D01*
X998158Y-589D01*
X998252Y-652D01*
X998344Y-720D01*
X998434Y-790D01*
X998520Y-863D01*
X998605Y-939D01*
X998687Y-1018D01*
X998766Y-1100D01*
X998842Y-1185D01*
X998915Y-1271D01*
X998985Y-1361D01*
X999053Y-1453D01*
X999116Y-1547D01*
X999177Y-1643D01*
X999235Y-1741D01*
X999289Y-1841D01*
X999339Y-1943D01*
X999386Y-2046D01*
X999430Y-2151D01*
X999470Y-2258D01*
X999506Y-2366D01*
X999539Y-2475D01*
X999567Y-2585D01*
X999592Y-2695D01*
X999614Y-2807D01*
X999631Y-2920D01*
X999645Y-3032D01*
X999654Y-3146D01*
X999660Y-3259D01*
X999662Y-3373D01*
X999662Y-6703D01*
X999660Y-6817D01*
X999654Y-6930D01*
X999645Y-7044D01*
X999631Y-7156D01*
X999614Y-7269D01*
X999592Y-7381D01*
X999567Y-7491D01*
X999539Y-7601D01*
X999506Y-7710D01*
X999470Y-7818D01*
X999430Y-7925D01*
X999386Y-8030D01*
X999339Y-8133D01*
X999289Y-8235D01*
X999235Y-8335D01*
X999177Y-8433D01*
X999116Y-8529D01*
X999053Y-8623D01*
X998985Y-8715D01*
X998915Y-8805D01*
X998842Y-8891D01*
X998766Y-8976D01*
X998687Y-9058D01*
X998605Y-9137D01*
X998520Y-9213D01*
X998434Y-9286D01*
X998344Y-9356D01*
X998252Y-9424D01*
X998158Y-9487D01*
X998062Y-9548D01*
X997964Y-9606D01*
X997864Y-9660D01*
X997762Y-9710D01*
X997659Y-9757D01*
X997554Y-9801D01*
X997447Y-9841D01*
X997339Y-9877D01*
X997230Y-9910D01*
X997120Y-9938D01*
X997010Y-9963D01*
X996898Y-9985D01*
X996785Y-10002D01*
X996673Y-10016D01*
X996559Y-10025D01*
X996446Y-10031D01*
X996332Y-10033D01*
X996218Y-10031D01*
X996105Y-10025D01*
X995991Y-10016D01*
X995879Y-10002D01*
X995766Y-9985D01*
X995654Y-9963D01*
X995544Y-9938D01*
X995434Y-9910D01*
X995325Y-9877D01*
X995217Y-9841D01*
X995110Y-9801D01*
X995005Y-9757D01*
X994902Y-9710D01*
X994800Y-9660D01*
X994700Y-9606D01*
X994602Y-9548D01*
X994506Y-9487D01*
X994412Y-9424D01*
X994320Y-9356D01*
X994230Y-9286D01*
X994144Y-9213D01*
X994059Y-9137D01*
X993977Y-9058D01*
X993898Y-8976D01*
X993822Y-8891D01*
X993749Y-8805D01*
X993679Y-8715D01*
X993611Y-8623D01*
X993548Y-8529D01*
X993487Y-8433D01*
X993429Y-8335D01*
X993375Y-8235D01*
X993325Y-8133D01*
X993278Y-8030D01*
X993234Y-7925D01*
X993194Y-7818D01*
X993158Y-7710D01*
X993125Y-7601D01*
X993097Y-7491D01*
X993072Y-7381D01*
X993050Y-7269D01*
X993033Y-7156D01*
X993019Y-7044D01*
X993010Y-6930D01*
X993004Y-6817D01*
X993002Y-6703D01*
X1007198Y-10033D02*
X1007198Y-42D01*
X1012193Y-42D01*
X1012193Y-1707D01*
X1019988Y-10033D02*
X1024151Y-10033D01*
X1019988Y-10033D02*
X1019890Y-10031D01*
X1019792Y-10025D01*
X1019694Y-10016D01*
X1019597Y-10002D01*
X1019501Y-9985D01*
X1019405Y-9964D01*
X1019310Y-9939D01*
X1019216Y-9911D01*
X1019123Y-9879D01*
X1019032Y-9843D01*
X1018942Y-9804D01*
X1018854Y-9761D01*
X1018767Y-9714D01*
X1018683Y-9665D01*
X1018600Y-9612D01*
X1018520Y-9556D01*
X1018442Y-9497D01*
X1018366Y-9435D01*
X1018292Y-9369D01*
X1018222Y-9301D01*
X1018154Y-9231D01*
X1018089Y-9157D01*
X1018026Y-9082D01*
X1017967Y-9003D01*
X1017911Y-8923D01*
X1017858Y-8840D01*
X1017809Y-8756D01*
X1017762Y-8669D01*
X1017719Y-8581D01*
X1017680Y-8491D01*
X1017644Y-8400D01*
X1017612Y-8307D01*
X1017584Y-8213D01*
X1017559Y-8118D01*
X1017538Y-8022D01*
X1017521Y-7926D01*
X1017507Y-7829D01*
X1017498Y-7731D01*
X1017492Y-7633D01*
X1017490Y-7535D01*
X1017490Y-3373D01*
X1017491Y-3373D02*
X1017493Y-3259D01*
X1017499Y-3146D01*
X1017508Y-3032D01*
X1017522Y-2920D01*
X1017539Y-2807D01*
X1017561Y-2695D01*
X1017586Y-2585D01*
X1017614Y-2475D01*
X1017647Y-2366D01*
X1017683Y-2258D01*
X1017723Y-2151D01*
X1017767Y-2046D01*
X1017814Y-1943D01*
X1017864Y-1841D01*
X1017918Y-1741D01*
X1017976Y-1643D01*
X1018037Y-1547D01*
X1018100Y-1453D01*
X1018168Y-1361D01*
X1018238Y-1271D01*
X1018311Y-1185D01*
X1018387Y-1100D01*
X1018466Y-1018D01*
X1018548Y-939D01*
X1018633Y-863D01*
X1018719Y-790D01*
X1018809Y-720D01*
X1018901Y-652D01*
X1018995Y-589D01*
X1019091Y-528D01*
X1019189Y-470D01*
X1019289Y-416D01*
X1019391Y-366D01*
X1019494Y-319D01*
X1019599Y-275D01*
X1019706Y-235D01*
X1019814Y-199D01*
X1019923Y-166D01*
X1020033Y-138D01*
X1020143Y-113D01*
X1020255Y-91D01*
X1020368Y-74D01*
X1020480Y-60D01*
X1020594Y-51D01*
X1020707Y-45D01*
X1020821Y-43D01*
X1020935Y-45D01*
X1021048Y-51D01*
X1021162Y-60D01*
X1021274Y-74D01*
X1021387Y-91D01*
X1021499Y-113D01*
X1021609Y-138D01*
X1021719Y-166D01*
X1021828Y-199D01*
X1021936Y-235D01*
X1022043Y-275D01*
X1022148Y-319D01*
X1022251Y-366D01*
X1022353Y-416D01*
X1022453Y-470D01*
X1022551Y-528D01*
X1022647Y-589D01*
X1022741Y-652D01*
X1022833Y-720D01*
X1022923Y-790D01*
X1023009Y-863D01*
X1023094Y-939D01*
X1023176Y-1018D01*
X1023255Y-1100D01*
X1023331Y-1185D01*
X1023404Y-1271D01*
X1023474Y-1361D01*
X1023542Y-1453D01*
X1023605Y-1547D01*
X1023666Y-1643D01*
X1023724Y-1741D01*
X1023778Y-1841D01*
X1023828Y-1943D01*
X1023875Y-2046D01*
X1023919Y-2151D01*
X1023959Y-2258D01*
X1023995Y-2366D01*
X1024028Y-2475D01*
X1024056Y-2585D01*
X1024081Y-2695D01*
X1024103Y-2807D01*
X1024120Y-2920D01*
X1024134Y-3032D01*
X1024143Y-3146D01*
X1024149Y-3259D01*
X1024151Y-3373D01*
X1024151Y-5038D01*
X1017490Y-5038D01*
D11*
X904240Y408940D02*
X-68580Y408940D01*
D12*
X936729Y411438D02*
X940059Y401447D01*
X943390Y411438D01*
X950174Y407275D02*
X960165Y407275D01*
X968719Y407275D02*
X972882Y405610D01*
X968719Y407274D02*
X968634Y407310D01*
X968551Y407350D01*
X968470Y407393D01*
X968390Y407440D01*
X968313Y407490D01*
X968237Y407543D01*
X968164Y407599D01*
X968094Y407659D01*
X968026Y407721D01*
X967961Y407786D01*
X967899Y407854D01*
X967839Y407925D01*
X967783Y407998D01*
X967730Y408073D01*
X967680Y408151D01*
X967634Y408230D01*
X967591Y408312D01*
X967551Y408395D01*
X967515Y408480D01*
X967483Y408566D01*
X967454Y408654D01*
X967430Y408743D01*
X967409Y408833D01*
X967392Y408923D01*
X967378Y409014D01*
X967369Y409106D01*
X967364Y409198D01*
X967362Y409290D01*
X967364Y409382D01*
X967371Y409474D01*
X967381Y409566D01*
X967395Y409657D01*
X967413Y409748D01*
X967435Y409837D01*
X967461Y409926D01*
X967491Y410013D01*
X967524Y410099D01*
X967561Y410183D01*
X967601Y410266D01*
X967645Y410347D01*
X967692Y410426D01*
X967743Y410503D01*
X967797Y410578D01*
X967854Y410651D01*
X967914Y410721D01*
X967977Y410788D01*
X968043Y410852D01*
X968111Y410914D01*
X968182Y410973D01*
X968256Y411028D01*
X968332Y411081D01*
X968410Y411130D01*
X968490Y411176D01*
X968571Y411218D01*
X968655Y411257D01*
X968740Y411292D01*
X968827Y411323D01*
X968915Y411351D01*
X969004Y411375D01*
X969094Y411395D01*
X969184Y411412D01*
X969276Y411424D01*
X969368Y411433D01*
X969460Y411437D01*
X969552Y411438D01*
X969779Y411432D01*
X970006Y411421D01*
X970233Y411404D01*
X970459Y411381D01*
X970685Y411354D01*
X970910Y411320D01*
X971134Y411282D01*
X971357Y411238D01*
X971579Y411189D01*
X971800Y411134D01*
X972019Y411074D01*
X972237Y411009D01*
X972453Y410938D01*
X972667Y410863D01*
X972880Y410782D01*
X973090Y410696D01*
X973299Y410605D01*
X972882Y405610D02*
X972967Y405574D01*
X973050Y405534D01*
X973131Y405491D01*
X973211Y405444D01*
X973288Y405394D01*
X973364Y405341D01*
X973437Y405285D01*
X973507Y405225D01*
X973575Y405163D01*
X973640Y405098D01*
X973702Y405030D01*
X973762Y404959D01*
X973818Y404886D01*
X973871Y404811D01*
X973921Y404733D01*
X973967Y404654D01*
X974010Y404572D01*
X974050Y404489D01*
X974086Y404404D01*
X974118Y404318D01*
X974147Y404230D01*
X974171Y404141D01*
X974192Y404051D01*
X974209Y403961D01*
X974223Y403870D01*
X974232Y403778D01*
X974237Y403686D01*
X974239Y403594D01*
X974237Y403502D01*
X974230Y403410D01*
X974220Y403318D01*
X974206Y403227D01*
X974188Y403136D01*
X974166Y403047D01*
X974140Y402958D01*
X974110Y402871D01*
X974077Y402785D01*
X974040Y402701D01*
X974000Y402618D01*
X973956Y402537D01*
X973909Y402458D01*
X973858Y402381D01*
X973804Y402306D01*
X973747Y402233D01*
X973687Y402163D01*
X973624Y402096D01*
X973558Y402032D01*
X973490Y401970D01*
X973419Y401911D01*
X973345Y401856D01*
X973269Y401803D01*
X973191Y401754D01*
X973111Y401708D01*
X973030Y401666D01*
X972946Y401627D01*
X972861Y401592D01*
X972774Y401561D01*
X972686Y401533D01*
X972597Y401509D01*
X972507Y401489D01*
X972417Y401472D01*
X972325Y401460D01*
X972233Y401451D01*
X972141Y401447D01*
X972049Y401446D01*
X972049Y401447D02*
X971715Y401456D01*
X971382Y401473D01*
X971049Y401497D01*
X970716Y401530D01*
X970385Y401570D01*
X970054Y401618D01*
X969725Y401674D01*
X969397Y401737D01*
X969071Y401809D01*
X968747Y401888D01*
X968424Y401974D01*
X968104Y402069D01*
X967786Y402171D01*
X967470Y402280D01*
X983542Y401447D02*
X986872Y401447D01*
X983542Y401447D02*
X983444Y401449D01*
X983346Y401455D01*
X983248Y401464D01*
X983151Y401478D01*
X983055Y401495D01*
X982959Y401516D01*
X982864Y401541D01*
X982770Y401569D01*
X982677Y401601D01*
X982586Y401637D01*
X982496Y401676D01*
X982408Y401719D01*
X982321Y401766D01*
X982237Y401815D01*
X982154Y401868D01*
X982074Y401924D01*
X981996Y401983D01*
X981920Y402046D01*
X981846Y402111D01*
X981776Y402179D01*
X981708Y402249D01*
X981643Y402323D01*
X981580Y402399D01*
X981521Y402477D01*
X981465Y402557D01*
X981412Y402640D01*
X981363Y402724D01*
X981316Y402811D01*
X981273Y402899D01*
X981234Y402989D01*
X981198Y403080D01*
X981166Y403173D01*
X981138Y403267D01*
X981113Y403362D01*
X981092Y403458D01*
X981075Y403554D01*
X981061Y403651D01*
X981052Y403749D01*
X981046Y403847D01*
X981044Y403945D01*
X981044Y408940D01*
X981046Y409038D01*
X981052Y409136D01*
X981061Y409234D01*
X981075Y409331D01*
X981092Y409427D01*
X981113Y409523D01*
X981138Y409618D01*
X981166Y409712D01*
X981198Y409805D01*
X981234Y409896D01*
X981273Y409986D01*
X981316Y410074D01*
X981363Y410161D01*
X981412Y410245D01*
X981465Y410328D01*
X981521Y410408D01*
X981580Y410487D01*
X981643Y410562D01*
X981708Y410636D01*
X981776Y410706D01*
X981846Y410774D01*
X981920Y410840D01*
X981996Y410902D01*
X982074Y410961D01*
X982154Y411017D01*
X982237Y411070D01*
X982321Y411120D01*
X982408Y411166D01*
X982496Y411209D01*
X982586Y411248D01*
X982677Y411284D01*
X982770Y411316D01*
X982864Y411344D01*
X982959Y411369D01*
X983055Y411390D01*
X983151Y411407D01*
X983248Y411421D01*
X983346Y411430D01*
X983444Y411436D01*
X983542Y411438D01*
X986872Y411438D01*
X993002Y408107D02*
X993002Y404777D01*
X993002Y408107D02*
X993004Y408221D01*
X993010Y408334D01*
X993019Y408448D01*
X993033Y408560D01*
X993050Y408673D01*
X993072Y408785D01*
X993097Y408895D01*
X993125Y409005D01*
X993158Y409114D01*
X993194Y409222D01*
X993234Y409329D01*
X993278Y409434D01*
X993325Y409537D01*
X993375Y409639D01*
X993429Y409739D01*
X993487Y409837D01*
X993548Y409933D01*
X993611Y410027D01*
X993679Y410119D01*
X993749Y410209D01*
X993822Y410295D01*
X993898Y410380D01*
X993977Y410462D01*
X994059Y410541D01*
X994144Y410617D01*
X994230Y410690D01*
X994320Y410760D01*
X994412Y410828D01*
X994506Y410891D01*
X994602Y410952D01*
X994700Y411010D01*
X994800Y411064D01*
X994902Y411114D01*
X995005Y411161D01*
X995110Y411205D01*
X995217Y411245D01*
X995325Y411281D01*
X995434Y411314D01*
X995544Y411342D01*
X995654Y411367D01*
X995766Y411389D01*
X995879Y411406D01*
X995991Y411420D01*
X996105Y411429D01*
X996218Y411435D01*
X996332Y411437D01*
X996446Y411435D01*
X996559Y411429D01*
X996673Y411420D01*
X996785Y411406D01*
X996898Y411389D01*
X997010Y411367D01*
X997120Y411342D01*
X997230Y411314D01*
X997339Y411281D01*
X997447Y411245D01*
X997554Y411205D01*
X997659Y411161D01*
X997762Y411114D01*
X997864Y411064D01*
X997964Y411010D01*
X998062Y410952D01*
X998158Y410891D01*
X998252Y410828D01*
X998344Y410760D01*
X998434Y410690D01*
X998520Y410617D01*
X998605Y410541D01*
X998687Y410462D01*
X998766Y410380D01*
X998842Y410295D01*
X998915Y410209D01*
X998985Y410119D01*
X999053Y410027D01*
X999116Y409933D01*
X999177Y409837D01*
X999235Y409739D01*
X999289Y409639D01*
X999339Y409537D01*
X999386Y409434D01*
X999430Y409329D01*
X999470Y409222D01*
X999506Y409114D01*
X999539Y409005D01*
X999567Y408895D01*
X999592Y408785D01*
X999614Y408673D01*
X999631Y408560D01*
X999645Y408448D01*
X999654Y408334D01*
X999660Y408221D01*
X999662Y408107D01*
X999662Y404777D01*
X999660Y404663D01*
X999654Y404550D01*
X999645Y404436D01*
X999631Y404324D01*
X999614Y404211D01*
X999592Y404099D01*
X999567Y403989D01*
X999539Y403879D01*
X999506Y403770D01*
X999470Y403662D01*
X999430Y403555D01*
X999386Y403450D01*
X999339Y403347D01*
X999289Y403245D01*
X999235Y403145D01*
X999177Y403047D01*
X999116Y402951D01*
X999053Y402857D01*
X998985Y402765D01*
X998915Y402675D01*
X998842Y402589D01*
X998766Y402504D01*
X998687Y402422D01*
X998605Y402343D01*
X998520Y402267D01*
X998434Y402194D01*
X998344Y402124D01*
X998252Y402056D01*
X998158Y401993D01*
X998062Y401932D01*
X997964Y401874D01*
X997864Y401820D01*
X997762Y401770D01*
X997659Y401723D01*
X997554Y401679D01*
X997447Y401639D01*
X997339Y401603D01*
X997230Y401570D01*
X997120Y401542D01*
X997010Y401517D01*
X996898Y401495D01*
X996785Y401478D01*
X996673Y401464D01*
X996559Y401455D01*
X996446Y401449D01*
X996332Y401447D01*
X996218Y401449D01*
X996105Y401455D01*
X995991Y401464D01*
X995879Y401478D01*
X995766Y401495D01*
X995654Y401517D01*
X995544Y401542D01*
X995434Y401570D01*
X995325Y401603D01*
X995217Y401639D01*
X995110Y401679D01*
X995005Y401723D01*
X994902Y401770D01*
X994800Y401820D01*
X994700Y401874D01*
X994602Y401932D01*
X994506Y401993D01*
X994412Y402056D01*
X994320Y402124D01*
X994230Y402194D01*
X994144Y402267D01*
X994059Y402343D01*
X993977Y402422D01*
X993898Y402504D01*
X993822Y402589D01*
X993749Y402675D01*
X993679Y402765D01*
X993611Y402857D01*
X993548Y402951D01*
X993487Y403047D01*
X993429Y403145D01*
X993375Y403245D01*
X993325Y403347D01*
X993278Y403450D01*
X993234Y403555D01*
X993194Y403662D01*
X993158Y403770D01*
X993125Y403879D01*
X993097Y403989D01*
X993072Y404099D01*
X993050Y404211D01*
X993033Y404324D01*
X993019Y404436D01*
X993010Y404550D01*
X993004Y404663D01*
X993002Y404777D01*
X1007198Y401447D02*
X1007198Y411438D01*
X1012193Y411438D01*
X1012193Y409773D01*
X1019988Y401447D02*
X1024151Y401447D01*
X1019988Y401447D02*
X1019890Y401449D01*
X1019792Y401455D01*
X1019694Y401464D01*
X1019597Y401478D01*
X1019501Y401495D01*
X1019405Y401516D01*
X1019310Y401541D01*
X1019216Y401569D01*
X1019123Y401601D01*
X1019032Y401637D01*
X1018942Y401676D01*
X1018854Y401719D01*
X1018767Y401766D01*
X1018683Y401815D01*
X1018600Y401868D01*
X1018520Y401924D01*
X1018442Y401983D01*
X1018366Y402046D01*
X1018292Y402111D01*
X1018222Y402179D01*
X1018154Y402249D01*
X1018089Y402323D01*
X1018026Y402399D01*
X1017967Y402477D01*
X1017911Y402557D01*
X1017858Y402640D01*
X1017809Y402724D01*
X1017762Y402811D01*
X1017719Y402899D01*
X1017680Y402989D01*
X1017644Y403080D01*
X1017612Y403173D01*
X1017584Y403267D01*
X1017559Y403362D01*
X1017538Y403458D01*
X1017521Y403554D01*
X1017507Y403651D01*
X1017498Y403749D01*
X1017492Y403847D01*
X1017490Y403945D01*
X1017490Y408107D01*
X1017491Y408107D02*
X1017493Y408221D01*
X1017499Y408334D01*
X1017508Y408448D01*
X1017522Y408560D01*
X1017539Y408673D01*
X1017561Y408785D01*
X1017586Y408895D01*
X1017614Y409005D01*
X1017647Y409114D01*
X1017683Y409222D01*
X1017723Y409329D01*
X1017767Y409434D01*
X1017814Y409537D01*
X1017864Y409639D01*
X1017918Y409739D01*
X1017976Y409837D01*
X1018037Y409933D01*
X1018100Y410027D01*
X1018168Y410119D01*
X1018238Y410209D01*
X1018311Y410295D01*
X1018387Y410380D01*
X1018466Y410462D01*
X1018548Y410541D01*
X1018633Y410617D01*
X1018719Y410690D01*
X1018809Y410760D01*
X1018901Y410828D01*
X1018995Y410891D01*
X1019091Y410952D01*
X1019189Y411010D01*
X1019289Y411064D01*
X1019391Y411114D01*
X1019494Y411161D01*
X1019599Y411205D01*
X1019706Y411245D01*
X1019814Y411281D01*
X1019923Y411314D01*
X1020033Y411342D01*
X1020143Y411367D01*
X1020255Y411389D01*
X1020368Y411406D01*
X1020480Y411420D01*
X1020594Y411429D01*
X1020707Y411435D01*
X1020821Y411437D01*
X1020935Y411435D01*
X1021048Y411429D01*
X1021162Y411420D01*
X1021274Y411406D01*
X1021387Y411389D01*
X1021499Y411367D01*
X1021609Y411342D01*
X1021719Y411314D01*
X1021828Y411281D01*
X1021936Y411245D01*
X1022043Y411205D01*
X1022148Y411161D01*
X1022251Y411114D01*
X1022353Y411064D01*
X1022453Y411010D01*
X1022551Y410952D01*
X1022647Y410891D01*
X1022741Y410828D01*
X1022833Y410760D01*
X1022923Y410690D01*
X1023009Y410617D01*
X1023094Y410541D01*
X1023176Y410462D01*
X1023255Y410380D01*
X1023331Y410295D01*
X1023404Y410209D01*
X1023474Y410119D01*
X1023542Y410027D01*
X1023605Y409933D01*
X1023666Y409837D01*
X1023724Y409739D01*
X1023778Y409639D01*
X1023828Y409537D01*
X1023875Y409434D01*
X1023919Y409329D01*
X1023959Y409222D01*
X1023995Y409114D01*
X1024028Y409005D01*
X1024056Y408895D01*
X1024081Y408785D01*
X1024103Y408673D01*
X1024120Y408560D01*
X1024134Y408448D01*
X1024143Y408334D01*
X1024149Y408221D01*
X1024151Y408107D01*
X1024151Y406442D01*
X1017490Y406442D01*
D11*
X904240Y820420D02*
X-68580Y820420D01*
D12*
X936729Y822918D02*
X940059Y812927D01*
X943390Y822918D01*
X950174Y818755D02*
X960165Y818755D01*
X968719Y818755D02*
X972882Y817090D01*
X968719Y818754D02*
X968634Y818790D01*
X968551Y818830D01*
X968470Y818873D01*
X968390Y818920D01*
X968313Y818970D01*
X968237Y819023D01*
X968164Y819079D01*
X968094Y819139D01*
X968026Y819201D01*
X967961Y819266D01*
X967899Y819334D01*
X967839Y819405D01*
X967783Y819478D01*
X967730Y819553D01*
X967680Y819631D01*
X967634Y819710D01*
X967591Y819792D01*
X967551Y819875D01*
X967515Y819960D01*
X967483Y820046D01*
X967454Y820134D01*
X967430Y820223D01*
X967409Y820313D01*
X967392Y820403D01*
X967378Y820494D01*
X967369Y820586D01*
X967364Y820678D01*
X967362Y820770D01*
X967364Y820862D01*
X967371Y820954D01*
X967381Y821046D01*
X967395Y821137D01*
X967413Y821228D01*
X967435Y821317D01*
X967461Y821406D01*
X967491Y821493D01*
X967524Y821579D01*
X967561Y821663D01*
X967601Y821746D01*
X967645Y821827D01*
X967692Y821906D01*
X967743Y821983D01*
X967797Y822058D01*
X967854Y822131D01*
X967914Y822201D01*
X967977Y822268D01*
X968043Y822332D01*
X968111Y822394D01*
X968182Y822453D01*
X968256Y822508D01*
X968332Y822561D01*
X968410Y822610D01*
X968490Y822656D01*
X968571Y822698D01*
X968655Y822737D01*
X968740Y822772D01*
X968827Y822803D01*
X968915Y822831D01*
X969004Y822855D01*
X969094Y822875D01*
X969184Y822892D01*
X969276Y822904D01*
X969368Y822913D01*
X969460Y822917D01*
X969552Y822918D01*
X969779Y822912D01*
X970006Y822901D01*
X970233Y822884D01*
X970459Y822861D01*
X970685Y822834D01*
X970910Y822800D01*
X971134Y822762D01*
X971357Y822718D01*
X971579Y822669D01*
X971800Y822614D01*
X972019Y822554D01*
X972237Y822489D01*
X972453Y822418D01*
X972667Y822343D01*
X972880Y822262D01*
X973090Y822176D01*
X973299Y822085D01*
X972882Y817090D02*
X972967Y817054D01*
X973050Y817014D01*
X973131Y816971D01*
X973211Y816924D01*
X973288Y816874D01*
X973364Y816821D01*
X973437Y816765D01*
X973507Y816705D01*
X973575Y816643D01*
X973640Y816578D01*
X973702Y816510D01*
X973762Y816439D01*
X973818Y816366D01*
X973871Y816291D01*
X973921Y816213D01*
X973967Y816134D01*
X974010Y816052D01*
X974050Y815969D01*
X974086Y815884D01*
X974118Y815798D01*
X974147Y815710D01*
X974171Y815621D01*
X974192Y815531D01*
X974209Y815441D01*
X974223Y815350D01*
X974232Y815258D01*
X974237Y815166D01*
X974239Y815074D01*
X974237Y814982D01*
X974230Y814890D01*
X974220Y814798D01*
X974206Y814707D01*
X974188Y814616D01*
X974166Y814527D01*
X974140Y814438D01*
X974110Y814351D01*
X974077Y814265D01*
X974040Y814181D01*
X974000Y814098D01*
X973956Y814017D01*
X973909Y813938D01*
X973858Y813861D01*
X973804Y813786D01*
X973747Y813713D01*
X973687Y813643D01*
X973624Y813576D01*
X973558Y813512D01*
X973490Y813450D01*
X973419Y813391D01*
X973345Y813336D01*
X973269Y813283D01*
X973191Y813234D01*
X973111Y813188D01*
X973030Y813146D01*
X972946Y813107D01*
X972861Y813072D01*
X972774Y813041D01*
X972686Y813013D01*
X972597Y812989D01*
X972507Y812969D01*
X972417Y812952D01*
X972325Y812940D01*
X972233Y812931D01*
X972141Y812927D01*
X972049Y812926D01*
X972049Y812927D02*
X971715Y812936D01*
X971382Y812953D01*
X971049Y812977D01*
X970716Y813010D01*
X970385Y813050D01*
X970054Y813098D01*
X969725Y813154D01*
X969397Y813217D01*
X969071Y813289D01*
X968747Y813368D01*
X968424Y813454D01*
X968104Y813549D01*
X967786Y813651D01*
X967470Y813760D01*
X983542Y812927D02*
X986872Y812927D01*
X983542Y812927D02*
X983444Y812929D01*
X983346Y812935D01*
X983248Y812944D01*
X983151Y812958D01*
X983055Y812975D01*
X982959Y812996D01*
X982864Y813021D01*
X982770Y813049D01*
X982677Y813081D01*
X982586Y813117D01*
X982496Y813156D01*
X982408Y813199D01*
X982321Y813246D01*
X982237Y813295D01*
X982154Y813348D01*
X982074Y813404D01*
X981996Y813463D01*
X981920Y813526D01*
X981846Y813591D01*
X981776Y813659D01*
X981708Y813729D01*
X981643Y813803D01*
X981580Y813879D01*
X981521Y813957D01*
X981465Y814037D01*
X981412Y814120D01*
X981363Y814204D01*
X981316Y814291D01*
X981273Y814379D01*
X981234Y814469D01*
X981198Y814560D01*
X981166Y814653D01*
X981138Y814747D01*
X981113Y814842D01*
X981092Y814938D01*
X981075Y815034D01*
X981061Y815131D01*
X981052Y815229D01*
X981046Y815327D01*
X981044Y815425D01*
X981044Y820420D01*
X981046Y820518D01*
X981052Y820616D01*
X981061Y820714D01*
X981075Y820811D01*
X981092Y820907D01*
X981113Y821003D01*
X981138Y821098D01*
X981166Y821192D01*
X981198Y821285D01*
X981234Y821376D01*
X981273Y821466D01*
X981316Y821554D01*
X981363Y821641D01*
X981412Y821725D01*
X981465Y821808D01*
X981521Y821888D01*
X981580Y821967D01*
X981643Y822042D01*
X981708Y822116D01*
X981776Y822186D01*
X981846Y822254D01*
X981920Y822320D01*
X981996Y822382D01*
X982074Y822441D01*
X982154Y822497D01*
X982237Y822550D01*
X982321Y822600D01*
X982408Y822646D01*
X982496Y822689D01*
X982586Y822728D01*
X982677Y822764D01*
X982770Y822796D01*
X982864Y822824D01*
X982959Y822849D01*
X983055Y822870D01*
X983151Y822887D01*
X983248Y822901D01*
X983346Y822910D01*
X983444Y822916D01*
X983542Y822918D01*
X986872Y822918D01*
X993002Y819587D02*
X993002Y816257D01*
X993002Y819587D02*
X993004Y819701D01*
X993010Y819814D01*
X993019Y819928D01*
X993033Y820040D01*
X993050Y820153D01*
X993072Y820265D01*
X993097Y820375D01*
X993125Y820485D01*
X993158Y820594D01*
X993194Y820702D01*
X993234Y820809D01*
X993278Y820914D01*
X993325Y821017D01*
X993375Y821119D01*
X993429Y821219D01*
X993487Y821317D01*
X993548Y821413D01*
X993611Y821507D01*
X993679Y821599D01*
X993749Y821689D01*
X993822Y821775D01*
X993898Y821860D01*
X993977Y821942D01*
X994059Y822021D01*
X994144Y822097D01*
X994230Y822170D01*
X994320Y822240D01*
X994412Y822308D01*
X994506Y822371D01*
X994602Y822432D01*
X994700Y822490D01*
X994800Y822544D01*
X994902Y822594D01*
X995005Y822641D01*
X995110Y822685D01*
X995217Y822725D01*
X995325Y822761D01*
X995434Y822794D01*
X995544Y822822D01*
X995654Y822847D01*
X995766Y822869D01*
X995879Y822886D01*
X995991Y822900D01*
X996105Y822909D01*
X996218Y822915D01*
X996332Y822917D01*
X996446Y822915D01*
X996559Y822909D01*
X996673Y822900D01*
X996785Y822886D01*
X996898Y822869D01*
X997010Y822847D01*
X997120Y822822D01*
X997230Y822794D01*
X997339Y822761D01*
X997447Y822725D01*
X997554Y822685D01*
X997659Y822641D01*
X997762Y822594D01*
X997864Y822544D01*
X997964Y822490D01*
X998062Y822432D01*
X998158Y822371D01*
X998252Y822308D01*
X998344Y822240D01*
X998434Y822170D01*
X998520Y822097D01*
X998605Y822021D01*
X998687Y821942D01*
X998766Y821860D01*
X998842Y821775D01*
X998915Y821689D01*
X998985Y821599D01*
X999053Y821507D01*
X999116Y821413D01*
X999177Y821317D01*
X999235Y821219D01*
X999289Y821119D01*
X999339Y821017D01*
X999386Y820914D01*
X999430Y820809D01*
X999470Y820702D01*
X999506Y820594D01*
X999539Y820485D01*
X999567Y820375D01*
X999592Y820265D01*
X999614Y820153D01*
X999631Y820040D01*
X999645Y819928D01*
X999654Y819814D01*
X999660Y819701D01*
X999662Y819587D01*
X999662Y816257D01*
X999660Y816143D01*
X999654Y816030D01*
X999645Y815916D01*
X999631Y815804D01*
X999614Y815691D01*
X999592Y815579D01*
X999567Y815469D01*
X999539Y815359D01*
X999506Y815250D01*
X999470Y815142D01*
X999430Y815035D01*
X999386Y814930D01*
X999339Y814827D01*
X999289Y814725D01*
X999235Y814625D01*
X999177Y814527D01*
X999116Y814431D01*
X999053Y814337D01*
X998985Y814245D01*
X998915Y814155D01*
X998842Y814069D01*
X998766Y813984D01*
X998687Y813902D01*
X998605Y813823D01*
X998520Y813747D01*
X998434Y813674D01*
X998344Y813604D01*
X998252Y813536D01*
X998158Y813473D01*
X998062Y813412D01*
X997964Y813354D01*
X997864Y813300D01*
X997762Y813250D01*
X997659Y813203D01*
X997554Y813159D01*
X997447Y813119D01*
X997339Y813083D01*
X997230Y813050D01*
X997120Y813022D01*
X997010Y812997D01*
X996898Y812975D01*
X996785Y812958D01*
X996673Y812944D01*
X996559Y812935D01*
X996446Y812929D01*
X996332Y812927D01*
X996218Y812929D01*
X996105Y812935D01*
X995991Y812944D01*
X995879Y812958D01*
X995766Y812975D01*
X995654Y812997D01*
X995544Y813022D01*
X995434Y813050D01*
X995325Y813083D01*
X995217Y813119D01*
X995110Y813159D01*
X995005Y813203D01*
X994902Y813250D01*
X994800Y813300D01*
X994700Y813354D01*
X994602Y813412D01*
X994506Y813473D01*
X994412Y813536D01*
X994320Y813604D01*
X994230Y813674D01*
X994144Y813747D01*
X994059Y813823D01*
X993977Y813902D01*
X993898Y813984D01*
X993822Y814069D01*
X993749Y814155D01*
X993679Y814245D01*
X993611Y814337D01*
X993548Y814431D01*
X993487Y814527D01*
X993429Y814625D01*
X993375Y814725D01*
X993325Y814827D01*
X993278Y814930D01*
X993234Y815035D01*
X993194Y815142D01*
X993158Y815250D01*
X993125Y815359D01*
X993097Y815469D01*
X993072Y815579D01*
X993050Y815691D01*
X993033Y815804D01*
X993019Y815916D01*
X993010Y816030D01*
X993004Y816143D01*
X993002Y816257D01*
X1007198Y812927D02*
X1007198Y822918D01*
X1012193Y822918D01*
X1012193Y821253D01*
X1019988Y812927D02*
X1024151Y812927D01*
X1019988Y812927D02*
X1019890Y812929D01*
X1019792Y812935D01*
X1019694Y812944D01*
X1019597Y812958D01*
X1019501Y812975D01*
X1019405Y812996D01*
X1019310Y813021D01*
X1019216Y813049D01*
X1019123Y813081D01*
X1019032Y813117D01*
X1018942Y813156D01*
X1018854Y813199D01*
X1018767Y813246D01*
X1018683Y813295D01*
X1018600Y813348D01*
X1018520Y813404D01*
X1018442Y813463D01*
X1018366Y813526D01*
X1018292Y813591D01*
X1018222Y813659D01*
X1018154Y813729D01*
X1018089Y813803D01*
X1018026Y813879D01*
X1017967Y813957D01*
X1017911Y814037D01*
X1017858Y814120D01*
X1017809Y814204D01*
X1017762Y814291D01*
X1017719Y814379D01*
X1017680Y814469D01*
X1017644Y814560D01*
X1017612Y814653D01*
X1017584Y814747D01*
X1017559Y814842D01*
X1017538Y814938D01*
X1017521Y815034D01*
X1017507Y815131D01*
X1017498Y815229D01*
X1017492Y815327D01*
X1017490Y815425D01*
X1017490Y819587D01*
X1017491Y819587D02*
X1017493Y819701D01*
X1017499Y819814D01*
X1017508Y819928D01*
X1017522Y820040D01*
X1017539Y820153D01*
X1017561Y820265D01*
X1017586Y820375D01*
X1017614Y820485D01*
X1017647Y820594D01*
X1017683Y820702D01*
X1017723Y820809D01*
X1017767Y820914D01*
X1017814Y821017D01*
X1017864Y821119D01*
X1017918Y821219D01*
X1017976Y821317D01*
X1018037Y821413D01*
X1018100Y821507D01*
X1018168Y821599D01*
X1018238Y821689D01*
X1018311Y821775D01*
X1018387Y821860D01*
X1018466Y821942D01*
X1018548Y822021D01*
X1018633Y822097D01*
X1018719Y822170D01*
X1018809Y822240D01*
X1018901Y822308D01*
X1018995Y822371D01*
X1019091Y822432D01*
X1019189Y822490D01*
X1019289Y822544D01*
X1019391Y822594D01*
X1019494Y822641D01*
X1019599Y822685D01*
X1019706Y822725D01*
X1019814Y822761D01*
X1019923Y822794D01*
X1020033Y822822D01*
X1020143Y822847D01*
X1020255Y822869D01*
X1020368Y822886D01*
X1020480Y822900D01*
X1020594Y822909D01*
X1020707Y822915D01*
X1020821Y822917D01*
X1020935Y822915D01*
X1021048Y822909D01*
X1021162Y822900D01*
X1021274Y822886D01*
X1021387Y822869D01*
X1021499Y822847D01*
X1021609Y822822D01*
X1021719Y822794D01*
X1021828Y822761D01*
X1021936Y822725D01*
X1022043Y822685D01*
X1022148Y822641D01*
X1022251Y822594D01*
X1022353Y822544D01*
X1022453Y822490D01*
X1022551Y822432D01*
X1022647Y822371D01*
X1022741Y822308D01*
X1022833Y822240D01*
X1022923Y822170D01*
X1023009Y822097D01*
X1023094Y822021D01*
X1023176Y821942D01*
X1023255Y821860D01*
X1023331Y821775D01*
X1023404Y821689D01*
X1023474Y821599D01*
X1023542Y821507D01*
X1023605Y821413D01*
X1023666Y821317D01*
X1023724Y821219D01*
X1023778Y821119D01*
X1023828Y821017D01*
X1023875Y820914D01*
X1023919Y820809D01*
X1023959Y820702D01*
X1023995Y820594D01*
X1024028Y820485D01*
X1024056Y820375D01*
X1024081Y820265D01*
X1024103Y820153D01*
X1024120Y820040D01*
X1024134Y819928D01*
X1024143Y819814D01*
X1024149Y819701D01*
X1024151Y819587D01*
X1024151Y817922D01*
X1017490Y817922D01*
D13*
X840740Y-5080D02*
X-68580Y-5080D01*
X840740Y-5080D02*
X840740Y-68580D01*
X-68580Y-68580D01*
X-68580Y-5080D01*
X777240Y817880D02*
X840740Y817880D01*
X840740Y0D01*
X777240Y0D01*
X777240Y817880D01*
X840740Y886460D02*
X-68580Y886460D01*
X840740Y886460D02*
X840740Y822960D01*
X-68580Y822960D01*
X-68580Y886460D01*
X-68580Y817880D02*
X-5080Y817880D01*
X-5080Y0D01*
X-68580Y0D01*
X-68580Y817880D01*
M02*
